<svg width="200" height="200" viewBox="0 0 200 200" fill="none" xmlns="http://www.w3.org/2000/svg">
<path d="M127.744 120.823C118.684 115.76 74.6879 81.7825 96.6557 72.8159L96.4664 73.3481C95.4373 73.978 94.4938 74.4853 93.6756 75.3741L93.5852 75.4706C92.9141 76.195 92.5717 77.1249 92.1906 78.0327C97.3143 78.1981 101.685 79.088 106.11 81.8749C110.545 84.6685 110.196 85.1786 115.385 86.5169L114.979 87.4458L112.326 86.6692C115.886 90.5134 117.985 93.5942 119.865 98.5886C120.115 99.2524 120.649 100.618 120.645 101.301C121.117 103.142 121.529 104.646 121.53 106.561L120.443 106.596C120.342 105.458 120.111 104.61 119.843 103.507C118.926 100.382 117.038 95.3536 114.822 92.9405C114.634 93.2524 114.902 94.097 114.994 94.5583L114.029 94.1528C112.109 86.6788 103.886 81.9778 96.7932 80.3698C95.5225 80.0819 93.2422 78.9397 92.2287 79.8702C92.044 81.2495 92.3531 81.8009 93.5795 82.2948L93.709 82.7097L92.9668 82.8964C91.974 85.1601 101.443 97.2229 103.633 99.1696C104.991 100.377 107.612 102.984 108.544 104.346C109.575 100.633 109.197 99.5396 107.433 95.9601L107.606 94.9728C108.465 96.3966 109.123 97.8526 109.948 99.22L109.512 96.089C110.183 96.1165 110.381 95.9878 110.975 95.7179C111.766 99.9038 111.29 101.529 109.854 105.398C111.127 106.556 119.265 113.627 120.329 113.818L120.574 113.462L121.042 113.894C121.085 114.075 121.138 114.297 121.202 114.56C122.984 116.437 126.37 118.319 128.362 119.864C128.489 120.148 128.608 120.435 128.716 120.726C128.272 120.852 128.205 120.853 127.744 120.823Z" fill="#675B49"/>
<path d="M119.843 103.507C120.031 103.712 120.22 103.915 120.411 104.117L120.691 104.018C120.574 103.047 120.48 102.425 120.622 101.453L120.645 101.301C121.117 103.142 121.529 104.646 121.53 106.561L120.443 106.596C120.342 105.458 120.111 104.61 119.843 103.507Z" fill="#675B49"/>
<path d="M115.385 86.5166C126.911 90.634 137.53 96.9441 146.657 105.099C148.648 106.844 151.339 109.252 153.019 111.325L152.998 111.946C152.476 112.112 152.556 111.997 152.312 112.36C150.053 110.256 147.771 107.933 145.408 105.955C136.316 98.3436 126.161 91.4963 114.979 87.4455L115.385 86.5166Z" fill="#675B49"/>
<path d="M174.33 123.712L175.031 123.053C181.494 139.783 162.085 136.302 152.862 133.44L151.747 132.972L152.178 131.736C152.926 131.954 153.345 132.091 154.058 132.402C155.61 132.453 156.95 133.127 158.395 133.416C162.026 134.036 166.47 134.871 170.12 133.921C175.6 132.494 175.465 128.081 174.33 123.712Z" fill="#675B49"/>
<path d="M152.178 131.736C152.926 131.954 153.345 132.092 154.058 132.402C153.87 133.01 153.805 132.941 153.1 133.318C153.021 133.36 152.942 133.401 152.862 133.441L151.747 132.972L152.178 131.736Z" fill="#675B49"/>
<path d="M174.33 123.712C173.909 122.059 172.546 119.257 171.652 117.769C161.241 100.429 143.974 87.1857 125.63 79.0775C124.932 78.7687 123.867 78.9728 123.612 78.257C124.497 78.0291 126.096 78.7297 126.952 79.11C142.63 86.0723 156.808 96.4633 167.349 110.072C170.629 114.306 173.09 118.039 175.031 123.054L174.33 123.712Z" fill="#675B49"/>
<path d="M133.684 123.05C140.662 126.785 144.643 128.923 152.178 131.736L151.747 132.972C147.519 131.458 143.384 129.693 139.364 127.69C137.275 126.623 135.512 125.425 133.342 124.418C133.727 123.861 133.758 123.709 133.684 123.05Z" fill="#675B49"/>
<path d="M153.019 111.325C158.733 117.253 165.927 126.642 167.289 134.776C165.823 132.58 165.351 130.353 164.084 128.022C161.086 122.506 156.759 116.841 152.312 112.361C152.556 111.997 152.476 112.112 152.998 111.946L153.019 111.325Z" fill="#675B49"/>
<path d="M107.86 89.1299C108.798 90.5637 110.963 93.9588 110.975 95.7176C110.381 95.9875 110.183 96.1162 109.512 96.0887C109.172 94.0469 107.563 91.1279 106.39 89.41C106.718 89.5719 106.806 89.5855 107.165 89.6699L107.86 89.1299Z" fill="#675B49"/>
<path d="M100.844 84.2422C102.931 84.8133 106.463 87.4328 107.86 89.1299L107.165 89.6699C106.806 89.5855 106.718 89.5719 106.39 89.41C103.805 86.8057 103.106 86.391 99.8012 84.7203C100.158 84.6764 100.521 84.4258 100.844 84.2422Z" fill="#675B49"/>
<path d="M114.029 94.1528L114.994 94.5583C116.06 97.3284 115.438 104.038 113.714 106.45C113.339 105.945 113.884 104.547 114.059 103.941C115.205 99.972 114.911 97.9954 114.029 94.1528Z" fill="#675B49"/>
<path d="M128.362 119.864C130.148 120.905 131.922 121.968 133.684 123.05C133.758 123.709 133.727 123.861 133.342 124.418C132.143 123.4 129.301 121.913 127.744 120.822C128.205 120.853 128.272 120.852 128.716 120.726C128.608 120.435 128.489 120.148 128.362 119.864Z" fill="#675B49"/>
<path d="M93.5795 82.2947C95.267 82.0084 99.3713 83.4591 100.844 84.2423C100.521 84.4259 100.158 84.6765 99.8012 84.7205C98.0625 83.9949 94.8873 83.3433 93.709 82.7095L93.5795 82.2947Z" fill="#675B49"/>
<path d="M120.659 109.019L121.695 109.098C121.682 110.371 121.756 112.844 121.042 113.894L120.574 113.462C120.557 112.093 120.662 110.476 120.659 109.019Z" fill="#675B49"/>
<path d="M120.443 106.596L121.53 106.561L121.695 109.098L120.659 109.018C120.563 108.415 120.5 107.247 120.443 106.596Z" fill="#675B49"/>
<path d="M107.433 95.9598C106.974 95.4281 106.285 94.7521 106.309 94.0547C106.994 94.1703 107.002 94.384 107.606 94.9725L107.433 95.9598Z" fill="#675B49"/>
<path d="M96.6557 72.8159C97.2562 72.7728 97.8441 72.6589 98.3529 72.9661L98.2914 73.2216C97.6773 73.514 97.148 73.4044 96.4664 73.3482L96.6557 72.8159Z" fill="#675B49"/>
<path d="M71.1068 135.529C68.9191 136.148 56.1367 135.96 53.7338 135.65C44.6777 134.482 33.2539 130.273 29.0197 121.511C28.6568 120.76 27.9646 119.07 28.2568 118.278C28.7191 118.662 29.776 121.563 30.2439 122.315C36.01 131.586 48.1418 134.635 58.3693 135.327C61.9981 135.573 65.8033 135.197 69.4904 135.434L71.1068 135.529Z" fill="#675B49"/>
<path d="M108.26 128.841L108.499 129.136C108.49 129.254 108.482 129.473 108.398 129.571C103.615 135.159 97.532 139.509 90.718 142.268C89.226 142.871 87.9158 143.577 86.3676 143.889L86.2078 143.684C86.5072 143.327 88.6563 142.602 89.3205 142.316C91.2201 141.502 93.0817 140.601 94.8994 139.618C100.629 136.517 103.882 133.461 108.26 128.841Z" fill="#675B49"/>
<path d="M69.4904 135.434C70.617 135.052 74.0684 134.132 75.0941 134.7L74.9322 134.777L74.9107 134.657C74.4705 135.128 71.8473 135.415 71.1068 135.53L69.4904 135.434Z" fill="#675B49"/>
<path d="M77.9197 133.647C78.309 133.77 78.3151 133.746 78.5748 134.043C78.0949 134.362 77.3262 134.389 76.7188 134.466L76.0758 134.293L76.0383 134.089C76.6629 133.733 77.2053 133.727 77.9197 133.647Z" fill="#675B49"/>
<path d="M65.0834 45.0249L65.398 45.3388C65.5646 46.5081 65.5789 49.7524 65.2957 50.8884L64.9486 50.5394C64.6324 48.9212 64.9141 46.695 65.0834 45.0249Z" fill="#675B49"/>
<path d="M100.775 51.4789C101.259 51.393 101.957 51.2432 102.43 51.2266C101.748 51.8729 99.541 53.8234 99.2164 54.5637L99.3709 54.7266C99.9035 54.5613 100.352 54.2004 100.715 54.1018L102.007 54.2787C100.825 54.733 98.5818 55.3396 98.0361 56.2572C97.7859 56.5742 97.6461 56.7086 97.5063 57.0824C94.4734 58.6184 92.1197 59.3059 89.1906 61.732C86.9104 63.6207 85.0393 65.6027 82.6844 67.3686C82.7623 67.6844 82.6777 67.5537 82.9832 67.7449C86.842 65.6406 94.3547 62.6674 98.6947 62.6549C104.573 62.6379 109.844 62.0551 115.301 64.5703C116.615 65.1764 118.317 65.8289 119.384 66.8363C122.191 68.3504 123.874 70.2898 125.867 72.4725C128.426 75.2738 140.799 82.0107 144.032 82.1234L144.831 82.6434L143.955 82.9871L143.824 83.2912C144.743 83.9193 146.021 84.5627 146.787 85.1027C150.564 87.7635 158.371 93.2543 161.087 96.8203L160.92 96.9988C161.095 97.6734 161.861 98.166 162.267 99.2734C161.216 98.6338 159.98 96.5707 158.612 96.325C158.181 96.0686 156.577 94.5635 156.058 94.107C152.336 90.8379 148.578 88.15 144.41 85.4834C132.896 78.116 119.792 72.1684 106.093 70.6443C102.038 70.1932 97.7711 70.0629 93.8711 71.5332C87.3561 74.1227 86.3436 78.2428 87.8414 84.5344L87.3113 85.335C86.1672 81.4484 86.6777 80.5291 86.852 76.9494C83.6395 83.8973 81.7223 88.5389 84.5115 96.0955C91.1211 114.001 116.843 134.116 133.75 141.856C138.707 144.125 143.696 146.239 149.028 147.449C149.313 147.91 149.666 148.519 149.984 148.937C149.035 148.847 146.347 148.054 145.34 147.763C135.631 144.959 126.327 140.236 117.852 134.784C116.019 133.604 113.147 131.78 111.526 130.381C110.338 132.393 107.904 134.769 106.121 136.284C105.349 137.237 104.176 138.13 103.172 138.85C103.177 138.086 103.241 138.392 102.825 137.663C103.186 137.407 104.247 136.338 104.623 135.976C105.827 134.943 109.435 131.17 110.011 129.836C109.611 128.951 100.342 121.347 98.7725 119.59C95.7524 122.932 86.6438 127.501 82.1191 129.125C68.3258 134.074 41.3158 135.737 34.7608 118.981C33.4193 115.552 33.5672 109.048 35.1859 105.684C35.4234 105.964 35.8332 106.416 36.0326 106.698C32.5598 119.973 42.0953 128.69 54.6199 130.394C70.6625 132.576 84.6447 128.057 97.4338 118.424C91.5 112.648 86.0041 105.291 82.6578 97.7266C79.2223 98.2512 74.0065 98.8895 70.4787 99.3037L70.2436 98.9916C69.6734 99.1426 69.8488 99.2969 69.2645 99.1084C69.6201 98.8236 69.8936 98.6447 70.0984 98.2221C72.2772 97.1578 79.7016 96.6887 82.3553 96.8197C81.0016 91.882 81.3275 87.5814 82.2914 82.6674L82.0719 82.465C79.7555 82.2766 73.7055 83.2551 71.2625 84.0619C70.1258 84.4373 69.4611 85.7449 67.0406 86.0342L66.9559 85.9055C67.1604 85.4613 67.3809 85.0693 67.616 84.6432C70.2965 83.4375 72.3246 79.691 73.3549 77.0539C74.6967 73.6197 74.376 71.8885 72.8967 68.6443L73.226 68.0873L73.6594 68.4471C74.9828 69.5479 74.949 70.1631 75.3715 71.8637C79.8961 68.684 87.9129 59.6459 89.6078 54.2543C89.966 54.4184 90.1287 54.5244 90.5154 54.5596L90.5846 54.4018L91.1469 54.043L91.8658 53.4795L92.3332 53.5672C90.458 57.1086 89.7406 58.19 87.2469 61.2652C88.7162 60.3727 90.418 59.0352 91.8766 58.1522C96.0459 55.6285 97.44 55.0189 100.775 51.4789ZM120.099 68.2871C112.17 62.8988 105.358 62.3875 95.8537 63.8316C91.3861 64.5105 87.3465 66.7982 83.3203 68.5459C80.8699 70.2338 78.1313 71.8572 75.5957 73.566C75.3547 75.5801 75.2393 76.3574 74.5813 78.2568C78.959 77.4174 80.433 77.5461 84.6801 77.1588C86.6238 73.9734 89.0451 71.34 92.632 70.0373C101.604 66.7785 117.599 70.4328 126.031 74.3008C124.646 72.7094 120.994 69.5877 120.099 68.2871ZM73.6043 80.5025C73.1863 81.1449 72.2613 82.4305 72.1063 83.1084L72.344 83.1182C75.1941 82.2867 79.6434 81.3514 82.5732 81.2973C82.89 80.7184 83.4592 79.8105 83.534 79.2043C83.3961 79.1084 83.3418 79.0314 83.2199 79.0289C80.3211 79.2436 76.3383 79.5814 73.6043 80.5025Z" fill="#675B49"/>
<path d="M82.959 69.7401C83.1119 69.7323 83.2646 69.7262 83.4176 69.7215C83.9623 69.7057 84.726 69.6674 85.1322 70.0506C84.6725 70.4149 84.0732 70.3942 83.4807 70.4419C82.8916 70.5825 82.2795 70.8221 81.757 70.613C81.9871 70.1411 82.4609 69.9921 82.959 69.7401Z" fill="#675B49"/>
<path d="M82.9832 67.7451C86.842 65.6408 94.3547 62.6676 98.6947 62.6551C104.573 62.6381 109.844 62.0553 115.301 64.5705C116.615 65.1765 118.317 65.8291 119.384 66.8365L119.317 67.2226C119.659 67.5898 119.933 67.8168 120.099 68.2873C112.17 62.899 105.358 62.3877 95.8537 63.8318C91.3861 64.5107 87.3465 66.7984 83.3203 68.5461L82.9832 67.7451Z" fill="#675B49"/>
<path d="M104.623 135.976L104.763 136.47C104.49 136.845 104.437 136.891 104.059 137.161L104.179 137.397L104.066 137.247C105.287 137.238 105.372 135.883 106.121 136.284C105.349 137.237 104.176 138.13 103.172 138.85C103.177 138.086 103.241 138.392 102.825 137.663C103.186 137.407 104.247 136.338 104.623 135.976Z" fill="#675B49"/>
<path d="M59.4213 74.3579L60.2408 74.97C58.3772 77.511 55.2646 79.878 55.6977 83.2985C55.8781 84.7241 56.9293 85.6987 58.1789 86.2548C61.7715 85.7394 60.3998 85.9729 62.8508 87.5931C62.2971 87.6394 62.0187 87.6372 61.492 87.8538C61.3508 87.7724 61.2238 87.7013 61.0781 87.6263L60.9078 87.5397C59.8277 86.9833 59.0398 87.6021 57.8383 87.3733C56.8523 87.1858 56.4992 86.4163 55.424 86.0511C54.8271 86.152 54.4947 86.6058 54.0412 87.0554L53.5449 86.1212C49.7879 86.7353 38.9242 94.9759 36.0311 97.7651C22.8066 110.515 19.3497 131.33 36.0395 142.93C43.9211 148.408 53.7805 150.324 63.2752 150.571C65.4877 150.607 67.7939 150.323 69.8732 150.387C69.5049 150.69 69.1887 150.679 68.7352 150.737L69.5934 150.873L69.6617 151.13L68.8975 151.223L68.7756 151.56C61.5598 152.823 51.1756 151.113 44.0727 149.017C25.9713 143.675 18.4501 126.926 25.3152 109.516C29.1879 99.6944 39.2598 91.0548 48.7971 86.364C49.5262 86.0509 49.7934 86.0847 50.175 85.5333C49.6307 85.3337 49.1725 85.5733 48.5867 85.7614C46.1766 86.5401 44.4006 87.4446 42.2055 88.1884L41.9598 87.3765C42.7553 86.9378 43.3553 86.9353 44.174 86.3954L44.1646 86.1487L43.6965 85.946L43.3055 85.3056C45.2996 85.2163 52.3391 84.2267 54.0445 83.5003C54.3725 83.1642 54.7111 80.9606 54.8525 80.2808C52.326 81.8419 50.6041 82.7151 47.6215 83.2026C44.6994 83.6802 38.149 83.7868 37.6135 79.897L38.025 80.4034C38.2512 80.3624 38.3963 80.3538 38.6064 80.262C39.9998 81.8669 42.5934 82.2806 44.6201 82.1653C50.5289 81.8294 55.5066 78.622 59.4213 74.3579Z" fill="#675B49"/>
<path d="M29.443 80.3041C27.368 77.2332 25.5365 74.0687 22.0883 72.433C20.4312 71.6469 18.7128 71.3498 16.9038 71.9279C15.2655 72.4514 15.9189 73.6021 15.3425 74.8043C15.0265 74.5496 15.0145 74.3648 14.8928 73.9834C14.136 71.6119 17.2506 70.958 18.7003 70.5469C25.2119 72.3098 26.9527 74.9549 30.5955 80.3949C30.7977 80.6969 31.2143 80.9115 31.568 80.9832C31.7793 80.0131 29.7467 77.6248 29.7215 76.6316C34.8049 79.0504 28.2488 84.593 43.3055 85.3055L43.6965 85.9459C40.4744 86.4973 32.9535 84.2676 31.4357 86.4811C29.4039 89.4443 31.2951 88.7029 26.3514 90.7631C27.0908 90.0143 30.3363 87.049 30.6816 86.4713L30.6436 86.1621C30.1037 86.1164 29.7986 86.5012 29.3998 86.8867C27.95 87.5496 26.7879 89.0785 25.6764 89.7254L24.7617 89.4057C26.4256 88.0684 26.8779 87.9873 28.3031 86.2951C26.5758 86.9975 25.7461 87.8742 23.8467 88.2439C23.0594 88.4424 21.7436 88.8061 20.9617 88.8611C17.3321 89.1174 11.2058 87.5637 10.0203 83.6811C9.79433 82.9408 10.5891 82.2994 10.6565 81.5394C9.51082 78.5352 12.3805 76.6824 14.914 76.033C17.5879 75.3191 22.7625 75.7352 25.3131 77.3668C26.6523 78.2234 27.9182 79.3969 29.443 80.3041ZM24.6982 78.8561C25.4561 79.3209 26.2441 79.7078 26.7082 80.4625L26.7953 80.6316C27.6371 82.2389 28.8992 82.376 29.1896 83.333C28.5736 84.4973 26.4049 84.7334 26.1154 86.0303C26.3102 86.0201 26.4012 86.0426 26.559 85.9684C29.0498 86.0576 29.2537 85.4348 31.6777 84.8988C32.525 84.7115 34.0758 84.5111 34.9961 84.3721C31.7971 82.4344 30.4992 81.7121 27.1264 80.1266C26.2908 79.0537 26.0553 78.7975 24.8549 78.1475C22.0937 76.1945 14.3415 75.5465 12.0677 78.6617C11.006 80.0725 11.9062 81.6607 11.0378 83.1195C10.7804 83.5519 11.9014 85.0752 12.2603 85.3596C15.2156 87.7025 18.7887 88.5701 22.4096 87.7904C22.7178 87.7508 23.0258 87.708 23.3332 87.6619C24.207 87.5297 24.5182 87.4965 25.0113 86.826C24.683 86.6475 24.2418 86.6014 23.8654 86.5344L23.8123 86.2537C24.7016 85.3852 27.4779 84.1115 28.1543 83.4002L28.0898 83.023C27.3254 82.6072 24.7721 79.8406 24.4535 79.2154L24.6982 78.8561Z" fill="#675B49"/>
<path d="M24.8549 78.1475C26.0553 78.7975 26.2908 79.0537 27.1264 80.1266L26.7082 80.4625C26.2441 79.7078 25.4561 79.3209 24.6982 78.8561C24.8158 78.5645 24.8092 78.4564 24.8549 78.1475Z" fill="#675B49"/>
<path d="M24.6982 78.856C25.4561 79.3208 26.2441 79.7077 26.7082 80.4624L26.7953 80.6315C27.6371 82.2388 28.8992 82.3759 29.1897 83.3329C28.5736 84.4972 26.4049 84.7333 26.1154 86.0302C26.3102 86.02 26.4012 86.0425 26.559 85.9683C27.5973 86.2345 28.8232 86.1222 29.201 86.4106L29.3998 86.8866C27.95 87.5495 26.7879 89.0784 25.6764 89.7253L24.7617 89.4056C26.4256 88.0683 26.8779 87.9872 28.3031 86.295C26.5758 86.9974 25.7461 87.8741 23.8467 88.2438L22.4096 87.7903C22.7178 87.7507 23.0258 87.7079 23.3332 87.6618C24.207 87.5296 24.5182 87.4964 25.0113 86.8259C24.683 86.6474 24.2418 86.6013 23.8654 86.5343L23.8123 86.2536C24.7016 85.3851 27.4779 84.1114 28.1543 83.4001L28.0899 83.0229C27.3254 82.6071 24.7721 79.8405 24.4535 79.2153L24.6982 78.856Z" fill="#675B49"/>
<path d="M104.23 31.4067L104.33 31.5079C104.443 32.4185 101.254 35.8327 100.384 37.3872L100.108 37.0843C100.251 35.7269 103.212 32.5567 104.23 31.4067Z" fill="#675B49"/>
<path d="M170.76 110.399C171.564 110.052 171.441 109.959 172.296 110.352C172.794 110.928 173.75 111.966 173.93 112.673C181.269 123.766 184.038 138.151 171.401 146.76C166.414 150.158 158.654 150.718 152.87 149.488C152.565 149.423 152.261 149.354 151.958 149.281C152.058 148.848 152.1 148.592 152.148 148.149C156.615 149.157 163.924 148.793 168.167 146.759C172.873 144.503 175.868 140.856 177.757 136.078C181.018 127.835 177.01 122.028 173.734 114.857C172.805 113.814 172.157 111.937 170.76 110.399Z" fill="#675B49"/>
<path d="M170.76 110.399C171.564 110.052 171.441 109.959 172.296 110.352C172.794 110.928 173.75 111.966 173.93 112.673C173.539 112.534 173.37 112.402 173.056 112.132L172.776 112.29C172.899 113.325 173.856 114.024 173.818 114.767L173.734 114.857C172.805 113.814 172.157 111.937 170.76 110.399Z" fill="#675B49"/>
<path d="M87.8414 84.5342C94.5906 103.423 124.371 124.773 142.232 133.158C149.689 136.658 159.358 140.43 167.638 140.099C169.09 140.041 170.812 140.15 172.18 139.632C172.803 139.396 173.233 139.167 173.898 139.182L174.028 139.426C173.244 140.267 168.266 141.023 167.044 140.963C145 139.876 120.366 122.312 104.534 108.152C98.3471 102.619 89.542 92.5623 87.3113 85.3348L87.8414 84.5342Z" fill="#675B49"/>
<path d="M89.3617 43.3794C86.6305 40.8489 86.2152 35.5548 87.2682 32.2028C87.6996 30.829 87.85 29.2321 89.1861 28.4146L89.384 28.4813C90.8514 35.0294 93.1555 33.6704 90.4674 42.3989C90.4693 42.9585 90.4519 43.5147 90.5291 44.0675C90.3916 44.3923 90.2226 44.8349 90.0537 45.1312L89.3617 43.3794ZM90.2422 40.7751C91.1041 39.1925 91.0197 36.1056 90.5101 34.3696C90.0346 32.7493 89.2551 31.5733 88.7828 30.1218C87.309 34.4981 86.5787 38.77 89.6115 42.8157C89.8058 41.9413 89.8773 41.5837 90.2422 40.7751Z" fill="#675B49"/>
<path d="M90.2422 40.7754C90.3275 41.2875 90.4492 41.8883 90.4674 42.3992C90.4693 42.9588 90.452 43.515 90.5291 44.0678C90.3916 44.3926 90.2227 44.8352 90.0537 45.1314L89.3617 43.3797L89.6115 42.816C89.8059 41.9416 89.8773 41.584 90.2422 40.7754Z" fill="#675B49"/>
<path d="M100.775 51.4788C112.092 41.7695 120.943 46.9081 131.11 55.7283C131.486 56.0542 131.589 56.4181 131.588 56.8843C131.049 56.9509 129.452 55.5181 128.612 55.2241C122.297 53.0126 119.731 57.2368 114.585 58.955C114.042 58.8439 113.902 58.6374 113.497 58.255C116.813 57.473 120.075 54.3701 123.825 53.9839C125.461 53.8154 124.526 53.056 126.914 53.6763L127.012 53.5249C126.184 51.6294 117.684 47.6396 115.23 47.3445C109.351 46.6374 106.964 47.8898 102.43 51.2265C101.957 51.2431 101.259 51.3929 100.775 51.4788Z" fill="#675B49"/>
<path d="M36.5531 36.2557C36.7174 35.9832 36.8906 35.716 37.0721 35.4547C38.1033 33.9484 38.9695 33.1883 40.7752 32.8428C41.1693 33.0752 41.5695 33.2576 41.8393 33.6141C39.2383 34.3146 38.8365 34.4256 37.4617 36.832C37.3986 36.9414 37.3375 37.052 37.2785 37.1635C33.998 38.0523 32.0029 39.6783 32.9627 43.3461C33.1975 44.2432 34.2445 45.9195 34.1141 46.7121C31.4512 47.8098 31.7228 48.2393 30.7945 50.9486C32.1385 56.9199 34.2576 60.2766 40.4637 62.0867C40.3559 62.3496 40.2018 62.765 40.0641 62.9934L39.8881 63.0551C39.5375 62.6529 36.8061 61.6287 35.8559 61.0621C33.1168 59.3934 31.1391 56.7195 30.3453 53.6119C29.3518 49.6436 30.3471 48.7102 32.398 45.6809C32.4174 45.6521 32.1123 43.1842 32.041 42.7455C31.4807 39.2889 33.0811 37.0381 36.5531 36.2557Z" fill="#675B49"/>
<path d="M99.7891 139.893C100.815 139.169 101.827 138.425 102.825 137.663C103.241 138.392 103.177 138.086 103.172 138.85C102.099 139.67 100.94 140.593 99.8164 141.321C92.3188 145.923 85.5955 148.665 76.8922 150.447C74.2109 150.996 71.2881 151.086 68.7756 151.56L68.8975 151.223L69.6617 151.129L69.5934 150.873L68.7352 150.737C69.1887 150.679 69.5049 150.69 69.8733 150.387C70.8537 150.103 72.9666 149.943 74.1459 149.747C83.0168 148.272 92.6045 145.551 99.7891 139.893Z" fill="#675B49"/>
<path d="M18.412 123.897C16.3819 125.2 14.7612 125.486 12.8642 123.463C11.8221 122.352 11.5593 119.411 11.7641 117.917C12.8592 109.926 19.5245 102.38 25.5318 97.4863L26.35 98.1941C22.1076 101.846 17.6327 106.21 14.9803 111.183C13.7025 113.579 11.7835 118.253 12.7238 120.931C13.4351 122.956 14.3231 123.404 16.0455 124.273C18.6501 122.848 17.6744 121.567 18.736 121.122C19.3775 122.246 18.8948 122.807 18.412 123.897Z" fill="#675B49"/>
<path d="M53.5449 86.1211L54.0412 87.0553C49.1807 91.6238 45.0215 97.3719 44.5482 104.331C44.4338 106.015 45.3355 108.255 45.1049 108.862C44.6094 108.6 44.2053 107.728 44.0871 107.204C42.6379 100.777 46.4822 95.0195 49.7523 90.1102C44.8822 93.6828 42.4447 95.5094 38.7803 100.555L38.5193 99.4281C40.5262 96.4176 43.5803 93.6828 46.576 91.6559C48.0943 90.6287 53.0984 87.7396 53.5449 86.1211Z" fill="#675B49"/>
<path d="M41.9236 32.6548C49.0098 32.1757 53.6754 35.5577 57.2791 41.452C57.6594 41.4774 57.4937 41.52 57.8035 41.3755L58.3018 41.7851L58.4687 41.462C58.6066 42.9118 58.9029 44.3421 59.3518 45.7276C58.6512 46.2419 58.9736 46.1503 58.1477 46.1032C55.7289 39.272 49.4168 33.6538 41.9478 33.5878L41.8393 33.6138C41.5695 33.2573 41.1693 33.0749 40.7752 32.8425L41.9236 32.6548Z" fill="#675B49"/>
<path d="M40.7752 32.8425L41.9236 32.6548L44.4371 33.1017C43.9088 33.1919 42.3709 33.4181 41.9478 33.5878L41.8393 33.6138C41.5695 33.2573 41.1693 33.0749 40.7752 32.8425Z" fill="#675B49"/>
<path d="M64.6131 60.5454L64.6799 60.6702C64.9822 61.2452 65.1617 62.002 65.5123 62.2987C65.8799 61.969 65.7697 62.1349 65.8885 61.631L66.274 61.5544L66.4684 61.1183L66.6932 61.3181C66.5467 61.9103 66.4238 61.9681 66.6221 62.4573C66.8527 62.6317 67.2535 62.9079 67.4123 63.1212C67.0438 63.8628 66.574 64.7472 66.2598 65.4979C65.5934 65.9042 64.2402 66.486 63.9326 66.9011L63.9895 67.5757L63.6756 67.8163L63.4059 67.7144C63.4656 67.3575 63.5551 66.9237 63.5592 66.5688L63.3838 66.4513C61.8678 67.02 60.0168 69.1938 58.9869 69.4665L58.8912 69.2884L59.557 68.186L59.4457 67.9872C59.1398 68.028 58.8344 68.0378 58.5709 68.1856L58.0244 67.8011C59.3314 67.2417 60.3053 67.7921 61.073 66.4464L61.2158 66.1683C61.6092 66.2304 61.6934 66.1847 62.0898 66.0901L62.1418 65.8114C61.4367 65.0501 60.7959 64.895 59.8156 64.7972C60.6742 64.7427 60.8857 64.6099 61.5467 64.0511L61.3266 63.597C60.7289 63.2651 60.0373 62.8276 59.3783 62.6985L59.5652 61.7675C60.5168 62.2948 61.184 62.7179 62.2525 62.9866L62.4174 62.8329C62.0842 62.3661 62.0311 62.3034 61.5631 61.9737L62.2031 61.6511L62.3262 61.1927L62.9611 60.6552L63.4691 61.4382L63.7783 61.4661L63.9352 61.1958C64.3371 60.9696 64.3441 60.9341 64.6131 60.5454Z" fill="#675B49"/>
<path d="M151.529 69.694C149.146 68.7132 144.525 68.2497 144.812 72.3178C144.848 72.8264 145.646 73.2636 145.727 74.1085C144.908 74.2274 143.882 72.9319 143.856 72.0835C143.725 67.7858 149.879 66.8649 152.539 69.335C155.498 72.1149 154.531 76.8569 151.98 79.5969C150.478 81.2106 147.085 83.1854 144.831 82.6432L144.032 82.1233C150.388 80.921 156.508 76.4561 151.529 69.694Z" fill="#675B49"/>
<path d="M63.0775 26.422C65.6139 24.6202 70.5709 23.338 72.6129 26.44C73.2983 27.481 73.2207 28.6472 73.2543 29.838C77.5205 32.9222 77.2127 38.3367 75.0773 42.5958L74.7027 41.8642C75.8016 38.8212 76.2244 33.3429 73.393 31.1538C73.0943 30.923 72.7133 30.6691 72.3971 30.4568L72.1996 27.5829L70.7488 25.9099C67.5902 25.2714 66.0441 25.7025 63.2856 27.3058L63.0775 26.422Z" fill="#675B49"/>
<path d="M84.4801 50.8008C85.4598 51.0787 85.0875 51.1242 85.9426 50.6631C85.1818 51.9232 84.4231 52.8262 83.4988 53.9707C84.4564 56.8562 83.9156 58.5971 82.6701 61.3223C82.0539 62.6701 80.3129 65.0639 79.0609 65.8002L78.3742 65.0635C79.7162 62.7914 82.3117 60.0199 82.2715 57.2883C82.2139 53.3969 81.0004 53.4688 84.4801 50.8008Z" fill="#675B49"/>
<path d="M158.612 96.3252C159.98 96.5709 161.216 98.634 162.267 99.2736C161.861 98.1662 161.095 97.6736 160.92 96.999L161.087 96.8205C162.796 98.1361 172.289 108.703 172.296 110.353C171.441 109.959 171.564 110.053 170.76 110.399C168.551 106.261 161.908 99.6822 158.612 96.3252Z" fill="#675B49"/>
<path d="M61.9477 101.741C60.9949 102.223 59.316 102.829 58.2812 103.236C52.3115 105.582 47.3219 108.941 42.6832 113.339C41.9031 114.079 39.7363 117.402 39.1117 117.705C39.0867 117.375 39.1262 117.3 39.2941 116.983C43.0193 109.938 54.3623 103.351 61.6266 100.684C61.7455 101.019 61.899 101.397 61.9477 101.741Z" fill="#675B49"/>
<path d="M52.3611 47.6309C53.0697 48.2803 53.9734 48.9012 54.8238 49.3994C56.3773 50.3094 55.3762 50.8689 55.7353 52.0242C56.4732 54.3965 60.2504 60.5156 62.2031 61.651L61.5631 61.9736C60.1111 61.267 58.2441 59.374 56.7365 58.4687C55.4143 57.6746 54.6658 58.1812 53.9732 57.1236C53.9652 56.2275 53.8314 56.4477 54.3189 55.8791C55.6791 56.0422 56.2971 57.4543 57.2156 58.2447C57.4434 58.4406 58.4676 58.9268 58.7664 59.0686C58.3041 58.3828 57.384 57.2156 57.0664 56.5188C55.6619 53.4381 53.9514 50.5941 52.3611 47.6309Z" fill="#675B49"/>
<path d="M41.9598 87.3765L42.2055 88.1884C36.7643 91.1786 31.1115 94.1308 26.35 98.194L25.5318 97.4862C26.6983 96.6222 27.7832 95.5796 29.0074 94.7308C33.1719 91.8431 37.3326 89.4247 41.9598 87.3765Z" fill="#675B49"/>
<path d="M94.7144 43.1092C95.2635 35.0189 99.757 29.1006 107.56 26.6455C108.007 26.7221 108.804 26.882 109.226 26.9213C104.337 28.7402 99.6609 31.0037 97.3812 35.9977C95.8252 39.4064 96.0393 40.4879 95.4238 43.7746L94.9094 44.8666C94.7543 44.3951 94.7463 43.6281 94.7144 43.1092Z" fill="#675B49"/>
<path d="M109.006 28.2949L109.404 28.9377C108.107 30.8426 107.467 32.7281 106.86 34.9512C105.637 39.4219 102.599 43.2492 98.4932 45.5496L97.6076 45.1998C102.36 41.7047 104.598 39.5133 106.263 33.7283C106.783 31.9217 107.822 29.7697 109.006 28.2949Z" fill="#675B49"/>
<path d="M74.7027 41.8643L75.0773 42.5959L75.0268 43.1764L75.3029 43.2729L75.5975 43.0307C76.3959 43.1057 76.7584 43.1518 77.5523 43.0654C72.0537 46.3891 70.0053 51.9686 68.6145 57.9855L68.4463 56.7727C68.7109 56.2127 68.8234 55.042 69.048 54.3002C69.5811 52.5385 70.1691 50.1936 70.8971 48.5264C72.1209 45.7234 73.5629 44.9207 74.7027 41.8643Z" fill="#675B49"/>
<path d="M107.56 26.6454C112.159 24.7708 113 24.627 118.047 25.4936C115.304 25.8061 113.393 25.6095 111.072 27.4005C110.685 27.6989 109.524 28.8565 109.404 28.9376L109.006 28.2948C109.447 27.8061 109.63 27.5688 109.996 27.0218L109.881 26.8137L109.226 26.9212C108.804 26.8819 108.007 26.722 107.56 26.6454Z" fill="#675B49"/>
<path d="M73.6301 67.3453C75.7678 66.8457 76.7051 66.4582 78.3742 65.0635L79.0609 65.8002C77.7006 66.8443 76.7021 67.4266 75.0066 67.8664C74.4635 68.0072 74.0117 67.9596 73.6594 68.4471L73.226 68.0873L72.8967 68.6443C71.7836 67.3461 68.7588 66.8621 67.7551 65.8807C68.858 65.4715 72.4971 66.9285 73.6301 67.3453Z" fill="#675B49"/>
<path d="M100.715 54.1019C105.521 51.9137 110.935 51.5131 116.027 51.9596C117.35 52.0756 118.862 51.4588 120.309 51.7068L120.524 51.8971C119.738 52.484 116.031 52.3275 114.752 52.3068C110.411 52.2365 106.096 52.7496 102.007 54.2789L100.715 54.1019Z" fill="#675B49"/>
<path d="M25.6764 89.7255C23.7496 90.62 22.2699 92.0458 19.7008 92.2515C18.3995 92.3558 13.3088 92.2696 13.4593 89.7329C13.4724 89.5124 13.4978 89.581 13.6799 89.3911C14.4159 89.6362 14.396 89.8706 14.9691 90.6044C18.437 92.2315 21.7435 91.6423 24.7617 89.4058L25.6764 89.7255Z" fill="#675B49"/>
<path d="M61.6266 100.684C64.5816 99.5315 67.0496 98.9608 70.0984 98.2222C69.8935 98.6448 69.6201 98.8237 69.2644 99.1085C69.8488 99.297 69.6734 99.1427 70.2435 98.9917L70.4787 99.3038C67.7023 100.144 64.7035 100.83 61.9476 101.741C61.899 101.397 61.7455 101.019 61.6266 100.684Z" fill="#675B49"/>
<path d="M63.0775 26.4219L63.2855 27.3057C60.5457 29.6826 58.9877 32.2031 58.4314 35.8693L57.5838 35.4621C58.3543 31.7883 59.5967 28.3885 63.0775 26.4219Z" fill="#675B49"/>
<path d="M49.4978 62.3153C50.0723 62.3808 50.3461 62.2925 50.8793 62.1304C51.9092 62.3972 52.7896 63.2296 53.7312 63.372C55.3912 63.6233 57.2412 63.8894 58.9117 63.9745C59.2273 63.9905 61.3459 64.0673 61.5467 64.0509C60.8857 64.6097 60.6742 64.7425 59.8156 64.797C58.4623 64.8489 52.2109 63.7218 50.4252 63.5995C50.1713 63.5821 49.2002 63.0704 48.9498 62.9237L49.4978 62.3153Z" fill="#675B49"/>
<path d="M94.7145 43.1094C94.7463 43.6283 94.7543 44.3953 94.9094 44.8668L95.4238 43.7748C95.4801 44.4855 95.4184 45.7775 95.7125 46.2305C96.3754 46.11 96.967 45.5557 97.6076 45.2L98.4932 45.5498C97.4078 46.2215 96.6342 46.7994 95.707 47.6875C95.2856 48.0912 94.9123 48.7928 94.6391 49.0516C94.1861 49.202 93.7211 49.4164 93.2697 49.3469C93.3145 48.2119 94.4859 45.5281 94.7145 43.1094Z" fill="#675B49"/>
<path d="M40.4637 62.0866C43.2715 62.2038 47.0553 61.6161 49.4978 62.3155L48.9498 62.9239C44.7426 62.6135 43.9934 62.7565 40.0967 64.1516C40.198 63.928 40.2812 63.6411 40.36 63.4032L40.0641 62.9932C40.2018 62.7649 40.3559 62.3495 40.4637 62.0866Z" fill="#675B49"/>
<path d="M66.5705 55.4155C66 54.519 65.2629 53.7457 66.2283 52.9268C66.9916 52.8153 67.3506 53.0717 67.7578 53.6752C67.2463 55.326 66.2271 59.4975 66.4684 61.1182L66.274 61.5543L65.8885 61.6309C65.3857 59.093 65.8916 57.9145 66.5705 55.4155Z" fill="#675B49"/>
<path d="M105.769 58.6791C108.502 58.8666 110.846 58.9564 113.497 58.2549C113.902 58.6373 114.042 58.8438 114.585 58.9549C111.656 59.8342 108.248 60.2867 105.251 59.4486L105.769 58.6791Z" fill="#675B49"/>
<path d="M62.3262 61.1928C61.5402 60.4127 58.5865 54.5483 58.5996 53.4764C59.2398 53.0854 59.5764 53.2115 60.4164 53.1889L60.7178 53.5119C60.441 54.783 59.8693 55.0078 60.4262 56.3209C61.0791 57.8598 62.0504 59.2746 62.9611 60.6553L62.3262 61.1928Z" fill="#675B49"/>
<path d="M49.5736 57.7432C49.1732 57.3682 48.7281 57.05 48.5855 56.5482C48.9488 56.1715 49.2326 55.8738 49.5656 55.4619C51.1139 55.5783 51.0328 57.1465 52.006 57.8156C53.2775 58.6896 54.1062 58.9211 55.3598 60.0191L55.3793 60.7027C52.7715 59.2512 52.6613 58.5023 49.5736 57.7432Z" fill="#675B49"/>
<path d="M90.5291 44.0674C92.042 49.0881 91.1434 49.8107 90.5846 54.4016L90.5154 54.5594C90.1287 54.5242 89.966 54.4182 89.6078 54.2541C90.6793 50.2979 91.0502 49.1912 90.0537 45.1311C90.2227 44.8348 90.3916 44.3922 90.5291 44.0674Z" fill="#675B49"/>
<path d="M38.5193 99.4282L38.7803 100.555C38.0326 101.923 36.4633 105.233 36.0326 106.698C35.8332 106.416 35.4234 105.964 35.1859 105.684C36.0953 103.334 37.0373 101.46 38.5193 99.4282Z" fill="#675B49"/>
<path d="M55.3598 60.0195C55.8152 60.157 59.8709 61.7922 59.5652 61.7676L59.3783 62.6986C58.5381 63.4703 57.9789 63.2545 56.9365 62.9545C56.0408 62.6967 54.4859 62.358 53.8453 61.7076L53.9818 61.2566C55.1266 60.7213 56.4064 62.3777 58.151 62.7613C58.7461 62.6277 58.542 62.7652 58.901 62.224C58.4514 61.6932 56.1064 60.8004 55.3793 60.7031L55.3598 60.0195Z" fill="#675B49"/>
<path d="M62.8506 54.3973C62.677 52.6084 61.9584 50.5656 61.918 49.5187C62.2152 48.8393 62.0209 49.0311 62.6119 48.7393C63.2939 48.942 63.0488 48.7803 63.5123 49.4139C63.7363 50.1975 63.5322 50.5594 63.2537 51.3414C63.2838 53.1283 63.4309 52.9709 63.6955 54.6018C63.617 55.2707 63.6172 56.0385 63.176 56.5031L63.0449 56.643C63.3406 55.5932 63.209 55.4588 62.8506 54.3973Z" fill="#675B49"/>
<path d="M63.2537 51.3413C63.2838 53.1282 63.4309 52.9708 63.6955 54.6017C63.617 55.2706 63.6172 56.0384 63.176 56.503L63.0449 56.6429C63.3406 55.5931 63.209 55.4587 62.8506 54.3972C62.9352 53.3163 63.083 52.4069 63.2537 51.3413Z" fill="#675B49"/>
<path d="M97.5063 57.0825C97.6461 56.7087 97.7859 56.5743 98.0361 56.2573C100.213 56.4407 103.224 58.0769 105.769 58.6794L105.251 59.4489C102.962 58.7456 99.727 57.2681 97.5063 57.0825Z" fill="#675B49"/>
<path d="M84.8016 43.3535C87.8746 45.9297 87.2641 47.1379 85.9426 50.6633C85.0875 51.1244 85.4598 51.0789 84.4801 50.801C86.7615 47.5676 86.0475 46.5277 84.8016 43.3535Z" fill="#675B49"/>
<path d="M75.5974 43.0305C77.3115 41.8112 80.3416 41.094 82.4441 41.4026C82.9908 41.4828 83.349 41.8549 83.7539 42.2225L83.8224 42.4996C83.1189 42.7827 81.6594 42.1498 80.7162 42.2274C79.4629 42.3305 78.6851 42.6049 77.5523 43.0653C76.7584 43.1516 76.3959 43.1055 75.5974 43.0305Z" fill="#675B49"/>
<path d="M61.073 66.4463C59.816 66.2495 53.7793 66.0227 52.449 66.4995C51.7238 66.7594 51.7131 67.0649 50.7152 66.9356C50.3148 66.4128 50.3055 66.5747 50.3402 66.0717C50.4834 65.9725 50.8492 65.7643 50.9973 65.7753C52.7297 65.9028 60.1656 65.4874 61.2158 66.1682L61.073 66.4463Z" fill="#675B49"/>
<path d="M62.8508 87.5929C64.7338 86.5423 65.3057 85.6806 67.616 84.6431C67.3809 85.0692 67.1603 85.4612 66.9559 85.9054L67.0406 86.0341C64.7617 86.9698 64.4889 88.9595 61.492 87.8536C62.0187 87.637 62.2971 87.6392 62.8508 87.5929Z" fill="#675B49"/>
<path d="M57.5838 35.4619L58.4315 35.8691C58.1959 37.8916 58.2834 39.434 58.4688 41.4619L58.3018 41.785L57.8035 41.3754C57.1393 39.5129 57.2709 37.3914 57.5838 35.4619Z" fill="#675B49"/>
<path d="M33.7824 74.1143C34.0264 74.3439 34.3285 74.5898 34.5025 74.8623C34.6147 76.7143 34.8652 77.2846 36.715 77.9365C36.4818 78.1979 36.2434 78.3785 36.1772 78.6826C33.5082 78.1371 33.317 76.4811 33.7824 74.1143Z" fill="#675B49"/>
<path d="M91.1469 54.0429C91.467 52.9433 92.7236 50.4858 93.2697 49.3466C93.7211 49.4161 94.1861 49.2017 94.6391 49.0513C94.033 50.0901 92.7 53.1405 92.3332 53.5671L91.8658 53.4794L91.1469 54.0429Z" fill="#675B49"/>
<path d="M39.8881 63.0549L40.0641 62.9932L40.36 63.4031C40.2812 63.641 40.198 63.9279 40.0967 64.1516C39.1615 64.832 38.2918 65.4146 37.4941 66.2578C37.0912 65.9727 37.2621 65.8076 36.5523 65.5895C37.7539 64.2951 38.2053 63.7248 39.8881 63.0549Z" fill="#675B49"/>
<path d="M63.6955 54.6016C64.2172 56.7314 63.7465 58.5023 64.6131 60.5451C64.3441 60.9338 64.3371 60.9693 63.9352 61.1955C63.7314 60.3574 62.7514 57.3596 62.7461 56.8383L63.0449 56.6428L63.176 56.5029C63.6172 56.0383 63.617 55.2705 63.6955 54.6016Z" fill="#675B49"/>
<path d="M34.6807 68.322C35.3508 67.2134 35.7211 66.5925 36.5523 65.5894C37.2621 65.8075 37.0912 65.9726 37.4941 66.2577C36.3465 67.7163 36.0166 68.0368 35.5725 69.8757C35.0385 69.2845 34.976 69.0673 34.6807 68.322Z" fill="#675B49"/>
<path d="M59.4213 74.3579C60.1125 73.3185 61.7877 70.2487 62.2684 69.7241C62.852 70.5782 60.7701 74.0274 60.2408 74.97L59.4213 74.3579Z" fill="#675B49"/>
<path d="M58.0244 67.8008L58.5709 68.1854C58.2297 68.5186 56.1016 69.5305 55.5645 69.7984C54.9539 69.6631 54.3531 69.6422 53.975 69.2568C54.4994 68.5223 56.8602 68.1514 58.0244 67.8008Z" fill="#675B49"/>
<path d="M59.3518 45.7275L59.3711 45.8859C59.5588 47.3465 60.4482 49.4717 60.0789 50.7475C59.724 50.6229 58.4217 46.8361 58.1477 46.1031C58.9736 46.1502 58.6512 46.2418 59.3518 45.7275Z" fill="#675B49"/>
<path d="M34.3254 72.3247C34.8193 71.7589 34.9 71.6188 35.6443 71.4712C35.8303 72.2458 34.917 74.1921 34.5025 74.862C34.3285 74.5895 34.0264 74.3436 33.7824 74.114L34.3254 72.3247Z" fill="#675B49"/>
<path d="M34.3254 72.325C34.2932 71.0387 34.3414 69.5592 34.6807 68.3223C34.976 69.0676 35.0385 69.2848 35.5725 69.876C35.5551 70.408 35.491 70.9746 35.6443 71.4715C34.9 71.6191 34.8193 71.7592 34.3254 72.325Z" fill="#675B49"/>
<path d="M149.028 147.449C150.067 147.688 151.107 147.922 152.148 148.15C152.1 148.592 152.058 148.848 151.958 149.282C151.342 149.152 150.613 149.046 149.984 148.937C149.666 148.52 149.313 147.91 149.028 147.449Z" fill="#675B49"/>
<path d="M69.3143 59.2197L69.6875 59.7551C68.8988 61.0641 68.3697 61.9412 67.4123 63.1211C67.2535 62.9078 66.8527 62.6316 66.6221 62.4572C67.2859 62.0717 67.6395 61.832 67.8937 61.1301C68.6369 60.7049 68.9186 59.9799 69.3143 59.2197Z" fill="#675B49"/>
<path d="M65.0207 67.6909L65.3643 68.0739C65.5344 69.7415 65.6549 71.6665 65.4188 73.3249L65.084 72.9423C64.9285 71.5874 64.8285 69.012 65.0207 67.6909Z" fill="#675B49"/>
<path d="M69.3143 59.2195C69.9266 58.4637 71.0268 56.9674 71.8711 56.6104C71.7277 57.6525 70.3465 58.9166 69.6875 59.7549L69.3143 59.2195Z" fill="#675B49"/>
<path d="M36.715 77.9365C38.4856 78.4924 38.0516 78.5584 38.6064 80.2621C38.3963 80.3539 38.2512 80.3625 38.025 80.4035L37.6135 79.8971C37.4232 79.0639 36.8957 78.9445 36.1772 78.6826C36.2434 78.3785 36.4818 78.1979 36.715 77.9365Z" fill="#675B49"/>
<path d="M68.4463 56.7725L68.6145 57.9854C68.0754 59.2141 67.8791 59.7809 67.8938 61.1301C66.659 59.9896 67.8666 58.1574 68.4463 56.7725Z" fill="#675B49"/>
<path d="M48.5867 85.7614C49.1725 85.5733 49.6307 85.3337 50.175 85.5333C49.7934 86.0847 49.5262 86.0509 48.7971 86.364L48.5867 85.7614Z" fill="#675B49"/>
</svg>
