<svg width="200" height="200" viewBox="0 0 200 200" fill="none" xmlns="http://www.w3.org/2000/svg">
<path d="M85.0691 109.098L86.3035 109.417C84.0268 115.619 76.9826 130.253 67.8828 127.055C64.1016 125.726 63.8276 123.188 61.9529 120.568L62.867 120.98C63.9192 122.928 64.7693 124.052 66.8676 125.019C76.2012 129.317 82.3496 115.284 85.0691 109.098Z" fill="#675B49"/>
<path d="M83.4983 80.9062C85.8029 80.435 89.2428 79.2447 91.3984 78.1932C92.3895 77.7096 93.8766 75.308 94.4817 75.2998C94.7797 76.3336 92.8654 77.8395 92.1723 78.5379C88.8209 81.9139 83.7063 84.0619 79.2365 85.4549L78.7176 84.9746C79.9244 84.4748 85.1834 82.5061 85.4315 81.5574L85.0356 81.516C83.9598 81.3789 84.3072 81.5504 83.4983 80.9062Z" fill="#675B49"/>
<path d="M91.4897 90.9946C90.8789 92.7743 90.6772 94.7015 90.1902 96.5112C89.2916 99.852 88.4404 103.221 87.3432 106.502C87.0719 107.313 86.4235 108.648 86.3035 109.417L85.0692 109.098C86.9209 105.018 89.3059 96.0413 90.3828 91.4702L91.4897 90.9946Z" fill="#675B49"/>
<path d="M61.284 97.084L61.8155 96.4814L62.3887 96.6561C61.7057 101.606 61.0465 106.506 61.5674 111.487C61.6254 112.043 61.7158 112.767 61.7168 113.315C61.3246 113.375 60.9563 113.378 60.6785 113.646C59.6539 109.882 60.6375 100.98 61.284 97.084Z" fill="#675B49"/>
<path d="M95.641 64.6431C97.6326 65.4737 96.8606 67.811 96.6635 69.6718C96.3873 68.504 96.1623 66.9329 95.9617 65.7226C95.2264 65.9753 94.6383 67.7194 94.3531 68.4647C93.0611 71.8405 91.5729 74.5573 88.8527 76.961C88.3215 77.4263 86.0317 78.9331 85.2459 79.514C87.1641 76.8886 89.2356 76.1862 91.3711 72.8573C92.8408 70.5665 94.3199 65.7868 95.641 64.6431Z" fill="#675B49"/>
<path d="M63.407 87.4113C64.6098 85.4182 67.0293 84.3813 69.2041 83.7891L70.0195 84.4197C68.5213 85.3998 67.7701 85.2283 65.8211 86.7145C67.3383 86.8191 70.5268 86.6598 71.4244 86.758L71.1647 87.0256C71.7285 87.1699 72.1449 87.1262 72.7227 87.1123C70.3518 87.7555 67.3244 87.6672 64.8453 87.8846C64.7174 88.008 64.609 88.1127 64.5201 88.1986C64.0897 88.0492 63.7621 87.7135 63.407 87.4113Z" fill="#675B49"/>
<path d="M69.2041 83.7895C71.3641 82.7248 81.0719 80.7953 83.4982 80.9065C84.3072 81.5506 83.9598 81.3791 85.0355 81.5162C81.0984 82.3688 73.633 82.7613 70.0195 84.4201L69.2041 83.7895Z" fill="#675B49"/>
<path d="M63.407 87.4116C63.7621 87.7138 64.0897 88.0495 64.5201 88.1989C63.6785 91.062 63.143 93.8487 62.3887 96.656L61.8154 96.4813L61.284 97.0839C61.969 93.4802 62.5922 90.9021 63.407 87.4116Z" fill="#675B49"/>
<path d="M60.6785 113.646C60.9563 113.378 61.3246 113.375 61.7168 113.315L61.726 113.474C61.8736 115.714 62.8877 118.361 64.0022 120.296C64.2404 120.71 65.0127 121.695 65.0047 122.079C61.8322 119.372 61.6699 117.459 60.6785 113.646Z" fill="#675B49"/>
<path d="M90.3828 91.47C91.2709 88.8056 91.8113 84.9591 92.576 82.2046C92.6348 81.9933 93.0041 81.7724 93.2512 81.6978C92.5523 83.8095 93.0814 83.2921 92.7838 84.9345C92.4592 86.7249 91.9629 89.2513 91.4896 90.9944L90.3828 91.47Z" fill="#675B49"/>
<path d="M71.4244 86.7582C73.649 86.2959 76.5354 85.5832 78.7176 84.9746L79.2365 85.4549C78.3389 85.7311 73.4072 87.1344 72.7227 87.1125C72.1449 87.1264 71.7285 87.1701 71.1647 87.0258L71.4244 86.7582Z" fill="#675B49"/>
<path d="M77.5207 110.304C78.077 110.182 78.6279 110.528 78.7604 111.082C78.8926 111.636 78.5574 112.193 78.0064 112.336C77.6404 112.431 77.2518 112.321 76.99 112.048C76.7281 111.775 76.6344 111.382 76.7443 111.021C76.8545 110.659 77.1514 110.385 77.5207 110.304Z" fill="#675B49"/>
<path d="M61.9529 120.568C62.134 120.255 62.185 119.923 62.2479 119.57C62.5824 119.853 62.7434 120.538 62.867 120.98L61.9529 120.568Z" fill="#675B49"/>
<path d="M112.626 103.995C112.748 103.74 112.851 103.588 112.999 103.352L113.355 103.822L113.725 103.737C116.353 111.364 122.818 129.713 133.687 125.867L133.782 125.833C134.505 125.86 135.288 125.91 136.003 125.844C133.23 128.442 129.206 128.931 126.065 126.814C119.406 122.326 114.459 111.509 112.626 103.995Z" fill="#675B49"/>
<path d="M138.682 97.9615C138.783 97.5764 138.876 97.2199 138.997 96.8398L139.521 96.9715C141.01 103.781 141.307 111.922 139.007 118.592C138.759 119.312 136.803 122.622 136.197 122.993C136.255 121.546 138.072 119.308 138.674 116.954C139.676 113.033 139.568 107.807 139.294 103.723C139.21 102.474 138.622 98.7289 138.682 97.9615Z" fill="#675B49"/>
<path d="M112.626 103.994C111.671 100.707 107.201 84.391 107.98 81.8031L108.241 81.7705C108.681 82.6393 108.453 84.077 108.771 85.258C110.373 91.2129 111.753 97.9074 113.725 103.737L113.355 103.822L112.999 103.352C112.851 103.588 112.748 103.74 112.626 103.994Z" fill="#675B49"/>
<path d="M106.686 76.4229L107.458 76.5045C109.732 78.7143 114.244 80.1164 117.32 80.5686C116.84 80.9551 116.99 80.7518 116.782 81.3777C116.023 81.3131 115.943 81.1887 115.333 81.4586C115.701 82.1355 117.305 82.7736 118.081 83.1246L117.367 83.7184C112.385 81.7531 110.039 80.5529 106.686 76.4229Z" fill="#675B49"/>
<path d="M131.321 82.8364C133.79 83.3952 134.803 84.1114 136.912 85.4419C137.326 86.8466 137.609 87.9206 137.906 89.3532L136.791 89.7483C136.647 88.9839 136.218 87.5241 136.006 86.7237C133.343 86.7503 130.688 86.9126 128.093 86.3415C128.639 86.2981 129.666 86.2772 130.096 86.0376L129.181 85.7921L134.585 85.7003C132.894 84.423 132.382 83.9038 130.238 83.413C131 83.2075 130.932 83.356 131.321 82.8364Z" fill="#675B49"/>
<path d="M104.986 65.0483L105.164 65.0694C106.699 66.3505 107.936 70.6694 109.326 72.9224C110.467 74.7735 114.119 77.5126 114.604 78.4532C113.717 78.2276 112.832 77.5741 112.047 77.0675C109.785 75.1851 107.946 72.2542 106.752 69.5772C106.277 68.5116 106.075 66.6509 105.071 66.071L104.748 66.2632C104.426 67.0769 104.54 68.7517 104.442 69.8001L104.258 69.8632C103.419 68.239 103.796 66.3741 104.986 65.0483Z" fill="#675B49"/>
<path d="M117.32 80.5684C120.313 80.9398 129.055 81.5934 131.321 82.8363C130.932 83.3559 131 83.2074 130.238 83.4129C126.286 81.7193 120.62 82.3049 116.782 81.3775C116.99 80.7516 116.84 80.9549 117.32 80.5684Z" fill="#675B49"/>
<path d="M137.906 89.3535C138.518 91.3787 139.39 94.8223 139.521 96.9715L138.997 96.8398C138.876 97.2199 138.783 97.5764 138.682 97.9615C138.022 95.2432 137.417 92.4785 136.791 89.7486L137.906 89.3535Z" fill="#675B49"/>
<path d="M118.081 83.1245C119.956 83.781 122.189 84.6347 124.108 85.0698C125.483 85.3817 127.851 85.3937 129.181 85.7921L130.096 86.0376C129.666 86.2772 128.639 86.2981 128.093 86.3415C123.966 85.6392 121.374 85.2007 117.367 83.7183L118.081 83.1245Z" fill="#675B49"/>
<path d="M133.782 125.833C134.828 125.167 137.224 123.239 137.901 122.98C137.904 123.609 136.545 125.395 136.003 125.844C135.288 125.91 134.505 125.86 133.782 125.833Z" fill="#675B49"/>
<path d="M117.498 92.0771C118.27 92.2477 118.376 92.4414 118.658 93.1004C118.586 93.8375 118.537 93.9211 118.132 94.5359C117.57 94.4438 117.213 94.115 116.937 93.6424C116.939 92.7195 116.96 92.9639 117.498 92.0771Z" fill="#675B49"/>
<path d="M118.323 97.5771C118.864 97.7088 119.225 98.093 119.443 98.5709C119.229 99.4301 119.27 99.1936 118.564 99.8939C118.176 99.7023 117.753 99.2707 117.505 98.9207C117.615 98.1041 117.648 98.2947 118.323 97.5771Z" fill="#675B49"/>
<path d="M122.127 95.2402C122.595 95.4277 122.794 95.64 123.077 96.032C122.983 96.791 122.729 96.8953 122.208 97.6037C121.612 97.2246 121.385 96.9826 121.193 96.3869C121.295 95.8328 121.69 95.5949 122.127 95.2402Z" fill="#675B49"/>
<path d="M105.097 73.3809C106.076 74.4871 106.734 75.19 107.458 76.5045L106.686 76.4229C106.118 75.4346 105.612 74.3988 105.097 73.3809Z" fill="#675B49"/>
<path d="M97.1817 74.5806C97.9293 74.9929 98.108 74.92 98.3338 75.8257C97.8807 79.1921 97.2303 82.1005 96.5859 85.5065C93.6328 101.119 89.5281 120.235 75.9904 130.2C71.7602 133.314 69.8285 136.474 68.1182 141.438C67.7742 142.395 67.0883 144.652 66.6977 145.511L66.5356 145.15C66.2293 145.584 65.7113 147.085 65.4949 147.659C65.5094 145.93 66.2596 145.558 65.7557 143.913C67.0522 139.007 68.3469 135.558 71.5684 131.615C71.1088 131.359 71.1975 131.516 70.5483 131.574C68.5906 131.75 66.157 130.284 64.6815 129.084L65.4897 128.812C73.6934 133.763 81.5049 123.124 84.9238 116.951C90.4082 107.05 92.917 95.5015 95.2213 84.5177C95.9115 81.2276 96.407 77.8407 97.1817 74.5806Z" fill="#675B49"/>
<path d="M103.971 83.9487L104.123 83.493C104.674 83.3264 104.718 83.501 105.376 83.8174C106.691 88.3053 107.45 93.2711 108.638 97.8492C111.397 108.485 115.269 119.583 123.513 127.266C124.119 127.83 127.557 130.786 128.293 131.138C128.814 132.197 130.694 133.711 131.486 134.989C133.842 138.79 134.56 142.763 135.718 146.952C135.478 147.638 135.278 148.217 134.977 148.879C133.968 144.229 130.788 135.15 126.871 132.399C111.382 121.519 107.061 102.044 103.971 83.9487Z" fill="#675B49"/>
<path d="M144.907 176.45C145.258 175.102 144.598 175.511 145.365 174.189C146.632 177.691 148.622 181.989 151.205 184.762C154.407 184.821 157.649 184.232 160.908 184.35C171.92 184.741 166.819 190.2 160.242 192.829C150.714 196.638 141.269 198.785 130.949 198.078C126.597 197.779 125.363 194.025 128.508 192.466C129.58 192.148 129.858 192.022 130.921 192.291C129.846 193.103 128.151 193.969 128.673 195.469C133.028 199.549 164.725 191.925 165.499 186.821C164.065 184.991 153.874 185.1 153.414 186.103C153.834 186.622 155.521 186.936 156.272 187.137L156.01 187.304L156.059 187.039L155.822 187.334C154.296 187.579 152.017 186.588 150.364 186.102C149.753 186.365 148.898 186.823 148.291 186.43C148.47 185.852 149.053 185.581 149.595 185.215C147.327 182.651 145.936 179.704 144.907 176.45Z" fill="#675B49"/>
<path d="M65.6227 188.721C68.0908 189.58 76.9098 193.05 73.0348 196.695C71.0498 198.562 62.6828 197.812 60.0008 197.519C52.8977 196.742 45.8076 194.761 39.2932 191.805C37.5553 191.017 31.2047 187.715 34.5187 185.19C37.9502 182.941 44.0867 183.865 47.9439 184.508L46.7223 184.757C47.0795 184.963 47.2195 185.041 47.5357 185.303C45.5352 185.226 36.3572 184.547 35.2402 186.485C36.6723 191.704 69.392 199.5 72.5334 194.786C72.3582 192.616 66.7018 190.136 64.8918 189.254L65.6227 188.721Z" fill="#675B49"/>
<path d="M63.6602 141.199C63.6516 138.496 64.3463 132.374 62.998 130.132C55.6098 117.851 56.0482 104.597 59.0496 90.7061L59.642 91.2547C59.6438 91.7289 59.6158 91.8094 59.4699 92.2625C59.8311 92.5324 59.8479 92.5344 60.2949 92.6303C59.7521 94.5662 59.5344 97.0699 59.3014 99.0887C58.3289 107.512 58.4377 117.847 62.6543 125.414C63.1975 126.388 64.1186 127.813 65.0162 128.475L65.1633 128.585C65.2766 128.669 65.3729 128.735 65.4897 128.812L64.6814 129.084L64.4066 129.079C64.3754 129.666 65.0354 130.472 65.2314 131.619C65.8252 135.088 65.4438 138.651 64.5023 142.003C64.2523 141.917 64.3764 141.948 64.0781 142.001L63.9166 142.315C64.0193 141.414 63.8658 142.232 63.6602 141.199Z" fill="#675B49"/>
<path d="M133.82 70.0993C134.372 69.783 134.538 69.8289 135.15 69.8829L135.239 70.1188C138.733 80.3942 142.786 90.0991 143.573 101.198C143.796 104.356 143.724 107.807 143.727 110.987C143.21 111.129 143.102 111.206 142.623 111.039C142.258 110.577 142.316 109.278 142.259 108.561C142.474 106.718 142.107 104.422 141.971 102.545C141.205 91.9133 137.749 81.736 134.42 71.6528L133.82 70.0993Z" fill="#675B49"/>
<path d="M133.82 70.0993C134.372 69.783 134.538 69.8289 135.15 69.8829L135.239 70.1188C134.89 70.695 134.7 71.0411 134.42 71.6528L133.82 70.0993Z" fill="#675B49"/>
<path d="M142.259 108.561C142.316 109.277 142.258 110.577 142.623 111.039C143.102 111.206 143.21 111.128 143.727 110.987C143.73 114.827 142.475 122.61 140.452 125.793C136.712 131.677 136.806 134.081 137.192 140.752C136.549 140.367 136.798 140.462 136.001 140.494C135.385 138.362 135.448 135.938 135.463 133.74C135.47 132.771 136 131.408 135.815 130.882C132.445 132.28 131.786 132.242 128.293 131.138C129.316 129.691 133.339 131.464 136.013 128.73C141.17 123.456 141.746 115.449 142.259 108.561Z" fill="#675B49"/>
<path d="M71.3981 35.0088C77.3323 33.4973 85.9834 33.5071 90.2465 38.72C94.7112 42.7723 95.5791 45.5299 97.609 50.7014L96.6729 51.2522C95.2588 48.5188 93.0821 45.0129 90.9637 42.7348C90.8395 42.5999 90.7131 42.4665 90.5848 42.3352C86.6996 38.3651 82.7293 35.7397 76.9869 35.0018C75.4274 34.8014 73.1299 35.0329 71.3981 35.0088ZM93.436 43.7206C92.2946 41.8044 91.5565 40.893 89.944 39.3643C88.2846 37.8876 84.0127 34.9776 81.8147 35.1637C81.9434 35.8397 84.433 36.7587 85.1832 37.1538C87.3746 38.3085 89.4096 39.8112 91.0498 41.6712C91.8326 42.4358 92.5889 43.0346 93.436 43.7206Z" fill="#675B49"/>
<path d="M89.944 39.3641L90.2465 38.7197C94.7112 42.7721 95.5791 45.5297 97.609 50.7012L96.6729 51.252C95.2588 48.5186 93.0821 45.0127 90.9637 42.7346L91.0498 41.6709C91.8326 42.4355 92.5889 43.0344 93.436 43.7203C92.2946 41.8041 91.5565 40.8928 89.944 39.3641Z" fill="#675B49"/>
<path d="M100.156 5.78809C101.894 9.67213 100.193 9.84637 102.748 13.3554C103.76 13.428 105.853 13.4765 106.695 13.789L106.238 13.6718L106.257 13.6826L106.133 14.0463C105.043 14.2638 104.138 14.405 103.04 14.5518C100.215 17.5275 101.421 20.5892 101.047 24.3656C100.247 32.4349 100.675 40.4056 100.655 48.4687L100.161 48.4732C99.5181 38.5908 100.879 26.6288 99.9562 16.7512C99.6851 16.3848 99.0601 15.2866 98.8041 15.1114C97.4295 14.1716 95.4648 14.1222 93.8998 13.6244C95.359 13.5097 96.8215 13.4401 98.2851 13.4158C98.9142 12.6983 99.6297 11.9187 100.223 11.183C100.213 9.38455 100.191 7.58621 100.156 5.78809ZM100.645 16.3086C101.151 15.4642 102.102 14.4925 102.121 13.8315C102.086 13.7506 100.474 11.8704 100.388 11.8028L100.317 11.9812C99.7826 13.2917 99.1008 13.301 98.9769 14.141C99.6263 15.2763 99.8183 14.4553 100.326 16.3269L100.645 16.3086Z" fill="#675B49"/>
<path d="M64.4938 73.0584C64.6426 72.1802 66.4281 67.8326 67.0655 66.4798C68.4715 63.4959 70.958 55.6275 73.0168 53.499C73.9155 52.5701 81.9906 53.2287 83.4524 53.6386L84.2959 54.3296C84.2004 54.5754 84.2156 54.5957 84.0291 54.7759C80.3762 54.3582 77 54.1162 73.3115 54.3328C74.8459 55.2546 76.376 56.2687 78.1168 56.7129L78.0035 57.7558C76.0574 57.117 74.8444 56.55 72.999 55.6429C71.4233 57.189 66.4584 72.8214 65.1059 75.7882C64.7551 74.6382 65.5389 75.413 64.4938 73.0584Z" fill="#675B49"/>
<path d="M61.6188 161.69C61.6627 162.411 61.5371 162.559 61.9369 162.99L62.3904 163.13C61.3643 169.615 59.9139 176.261 60.1736 182.824C60.3709 187.81 62.234 187.005 65.6227 188.722L64.8918 189.254C63.7723 188.887 62.7354 188.552 61.6404 188.112C62.684 189.202 63.8606 190.495 65.0153 191.432L64.5328 191.904C63.3313 191.101 60.6026 188.881 60.0272 187.706C57.2307 181.992 60.1826 167.557 61.6188 161.69Z" fill="#675B49"/>
<path d="M119.586 54.6763C121.478 54.2933 126.403 53.7517 128.283 54.679C129.132 55.098 130.12 58.0402 130.602 59.0554C131.003 60.04 131.458 61.105 131.83 62.0927L130.808 62.3066C130.591 61.5968 129.758 59.7794 129.428 58.9378C129.005 58.0275 128.557 57.0941 128.156 56.1773C124.242 59.7513 108.874 63.098 103.616 62.8534L103.377 62.8409L103.361 62.772L103.281 62.7062C102.689 62.2079 102.665 62.2724 102.386 61.5206C105.897 62.9224 125.173 58.5441 127.162 55.8054L126.943 55.5134C125.468 54.93 121.799 55.4148 119.959 55.488L119.966 55.0546L119.586 54.6763Z" fill="#675B49"/>
<path d="M129.428 58.938C129.738 59.3358 130.056 59.7284 130.38 60.1155C130.488 59.7048 130.543 59.4755 130.602 59.0556C131.003 60.0401 131.458 61.1052 131.83 62.0929L130.808 62.3067C130.591 61.597 129.758 59.7796 129.428 58.938Z" fill="#675B49"/>
<path d="M136.001 140.494C136.798 140.462 136.549 140.368 137.192 140.752C138.542 151.618 141.879 163.813 145.365 174.19C144.598 175.511 145.258 175.102 144.907 176.45C141.365 167.445 137.88 150.241 136.001 140.494Z" fill="#675B49"/>
<path d="M64.4938 73.0586C65.5389 75.4133 64.7551 74.6385 65.1059 75.7885C63.0463 82.0281 61.9531 86.399 60.2949 92.6303C59.8479 92.5344 59.8311 92.5324 59.4699 92.2625C59.6158 91.8094 59.6438 91.7289 59.642 91.2547L59.0496 90.7061C60.7971 84.4119 61.8277 79.3932 64.4938 73.0586Z" fill="#675B49"/>
<path d="M110.466 44.8889C114.489 40.1434 120.24 34.1709 126.671 39.6356C126.821 39.7639 126.969 39.8965 127.112 40.0334C125.277 39.4883 123.834 39.0243 121.863 39.4135C117.862 40.2041 114.104 42.5245 111.278 45.4182L110.466 44.8889Z" fill="#675B49"/>
<path d="M97.1914 39.7135C96.3949 37.2791 95.3451 34.4703 93.6209 32.4957C92.6527 31.3871 91.442 30.518 90.5625 29.2603C90.4701 28.4709 90.4151 28.7775 90.7371 28.0867C94.868 24.9621 97.277 36.9203 97.7992 39.1191L97.1914 39.7135Z" fill="#675B49"/>
<path d="M54.3639 176.699C55.9311 176.225 54.6832 176.051 55.9941 175.792C55.2385 178.821 53.9752 181.264 52.0555 183.691C51.7502 184.077 51.51 184.43 51.3488 184.899C51.643 185.285 51.7131 185.312 52.1223 185.589L52.3039 186.035L52.1348 186.419C51.4576 186.435 51.1149 186.062 50.46 185.653C48.0686 186.529 47.3541 186.625 45.0391 187.288L44.9486 187.147C46.069 186.132 47.3207 186.209 47.5357 185.303C47.2195 185.041 47.0795 184.963 46.7223 184.757L47.944 184.508C50.543 185.151 53.4188 178.644 54.3639 176.699Z" fill="#675B49"/>
<path d="M63.6602 141.199C63.8658 142.232 64.0193 141.414 63.9166 142.315L64.0781 142.001C64.3764 141.948 64.2523 141.917 64.5023 142.003C64.2066 144.87 62.7557 150.806 62.0381 153.814C61.0125 158.112 59.877 163.679 58.6121 167.841C58.0117 168.075 58.277 168.046 57.5312 167.817C60.1551 158.2 62.0539 151.161 63.6602 141.199Z" fill="#675B49"/>
<path d="M69.7844 193.677C67.2936 193.824 64.8705 193.861 62.3953 193.718C57.5609 193.438 45.7234 190.592 42.0957 187.82L42.2373 187.531C42.9455 187.627 43.0811 187.858 43.652 188.111C48.1709 190.114 60.5873 193.897 65.2002 192.892L65.4576 192.63C65.2354 192.183 64.9889 192.128 64.5328 191.904L65.0152 191.432C67.25 192.584 67.6084 192.714 69.7844 193.677Z" fill="#675B49"/>
<path d="M65.7557 143.913C66.2596 145.558 65.5094 145.93 65.4949 147.659C65.7114 147.085 66.2293 145.584 66.5356 145.15L66.6977 145.511C64.8289 151.229 63.928 157.419 62.3905 163.13L61.9369 162.99C61.5371 162.559 61.6627 162.411 61.6188 161.69C62.2145 157.921 63.2117 154.372 64.0489 150.651C64.5606 148.377 65.3225 146.213 65.7557 143.913Z" fill="#675B49"/>
<path d="M109.945 28.2968C110.28 27.547 110.687 26.58 110.872 25.786C111.056 24.9938 111.003 24.2384 111.301 23.4585C112.083 24.7616 111.308 27.3413 113.181 28.511C113.375 29.0011 113.413 29.0931 113.456 29.6159C112.614 29.804 112.159 30.7429 111.703 31.4618C111.747 33.3792 111.697 34.4021 111.413 36.2896C110.879 33.4401 111.466 32.5565 109.789 29.7497C108.198 29.3395 107.169 28.8948 105.69 28.2274C107.223 28.3339 108.415 28.4546 109.945 28.2968ZM111.369 30.8226C111.66 30.2769 111.822 29.9704 112.187 29.4636C112.245 28.7212 111.973 27.5841 111.247 27.2378C110.9 27.9692 110.808 28.1622 110.309 28.7927C110.291 29.7608 110.771 29.7626 111.369 30.8226Z" fill="#675B49"/>
<path d="M120.222 48.0849C121.188 47.9942 123.637 47.8763 123.32 49.4474C122.215 50.4964 118.232 49.8214 115.749 50.6356C112.875 51.5786 112.391 51.8802 109.7 53.3446C109.154 53.6175 108.865 54.0392 107.95 54.47C108.798 52.6052 114.81 49.6911 116.822 48.9196C117.625 48.6114 119.324 48.2702 120.222 48.0849Z" fill="#675B49"/>
<path d="M78.1168 56.7129C81.9791 58.317 86.7467 59.4465 90.8987 60.2043C92.4905 60.4947 94.4905 60.5229 96.1471 60.7947L95.8299 61.2191C94.8438 61.3182 93.9584 61.2117 93.0832 61.3492C89.9076 61.3855 81.0334 59.0361 78.0035 57.7559L78.1168 56.7129Z" fill="#675B49"/>
<path d="M89.9055 51.0056C86.3668 48.6447 84.3549 48.5722 80.252 48.305C79.6299 48.2646 79.3807 48.0269 79.0389 47.5982L79.1123 47.1107C81.3768 44.2798 87.7924 48.8568 90.0516 50.2484L89.9055 51.0056Z" fill="#675B49"/>
<path d="M135.718 146.952C136.704 149.48 137.169 152.757 137.803 155.412C138.278 157.402 138.882 159.224 139.175 161.256C138.259 161.154 138.442 161.308 137.826 160.784C137.683 160.423 137.429 158.956 137.337 158.494C136.684 155.229 135.861 152.085 134.977 148.879C135.278 148.217 135.478 147.638 135.718 146.952Z" fill="#675B49"/>
<path d="M98.1928 58.5254C99.4316 59.2279 100.507 60.5344 101.188 60.6168L101.515 60.4379C101.772 60.5332 102.385 60.7414 102.592 60.8629L102.386 61.5207C102.665 62.2725 102.689 62.208 103.281 62.7063L103.361 62.7721L103.377 62.841C102.713 62.8906 102.1 62.6236 101.682 62.9535L101.586 63.4553L100.893 63.577L100.375 62.892C99.7117 62.4805 99.6416 62.408 99.19 61.7695C98.9408 61.6647 94.292 61.5922 93.0832 61.3492C93.9584 61.2117 94.8437 61.3182 95.8299 61.2191L96.1471 60.7947C96.9107 60.7949 98.0256 60.942 98.5291 60.3217C98.3609 59.7467 97.8623 59.4816 97.3562 59.0971L98.1928 58.5254Z" fill="#675B49"/>
<path d="M105.053 58.5222C109.702 56.5913 114.591 55.2976 119.586 54.6763L119.966 55.0546L119.959 55.488C114.222 56.6585 111.106 57.3427 105.649 59.3146L105.053 58.5222Z" fill="#675B49"/>
<path d="M140.687 183.045C141.465 183.232 141.52 183.058 141.889 183.75C141.632 187.938 140.401 188.892 137.281 191.382L136.914 191.029C137.442 190.119 138.308 189.637 138.555 188.891C138.125 188.71 137.932 188.901 137.373 189.092L136.668 188.503C137.494 188.088 138.596 187.738 139.484 187.426C139.98 186.246 140.529 184.311 140.687 183.045Z" fill="#675B49"/>
<path d="M102.424 75.3357L102.444 75.0221C102.882 74.5766 102.894 74.7182 103.7 74.6553C104.115 76.7424 104.923 82.3477 105.376 83.817C104.718 83.5006 104.674 83.326 104.123 83.4926L103.971 83.9482C103.279 80.6816 102.863 78.6568 102.424 75.3357Z" fill="#675B49"/>
<path d="M83.4523 53.6387C88.6385 54.9285 93.3814 56.008 98.1928 58.5254L97.3562 59.0971C96.498 58.76 95.6633 58.2346 94.717 57.8926C91.35 56.6758 87.5476 55.3768 84.0291 54.776C84.2156 54.5957 84.2004 54.5754 84.2959 54.3297L83.4523 53.6387Z" fill="#675B49"/>
<path d="M101.586 63.4551C102.365 65.9145 102.825 71.3918 103.7 74.6553C102.894 74.7182 102.882 74.5766 102.444 75.0221L102.424 75.3357C102.171 73.0076 100.556 65.1127 100.893 63.5768L101.586 63.4551Z" fill="#675B49"/>
<path d="M108.32 39.0283L108.522 39.3463C108.529 39.2334 103.288 53.1564 102.93 54.0795C102.299 53.4453 103.141 51.4234 103.405 50.6035C104.631 46.7875 105.803 42.2316 108.32 39.0283Z" fill="#675B49"/>
<path d="M130.626 194.562C133.137 193.454 134.618 192.49 136.914 191.029L137.281 191.382L134.682 193.572C136.495 193.276 139.966 193.01 141.853 192.956C140.898 193.755 141.415 193.328 140.165 193.566L140.192 193.796C137.562 194.57 133.342 194.597 130.626 194.562Z" fill="#675B49"/>
<path d="M139.982 173.464C140.359 173.802 140.467 173.921 140.572 174.419L141.47 174.091C141.699 176.168 142.279 181.899 141.889 183.75C141.52 183.058 141.465 183.232 140.687 183.046C140.958 180.611 140.383 175.869 139.982 173.464Z" fill="#675B49"/>
<path d="M141.853 192.956C146.56 191.871 151.181 190.983 155.663 189.184C155.975 189.059 156.464 189.036 156.787 189.153C156.311 190.479 142.341 193.849 140.192 193.796L140.165 193.566C141.415 193.328 140.898 193.756 141.853 192.956Z" fill="#675B49"/>
<path d="M139.845 165.332C140.745 168.116 141.063 171.186 141.47 174.091L140.572 174.419C140.467 173.921 140.359 173.802 139.982 173.464C139.597 171.422 139.293 168.92 138.971 166.813C139.309 166.332 139.404 165.907 139.845 165.332Z" fill="#675B49"/>
<path d="M130.808 62.3066L131.83 62.0928C132.711 63.5969 134.422 68.0617 135.15 69.8828C134.538 69.8289 134.372 69.783 133.82 70.0992C132.831 67.4957 131.827 64.8982 130.808 62.3066Z" fill="#675B49"/>
<path d="M128.508 192.466C129.719 191.156 134.857 188.985 136.668 188.503L137.373 189.092C135.692 189.963 133.787 190.618 132.124 191.592C131.789 191.788 131.236 192.152 130.921 192.291C129.858 192.022 129.58 192.148 128.508 192.466Z" fill="#675B49"/>
<path d="M99.19 61.7695C99.6416 62.408 99.7117 62.4805 100.375 62.892C100.101 63.7834 99.4115 68.568 99.1234 70.0211C98.4223 69.4978 98.5037 69.3764 98.3018 68.6139C98.55 66.5371 99.1592 63.7908 99.19 61.7695Z" fill="#675B49"/>
<path d="M110.466 44.8887L111.278 45.418C109.518 47.4506 108.106 49.5744 106.674 51.8457C106.061 52.8193 105.204 54.8432 104.187 55.3734L104.17 55.1646C104.632 54.5059 105.579 52.5537 106.077 51.6926C107.432 49.3568 108.897 47.0863 110.466 44.8887Z" fill="#675B49"/>
<path d="M129.689 30.4082C132.043 31.1373 132.077 32.4518 130.455 34.1012C127.868 33.6838 128.417 31.9742 129.689 30.4082Z" fill="#675B49"/>
<path d="M57.5313 167.817C58.277 168.046 58.0117 168.075 58.6121 167.84C58.2037 169.159 57.4682 172.164 57.0518 173.166C56.4307 173.351 56.3475 173.456 55.8971 173.897L55.5623 173.833C56.1141 171.848 56.9703 169.896 57.5313 167.817Z" fill="#675B49"/>
<path d="M71.2327 25.8828C73.0319 26.824 73.46 28.2697 71.5354 29.31C69.1057 28.5773 69.8758 27.2393 71.2327 25.8828Z" fill="#675B49"/>
<path d="M98.3018 68.6138C98.5037 69.3763 98.4223 69.4978 99.1234 70.021C98.8477 71.9542 98.5846 73.889 98.3338 75.8255C98.108 74.9198 97.9293 74.9927 97.1816 74.5804C97.2646 73.6229 98.0961 70.0493 98.3018 68.6138Z" fill="#675B49"/>
<path d="M137.826 160.784C138.442 161.308 138.259 161.154 139.175 161.256C139.281 161.834 139.873 164.892 139.845 165.332C139.404 165.907 139.309 166.332 138.971 166.813C138.66 164.837 138.013 162.691 137.826 160.784Z" fill="#675B49"/>
<path d="M105.053 58.5225L105.649 59.3148C104.761 59.8311 103.551 60.6166 102.592 60.8631C102.385 60.7416 101.772 60.5334 101.515 60.4381C102.539 59.5295 103.802 59.0197 105.053 58.5225Z" fill="#675B49"/>
<path d="M55.5623 173.833L55.8971 173.897C56.3475 173.456 56.4307 173.351 57.0518 173.167C56.7016 174.231 56.4594 174.793 55.9941 175.792C54.6832 176.051 55.931 176.225 54.3639 176.699C54.7301 175.73 55.1297 174.775 55.5623 173.833Z" fill="#675B49"/>
<path d="M90.0515 50.248C90.7406 50.7488 93.849 53.2154 94.0523 53.8147C93.4783 53.9047 90.54 51.4885 89.9055 51.0053L90.0515 50.248Z" fill="#675B49"/>
<path d="M96.6729 51.252L97.609 50.7012C97.9041 51.6043 98.7414 53.6715 98.2961 54.5264C97.7568 54.0705 97.1096 52.0844 96.6729 51.252Z" fill="#675B49"/>
<path d="M97.7992 39.1191C98.1891 40.1471 98.6201 42.5023 98.2402 43.5328C97.5746 42.7803 97.9625 41.3293 97.1914 39.7135L97.7992 39.1191Z" fill="#675B49"/>
<path d="M113.181 28.511C114.333 28.4392 115.484 28.3604 116.634 28.2749C115.632 28.7034 114.463 29.2349 113.456 29.6159C113.413 29.0931 113.375 29.0011 113.181 28.511Z" fill="#675B49"/>
<path d="M100.161 48.4732L100.655 48.4688C100.66 49.102 100.747 49.8533 100.418 50.3674C100.098 49.9197 100.17 49.0738 100.161 48.4732Z" fill="#675B49"/>
</svg>
