<svg width="200" height="200" viewBox="0 0 200 200" fill="none" xmlns="http://www.w3.org/2000/svg">
<path d="M67.8352 74.5685C68.5328 73.472 69.1486 72.364 70.2453 71.6831C70.8002 72.1245 70.6352 71.9358 70.8402 72.696C69.9217 73.2915 69.5871 73.7544 68.8932 74.5771C71.2147 74.4978 73.5371 74.4466 75.86 74.4235L76.6986 74.0495L76.9449 74.3976C79.375 74.762 83.7846 74.4243 86.35 74.587C90.0561 74.822 93.9895 74.8942 97.674 75.114C106.36 75.6741 115.018 76.9351 123.57 78.5251C125.124 78.8312 128.75 79.1399 129.846 80.0702C130.685 80.7825 128.803 86.2269 128.139 86.8173C126.705 88.0919 125.999 88.4101 124.659 90.1603C122.386 93.1282 120.217 96.313 117.81 99.1409C117.314 99.6987 115.533 99.3542 115.322 100.46C114.935 102.491 114.986 104.481 114.692 106.479C113.688 113.299 113.404 120.305 112.889 127.185C112.699 129.726 112.37 132.344 112.216 134.83C111.856 141.225 111.628 147.627 111.531 154.031C111.491 156.729 111.498 159.427 111.551 162.124C111.591 164.026 111.747 166.372 111.501 168.223C111.826 171.073 111.974 174.013 112.292 176.734C112.515 177.444 112.755 178.29 113.048 178.959C113.775 179.353 114.902 179.919 115.549 180.374C115.833 183.641 116.45 182.547 118.787 183.817C119.569 186.302 119.638 188.081 119.866 190.656C113.144 190.571 106.422 190.559 99.6998 190.622C97.0971 190.627 92.0662 190.792 89.6285 190.607C89.7348 190.126 89.6244 190.33 89.9776 189.979C94.1916 190.042 97.7758 189.714 101.87 189.567C107.445 189.406 113.022 189.296 118.599 189.238C118.451 188.149 118.331 186.943 117.99 185.895C117.814 185.353 117.507 184.6 116.956 184.348C115.373 183.622 101.03 184.961 98.0238 185.083C93.0496 185.285 88.0117 185.159 83.0303 185.164C76.2809 185.17 69.5002 185.249 62.757 184.918C59.6592 184.766 49.5258 183.531 47.2748 184.301C46.6385 184.747 46.5248 185.558 46.2822 186.339C45.7643 186.494 45.3598 186.624 44.8504 186.816C44.9664 183.82 45.4145 183.472 48.2625 182.866C48.7774 180.218 48.8629 180.095 51.2096 178.818C53.4859 173.693 52.3893 145.212 52.3961 138.377C52.3744 133.689 51.7936 128.785 51.8385 124.034C51.8574 122.022 51.4252 119.317 51.2703 117.239C50.8498 111.596 50.7942 105.439 49.6512 99.9032C48.8861 99.7229 48.0195 99.8013 47.5295 99.3144L47.4463 99.2302C45.0197 96.8173 42.5438 92.8001 40.3018 90.0974C39.0424 88.5792 36.8303 87.3851 36.2289 85.6173C35.8258 84.4325 34.4404 81.3874 34.9084 80.2589C36.4735 79.1009 38.6549 78.7694 40.5406 78.2306C49.502 75.6696 58.5334 74.8589 67.8352 74.5685ZM53.7885 137.492C54.1494 144.015 54.4938 174.157 52.6332 178.82C52.5723 178.974 52.5115 179.126 52.4455 179.277L52.6278 179.582C53.9268 179.828 55.3102 179.848 56.6338 179.926C61.2293 180.198 65.7793 180.498 70.3828 180.639C71.068 180.487 77.6393 180.621 78.7803 180.65C83.826 180.78 89.2803 180.463 94.268 180.61C95.2113 180.479 97.3975 180.484 98.4756 180.426L109.103 179.88C109.769 179.844 111.221 179.841 111.616 179.4L111.429 178.521C110.893 175.8 110.599 172.083 110.438 169.311C110.223 167.779 110.23 164.808 110.246 163.209C110.428 144.01 111.257 124.64 113.152 105.533C113.463 102.396 113.473 96.269 114.378 93.5479L114.416 93.4368L114.293 93.2364C109.327 92.1626 104.586 91.5259 99.526 91.1161C82.7287 89.7556 66.9051 90.1341 50.3477 93.2017C51.4289 95.3224 51.257 98.4417 51.5774 100.872C52.6654 108.859 52.7983 116.911 53.1108 124.949C53.2729 129.12 53.6227 133.3 53.7885 137.492ZM69.6528 86.4108C64.1584 86.7923 59.2412 87.3138 53.7768 88.2702C51.6787 88.6372 49.6871 89.5192 48.0494 89.8083C47.5022 90.3839 47.5035 91.3374 48.1082 91.8794C49.4893 92.1675 56.1309 90.5237 58.0965 90.2849C70.5736 88.769 82.6547 89.1386 95.2012 89.4753C98.3113 89.9605 101.204 89.8962 104.313 90.1755C106.914 90.4093 109.856 91.2366 112.439 91.3858C113.795 91.4644 115.715 92.2759 116.667 91.772C117.038 91.398 117.232 91.2843 117.29 90.7696C116.972 90.0976 116.546 89.6917 115.782 89.5093C103.317 86.5345 90.25 86.161 77.4817 86.2769C75.201 86.2978 71.6619 86.1181 69.6528 86.4108ZM114.01 180.728C111.945 180.529 107.899 180.915 105.679 181.055C102.684 181.225 99.6861 181.343 96.6871 181.412C87.511 181.62 78.332 181.664 69.1543 181.543C67.7949 181.414 63.1988 181.304 61.8227 181.271C59.4988 181.214 52.3752 180.486 50.6793 180.779C50.0811 181.127 49.7932 181.972 49.4897 182.627L49.6172 182.89C51.7955 183.631 59.4924 183.64 61.9426 183.708C73.4436 184.082 84.9527 184.133 96.4565 183.86C102.746 183.707 108.192 183.613 114.476 182.996L114.01 180.728ZM70.0709 75.8812C60.2264 76.2786 50.1996 77.2017 40.6766 79.8034C39.9106 80.0128 36.6539 80.5679 36.7774 81.4653C36.924 82.5319 37.6604 84.9708 38.3895 85.7216C39.7033 85.9993 40.7873 85.256 42.1094 84.8952C41.4194 85.5878 40.625 86.3522 39.9629 87.0573C42.977 90.3134 45.6951 93.9956 48.1965 97.6583C48.4553 98.0372 48.8338 98.2593 49.2711 98.3155C49.4158 97.486 48.8422 95.0905 48.5766 94.2319C48.0047 94.0312 47.1748 93.7698 46.6365 93.5472C46.292 91.7464 46.1135 90.7091 45.3834 88.9989C56.2096 84.4396 82.2553 84.496 93.9658 85.4013C100.788 85.7694 107.351 86.1222 114.043 87.6175C115.395 87.9196 117.515 88.2263 118.742 88.6849C119.379 89.5321 118.713 92.8335 118.146 93.3198C116.823 94.4567 114.851 95.9313 115.769 98.2407C116.716 98.23 119.091 94.3446 119.738 93.4091C120.624 92.1271 124.712 87.6405 124.77 86.5329C124.427 86.1403 124.357 86.0946 123.908 85.8274C124.187 85.4458 124.067 85.5683 124.603 85.4034C125.295 85.578 125.903 85.8399 126.505 85.5134C127.651 84.4526 127.924 82.5421 128.323 80.9817C107.795 76.7698 90.9699 75.6716 70.0709 75.8812Z" fill="#675B49"/>
<path d="M89.1607 127.599C88.4885 128.239 87.2576 130.148 86.81 130.997L87.0066 131.106C88.0004 130.818 90.1072 128.779 91.1252 128.177C93.5971 126.715 96.4916 125.601 99.4004 125.609C99.4734 125.61 100.348 126.162 100.344 126.163C100.979 126.123 101.609 126.114 102.238 126.229C103.953 126.584 104.763 127.964 104.395 129.639C103.037 128.588 105.106 126.127 100.086 127.032C98.959 127.235 98.0342 126.328 95.5 127.209C89.8504 129.173 81.649 136.134 79.0451 141.355C82.6834 138.538 88.8656 136.174 93.1818 138.898C93.6174 139.173 93.9379 139.536 94.0297 140.054C93.3566 141.542 90.7412 141.267 90.0479 140.185C90.4859 139.548 92.0932 140.778 92.6213 139.656L92.4365 139.182C91.5793 138.523 87.5295 138.035 86.9607 138.637C87.049 138.92 87.1348 139.088 87.0697 139.376C79.8348 140.738 81.7549 140.662 75.8369 143.746C77.0383 141.892 79.6775 139.897 80.9033 137.141C82.2742 134.06 80.7383 133.923 80.0793 131.038C79.9705 130.561 80.5982 128.463 80.7881 127.88C81.2613 127.455 81.0305 127.539 81.6471 127.552C82.5621 128.455 80.6607 130.103 80.8344 130.842C80.9781 131.453 81.4113 132.97 81.601 133.675C82.1783 131.867 82.0941 129.626 82.5445 128.814C83.2277 131.101 81.8961 134.402 82.1953 135.689L82.4545 135.834C84.1041 135.073 87.2287 129.223 88.5539 127.448L88.6377 127.338L89.1607 127.599Z" fill="#675B49"/>
<path d="M57.6742 166.548C58.2388 164.798 60.3187 159.149 61.1746 157.922C66.9287 149.672 78.8656 140.768 75.2383 129.286C74.558 127.133 71.2961 123.859 69.0344 122.932C71.008 122.044 73.2136 125.774 74.3426 126.025C74.4662 124.465 71.2771 122.9 70.5717 121.852L70.6943 121.685C71.2453 121.698 71.4482 121.935 71.8703 122.226C77.5377 126.134 77.9053 133.012 75.6642 138.951C73.0388 145.909 67.5031 150.508 63.3129 156.25C64.3941 155.622 64.7314 155.441 65.6295 154.527L65.7435 155.3C65.1447 155.802 64.5431 156.076 63.8404 156.73C60.8773 159.487 59.9758 163.595 57.6742 166.548Z" fill="#675B49"/>
<path d="M85.4801 109.728C86.4535 110.522 86.9272 110.042 87.9244 110.323C92.3916 111.581 92.624 115.603 93.0869 119.232C95.2272 116.975 99.5797 112.632 103.033 113.561C102.976 114.239 99.7448 114.287 98.9135 115.163C98.8629 115.796 98.8766 116.062 98.568 116.637C97.9805 117.096 97.6821 117.071 96.9383 117.131C95.661 117.729 94.3143 118.897 93.1887 119.799C92.9133 120.574 92.686 121.472 92.0912 122.015L91.824 121.911C91.7002 121.19 92.1779 120.174 92.4449 119.448C92.177 118.07 91.8231 115.642 90.8471 114.538C90.5162 114.164 90.051 114.301 89.7295 113.564C90.1588 113.136 90.4264 113.894 91.3237 113.713L91.2826 113.394C90.5967 112.302 87.8565 110.535 86.5367 110.799L86.4014 111.034L87.1696 112.215L86.9539 112.402C85.6395 112.141 84.6113 111.027 85.4801 109.728Z" fill="#675B49"/>
<path d="M91.5332 100.7C92.4121 101.107 93.9791 102.222 94.1431 103.23C93.3806 103.564 93.4871 102.449 92.4851 102.151L92.2607 102.376C92.0865 103.593 92.9218 106.025 94.1843 106.377L94.3957 106.191C94.4025 105.408 94.3638 104.804 94.3025 104.022L94.4845 103.866C95.7984 104.794 96.0289 109.519 96.2109 111.164C97.4703 107.773 98.8697 106.316 102.656 105.869L102.921 106.142L102.824 106.767C101.402 108.404 101.113 106.482 99.3086 107.446C98.8629 107.684 98.0505 108.524 97.916 108.993L99.0086 108.815L99.2078 108.959C98.8195 109.689 97.2839 110.44 96.9902 110.925C96.2449 112.155 95.5716 113.523 94.7851 114.778C94.4882 114.489 94.7523 113.915 94.8906 113.416C95.6955 110.509 95.5783 109.97 94.6437 107.257C92.9379 106.591 92.6783 106.454 91.642 104.894C91.467 103.44 91.3703 102.158 91.5332 100.7Z" fill="#675B49"/>
<path d="M65.6295 154.527C68.5112 152.552 71.7686 150.821 75.3393 150.723C77.8203 150.656 81.71 150.886 82.1541 153.971L81.9676 154.34C81.0278 154.24 80.658 153.25 80.2016 152.469C75.2803 150.81 69.8629 152.39 65.7436 155.3L65.6295 154.527Z" fill="#675B49"/>
<path d="M80.8104 117.987C82.6928 117.831 82.251 118.196 83.4106 119.366C84.949 120.918 86.4028 121.817 86.986 124.065C87.6221 126.517 87.2076 128.08 86.0065 130.2C86.5053 125.988 86.3205 125.507 83.8559 122.16L83.6873 122.001L83.876 121.828C84.8553 122.082 84.6561 122.778 85.7557 123.45L85.9711 123.245C85.9028 122.937 85.7908 122.641 85.6387 122.365C85.1047 121.402 82.4389 119.17 81.2541 118.858C80.5733 118.988 80.7949 118.843 80.4141 119.385C80.3266 119.959 80.2348 120.217 80.5229 120.735C81.007 121.162 81.7467 121.098 82.5088 121.257L82.6694 121.582L82.5074 121.833C81.5994 122.067 80.8483 121.837 80.0463 121.404C78.9225 119.984 79.4627 118.891 80.8104 117.987Z" fill="#675B49"/>
<path d="M90.0306 125.196C91.3469 122.846 98.7746 119.424 100.931 120.712C101.337 121.325 101.293 121.069 101.182 121.679C100.442 122.477 99.6142 122.884 98.6244 122.256L98.5775 121.98C99.0664 121.889 99.5543 121.793 100.041 121.693L100.152 121.384L99.9166 121.12C98.2447 121.096 92.6689 123.421 91.1826 124.742L91.0379 124.873L90.0306 125.196Z" fill="#675B49"/>
<path d="M81.5117 144.622C82.2525 144.564 83.558 144.471 84.2027 144.832C83.5 145.724 80.1045 145.316 78.8082 145.758C76.7322 146.466 74.7769 147.13 72.798 148.052C72.1398 148.529 71.7269 148.821 71.0172 149.212L70.9357 149.035C72.3838 146.438 78.6363 144.724 81.5117 144.622Z" fill="#675B49"/>
<path d="M65.0098 141.588C70.0207 143.202 64.5724 152.018 62.9744 154.379L62.826 154.57L62.6252 154.438C64.2494 151.285 66.5269 148.108 65.891 144.571C65.6713 143.349 65.1002 142.625 65.0098 141.588Z" fill="#675B49"/>
<path d="M65.2129 128.889C62.2941 127.3 63.3513 123.502 65.7933 121.84L66.7183 122.166C64.1994 123.609 63.526 127.478 66.4262 128.526C66.1262 128.612 65.4707 128.78 65.2129 128.889Z" fill="#675B49"/>
<path d="M70.8477 155.5C71.149 155.418 71.4412 155.427 71.7543 155.417L71.8836 155.592C71.4182 156.116 69.0855 156.496 67.8717 157.25C65.6793 158.613 64.3043 160.182 62.516 161.998L62.2592 162.227L62.0527 162.126C62.085 162.032 62.1955 161.749 62.2473 161.684C64.5539 158.83 67.2557 156.244 70.8477 155.5Z" fill="#675B49"/>
<path d="M95.2648 100.823C96.7609 101.101 96.8379 103.543 96.7115 104.784L96.3978 104.747C95.9654 103.398 95.5723 102.207 95.2648 100.823Z" fill="#675B49"/>
<path d="M66.4262 128.526C66.8119 128.503 67.1973 128.474 67.5822 128.44L67.8562 128.686L67.8633 128.837L67.7602 128.721C67.1996 129.649 66.0037 129.258 65.2129 128.889C65.4707 128.78 66.1262 128.612 66.4262 128.526Z" fill="#675B49"/>
<path d="M90.0307 125.196L91.0379 124.873C90.3174 125.838 89.7746 126.558 89.1607 127.599L88.6377 127.338C88.884 127.143 89.7555 125.613 90.0307 125.196Z" fill="#675B49"/>
<path d="M65.7933 121.84C66.7006 121.406 66.8894 121.3 67.8812 121.266L68.1084 121.43C67.7195 121.874 67.2715 121.975 66.7183 122.166L65.7933 121.84Z" fill="#675B49"/>
<path d="M53.7885 137.492C54.1494 144.014 54.4938 174.157 52.6332 178.82C52.5723 178.973 52.5115 179.126 52.4455 179.277L52.6277 179.582C53.9268 179.828 55.3102 179.848 56.6338 179.926C61.2293 180.198 65.7793 180.498 70.3828 180.638C71.068 180.487 77.6393 180.62 78.7803 180.65C83.826 180.78 89.2803 180.462 94.268 180.61C95.2113 180.479 97.3975 180.483 98.4756 180.426L109.103 179.88C109.769 179.843 111.221 179.841 111.616 179.399L111.429 178.521C112.07 177.746 112.117 177.77 112.292 176.733C112.515 177.443 112.755 178.289 113.048 178.959C113.775 179.352 114.902 179.919 115.549 180.373C115.833 183.64 116.45 182.547 118.787 183.816C119.569 186.302 119.638 188.08 119.866 190.656C113.144 190.57 106.422 190.559 99.6998 190.621C97.0971 190.627 92.0662 190.792 89.6285 190.607C89.7348 190.126 89.6244 190.329 89.9776 189.979C94.1916 190.042 97.7758 189.714 101.87 189.567C107.445 189.405 113.022 189.296 118.599 189.238C118.451 188.148 118.331 186.942 117.99 185.895C117.814 185.353 117.507 184.6 116.956 184.347C115.373 183.622 101.03 184.96 98.0238 185.083C93.0496 185.285 88.0117 185.159 83.0303 185.163C76.2809 185.17 69.5002 185.249 62.757 184.917C59.6592 184.765 49.5258 183.531 47.2748 184.3C46.6385 184.746 46.5248 185.558 46.2822 186.339C45.7643 186.494 45.3598 186.623 44.8504 186.816C44.9664 183.82 45.4145 183.472 48.2625 182.866C48.7774 180.218 48.8629 180.095 51.2096 178.818C53.4859 173.693 52.3893 145.212 52.3961 138.377C53.085 139.225 52.5027 139.548 53.0635 141.007L53.3283 141.063L53.3256 141.155C53.3983 139.723 53.3994 138.871 53.7885 137.492ZM114.01 180.728C111.945 180.529 107.899 180.915 105.679 181.055C102.684 181.224 99.6861 181.343 96.6871 181.411C87.5109 181.62 78.332 181.664 69.1543 181.543C67.7949 181.413 63.1988 181.304 61.8227 181.27C59.4988 181.214 52.3752 180.486 50.6793 180.779C50.0811 181.127 49.7932 181.972 49.4897 182.627L49.6172 182.89C51.7955 183.631 59.4924 183.639 61.9426 183.708C73.4436 184.082 84.9527 184.132 96.4565 183.86C102.746 183.707 108.192 183.613 114.476 182.995L114.01 180.728Z" fill="#675B49"/>
<path d="M70.3828 180.639C71.068 180.487 77.6393 180.62 78.7803 180.65C83.826 180.78 89.2803 180.462 94.268 180.61C94.8195 180.696 96.4961 180.844 96.7594 181.144L96.6871 181.412C87.5109 181.62 78.332 181.664 69.1543 181.543C69.4086 181.233 70.0244 180.873 70.3828 180.639Z" fill="#675B49"/>
<path d="M56.391 78.8875C59.1621 78.2666 65.2496 78.1773 68.2179 78.1188C76.2445 77.9471 84.2744 77.9801 92.2994 78.2176C91.4951 78.3465 89.223 78.4777 88.7183 78.8426L89.3549 79.027C81.7308 78.8992 74.1051 78.9096 66.4814 79.058C64.7234 79.0992 58.767 79.6857 57.8377 79.627L57.7316 79.3869L57.7052 79.557L57.639 79.457L57.7308 79.266L58.4398 79.3865L58.2648 79.2834L58.4945 79.2832C58.266 79.2404 58.057 79.2105 57.8697 79.0633C57.3455 79.1514 56.9164 79.0055 56.391 78.8875Z" fill="#675B49"/>
<path d="M92.2994 78.2178C96.2856 78.415 100.216 78.6213 104.192 79.0004C105.843 79.1578 107.652 79.1441 109.288 79.3455L108.933 80.2631C106.422 80.2574 102.604 79.8041 99.9928 79.5857C96.4528 79.2988 92.9055 79.1125 89.3549 79.0271L88.7184 78.8428C89.2231 78.4779 91.4951 78.3467 92.2994 78.2178Z" fill="#675B49"/>
<path d="M109.288 79.3457C110.814 79.6715 122.998 81.3248 123.399 81.6606C121.591 82.2428 119.657 81.5867 117.833 81.3289C114.918 80.917 111.814 80.8049 108.933 80.2633L109.288 79.3457Z" fill="#675B49"/>
<path d="M48.9268 79.8533C51.6629 79.2385 53.6242 79.0658 56.391 78.8877C56.9164 79.0057 57.3455 79.1516 57.8697 79.0635C58.057 79.2107 58.266 79.2406 58.4945 79.2834L58.2648 79.2836L58.4398 79.3867L57.7309 79.2662L57.6391 79.4572L57.7053 79.5572L57.7316 79.3871L57.8377 79.6272C55.2809 79.9529 51.9922 80.4033 49.4461 80.5393L48.9268 79.8533Z" fill="#675B49"/>
<path d="M49.4461 80.5395C48.0451 80.8506 42.2697 81.8033 40.9914 81.6992C41.3898 81.1604 47.7523 80.0648 48.9267 79.8535L49.4461 80.5395Z" fill="#675B49"/>
<path d="M164.276 81.7423C164.568 81.0874 164.668 80.2806 164.777 79.5718C164.872 85.8841 164.757 92.2015 164.948 98.5772C166.523 98.7231 167.399 98.6007 168.558 99.6417C168.839 100.137 168.765 100.961 168.604 101.495C168.481 101.902 168.312 102.15 167.93 102.345C166.064 103.298 148.612 103.118 145.271 103.059C145.655 105.185 145.459 108.567 145.505 110.863C146.45 111.342 147.835 111.934 148.151 113.008C148.414 113.902 148.525 115.5 148.019 116.306C146.007 119.51 139.849 116.818 141.559 113.128C142.034 112.102 143.475 111.29 144.565 110.962C144.525 108.4 144.422 105.608 144.568 103.07L133.014 103.113C131.796 102.895 129.687 103.079 128.28 102.857C129.697 102.826 132.14 102.839 133.454 102.593L133.649 102.555C141.674 102.264 149.608 102.095 157.635 102.082C160.243 102.077 166.591 103.375 168.017 100.671L167.861 100.243C167.446 99.929 166.789 99.7392 166.278 99.7034C155.678 98.9622 145.028 99.5005 134.427 99.0063L134.467 98.8374C134.939 98.5737 137.333 98.5962 138.048 98.5677C141.368 98.8228 145.664 98.586 149.076 98.5263L163.84 98.4134C163.945 95.1622 164.033 91.9105 164.103 88.6585C164.122 87.1431 164.007 82.9179 164.276 81.7423ZM142.93 116.056C143.707 116.542 144.532 117.208 145.426 117.114C149.864 114.902 147.747 113.063 144.631 111.499C142.281 112.64 141.96 113.603 142.93 116.056Z" fill="#675B49"/>
<path d="M90.6508 44.9527C92.5471 41.4621 93.3271 41.5867 97.1428 40.6768C98.2484 41.2445 98.5726 41.4049 99.5277 42.2428C99.1912 43.1086 98.8701 43.8215 98.4812 44.6582C95.9092 46.2 94.1066 46.5996 91.2205 45.8109C79.2894 51.0037 75.3242 57.8592 73.2771 70.3473C73.0887 71.1199 73.0883 71.5561 73.3965 72.3307C72.2099 72.0031 71.9818 72.1701 70.8402 72.6957C70.6351 71.9355 70.8002 72.1242 70.2453 71.6828C70.8037 71.2363 71.5006 71.1285 72.2015 70.9529C72.406 66.8494 73.3394 62.815 74.9584 59.0387C78.0846 51.7961 83.5094 47.792 90.6508 44.9527Z" fill="#675B49"/>
<path d="M68.9906 16.5203C71.9076 16.2324 75.7189 16.4078 78.7347 16.4199L98.8644 16.5932L139.785 16.6024C144.3 16.5897 157.645 16.0454 161.224 17.001C160.01 17.2215 157.735 17.1851 156.489 17.0749C153.978 17.3925 148.102 17.4002 145.468 17.4479C137.525 17.6318 129.579 17.6575 121.636 17.5249L64.6117 17.0781C65.0992 16.7235 68.1912 16.5782 68.9906 16.5203Z" fill="#675B49"/>
<path d="M125.697 21.4279C126.33 21.2738 132.568 21.3609 133.597 21.368C141.859 21.4785 150.122 21.4621 158.383 21.3186C160.518 21.2688 162.758 21.4137 164.878 21.2668C165.739 21.207 166.288 20.4148 166.782 19.7539L166.973 19.759L166.875 20.2918C166.627 21.3232 166.751 21.3961 165.729 22.0266C165.445 24.3529 165.568 27.0256 165.464 29.3746C165.213 35.0883 165.595 41.6998 165.25 47.3234C164.63 45.0688 165.222 38.326 164.485 35.4332C164.29 31.8094 164.434 26.4355 164.409 22.6975C161.522 22.8641 154.772 22.415 151.449 22.3791L122.663 22.257C123.535 21.2553 124.115 21.684 125.697 21.4279Z" fill="#675B49"/>
<path d="M54.3898 23.3901C53.9482 22.9798 53.3699 22.5396 53.1976 21.9819C54.8451 21.4661 53.9156 25.3437 58.0881 20.064L58.3613 20.0958C58.4357 20.3501 58.5129 20.7347 58.6826 20.9345C59.2793 21.6364 85.0826 21.3206 88.3308 21.3698C89.5367 22.0771 89.1642 20.9634 90.166 22.3116C81.5349 22.4446 72.8843 22.0493 64.2552 22.5776C62.8515 22.6636 61.3974 22.7397 59.9924 22.705C60.0008 23.6001 60.0896 25.9554 59.9945 26.6782C59.9037 26.2896 59.8303 26.1747 59.649 25.8149L59.3599 25.8347L58.9062 26.6021C58.841 24.9499 58.7633 23.4663 58.609 21.8214C56.6974 23.0952 56.6875 23.2376 54.3898 23.3901Z" fill="#675B49"/>
<path d="M122.394 70.6547C125.315 69.5247 128.211 68.3317 131.08 67.0768C137.866 64.1448 145.426 60.544 152.859 63.4674C158.725 65.7739 159.695 73.1639 153.379 75.5698C151.467 76.2981 149.03 75.4024 148.539 73.3377L148.743 73.2737C150.927 75.4807 152.439 76.0772 155.075 73.6485C156.236 72.5792 156.561 71.4358 156.991 69.9495C156.601 68.62 156.145 66.8385 155.088 65.9352C146.362 58.475 130.972 68.8167 122.85 71.0858L122.394 70.6547Z" fill="#675B49"/>
<path d="M94.8547 21.317C101.391 21.2858 107.927 21.2918 114.463 21.335C117.27 21.3424 123.084 21.1996 125.697 21.4279C124.115 21.684 123.535 21.2553 122.663 22.2571C112.569 22.235 102.861 22.5281 92.736 22.293C93.4405 21.569 93.8485 21.5457 94.8547 21.317Z" fill="#675B49"/>
<path d="M142.951 31.6885L143.347 31.9371C144.04 33.2297 143.8 57.9002 143.35 59.6373C142.585 57.7344 142.396 34.6295 142.951 31.6885Z" fill="#675B49"/>
<path d="M45.6752 189.343L46.889 189.482C51.1144 189.099 57.4467 189.604 61.8344 189.742C64.2133 189.816 67.1802 189.745 69.4517 189.881L69.1422 190.126C68.2517 190.018 67.5927 189.723 67.0627 190.561C66.5326 190.63 65.7724 190.605 65.2263 190.611C58.8273 190.684 52.4047 190.514 46.0084 190.674C45.2385 190.651 44.9793 190.656 44.5912 190.027C45.0345 189.682 45.172 189.593 45.6752 189.343Z" fill="#675B49"/>
<path d="M45.6752 189.343L46.889 189.482C46.5881 190.396 46.8031 190.092 46.0084 190.674C45.2385 190.651 44.9793 190.656 44.5912 190.027C45.0345 189.682 45.172 189.593 45.6752 189.343Z" fill="#675B49"/>
<path d="M133.376 39.9375C133.521 40.0018 133.766 40.1729 133.91 40.265C134.473 41.4816 134.335 60.6313 133.893 62.2752C133.439 62.1924 133.608 62.275 133.275 61.9162C133.1 59.7242 133.01 40.9979 133.376 39.9375Z" fill="#675B49"/>
<path d="M123.619 48.1104L124.158 48.4781C124.979 50.109 124.449 63.7246 123.993 65.7738C123.823 65.8988 123.923 65.857 123.666 65.8293C123.348 64.6795 123.431 49.1895 123.619 48.1104Z" fill="#675B49"/>
<path d="M69.4517 189.881C70.8111 189.839 89.8422 189.916 89.9775 189.979C89.6244 190.33 89.7348 190.126 89.6285 190.607C82.6008 190.616 74.0553 190.833 67.0627 190.56C67.5928 189.723 68.2517 190.018 69.1422 190.126L69.4517 189.881Z" fill="#675B49"/>
<path d="M58.9062 26.6021L59.3599 25.8347L59.649 25.8149C59.8302 26.1747 59.9037 26.2896 59.9945 26.6782C60.1263 28.8261 60.0064 31.9169 59.9826 34.1282C59.9638 37.9948 59.9199 41.861 59.8508 45.7271C59.2261 42.7448 59.8111 40.4937 59.4222 38.0919C59.3236 38.5989 59.3609 38.9864 59.3763 39.4991L59.1603 39.3282C59.2504 38.7138 59.1728 38.5396 59.0078 37.9632C58.7965 35.1505 58.9578 29.6407 58.9062 26.6021Z" fill="#675B49"/>
<path d="M114.112 55.0029L114.491 55.3518C115.063 56.5346 114.985 67.484 114.551 68.8959C113.6 67.2639 113.359 56.8359 114.112 55.0029Z" fill="#675B49"/>
<path d="M164.487 38.5684C164.809 40.707 164.486 50.9412 165.191 51.9467C165.21 51.973 165.227 52.0004 165.244 52.0271C165.627 53.9025 164.927 58.876 164.595 60.8279C163.98 57.4791 164.472 51.7758 164.495 48.2229C164.517 45.0238 164.456 41.7539 164.487 38.5684Z" fill="#675B49"/>
<path d="M133.014 103.113C131.204 103.4 123.143 103.281 121.522 102.679C121.937 102.388 132.303 102.53 133.649 102.555L133.454 102.593C132.14 102.839 129.697 102.826 128.28 102.857C129.688 103.08 131.796 102.895 133.014 103.113Z" fill="#675B49"/>
<path d="M59.0078 37.9629C59.1728 38.5393 59.2504 38.7135 59.1603 39.3279L59.3763 39.4988C59.3609 38.9861 59.3236 38.5986 59.4222 38.0916C59.8111 40.4934 59.2262 42.7445 59.8508 45.7268C59.8338 47.6773 59.8699 49.8408 59.6195 51.7578C59.1678 48.2885 58.9554 41.5236 59.0078 37.9629Z" fill="#675B49"/>
<path d="M122.85 71.0854C120.527 72.1129 114.629 73.0027 112.214 72.4109L112.278 72.2383C113.292 71.8875 115.387 72.0982 116.606 71.9439C118.4 71.7166 120.712 71.2135 122.394 70.6543L122.85 71.0854Z" fill="#675B49"/>
<path d="M73.3965 72.3311C73.0883 71.5565 73.0887 71.1203 73.2772 70.3477C73.7627 71.8695 76.0604 71.9725 76.6987 74.0496L75.86 74.4236C75.1408 73.2602 74.5024 73.0695 73.3965 72.3311Z" fill="#675B49"/>
<path d="M164.485 35.4331C165.222 38.3259 164.63 45.0687 165.25 47.3233C165.354 48.8542 165.282 50.4854 165.244 52.0269C165.227 52.0001 165.21 51.9728 165.191 51.9464C164.486 50.9409 164.809 40.7067 164.487 38.5681L164.485 35.4331Z" fill="#675B49"/>
<path d="M164.21 72.1416L164.395 72.6773L164.617 72.5295C164.625 73.1387 164.695 76.8414 164.594 77.2613C164.461 78.4656 164.321 79.6691 164.175 80.8717C163.982 79.7625 163.93 73.1793 164.21 72.1416Z" fill="#675B49"/>
<path d="M88.3309 21.3697C90.1758 21.3437 93.1004 21.223 94.8547 21.317C93.8485 21.5457 93.4404 21.5689 92.736 22.293C92.026 22.365 90.91 22.3193 90.166 22.3115C89.1643 20.9633 89.5367 22.0769 88.3309 21.3697Z" fill="#675B49"/>
<path d="M166.875 20.292C167.277 22.7635 169.088 22.3855 170.78 23.5172C167.483 23.2924 168.294 23.1158 165.729 22.0268C166.751 21.3963 166.627 21.3234 166.875 20.292Z" fill="#675B49"/>
<path d="M44.8504 186.816C45.3597 186.624 45.7642 186.494 46.2822 186.339C46.0703 187.339 45.8679 188.34 45.6752 189.343C45.172 189.593 45.0345 189.682 44.5912 190.027C44.7058 189.276 44.7422 187.747 44.8504 186.816Z" fill="#675B49"/>
<path d="M164.21 72.1416C164.231 70.2131 163.945 66.6107 164.338 65.0156C164.785 67.4479 164.663 70.0467 164.617 72.5295L164.395 72.6773L164.21 72.1416Z" fill="#675B49"/>
<path d="M130.292 98.6662C131.807 98.5842 136.719 98.3061 138.048 98.5676C137.333 98.5961 134.939 98.5736 134.467 98.8373L134.427 99.0062C133.527 99.1717 131.266 98.8006 130.292 98.6662Z" fill="#675B49"/>
<path d="M164.175 80.8716C164.321 79.669 164.461 78.4655 164.594 77.2612C164.666 78.0276 164.749 78.8038 164.777 79.572C164.668 80.2808 164.568 81.0876 164.276 81.7425L164.175 80.8716Z" fill="#675B49"/>
</svg>
