<svg width="200" height="200" viewBox="0 0 200 200" fill="none" xmlns="http://www.w3.org/2000/svg">
<path d="M122.667 107.215C125.218 105.529 127.354 103.779 130.201 102.529C135.539 100.185 141.597 100.576 145.104 95.1361C146.418 93.0963 147.54 90.5431 146.188 88.0633C145.744 87.249 144.504 87.3795 143.871 88.0256C143.509 89.1984 144.177 89.3093 143.553 89.8236L143.182 89.7742C141.493 87.099 145.933 85.1793 147.011 88.1256C149.222 94.1703 143.912 98.6617 138.829 100.598C153.106 101.923 149.855 114.171 145.052 111.837C145.513 111.613 145.588 111.588 146.095 111.515C150.153 109.669 148.365 105.886 145.557 103.546C143.259 101.631 135.008 100.086 133.217 102.694L133.285 102.905C135.058 102.358 137.73 103.496 138.485 105.124C138.411 106.367 137.142 106.659 136.059 106.795C128.612 107.727 130.928 101.987 123.924 107.471C122.724 106.904 123.477 106.7 121.93 107.017C122.98 105.229 123.84 103.847 124.545 101.895L124.402 101.77C121.061 98.8074 122.079 92.9105 123.965 89.2908C124.008 89.2074 124.295 89.0474 124.397 88.9994C125.083 89.1672 125.236 89.4191 125.663 89.9906C130.421 96.3613 126.191 101.747 122.667 107.215ZM125.095 100.327C125.029 99.9396 125.078 99.8418 125.166 99.4492C125.881 99.2904 125.973 100.036 126.391 99.407C127.642 97.5224 126.577 90.7097 124.376 89.883C123.633 93.2943 121.626 96.5689 123.934 99.7923C124.324 100.337 124.389 100.603 124.957 101.055L125.126 101.045C125.175 100.732 125.223 100.618 125.095 100.327ZM134.591 106.319C135.455 106.122 136.604 105.972 137.224 105.391C137.671 103.75 133.528 103.237 132.471 103.367C131.046 103.646 129.837 103.905 128.434 104.274C130.574 104.84 132.78 106.235 134.591 106.319Z" fill="#675B49"/>
<path d="M116.175 111.463C113.321 106.879 114.818 104.829 117.063 100.538C118.966 103.191 120.22 105.131 119.08 108.496C118.543 109.61 118.289 110.148 117.563 111.171L117.423 111.388L117.665 111.465C118.63 110.802 118.94 110.436 119.715 109.593C120.302 110.014 120.145 109.795 120.389 110.402C114.87 115.189 109.974 118.779 103.45 122.176C104.465 122.043 105.478 121.896 106.489 121.737L106.953 122.54C106.315 122.624 105.675 122.699 105.035 122.766C104.159 122.244 103.643 122.494 102.899 121.768L102.951 121.394C107.059 119.205 114.047 115.616 116.175 111.463ZM118.592 107.651C118.802 106.188 118.507 103.896 117.705 102.671L117.274 102.422C115.638 103.132 115.028 108.257 115.903 109.629L116.23 109.74C116.608 109.17 116.484 108.96 116.915 108.747L117.072 108.983C116.934 109.494 116.807 109.88 116.774 110.413C117.951 109.647 118.06 108.952 118.592 107.651Z" fill="#675B49"/>
<path d="M118.592 107.651L119.08 108.497C118.543 109.61 118.289 110.148 117.563 111.171L116.774 110.414C117.951 109.647 118.06 108.953 118.592 107.651Z" fill="#675B49"/>
<path d="M132.555 110.506L134.64 111.164C136.907 114.667 137.119 116.036 133.736 119.222C133.508 119.436 132.98 119.567 132.678 119.575L132.618 119.318C134.201 117.508 134.898 117.402 135.67 115.043C134.65 111.395 133.559 110.857 129.903 111.972L129.634 112.055C127.74 114.121 127.897 114.217 128.1 117.011C127.056 114.502 126.787 113.444 124.628 111.753C123.415 111.727 122.2 111.713 120.986 111.71C120.297 113.133 119.777 114.315 119.368 115.854C119.855 116.612 120.604 117.85 121.113 118.541C122.028 118.842 123.061 119.154 123.951 119.496C121.755 119.43 118.905 119.263 117.157 120.787C115.298 122.409 117.585 126.783 119.992 126.638C122.188 126.507 122.947 125.478 124.509 124.448L124.813 124.457C124.583 124.874 123.951 126.152 123.628 126.365L123.289 125.969C122.999 126.212 122.992 126.24 122.781 126.534L122.651 126.582C121.916 126.933 120.996 127.192 120.209 127.44C116.835 126.711 116.73 125.59 115.419 122.61C112.322 122.103 110.041 122.192 106.953 122.54L106.489 121.737C108.256 121.453 110.049 121.361 111.836 121.463C112.395 121.492 115.222 121.764 115.473 121.546C117.375 119.894 118.11 119.294 120.601 118.597C119.427 117.485 118.765 116.913 118.847 115.384C119.132 110.08 124.411 109.601 127.389 113.336C127.694 113.718 127.784 113.436 127.945 113.154C128.507 111.701 129.837 111.289 131.218 110.882C131.663 110.753 132.108 110.627 132.555 110.506Z" fill="#675B49"/>
<path d="M79.139 126.481C77.1658 126.194 75.257 125.567 73.4976 124.629C71.2074 123.409 69.3007 121.574 68.5263 119.007C67.596 115.924 68.866 111.744 72.3236 110.92C74.4109 110.423 75.8277 110.983 77.5882 112.016C77.9787 112.863 78.3185 113.72 78.6683 114.584C78.6132 114.751 78.5564 114.917 78.4978 115.082C77.6845 117.371 75.1859 119.52 74.2193 116.314C74.3933 115.714 74.2675 115.936 74.8396 115.477C75.3771 115.717 75.4914 116.318 75.9156 116.981L76.2664 117.02C78.4334 115.521 77.9775 112.201 75.33 111.698C72.4419 111.16 69.4593 112.544 69.1472 115.707C68.5308 121.953 74.0667 124.824 79.2898 125.499L79.139 126.481Z" fill="#675B49"/>
<path d="M101.549 101.628C105.215 101.427 107.51 102.662 107.669 106.812C107.891 112.624 104.581 117.053 100.938 121.245L100.393 120.796C103.143 117.287 110.362 108.125 104.962 102.995C102.422 100.583 99.1537 103.774 100.009 106.788C100.096 107.36 100.191 107.338 100.578 107.638C101.623 107.716 102.057 106.941 102.953 107.132C103.107 107.705 103.085 107.473 102.881 108.145C100.768 109.824 99.4102 107.54 98.8965 105.702C99.4506 103.757 99.7705 102.891 101.549 101.628Z" fill="#675B49"/>
<path d="M100.393 120.796L100.938 121.245C100.143 121.957 99.1648 122.783 98.4533 123.557C100.066 122.855 101.415 122.092 102.951 121.394L102.899 121.768C103.643 122.495 104.159 122.244 105.035 122.766C103.293 123.042 101.141 123.357 99.4881 123.977L101.949 124.468L101.006 125.169C97.8984 124.525 91.5633 126.359 87.9228 126.737L86.889 125.757C87.8357 125.766 89.367 125.49 90.3265 125.332C95.0478 124.555 96.7586 123.598 100.393 120.796Z" fill="#675B49"/>
<path d="M136.64 119.535C136.031 119.533 135.18 119.605 134.699 119.282L134.832 119.052C136.718 118.726 136.885 118.943 138.6 119.76C138.999 120.448 139.69 121.562 139.994 122.253C139.582 123.472 138.975 125.205 138.276 126.299C136.439 127.519 135.644 127.484 133.48 127.034C133.102 126.953 132.726 126.862 132.353 126.761C132.072 130.651 130.762 132.841 127.335 131.741C126.444 131.455 124.369 131.983 123.463 130.791C123.073 130.329 122.714 127.551 122.816 126.92L122.651 126.583L122.781 126.534C122.992 126.24 122.999 126.212 123.289 125.969L123.628 126.365C122.966 129.159 124.809 132.311 127.005 130.755C127.407 130.47 128.806 132.194 130.294 130.649C131.505 129.392 131.39 128.74 131.408 127.033C131.422 125.885 130.624 125.393 130.665 124.552C132.056 124.553 134.369 128.965 137.69 125.581L137.779 125.492C138.453 124.799 138.967 123.297 139.337 122.366C138.345 120.803 138.258 120.418 136.64 119.535Z" fill="#675B49"/>
<path d="M124.509 124.448C125.155 123.699 125.697 123.139 126.132 122.239L126.034 122.028C124.642 122.088 124.549 122.168 123.29 121.585L123.212 121.362C123.834 121.06 124.997 121.365 125.096 121.298C126.663 120.233 125.512 119.46 127.683 119.479L127.94 119.156C127.775 118.884 127.608 118.612 127.438 118.343L127.591 118.016L127.935 117.962C128.549 118.638 127.751 118.591 128.612 119.019L129.004 118.939C129.273 118.42 129.124 117.747 129.059 117.148C129.529 117.235 130.009 117.981 130.115 118.43C129.414 119.432 129.088 118.991 128.749 120.008C129.347 121.257 130.529 121.01 131.871 121.286L131.952 121.512C131.417 121.754 129.66 121.8 128.977 121.845L128.103 122.851C128.096 123.8 128.154 124.512 127.789 125.397C127.559 124.507 127.594 123.391 127.144 122.745C126.482 122.726 126.008 123.322 125.484 123.818L124.813 124.457L124.509 124.448Z" fill="#675B49"/>
<path d="M91.526 121.635C92.0859 120.939 92.4506 120.49 92.7595 119.648C93.2504 118.31 93.1023 115.475 94.2523 114.605C94.8008 114.595 94.601 114.564 95.1306 115.07C96.1771 117.709 93.5084 121.232 91.4906 122.793L91.526 121.635Z" fill="#675B49"/>
<path d="M79.2898 125.499C81.3084 126.06 85.0115 125.41 86.824 124.51L87.0088 125.22L86.806 125.56L86.889 125.757L87.9228 126.737C84.5144 127.02 82.4765 127.025 79.139 126.481L79.2898 125.499Z" fill="#675B49"/>
<path d="M101.949 124.468C103.918 124.743 108.836 126.081 109.606 128.084C109.465 128.84 109.043 129.007 108.343 129.243C106.816 128.691 106.975 127.19 105.703 126.448L105.597 126.385C104.315 125.639 102.463 125.374 101.006 125.169L101.949 124.468Z" fill="#675B49"/>
<path d="M137.281 90.7879C137.928 90.7359 138.552 91.0438 138.904 91.5889C139.256 92.1342 139.28 92.8287 138.966 93.3971C138.653 93.9654 138.053 94.3154 137.403 94.3084C136.461 94.2983 135.693 93.5486 135.661 92.6065C135.628 91.6645 136.342 90.8635 137.281 90.7879Z" fill="#675B49"/>
<path d="M121.93 107.017C123.477 106.7 122.724 106.904 123.924 107.471C122.828 108.312 121.26 109.772 120.389 110.402C120.145 109.795 120.302 110.014 119.715 109.594C120.423 108.736 121.199 107.862 121.93 107.017Z" fill="#675B49"/>
<path d="M148.832 97.7436C149.461 97.6686 150.032 98.1164 150.11 98.7455C150.187 99.3744 149.741 99.9477 149.113 100.027C148.481 100.107 147.904 99.6586 147.826 99.0264C147.748 98.3941 148.199 97.8191 148.832 97.7436Z" fill="#675B49"/>
<path d="M91.5259 121.635L91.4906 122.793C90.2166 123.772 88.6066 124.9 87.0087 125.22L86.824 124.51C88.6087 124.193 90.23 122.85 91.5259 121.635Z" fill="#675B49"/>
<path d="M109.713 112.758C110.449 112.765 110.842 112.914 111.268 113.496C111.187 114.256 111.161 114.072 110.555 114.752C109.952 114.611 109.804 114.601 109.378 114.133C109.283 113.332 109.307 113.571 109.713 112.758Z" fill="#675B49"/>
<path d="M145.052 111.837C144.801 111.71 144.521 111.363 144.317 111.14C144.156 110.415 144.111 110.682 144.418 110.105L144.872 110.042C145.486 110.241 145.762 110.931 146.095 111.515C145.588 111.588 145.513 111.613 145.052 111.837Z" fill="#675B49"/>
<path d="M77.6371 29.5943C78.7615 29.5886 79.6507 30.4359 80.367 31.2447C84.1404 35.5046 87.0273 41.9734 82.3218 46.7716C81.7839 47.3202 80.9078 47.3868 80.5171 48.1652C80.897 48.904 82.3859 48.2341 83.2837 49.1859C83.8714 51.4202 83.2992 71.0222 83.3775 74.2255C83.39 74.7345 83.3271 74.6743 83.0011 74.9583L82.7103 74.7191C82.0212 72.6759 82.3859 53.4072 82.3855 49.8568L82.2957 49.7361C81.8312 49.4777 79.1125 49.5851 78.2839 49.5585C78.3634 52.2929 78.7519 74.1382 77.8511 75.1214C77.0937 72.955 77.3283 52.5505 77.3707 48.8853C78.2246 48.7866 79.0855 48.855 79.5845 48.1368C79.2955 47.0111 76.3755 45.6673 76.0101 42.9687C75.2371 37.2597 79.0546 35.2851 77.6371 29.5943ZM79.6439 46.7741C79.6478 45.6646 79.5539 43.456 80.2783 42.6081L80.5425 42.6415C80.7523 43.1648 80.7162 43.2493 80.5568 43.7976C80.4732 44.5388 80.2035 45.8033 80.4494 46.3835C80.8154 46.4564 80.9601 46.524 81.2783 46.239C85.1636 42.7611 83.8025 37.7238 81.1796 33.9765C80.6914 33.279 79.7472 32.0888 79.0994 31.7308C78.3277 37.8759 74.5226 41.4909 79.6439 46.7741Z" fill="#675B49"/>
<path d="M102.414 29.123C102.397 30.9238 101.586 34.3197 102.248 35.4043C103.073 35.5137 103.56 34.8777 104.111 34.3119L105.056 35.0949L104.916 35.235C103.888 36.2533 103.203 36.2543 102.429 37.2477L102.426 37.6016C103.034 38.1924 104.532 38.3148 105.419 38.4588C105.473 46.0943 105.485 53.7303 105.453 61.366C105.45 65.2695 105.617 70.5221 105.413 74.2715C105.412 74.5873 105.358 74.6652 105.265 74.9691L104.957 74.9439C104.401 74.1088 104.389 73.0883 104.36 72.1193C104.265 61.6855 104.066 49.4604 104.355 39.0779C102.709 39.2068 100.906 39.1793 99.2444 39.1871C99.0998 40.7494 99.1631 43.9293 99.153 45.6207C99.1875 48.493 99.2934 74.5197 99.0174 75.0039C97.7563 74.3377 98.0004 71.2934 98.0278 70.0129C98.0744 67.8365 97.9865 65.552 98.0881 63.3896C97.8903 57.1629 98.1403 45.9768 98.1073 39.2723C98.1024 38.2783 100.303 38.1141 101.196 37.7625C101.545 36.5527 99.0559 35.8785 98.2653 34.7506C97.2393 33.2867 97.0709 32.6924 96.5709 31.0449C96.8891 30.9795 97.3262 30.7199 97.635 30.5615C98.0336 31.9717 99.0826 35.0098 100.785 35.1967C101.439 34.3781 101.152 32.4922 101.435 31.4043C101.66 30.5363 102.003 29.9061 102.414 29.123Z" fill="#675B49"/>
<path d="M98.0881 63.3894C98.852 60.421 97.7514 45.4677 98.6703 44.2964C99.0996 44.7478 99.0123 44.9224 99.1529 45.6204C99.1875 48.4927 99.2934 74.5194 99.0174 75.0036C97.7563 74.3374 98.0004 71.2931 98.0278 70.0126C98.0744 67.8362 97.9865 65.5517 98.0881 63.3894Z" fill="#675B49"/>
<path d="M104.36 72.1191C104.426 70.8684 104.51 69.6186 104.611 68.3699L104.771 69.217C105.118 68.776 105.093 68.1623 105.149 67.5693C105.403 69.6414 105.159 72.3391 105.413 74.2713C105.412 74.5871 105.358 74.665 105.265 74.9689L104.957 74.9438C104.401 74.1086 104.389 73.0881 104.36 72.1191Z" fill="#675B49"/>
<path d="M155.6 86.665L156.679 86.5244L156.629 108.357C156.626 109.575 156.544 116.74 156.756 117.536L156.916 117.679C156.876 118.23 156.972 118.177 156.681 118.503C156.58 121.116 157.226 124.756 155.189 126.348C147.625 132.26 125.062 134.438 116.105 134.62C115.737 134.349 113.964 134.127 112.983 133.787C117.735 133.095 123.097 133.15 127.798 132.648C132.299 132.167 155.444 128.983 155.46 123.717C155.496 111.717 155.927 98.6867 155.6 86.665Z" fill="#675B49"/>
<path d="M170.24 124.368C170.983 126.051 170.942 130.784 170.254 132.491C169.363 134.705 165.873 136.461 163.779 137.338C155.405 140.845 145.949 142.608 137.051 144.084C137.042 143.795 136.964 143.598 136.881 143.325C136.166 143.315 135.822 143.245 135.117 143.111C144.061 142.394 159.741 138.842 167.57 133.971C168.72 133.255 170.251 130.513 169.169 129.285C160.657 135.467 154.951 135.48 145.441 137.616C144.856 137.06 144.769 137.013 143.994 136.785C144.96 136.788 147.725 136.231 148.715 135.99C153.946 134.714 169.469 131.74 169.62 125.239L170.24 124.368Z" fill="#675B49"/>
<path d="M44.1255 75.5768C45.032 75.2749 44.6664 75.2903 45.5916 75.5057L45.4738 75.7604C45.3154 76.0983 45.2634 76.2948 45.2671 76.7526C45.3933 92.5819 44.9207 108.633 45.4664 124.416C45.4732 124.615 46.1822 125.434 46.3388 125.65L48.1828 126.806C47.9675 127.035 47.5796 127.495 47.3214 127.618C46.957 127.441 46.5857 127.143 46.2535 126.9C43.3246 124.552 44.0353 121.993 44.1121 118.531C40.5421 120.262 34.2935 120.94 31.456 125.159C31.073 124.615 31.1783 124.772 30.4773 124.495C32.7496 120.835 40.1955 118.533 44.0984 117.573C44.2244 113.461 44.1228 108.806 44.1251 104.66L44.1255 75.5768Z" fill="#675B49"/>
<path d="M46.3389 125.65L48.1828 126.806C47.9676 127.035 47.5797 127.495 47.3215 127.618C46.9571 127.441 46.5858 127.144 46.2535 126.901L46.7213 126.521C46.6061 126.28 46.494 126.233 46.2748 126.081L46.192 126.025L46.3389 125.65Z" fill="#675B49"/>
<path d="M45.5916 75.5061L45.7719 75.0928L46.5352 75.1617C57.4131 81.9727 86.1596 82.2613 99.4766 82.8102C100.056 82.9922 101.631 83.2869 101.879 83.4566L101.979 83.9334C89.1627 83.9213 55.4475 83.0143 45.4739 75.7607L45.5916 75.5061Z" fill="#675B49"/>
<path d="M82.3781 187.098C84.5087 187.053 90.5585 187.989 93.3507 188.2C101.347 188.807 119.41 188.152 126.11 184.701L126.927 185.378C124.98 186.634 123.373 186.997 121.115 187.45C107.938 190.094 94.5541 189.999 81.2947 187.859L82.3781 187.098Z" fill="#675B49"/>
<path d="M79.1781 144.667C90.0939 145.408 100.727 145.691 111.667 145.272C112.974 145.222 114.807 144.936 116.036 144.992C116.794 145.094 116.8 144.976 117.313 145.39C116.357 146.135 114.063 145.284 113.905 146.276C106.664 146.946 97.7029 146.489 90.3808 146.443C89.1544 146.436 83.5689 145.977 82.9437 146.258L83.0267 146.656L82.1167 147.179C80.8779 146.397 80.1291 145.953 78.6785 145.729C78.816 145.187 78.8314 145.101 79.1781 144.667Z" fill="#675B49"/>
<path d="M52.6016 136.247C61.2731 137.282 69.836 139.028 78.591 139.433C80.2615 139.51 81.9137 139.624 83.5684 139.879C84.4977 139.947 86.361 140.072 87.2678 139.952C87.0075 140.479 86.9414 140.634 86.551 141.094C85.3514 141.044 84.1532 140.963 82.9576 140.852C81.8596 140.969 77.9119 140.584 76.6074 140.471C68.4692 139.813 60.3766 138.677 52.3717 137.069C52.558 136.821 52.5098 136.567 52.6016 136.247Z" fill="#675B49"/>
<path d="M83.5684 139.878C84.4977 139.947 86.361 140.072 87.2678 139.952C87.0074 140.479 86.9414 140.634 86.551 141.093C85.3514 141.044 84.1531 140.963 82.9576 140.852L83.9752 140.799L84.1971 140.539L84.6821 140.726C84.1551 140.47 83.9455 140.362 83.5684 139.878Z" fill="#675B49"/>
<path d="M99.4766 82.81C109.174 82.7295 118.863 82.2377 128.519 81.3359C129.709 82.2311 129.576 81.2451 130.823 82.1871C130.156 82.3004 129.473 82.4035 128.8 82.4648C120.001 83.2682 110.811 83.9689 101.979 83.9332L101.879 83.4564C101.63 83.2867 100.056 82.992 99.4766 82.81Z" fill="#675B49"/>
<path d="M66.3678 131.686C68.1407 132.122 71.7264 132.531 73.6399 132.711C79.7157 133.282 87.035 134.022 93.1352 133.968C93.2274 134.463 93.2635 134.522 93.143 134.997L93.1233 135.02C84.4606 135.136 73.6877 133.981 65.2444 132.71L66.3678 131.686Z" fill="#675B49"/>
<path d="M98.8684 20.6462C99.8733 17.8129 99.3446 15.4375 99.7342 14.3542L100.134 14.1987C101.321 14.9282 103.973 18.5525 104.817 19.8507C107.163 23.4574 108.306 27.9351 106.75 32.0765C106.316 32.1873 105.897 32.3179 105.468 32.448C108.205 25.7695 104.205 21.4396 100.891 16.2225C100.802 17.3782 100.445 19.4942 100.109 20.5839L98.8684 20.6462Z" fill="#675B49"/>
<path d="M101.368 140.245C110.292 140.284 117.465 139.488 126.082 139.078L125.702 139.913C126.136 140.158 126.631 140 127.191 140.062C120.858 140.98 108.637 141.427 102.154 141.416C101.663 141.204 101.467 141.178 101.199 140.72L101.368 140.245Z" fill="#675B49"/>
<path d="M120.925 50.7806C120.985 53.8751 121.264 72.7136 120.601 74.6958L120.365 74.8083C119.324 73.2009 120.121 53.9511 119.944 50.9198C119.919 50.5003 120.18 50.3005 120.472 50.0776C121.616 51.096 123.088 50.4282 124.444 50.7198C123.681 50.8333 121.783 50.7843 120.925 50.7806Z" fill="#675B49"/>
<path d="M89.1519 161.577C89.2314 160.678 90.5078 160.498 91.2525 160.356C91.7513 167.446 89.158 173.269 82.8691 176.798L82.7939 176.586C81.9677 176.654 81.4654 176.684 80.64 176.651C81.8949 175.974 83.1599 175.211 84.3939 174.488C88.5304 170.9 90.6117 167.204 89.1519 161.577Z" fill="#675B49"/>
<path d="M81.8332 183.076C87.5695 185.106 98.5332 185.37 104.597 185.192C103.836 185.372 103.695 185.467 103.018 185.86L102.896 186.185L103.077 186.342C95.0287 186.369 89.6496 186.336 81.7594 184.244C81.4969 183.617 81.5455 183.851 81.8332 183.076Z" fill="#675B49"/>
<path d="M93.1352 133.968C97.262 133.664 102.055 134.195 106.272 133.936C108.322 133.809 110.942 133.725 112.983 133.787C113.965 134.126 115.737 134.349 116.105 134.62C112.871 134.935 96.0217 135.715 93.1233 135.019L93.143 134.997C93.2635 134.522 93.2274 134.463 93.1352 133.968Z" fill="#675B49"/>
<path d="M122.649 144.633C126.647 143.968 131.033 143.673 135.117 143.111C135.822 143.246 136.166 143.316 136.881 143.325C136.965 143.599 137.042 143.796 137.051 144.084C136.122 144.188 134.97 144.236 134.161 144.656C134.171 144.789 134.176 144.99 134.211 145.118L133.985 146.033C129.901 144.757 127.316 145.733 123.579 147.437C123.207 147.1 123.208 147.045 123.012 146.567C123.904 146.215 124.209 146.133 124.9 145.488C123.196 145.077 124.58 144.806 122.649 144.633Z" fill="#675B49"/>
<path d="M123.864 180.139C124.548 181.767 121.611 183.417 120.368 183.831C115.112 185.581 108.626 186.316 103.077 186.342L102.896 186.185L103.018 185.86C103.695 185.467 103.836 185.372 104.597 185.193C110.252 184.916 118.799 184.316 123.184 180.777C123.584 180.643 123.615 180.513 123.864 180.139Z" fill="#675B49"/>
<path d="M150.141 68.1016C158.451 71.6885 156.61 73.1668 156.649 81.3244C156.657 83.0045 156.633 84.8389 156.679 86.5242L155.6 86.6648C155.395 85.7361 155.631 77.9447 155.353 75.7012L155.035 75.3072L155.213 74.283C156.078 71.3859 151.861 69.9869 149.748 69.0889C149.821 68.6584 149.938 68.4943 150.141 68.1016Z" fill="#675B49"/>
<path d="M125.795 50.3086C126.236 52.2984 126.171 72.9297 125.631 74.9104L125.45 75.0393C124.629 73.3439 125.136 54.4736 124.971 50.8709C125.126 50.7926 125.622 50.4289 125.795 50.3086Z" fill="#675B49"/>
<path d="M66.1028 143.267C69.3325 143.617 75.3545 144.495 78.3674 144.594L79.1782 144.667C78.8315 145.101 78.8161 145.187 78.6786 145.729C78.05 145.723 77.1596 145.575 76.5124 145.487L76.1239 145.664L76.1266 146.013C76.3325 147.002 76.5766 146.548 77.409 147.557C76.7711 147.226 76.1188 146.924 75.4542 146.65C72.3875 145.368 69.6563 144.842 66.4834 146.145C66.5137 145.489 66.5434 145.746 66.1993 145.072L66.5793 145.012L66.828 144.612C66.667 143.907 66.6559 143.748 66.1028 143.267Z" fill="#675B49"/>
<path d="M78.3674 144.594L79.1781 144.667C78.8315 145.101 78.816 145.187 78.6785 145.73C78.05 145.724 77.1596 145.575 76.5123 145.487L76.6453 145.015C77.0795 144.618 77.736 144.654 78.3674 144.594Z" fill="#675B49"/>
<path d="M126.082 139.078C128.299 138.66 131.185 138.515 133.517 138.218C136.994 137.775 140.538 137.141 143.994 136.786C144.769 137.013 144.856 137.06 145.441 137.616C141.029 138.414 131.418 140.003 127.191 140.062C126.631 140 126.136 140.158 125.702 139.913L126.082 139.078Z" fill="#675B49"/>
<path d="M47.1463 139.601C47.7704 139.763 48.4764 139.966 49.0969 140.105L50.503 140.381C53.1676 141.236 63.0946 142.932 66.1028 143.266C66.6559 143.748 66.667 143.907 66.828 144.611C66.044 144.324 60.6028 143.501 59.5696 143.331C56.1071 142.765 52.6649 142.081 49.2493 141.279L48.7653 141.119C47.8858 140.958 47.0004 140.724 46.1311 140.508L47.1463 139.601Z" fill="#675B49"/>
<path d="M134.211 145.118C135.717 145.734 136.811 146.465 137.487 148.026C137.997 149.197 138.02 150.525 137.548 151.713C136.333 154.718 133.368 155.074 130.82 153.438C129.475 150.854 129.977 148.316 133.321 149.474L133.471 149.869C132.653 150.203 131.995 150.286 131.401 150.937C131.115 151.685 131.148 151.363 131.285 152.16C132.791 154.371 136.534 153.104 136.769 150.467C136.937 148.581 135.628 146.843 133.985 146.033L134.211 145.118Z" fill="#675B49"/>
<path d="M71.5109 181.737C72.8918 179.479 73.6633 179.09 76.0742 178.083L76.2104 178.174C76.7695 178.543 76.8891 178.597 77.5385 178.763C77.8973 179.104 77.8775 179.31 77.9621 179.817C77.8275 180.2 77.6309 180.48 77.8434 180.867C78.4135 181.907 80.7115 182.872 81.8332 183.076C81.5455 183.851 81.4969 183.617 81.7594 184.244C80.0764 183.636 76.1541 182.569 76.844 179.933C76.9131 179.669 77.5395 178.649 77.7072 178.36C75.634 179.416 69.9262 181.935 74.2654 184.436L73.5889 185.108L73.0008 185.026C73.0682 185.523 73.2617 185.605 73.6254 186.048L73.3639 187.078C71.1801 185.573 71.4488 184.154 71.5109 181.737Z" fill="#675B49"/>
<path d="M46.0339 70.4295C50.7283 67.135 58.9431 65.9758 64.5781 65.0469L64.8216 66.1092C59.1478 67.2129 51.9753 68.1359 47.0119 71.091L46.0339 70.4295Z" fill="#675B49"/>
<path d="M143.391 79.0237C144.253 78.8724 145.554 78.5341 146.466 78.3394C147.705 79.322 147.891 78.3503 149.06 78.7901C148.445 78.9647 147.498 79.2677 146.902 79.3933C143.684 80.3019 134.243 82.0897 130.823 82.187C129.576 81.245 129.709 82.231 128.519 81.3358C132.191 81.1399 139.667 79.7614 143.391 79.0237Z" fill="#675B49"/>
<path d="M121.236 30.7563C122.249 31.7808 123.282 32.7974 124.194 33.9128C127.495 37.9495 129.038 44.8114 124.376 48.4866L124.128 47.7538C127.194 43.6392 126.939 39.8144 124.07 35.5337C123.654 34.912 122.963 33.8304 122.236 33.6899L122.039 34.2116C121.837 34.5765 121.977 34.4382 121.59 34.6267C121.183 34.2688 121.311 34.4118 121.166 33.7915C121.172 32.7794 121.195 31.7675 121.236 30.7563Z" fill="#675B49"/>
<path d="M127.262 185.792C127.281 186.182 127.287 186.73 127.372 187.097C122.679 189.927 117.492 190.812 112.084 191.474C110.23 191.324 110.024 192.032 108.495 190.784C113.114 190.417 123.987 188.857 127.262 185.792Z" fill="#675B49"/>
<path d="M48.1829 126.806C54.5418 130.06 57.6313 129.66 63.6917 131.447L63.6881 131.784L63.2081 132L63.102 132.348C57.7842 131.582 52.1036 130.027 47.3215 127.618C47.5797 127.495 47.9676 127.035 48.1829 126.806Z" fill="#675B49"/>
<path d="M118.985 41.0581C119.176 41.9079 119.081 41.6376 119.853 42.2784C119.88 43.7749 120.518 47.1845 122.14 47.6769C122.991 46.9614 122.307 44.7628 123.341 43.7224C123.746 44.7062 123.047 46.7856 123.595 47.7327C123.803 47.7571 123.928 47.7933 124.128 47.7536L124.376 48.4864C123.733 48.887 123.656 48.7925 123.379 49.3718C123.942 49.9667 124.694 49.3892 125.795 50.3087C125.622 50.429 125.126 50.7927 124.971 50.871L124.444 50.7198C123.088 50.4282 121.616 51.096 120.472 50.0776C121.407 49.3886 121.674 49.9675 122.586 49.4804C122.138 48.6724 120.529 47.6888 119.915 46.9212C118.551 45.2163 118.791 43.0444 118.985 41.0581Z" fill="#675B49"/>
<path d="M111.151 159.747C114.061 152.934 116.696 150.275 123.012 146.567C123.208 147.045 123.207 147.1 123.579 147.437C117.853 150.72 115.168 153.315 112.303 159.338L111.151 159.747Z" fill="#675B49"/>
<path d="M112.303 159.337C110.793 163.841 110.464 165.386 112.456 169.842L111.468 170.386C110.066 167.661 109.749 166.072 109.445 163.056C109.422 162.331 109.449 161.521 109.458 160.788L109.536 159.947C109.879 159.932 110.316 159.9 110.65 159.91L110.852 160.145L111.151 159.747L112.303 159.337Z" fill="#675B49"/>
<path d="M109.458 160.789C110.47 161.412 110.749 161.777 110 162.826L109.445 163.057C109.422 162.332 109.449 161.521 109.458 160.789Z" fill="#675B49"/>
<path d="M87.2678 139.952C92.176 140.173 96.4612 140.209 101.368 140.245L101.199 140.72C101.467 141.178 101.663 141.204 102.154 141.416C96.9004 141.275 91.9018 141.29 86.551 141.093C86.9415 140.634 87.0075 140.479 87.2678 139.952Z" fill="#675B49"/>
<path d="M113.68 173.532C114.251 173.678 114.818 173.892 115.371 173.771C119.49 176.702 120.444 176.552 124.984 178.212L125.641 179.64C125.058 179.36 124.321 178.899 123.734 179.023C123.564 179.531 123.68 179.55 123.864 180.138C123.615 180.512 123.584 180.642 123.184 180.776C121.871 178.197 118.764 177.522 116.399 175.797C115.15 174.886 114.828 174.658 113.68 173.532Z" fill="#675B49"/>
<path d="M88.2426 190.274C91.7885 191.272 97.9076 190.728 101.435 191.048L101.586 191.095C102.209 191.285 102.344 191.303 102.996 191.303L103.182 191.518L102.883 192.138C98.8723 192.208 91.3801 192.087 87.5654 191.328C88.026 190.928 88.0557 190.858 88.2426 190.274Z" fill="#675B49"/>
<path d="M156.916 117.679C160.538 118.354 168.116 121.079 170.24 124.368L169.621 125.239C166.722 122.225 164.672 121.251 160.638 119.854C159.24 119.37 158.036 119.16 156.681 118.503C156.972 118.177 156.876 118.23 156.916 117.679Z" fill="#675B49"/>
<path d="M73.6254 186.048C76.9879 188.325 84.2772 190.273 88.2426 190.275C88.0557 190.858 88.026 190.928 87.5655 191.329C82.1137 190.675 78.1071 189.787 73.3639 187.078L73.6254 186.048Z" fill="#675B49"/>
<path d="M83.0268 146.656C86.4344 148.272 88.8334 151.678 90.0539 155.166C90.1297 155.383 90.1981 155.602 90.2588 155.824C90.3381 156.833 90.5233 157.585 89.8764 158.387C88.5043 154.791 88.3938 152.251 84.9862 149.269C84.1258 148.516 83.0299 147.917 82.1168 147.179L83.0268 146.656Z" fill="#675B49"/>
<path d="M30.456 132.457C30.4189 131.756 30.3441 131.269 30.5777 130.605L30.8697 130.543L31.124 130.82C32.4738 135.404 38.0527 136.45 41.8568 138.085C41.8246 138.742 41.9027 138.488 41.556 139.052C40.632 138.743 39.7193 138.401 38.8193 138.029C36.2101 136.976 31.6183 135.191 30.456 132.457Z" fill="#675B49"/>
<path d="M139.7 66.7111C137.5 66.3094 128.11 65.5154 127.162 64.4871L127.429 64.2724C129.412 64.032 137.775 64.9996 139.787 65.6264L140.128 66.5314L139.7 66.7111Z" fill="#675B49"/>
<path d="M64.276 151.576C67.5453 155.338 70.2386 152.255 69.0127 150.349C67.8713 149.936 68.1045 150.625 67.2416 150.173C67.3072 149.583 67.1992 149.805 67.7164 149.356C70.498 148.587 71.5142 151.261 70.1978 153.034C68.6277 155.15 64.8402 154.765 63.4779 152.249L64.276 151.576Z" fill="#675B49"/>
<path d="M116.036 144.992C118.164 144.868 120.548 144.621 122.649 144.633C124.58 144.806 123.196 145.077 124.9 145.488C120.838 145.712 119.754 146.171 116.481 148.656L116.548 147.265C116.801 146.978 118.048 146.295 118.453 146.055C116.983 146.077 115.384 146.195 113.906 146.276C114.063 145.284 116.357 146.135 117.313 145.39C116.8 144.976 116.794 145.094 116.036 144.992Z" fill="#675B49"/>
<path d="M64.5781 65.0473C66.4764 64.8 74.5728 63.6405 75.692 64.26L75.7764 64.6483C74.9822 65.3654 66.3752 66.0168 64.8217 66.1096L64.5781 65.0473Z" fill="#675B49"/>
<path d="M96.5709 31.0447C96.041 26.4896 97.4787 24.717 98.8684 20.6463L100.109 20.584C98.6617 24.4906 97.5006 26.368 97.635 30.5613C97.3262 30.7197 96.8891 30.9793 96.5709 31.0447Z" fill="#675B49"/>
<path d="M42.0649 133.465C45.5739 134.459 49.1598 135.257 52.6016 136.247C52.5098 136.567 52.5581 136.82 52.3717 137.068C48.6741 136.411 45.6229 135.853 42.0481 134.538C42.3079 133.846 42.309 134.132 42.0649 133.465Z" fill="#675B49"/>
<path d="M88.0867 63.3646C90.1977 63.3132 94.6115 63.081 96.408 63.7586L96.2793 63.7631L96.123 64.0597L96.1096 63.7545L95.8906 64.1341C95.3953 64.3025 94.2582 64.3408 93.6814 64.3804C92.067 64.4293 85.9662 64.8195 85.1162 64.0312L85.1904 63.6918C85.9021 63.3693 87.2561 63.398 88.0867 63.3646Z" fill="#675B49"/>
<path d="M107.595 63.3611C109.345 63.2914 117.241 62.8935 118.104 64.0619L117.935 64.5193C116.259 64.4812 107.946 64.7439 107.333 63.6666L107.595 63.3611Z" fill="#675B49"/>
<path d="M33.4369 129.364C36.358 131.247 38.7605 132.297 42.0648 133.465C42.309 134.132 42.3078 133.846 42.048 134.538C38.8502 133.531 35.7775 132.162 32.8896 130.459C33.0064 129.93 33.1213 129.811 33.4369 129.364Z" fill="#675B49"/>
<path d="M30.456 132.458C29.938 131.016 29.7968 125.881 30.4773 124.495C31.1783 124.773 31.073 124.615 31.456 125.159C30.9785 127.248 31.947 128.075 33.4369 129.364C33.1212 129.811 33.0064 129.93 32.8896 130.459C32.4615 130.03 31.972 129.364 31.4812 129.338C31.0943 130.079 31.2814 130.244 31.124 130.82L30.8697 130.543L30.5777 130.605C30.3441 131.269 30.4189 131.756 30.456 132.458Z" fill="#675B49"/>
<path d="M76.1266 146.013C77.96 146.575 83.0287 149.633 84.0207 151.167C83.8606 152.371 84.5715 152.247 84.4918 153.068C81.752 150.346 80.709 149.566 77.409 147.557C76.5766 146.548 76.3324 147.002 76.1266 146.013Z" fill="#675B49"/>
<path d="M141.817 65.9365C144.325 66.2934 147.72 67.3119 150.141 68.1018C149.938 68.4945 149.821 68.6586 149.748 69.0891C148.592 68.5338 143.029 67.3498 141.641 67.0465C141.913 66.5537 141.757 66.46 141.817 65.9365Z" fill="#675B49"/>
<path d="M155.213 74.2832L155.035 75.3074L155.353 75.7014C153.652 76.7869 151.026 78.2764 149.06 78.7902C147.891 78.3504 147.705 79.3221 146.466 78.3395C149.555 77.4693 152.816 76.5123 155.213 74.2832Z" fill="#675B49"/>
<path d="M84.0207 151.167C86.4076 153.286 88.208 155.984 89.2482 159.001C89.0843 159.335 88.9025 159.747 88.6874 160.042C87.9845 157.512 86.1093 155.114 84.4917 153.068C84.5714 152.247 83.8605 152.371 84.0207 151.167Z" fill="#675B49"/>
<path d="M112.124 152.159C112.361 152.437 112.635 152.822 112.952 152.97C111.858 155.31 111.044 157.316 110.65 159.91C110.316 159.9 109.879 159.932 109.536 159.947C110.025 156.731 110.553 154.997 112.124 152.159Z" fill="#675B49"/>
<path d="M76.0742 178.082C77.0338 177.71 79.6912 176.77 80.64 176.651C81.4654 176.684 81.9678 176.654 82.7939 176.586L82.8691 176.798C81.4615 177.639 78.9543 178.812 77.9621 179.817C77.8775 179.31 77.8973 179.104 77.5385 178.763C76.8891 178.597 76.7695 178.543 76.2103 178.173L76.0742 178.082Z" fill="#675B49"/>
<path d="M121.166 33.7915C121.311 34.4118 121.183 34.2688 121.59 34.6267C121.977 34.4382 121.837 34.5765 122.039 34.2116C122.157 36.6556 120.083 39.5851 119.853 42.2786C119.081 41.6378 119.176 41.9081 118.985 41.0583C119.436 38.7655 120.651 36.7466 121.166 33.7915Z" fill="#675B49"/>
<path d="M128.416 182.691L129.267 182.037C129.36 184.42 129.478 185.597 127.372 187.097C127.287 186.73 127.281 186.182 127.262 185.792L127.254 185.662L126.927 185.378L126.11 184.701C127.055 184.129 127.646 183.467 128.416 182.691Z" fill="#675B49"/>
<path d="M101.435 191.048L108.495 190.784C110.024 192.032 110.23 191.324 112.084 191.474C109.215 191.881 105.794 192.045 102.883 192.138L103.182 191.518L102.996 191.303C102.344 191.303 102.209 191.285 101.586 191.095L101.435 191.048Z" fill="#675B49"/>
<path d="M44.1256 75.577C44.0676 73.1295 43.9149 71.9744 46.034 70.4297L47.012 71.0912C46.1127 71.8902 44.5485 73.1449 45.7135 74.4516C45.9547 74.7234 46.2311 74.9623 46.5352 75.1615L45.7719 75.0926L45.5916 75.5059C44.6665 75.2904 45.0321 75.275 44.1256 75.577Z" fill="#675B49"/>
<path d="M76.833 185.706C78.8193 186.275 80.3637 186.659 82.3781 187.098L81.2947 187.859C79.1408 187.236 77.4861 187.162 75.373 186.235C75.802 185.65 76.15 185.776 76.833 185.706Z" fill="#675B49"/>
<path d="M41.8568 138.084C43.167 138.465 45.8828 139.339 47.1463 139.601L46.131 140.508C44.9051 140.197 42.665 139.512 41.556 139.052C41.9027 138.488 41.8246 138.742 41.8568 138.084Z" fill="#675B49"/>
<path d="M90.2588 155.824C90.7897 157.621 90.9668 158.51 91.2525 160.357C90.5078 160.498 89.2314 160.678 89.152 161.577L88.6875 160.042C88.9025 159.747 89.0844 159.335 89.2482 159.001C89.3494 159.433 89.391 159.467 89.6408 159.843C89.9492 159.403 89.8514 159.013 89.8764 158.387C90.5232 157.585 90.3381 156.833 90.2588 155.824Z" fill="#675B49"/>
<path d="M111.468 170.386L112.456 169.842C113.386 171.313 114.083 172.571 115.371 173.772C114.818 173.892 114.251 173.678 113.68 173.532C112.748 172.388 112.257 171.639 111.468 170.386Z" fill="#675B49"/>
<path d="M63.3434 148.044L63.9639 147.824L64.4645 148.073C63.9096 149.433 63.9209 150.13 64.276 151.575L63.4779 152.248C62.7935 150.205 62.8566 150.144 63.3434 148.044Z" fill="#675B49"/>
<path d="M113.516 150.192C114.098 149.074 115.545 148.025 116.548 147.265L116.481 148.656C115.808 149.307 115.075 149.989 114.43 150.659C114.102 150.324 113.985 150.329 113.516 150.192Z" fill="#675B49"/>
<path d="M63.3434 148.044C63.9471 146.639 64.8305 145.724 66.1992 145.072C66.5434 145.745 66.5137 145.489 66.4834 146.145C65.5354 146.875 65.2272 147.104 64.4645 148.073L63.9639 147.824L63.3434 148.044Z" fill="#675B49"/>
<path d="M105.468 32.4481C105.897 32.3181 106.316 32.1874 106.75 32.0767C106.219 33.3856 105.988 33.9728 105.056 35.0948L104.111 34.3118C104.482 33.8829 105.114 32.9421 105.468 32.4481Z" fill="#675B49"/>
<path d="M124.984 178.212C126.07 178.681 127.127 179.231 127.989 180.062C127.51 180.71 127.632 180.451 127.716 181.403C126.938 180.581 126.538 180.297 125.641 179.64L124.984 178.212Z" fill="#675B49"/>
<path d="M113.516 150.192C113.985 150.329 114.102 150.324 114.43 150.659C113.893 151.451 113.428 152.133 112.952 152.97C112.635 152.822 112.361 152.437 112.124 152.159C112.407 151.568 113.097 150.737 113.516 150.192Z" fill="#675B49"/>
<path d="M63.6916 131.447C64.5857 131.501 65.4781 131.58 66.3678 131.685L65.2443 132.71L63.1019 132.348L63.208 132L63.6881 131.784L63.6916 131.447Z" fill="#675B49"/>
<path d="M74.2654 184.436C75.2293 184.987 75.776 185.312 76.833 185.705C76.15 185.776 75.802 185.65 75.373 186.235C74.5467 185.833 74.3193 185.674 73.5889 185.107L74.2654 184.436Z" fill="#675B49"/>
<path d="M127.989 180.062C128.777 180.777 128.926 180.999 129.267 182.037L128.416 182.691C128.233 182.186 127.999 181.855 127.716 181.403C127.632 180.451 127.51 180.711 127.989 180.062Z" fill="#675B49"/>
<path d="M139.787 65.6265C140.121 65.6745 141.583 65.8626 141.817 65.9364C141.757 66.4599 141.913 66.5536 141.641 67.0464L139.7 66.7112L140.128 66.5315L139.787 65.6265Z" fill="#675B49"/>
</svg>
