<svg width="200" height="200" viewBox="0 0 200 200" fill="none" xmlns="http://www.w3.org/2000/svg">
<path d="M79.9375 68.3433C80.0355 68.3435 80.1336 68.3456 80.2316 68.3499C81.1414 68.3896 81.2273 68.5632 81.723 69.1142C81.1354 68.986 80.4914 68.6206 79.9375 68.3433Z" fill="#675B49"/>
<path d="M180.838 92.291C181.943 93.1451 180.414 95.8361 179.8 96.6928C176.377 101.473 170.633 104.16 165.454 106.601C163.985 107.293 161.79 108.376 160.27 108.658L160.09 108.465C160.443 107.969 162.423 107.492 163.145 107.118C170.118 103.496 178.857 100.805 180.838 92.291Z" fill="#675B49"/>
<path d="M136.315 118.708L136.577 118.935L136.461 119.223C134.65 120.169 133.46 120.698 131.551 121.43L131.317 121.312L131.37 120.954C132.411 120.23 134.84 119.556 136.315 118.708Z" fill="#675B49"/>
<path d="M129.042 110.327C133.205 107.661 136.604 100.07 142.864 98.3562C146.571 97.3413 147.616 97.3177 150.985 98.9909L151.291 98.8267C151.526 98.5454 151.871 98.2061 152.131 97.9333C155.324 104.031 152.764 110.439 147.683 114.499C143.792 117.456 138.829 117.88 134.147 116.874C133.001 116.627 130.965 115.814 129.964 115.779L129.847 116.07C130.505 118.391 129.508 121.748 130.197 123.127C130.872 123.256 134.822 120.928 135.862 120.538C136.837 120.173 138.38 119.626 139.339 119.235C150.732 114.541 162.221 110.084 173.799 105.867L173.551 106.427L173.752 106.457C173.344 106.915 173.202 107.134 172.61 107.345L172.487 107.753C168.993 109.111 165.136 110.359 161.565 111.69C154.352 114.406 147.195 117.266 140.097 120.267C137.908 121.201 132.591 123.327 130.688 124.445L133.634 127.709C133.521 127.987 133.289 128.509 133.211 128.774C131.634 127.24 128.748 123.367 128.105 121.251C127.429 120.294 127.213 118.694 126.982 117.527L127.53 116.617C127.276 115.724 127.151 115.838 126.397 115.484C126.627 115.042 126.792 114.57 126.888 114.081C127.604 110.384 122.293 108.407 121.758 113.506C121.628 112.941 121.236 112.908 120.723 112.686C120.96 112.473 121.054 112.184 121.19 111.888C121.304 111.594 121.733 111.035 121.934 110.753L121.874 110.408C123.875 108.622 125.414 110.158 126.498 109.464L126.584 109.034C126.215 107.556 124.94 105.553 123.996 104.349L124.705 103.672C126.198 105.166 126.664 106 126.961 108.083L128.47 104.454L129.182 105.341C128.588 106.648 127.369 109.227 127.238 110.557C127.631 110.259 127.768 110.059 128.07 109.686L129.074 109.559L129.042 110.327ZM128.055 112.233C129.129 112.653 129.847 112.355 130.947 112.433C134.283 112.67 136.951 113.074 139.545 115.237L139.571 115.394C138.571 115.597 130.89 111.74 127.921 113.738L128.029 114.043C134.149 116.657 141.688 117.834 147.417 113.672C151.672 109.948 154.005 105.148 150.941 99.8114C149.921 99.0964 149.345 98.7259 148.108 98.5102C141.646 97.3839 137.09 103.424 133.412 107.737C132.594 108.696 131.655 109.765 130.616 110.469L130.463 110.572C129.549 111.806 128.779 111.464 128.055 112.233Z" fill="#675B49"/>
<path d="M151.185 102.278C152.216 103.326 151.399 104.147 150.972 105.088C151.086 105.312 151.434 105.714 151.341 105.981C149.954 109.974 143.537 114.439 139.499 113.936C139.276 113.909 139.08 113.831 138.863 113.761C139.093 113.489 142.088 113.213 143.291 112.629C146.748 110.948 149.042 108.961 150.355 105.23C150.724 104.184 150.803 103.349 151.185 102.278Z" fill="#675B49"/>
<path d="M129.042 110.327C133.205 107.661 136.604 100.07 142.864 98.3562C146.571 97.3413 147.616 97.3177 150.985 98.9909L151.291 98.8267C151.526 98.5454 151.871 98.2061 152.131 97.9333C155.324 104.031 152.764 110.439 147.683 114.499L147.417 113.672C151.672 109.948 154.005 105.148 150.941 99.8114C149.921 99.0964 149.345 98.7259 148.108 98.5102C141.646 97.3839 137.09 103.424 133.412 107.737C132.594 108.696 131.655 109.765 130.616 110.469L130.463 110.572C130.062 110.626 129.747 110.626 129.346 110.633L129.042 110.327Z" fill="#675B49"/>
<path d="M128.07 109.686L129.074 109.559L129.042 110.328L129.346 110.633C129.747 110.626 130.062 110.626 130.462 110.572C129.549 111.807 128.779 111.464 128.055 112.234C127.092 111.624 127.849 111.19 127.056 110.681L127.238 110.557C127.631 110.259 127.768 110.059 128.07 109.686Z" fill="#675B49"/>
<path d="M127.53 116.617C127.737 117.596 128.394 120.044 128.743 120.984L128.216 121.034L128.104 121.251C127.429 120.294 127.212 118.694 126.982 117.527L127.53 116.617Z" fill="#675B49"/>
<path d="M95.6937 48.5377C97.3744 46.7474 98.8902 46.2293 101.513 46.0853C103.578 45.9722 107.771 46.6246 108.156 49.264C108.217 49.6781 108.013 50.9513 107.938 51.4191C108.435 51.7965 109.223 51.698 109.868 51.6617C113.02 50.8716 115.93 51.5261 119.32 51.8021L119.396 52.0631C118.377 52.6968 114.97 51.9304 113.574 52.0767C111.685 52.2746 109.688 52.5084 107.806 52.7562C106.67 52.9058 104.499 52.8935 103.582 53.0556C101.394 53.2607 99.2562 53.58 97.2957 52.4814C96.9301 52.2765 95.4996 51.5238 95.2045 51.5879C91.2957 52.4365 85.6732 53.4927 81.9603 54.3461C73.3857 55.8943 68.0305 57.9291 60.082 60.4595C68.1908 64.0724 76.517 67.2523 84.4615 71.3134C85.5613 71.8757 90.3033 73.9771 91.0941 74.5215L90.4873 74.9363C87.2416 73.823 83.1676 71.3146 79.9021 69.8832C75.2324 67.8361 70.5789 65.5873 65.8289 63.7088C64.3238 63.1136 61.1742 61.5683 59.6932 61.3908C58.9721 61.6568 58.3703 62.4908 57.8463 63.0935C66.7014 66.1517 75.4799 70.1998 83.9992 74.1281C83.623 74.5537 83.5084 74.7445 82.9881 74.9875C81.3377 74.14 67.4066 67.781 66.7074 67.9375C66.6795 68.5201 66.6435 69.1 66.6049 69.6818C66.2068 75.6535 63.3035 80.4908 61.8785 86.2457L61.0996 85.7125C61.7906 83.374 62.9303 80.7451 63.4115 78.4615C64.1777 74.825 65.126 71.0425 65.3748 67.3425C62.7316 65.8164 60.3881 65.2383 57.785 63.7127C57.7545 68.3595 56.9969 72.3332 56.2654 76.8613C56.2258 77.107 57.2826 78.4394 57.3529 78.7529C57.8465 80.9548 55.7748 82.4591 55.0383 84.7898C55.9217 87.2496 56.3115 92.2591 56.9933 95.1463C56.8601 95.8375 56.9201 95.8547 56.2502 96.3732C55.8687 94.1205 55.4668 91.8711 55.0443 89.6256C54.8656 90.5714 54.6947 91.6209 54.6162 92.5808C54.5367 93.5556 54.7746 94.6781 54.5182 95.6095C53.0549 94.2142 54.999 89.3232 53.7224 87.0509L53.5002 87.1904C52.9691 88.1113 53.2316 89.4099 52.9881 90.7097L52.9512 90.9011C52.8486 89.7933 53.1418 88.174 52.5316 87.2906C52.6767 86.3816 53.1242 85.1943 52.9789 84.5199L52.6285 84.3736C51.3053 85.0308 49.0974 92.7437 49.1771 94.4047C49.1844 94.5552 49.1277 94.6166 49.101 94.6855C48.9328 94.4369 48.7824 94.4379 48.4578 94.2898C48.6039 92.0273 49.8801 87.2767 51.2664 85.4781C51.8266 84.7513 52.0771 84.4101 51.6687 83.8742C48.1416 84.3642 46.5523 92.7816 45.4744 93.3758C45.6312 90.1185 47.9861 86.1105 49.9244 83.5154C45.292 86.5927 44.4449 90.3785 43.3732 95.7252C43.2953 96.1131 43.2224 96.5017 43.1541 96.8914C42.9193 96.7978 42.7326 96.6634 42.5199 96.5271L42.3389 95.5148C42.4957 91.8174 45.3029 84.7681 48.7392 83.0548C49.6838 82.584 50.3609 81.6031 50.2424 80.5718C49.8902 77.507 50.3955 77.0486 53.0637 75.7988C54.6435 74.8621 55.2443 64.807 55.3875 63.1052C55.0842 62.7117 54.7086 62.6625 54.1853 62.4472L54.2517 62.0443L54.9144 61.8646C55.1318 61.9021 55.4299 61.9138 55.6568 61.9308C56.1945 61.5949 56.4758 60.7634 56.7504 60.1572C49.1451 57.3275 40.9324 54.6232 33.2053 52.0437C33.3928 51.7574 33.6463 51.6232 33.9314 51.4275C34.3101 51.599 34.7461 51.7336 35.1461 51.8564C42.6912 54.1765 50.0748 57.0222 57.5762 59.4533C60.8281 56.2488 81.1267 51.4949 86.1494 50.7965C88.798 50.2806 92.3105 49.841 94.9832 49.1763C95.1726 49.1293 95.5586 48.6968 95.6937 48.5377ZM57.4277 60.7441C55.2998 64.4291 56.3705 68.1095 55.1498 72.0685C54.9478 72.7234 54.1115 75.9285 54.1857 76.4209C54.7279 76.7511 54.4869 76.6996 55.0914 76.64C56.9295 73.6646 56.4 61.9175 59.3865 60.2841C65.7191 56.8207 74.6051 55.8056 81.4697 53.6865C82.8869 53.0244 92.5058 51.9002 93.1713 51.0175C92.251 50.559 89.241 51.1115 88.057 51.2699C77.5748 53.1654 66.7486 55.4902 57.4277 60.7441ZM101.225 52.4416C107.589 52.1463 110.222 48.0052 102.668 47.1343C100.497 46.884 98.1703 47.3765 96.5058 48.909C95.9379 51.4215 98.7867 52.1593 100.786 52.4033C100.932 52.4224 101.078 52.4353 101.225 52.4416ZM55.3217 81.756C55.9564 80.7722 56.5166 80.1121 56.301 78.9263C55.0111 77.1472 53.299 78.2945 51.6676 77.4297C51.641 77.4226 51.6142 77.4156 51.5875 77.4086C49.9623 79.9763 52.0814 82.6763 54.9662 82.2109C55.1127 82.0525 55.2473 81.9465 55.3217 81.756Z" fill="#675B49"/>
<path d="M95.6937 48.5377C97.3744 46.7474 98.8902 46.2293 101.513 46.0853C103.578 45.9722 107.771 46.6246 108.156 49.264C108.217 49.6781 108.013 50.9513 107.938 51.4191C108.435 51.7965 109.223 51.698 109.868 51.6617C113.02 50.8716 115.93 51.5261 119.32 51.8021L119.396 52.0631C118.377 52.6968 114.97 51.9304 113.574 52.0767C111.685 52.2746 109.688 52.5084 107.806 52.7562C106.67 52.9058 104.499 52.8935 103.582 53.0556C101.394 53.2607 99.2562 53.58 97.2957 52.4814C96.9301 52.2765 95.4996 51.5238 95.2045 51.5879C91.2957 52.4365 85.6732 53.4927 81.9604 54.3461L81.4697 53.6865C82.8869 53.0244 92.5059 51.9002 93.1713 51.0175C92.251 50.559 89.241 51.1115 88.057 51.2699C87.4801 51.2119 86.7248 50.9634 86.1494 50.7965C88.798 50.2806 92.3105 49.841 94.9832 49.1763C95.1727 49.1293 95.5586 48.6968 95.6937 48.5377ZM101.225 52.4416C107.589 52.1463 110.222 48.0052 102.668 47.1343C100.497 46.884 98.1703 47.3765 96.5059 48.909C95.9379 51.4215 98.7867 52.1593 100.786 52.4033C100.932 52.4224 101.078 52.4353 101.225 52.4416Z" fill="#675B49"/>
<path d="M86.1494 50.7964C88.798 50.2806 92.3105 49.8409 94.9832 49.1763C95.1727 49.1292 95.5586 48.6968 95.6937 48.5376L96.5059 48.9089C95.9379 51.4214 98.7867 52.1593 100.786 52.4032C100.932 52.4224 101.078 52.4353 101.225 52.4415C101.82 52.6825 102.959 53.0271 103.582 53.0556C101.394 53.2606 99.2562 53.58 97.2957 52.4814C96.9301 52.2765 95.4996 51.5237 95.2045 51.5878C91.2957 52.4364 85.6732 53.4927 81.9604 54.346L81.4697 53.6864C82.8869 53.0243 92.5059 51.9001 93.1713 51.0175C92.251 50.5589 89.241 51.1114 88.057 51.2698C87.4801 51.2118 86.7248 50.9634 86.1494 50.7964Z" fill="#675B49"/>
<path d="M109.868 51.6615C113.02 50.8715 115.93 51.526 119.32 51.8019C117.681 52.1553 111.518 51.8832 109.868 51.6615Z" fill="#675B49"/>
<path d="M61.6736 118.142C67.5979 116.45 74.1961 115.501 80.1936 113.834C82.9215 113.076 86.3559 112.181 89.0932 111.716C89.6451 112.091 89.8994 112.305 90.551 112.464C88.5965 113.283 85.0463 114.039 82.8514 114.574C78.4281 115.699 73.9854 116.745 69.5254 117.712C68.0096 118.047 64.7297 118.947 63.3623 119.132C62.743 119.256 62.0408 119.299 61.6783 119.785C61.8922 120.253 62.1195 120.31 62.676 120.519C62.8121 120.569 62.9492 120.616 63.0871 120.661L62.9418 121.686C60.5795 120.892 58.4621 120.683 56.1324 121.85C54.3639 122.735 53.0221 124.29 52.4057 126.169C50.9619 130.639 52.5236 137.274 54.66 141.355C55.9248 143.792 57.7234 145.912 59.9217 147.556C59.6861 147.795 59.4473 148.055 59.1891 148.264L58.8773 148.157C62.6133 153.73 72.3289 157.707 75.0514 148.36C75.3459 148.574 75.7086 148.859 76.0166 149.036L76.1283 149.527L76.3986 149.6L77.1262 149.906C76.4764 150.395 76.357 150.468 75.9791 151.187L76.1439 151.347L76.5313 151.179C77.5273 150.955 77.8809 151.05 78.9049 151.204C73.3705 155.418 68.2945 156.699 62.2072 152.446C54.2424 146.882 46.7832 131.975 52.4383 122.712C54.2496 119.744 58.4627 118.742 61.6736 118.142Z" fill="#675B49"/>
<path d="M49.6754 43.4886C55.9006 41.3748 64.1133 39.5099 70.6303 37.5769C76.0686 35.9361 81.4914 34.2449 86.8984 32.5037C91.1717 31.1205 99.1592 27.9146 103.219 27.9322C107.819 27.9523 115.852 31.2217 120.713 32.6234C120.38 32.8511 119.986 33.1023 119.681 33.3566C114.912 31.749 108.179 29.1176 103.315 29.0773C98.9646 29.0412 93.6383 31.4736 89.5168 32.7287C84.5695 34.2353 79.5428 35.9937 74.5963 37.4654C66.4629 39.8851 58.1828 41.9779 50.0195 44.333C49.4627 44.149 49.5953 44.2861 49.3834 43.8685L49.6754 43.4886Z" fill="#675B49"/>
<path d="M174.565 49.3288C174.748 48.9437 174.782 48.938 175.14 48.6841C182.694 50.706 176.541 54.5999 172.259 55.4351L171.544 54.7616C173.157 54.1958 176.914 53.0564 177.716 51.648L177.666 51.2233C176.678 50.6825 159.397 56.3101 156.784 57.2024C148.001 60.2022 139.394 64.3634 131.035 68.3833C129.402 69.17 127.523 70.3233 125.943 71.0024L125.155 70.7056C138.7 63.0753 153.086 57.0444 168.023 52.7339C171.058 51.8683 174.033 50.7759 177.165 50.7132C176.378 50.2427 175.391 49.7593 174.565 49.3288Z" fill="#675B49"/>
<path d="M62.1572 93.1914C69.6974 100.301 85.1775 105.081 95.2625 106.955C95.4131 105.78 95.3014 104.759 95.5797 103.753C96.315 104.318 96.3459 104.347 96.5545 105.262C96.3785 106.603 96.5732 108.109 96.6922 109.473C97.7058 110.924 98.5232 112.061 99.6502 113.419C98.9426 113.801 99.0865 113.738 98.1521 113.523C95.7146 109.708 94.7906 111.499 90.551 112.464C89.8994 112.305 89.6451 112.091 89.0932 111.717C91.2705 111.203 93.8006 110.461 96.0103 109.89C96.0424 108.656 95.0947 108.126 94.0213 107.888C84.6295 105.802 75.142 102.961 66.8381 97.9914C65.3539 97.1031 63.9094 96.2135 62.6346 95.0109C62.666 94.2986 62.0976 94.7775 62.1572 93.1914Z" fill="#675B49"/>
<path d="M121.758 113.506C121.905 114.553 122.039 116.119 123.345 116.125C124.982 115.209 124.646 112.627 123.644 111.33L123.858 111.052C126.593 111.049 124.296 115.178 124.566 116.232C125.167 116.303 125.851 115.805 126.397 115.484C127.151 115.838 127.276 115.724 127.53 116.617L126.982 117.527C126.44 118.396 126.502 119.4 126.33 120.468C126.211 120.155 126.134 120.012 125.973 119.718L125.379 119.732C124.63 118.693 125.371 118.061 124.803 117.401L124.669 117.421C123.295 117.617 123.446 116.995 122.688 117.422C122.644 118.008 122.723 117.832 122.847 118.151C123.196 119.048 122.921 122.105 122.81 123.066C122.732 122.72 122.788 122.664 122.571 122.504C122.417 122.959 122.243 123.373 122.061 123.816C122.077 123.161 122.068 123.02 121.897 122.389L121.856 122.241C121.998 120.626 122.003 119.376 121.45 117.826C121.183 117.764 120.589 117.328 120.328 117.153C118.082 117.867 114.973 122.214 113.986 124.181L113.924 124.307L113.608 123.567C114.374 122.251 115.506 120.35 116.467 119.176C116.92 118.622 117.85 118.239 118.447 117.44L118.157 117.245C117.511 117.308 117.314 117.568 116.844 117.998L116.184 117.369L116.328 116.912C115.837 116.74 115.333 117.022 114.73 117.204C114.879 116.961 114.869 116.979 114.889 116.695L113.964 116.399C115.461 116.146 121.04 115.587 120.948 113.748L120.679 113.571C118.807 113.807 117.96 113.932 116.166 114.467L114.802 114.234C115.805 113.753 117.317 113.341 118.413 113.025C118.604 112.842 118.782 112.407 118.91 112.148C119.465 112.315 120.174 112.552 120.723 112.686C121.236 112.909 121.628 112.941 121.758 113.506Z" fill="#675B49"/>
<path d="M142.179 77.5357C142.32 77.4012 142.834 77.0461 143.02 76.9102C143.47 78.7451 144.312 80.5703 144.994 82.3514C145.83 84.5311 146.786 86.0064 145.326 88.2246C144.184 89.96 142.797 91.2889 141.324 92.7357C141.284 92.3068 141.144 92.0564 140.975 91.667C141.93 90.6557 142.801 89.7693 143.623 88.6451C141.623 89.5994 140.21 91.3961 138.546 92.4299C135.875 94.0904 133.538 95.8596 130.965 97.6547C129.939 98.3701 127.954 99.5066 127.106 100.186L126.719 99.532C128.925 98.1967 131.051 96.7336 133.087 95.1504C135.672 93.1424 141.096 87.9248 141.477 84.5812C141.632 83.227 141.486 80.8406 141.69 79.2041L141.927 79.2197C142.341 79.7397 142.232 81.402 142.295 82.1029C142.599 85.4939 140.864 88.3246 138.533 90.6063C137.885 91.2406 137.096 91.9373 136.733 92.7844L136.845 93.0562L137.339 92.9107C139.181 90.8186 143.237 88.1893 144.555 85.4422C145.049 84.4109 142.72 78.9289 142.179 77.5357Z" fill="#675B49"/>
<path d="M52.5316 87.2905C53.1418 88.1739 52.8486 89.7933 52.9512 90.9011C52.9723 94.5331 53.4475 98.9661 52.9982 102.389C52.2383 107.793 50.7289 110.927 46.4055 114.788C45.9588 115.187 44.1902 116.136 43.915 116.489C42.1162 117.258 35.982 119.601 34.2098 119.598L32.485 119.835L32.2188 118.955C38.0113 117.722 44.0461 116.443 48.0119 111.495C52.2145 106.251 52.8385 100.689 52.1615 94.264C52.0135 92.4628 52.1506 89.0259 52.5316 87.2905Z" fill="#675B49"/>
<path d="M52.5316 87.2905C53.1418 88.1739 52.8486 89.7933 52.9512 90.9011C52.9723 94.5331 53.4475 98.9661 52.9982 102.389C52.9027 101.067 52.9463 94.7347 52.4086 94.1243L52.1615 94.264C52.0135 92.4628 52.1506 89.0259 52.5316 87.2905Z" fill="#675B49"/>
<path d="M118.515 128.535L118.546 129.074C117.578 129.738 116.624 130.422 115.686 131.127C115.198 141.825 118.297 152.803 110.688 161.94C110.472 161.341 110.445 161.229 109.892 160.874C118.266 149.238 112.778 141.25 114.826 130.106L115.795 130.031C116.839 129.369 117.395 129.057 118.515 128.535Z" fill="#675B49"/>
<path d="M41.6062 98.2056L42.3281 99.1327C38.9096 107.8 32.9279 110.441 24.4141 113.087C20.5855 114.277 14.3424 116.821 14.1156 121.7C14.0959 122.124 14.9674 123.26 14.8751 123.992L14.2891 123.99C12.9884 122.918 13.382 119.472 14.0761 118.333C17.3321 112.989 24.9432 112.368 30.1857 110.022C36.5158 107.188 39.1062 104.52 41.6062 98.2056Z" fill="#675B49"/>
<path d="M80.9764 148.477C81.709 147.907 84.4721 146.453 85.4348 145.853C91.0228 142.367 96.7842 139.349 102.614 136.281C104.018 135.542 106.17 134.448 107.633 133.661C107.736 133.465 107.824 133.298 107.896 133.161C107.98 133.805 108.177 134.636 107.859 135.17L107.651 135.342C106.897 135.518 106.124 135.954 105.436 136.311C97.6404 140.364 89.4687 144.469 82.0883 149.234C81.7434 149.039 81.3107 148.712 80.9764 148.477Z" fill="#675B49"/>
<path d="M141.351 65.4768C147.574 62.801 153.662 60.4742 160.113 58.3994C163.841 57.2002 167.747 55.7158 171.544 54.7617L172.259 55.4352C169.451 56.8049 163.616 58.215 160.193 59.4572C156.515 60.7873 152.857 62.168 149.218 63.5992C147.36 64.34 143.879 65.9055 142.076 66.3568L141.351 65.4768Z" fill="#675B49"/>
<path d="M109.892 160.874C110.445 161.229 110.472 161.341 110.688 161.94C105.683 167.833 100.059 170.407 92.7463 171.941C92.1524 172.065 91.6625 172.092 91.0838 171.918L90.7904 171.58C91.1295 171.099 91.99 170.452 92.5113 170.061C93.6961 169.174 97.3828 165.109 97.2703 163.69L97.1176 163.586C97.4109 163.326 97.8404 163.041 98.1684 162.809C98.4576 162.778 98.3803 162.799 98.6842 162.901C99.0113 164.74 94.857 169.271 93.6813 170.986C94.8836 170.442 96.9738 169.86 98.3344 169.287C103.472 167.123 106.37 165.041 109.892 160.874Z" fill="#675B49"/>
<path d="M149.332 135.913C152.319 138.561 154.13 141.542 154.284 145.605C154.337 147.006 154.524 152.109 153.489 153.102L153.147 153.054C152.278 151.898 151.771 149.986 151.141 148.914C149.894 146.791 146.009 144.008 143.815 143.034L144.178 142.151C148.798 144.391 151.139 146.165 153.254 150.94C153.654 145.337 152.852 140.157 148.071 136.632C148.525 136.291 148.832 136.157 149.332 135.913Z" fill="#675B49"/>
<path d="M108.056 132.283C108.392 129.286 110.423 123.06 112.455 121.038C112.849 121.266 113.074 121.445 113.529 121.481C111.443 124.685 110.408 127.496 109.538 131.221C109.329 132.627 108.989 134.089 108.777 135.545C108.292 138.881 108.159 144.908 106.73 147.84L106.401 147.831C106.173 148.319 105.997 148.726 105.798 149.226L105.488 149.294L105.205 149.027C106.313 146.104 106.837 142.509 107.223 139.397C107.401 137.968 107.342 136.802 107.651 135.342L107.859 135.17C108.177 134.636 107.98 133.805 107.896 133.161L108.056 132.283Z" fill="#675B49"/>
<path d="M108.056 132.283C108.392 129.286 110.423 123.06 112.455 121.038C112.849 121.266 113.074 121.445 113.529 121.481C111.443 124.685 110.408 127.496 109.538 131.221C109.032 130.191 110.039 129.076 109.68 128.053L109.407 127.949C108.913 129.279 108.746 131.156 108.056 132.283Z" fill="#675B49"/>
<path d="M67.8016 130.901L69.2934 133.33C69.5734 133.923 69.9754 134.709 70.2148 135.298C70.5363 136.225 71.0277 137.616 71.1271 138.575L70.1939 139.197L69.5969 137.33C69.281 135.745 68.1273 131.98 65.9025 133.858C65.6566 134.63 66.2369 136.103 66.5723 137.024C67.7277 140.194 65.2557 144.474 61.7033 142.226C59.5732 140.879 58.4115 138.352 57.8697 135.774C58.3084 135.634 58.1281 135.758 58.406 135.357L58.2465 134.562L58.5059 134.418C59.065 136.578 61.2691 143.21 64.5932 141.54C67.8865 139.885 64.1818 135.572 64.6674 133.713C65.2848 132.779 66.2723 132.608 67.3234 132.391L66.4889 131.062L67.8016 130.901Z" fill="#675B49"/>
<path d="M69.5969 137.33C69.6217 136.333 69.6729 136.101 70.2148 135.298C70.5363 136.225 71.0277 137.616 71.1271 138.575L70.1939 139.197L69.5969 137.33Z" fill="#675B49"/>
<path d="M67.8016 130.901L69.2934 133.33C68.0662 133.422 68.2031 133.23 67.3234 132.391L66.4889 131.062L67.8016 130.901Z" fill="#675B49"/>
<path d="M154.437 86.5299C154.886 86.0192 157.058 84.7993 157.704 84.3907C163.272 80.8725 168.185 75.6901 175.089 79.9934C175.224 80.9155 175.72 80.6653 175.951 81.8067C166.773 75.7913 162.528 84.6276 154.879 87.6975C154.969 87.2567 155.025 87.1499 154.919 86.727L154.437 86.5299Z" fill="#675B49"/>
<path d="M111.114 106.096C111.147 106.438 111.195 106.742 111.154 107.083L110.935 107.368C111.396 107.792 118.265 111.885 118.91 112.148C118.782 112.407 118.604 112.842 118.413 113.025C118.019 112.723 116.847 112.3 116.274 112.009C114.005 110.855 111.37 108.551 108.896 108.139C107.881 107.971 106.113 108.632 105.216 108.333C105.311 107.966 105.398 107.894 105.633 107.58L105.713 107.475L105.367 107.321C104.205 107.43 103.08 107.783 102.063 108.356C101.459 108.695 101.024 109.002 100.833 109.685C100.955 110.633 101.88 111.626 102.486 112.393C101.92 112.293 100.993 111.405 100.247 110.949C99.6643 109.719 98.4625 107.839 99.0475 106.567L99.1561 106.631C99.5336 107.322 99.9029 108.13 100.501 108.621C100.987 108.199 102.77 106.657 103.199 106.536C105.871 105.78 108.415 106.901 111.114 106.096Z" fill="#675B49"/>
<path d="M95.5797 103.753C95.6102 103.178 95.7018 102.752 95.8852 102.218C98.8762 93.5073 106.36 93.4836 112.935 97.2086L112.326 98.1883C109.46 95.8727 105.827 95.6803 102.45 96.7719C103.602 97.0086 104.829 97.0852 106.045 97.3122L106.051 97.4348C103.33 98.035 102.055 96.477 100.505 99.2913L99.7248 98.729L99.6238 98.4071C97.5883 99.6448 96.7779 103.069 96.5545 105.262C96.3459 104.347 96.315 104.317 95.5797 103.753Z" fill="#675B49"/>
<path d="M70.5147 126.921C74.9826 132.372 77.2283 140.536 76.5137 147.541C76.4527 148.138 76.2639 148.499 76.0166 149.036C75.7086 148.86 75.3459 148.574 75.0514 148.36C75.1412 147.864 75.2154 147.366 75.2734 146.866C76.0336 140.011 73.0246 132.099 68.8315 126.813C69.635 126.865 69.4426 127.128 70.5147 126.921Z" fill="#675B49"/>
<path d="M29.4639 51.3229C31.8369 48.1239 45.5777 44.4798 49.6754 43.4888L49.3834 43.8687C49.5953 44.2862 49.4627 44.1491 50.0195 44.3331C48.2123 45.0632 46.1457 45.5938 44.2541 46.1024C39.7631 47.3099 35.5039 48.8866 31.1283 50.4228C32.0604 50.7638 32.9949 51.0985 33.9314 51.4272C33.6463 51.623 33.3928 51.7571 33.2053 52.0435C32.5982 51.7663 32.5723 51.6331 31.9857 51.7251C32.333 52.578 35.9014 53.7759 36.8676 54.3134L36.4674 54.6214C36.4898 54.7638 36.5277 55.069 36.5703 55.1899C34.3469 54.3522 31.1371 53.0087 29.4639 51.3229Z" fill="#675B49"/>
<path d="M56.1088 107.232L56.9857 107.497C52.1426 122.888 38.7807 115.525 30.8629 124.149L29.5914 124.118L29.6582 124.035C31.2424 122.061 32.5738 120.6 35.1773 120.316C38.0291 119.199 42.0406 118.115 45.026 117.468C50.7396 116.215 54.3779 112.798 56.1088 107.232Z" fill="#675B49"/>
<path d="M76.3986 149.601C78.5955 146.322 77.6568 139.979 76.3936 136.425C76.0521 135.464 75.3025 134.45 75.2391 133.469C76.7191 134.579 77.9348 138.765 78.1826 140.628C78.5219 143.175 78.2545 145.27 78.0076 147.789C78.8783 147.55 81.6133 144.986 82.6289 144.215C85.7551 141.842 95.6533 136.095 99.2061 135.537C90.6381 139.967 84.1728 142.696 77.1262 149.906L76.3986 149.601Z" fill="#675B49"/>
<path d="M62.8723 91.79C68.8287 97.368 82.8412 101.404 90.7238 103.712C91.8588 104.044 93.6059 103.974 94.0846 104.368L93.9293 104.603C91.1359 104.922 89.4912 103.926 86.9516 103.252C77.3836 100.715 69.9959 98.1857 61.9533 92.1879L62.8723 91.79Z" fill="#675B49"/>
<path d="M113.319 79.7806C114.154 79.178 115.173 78.7077 116.058 78.1698C121.204 75.0452 126.755 72.6001 132.024 69.7515L132.447 70.3216C132.302 70.7751 132.176 70.869 131.859 71.2413C130.222 72.1958 128.013 73.1454 126.289 74.0505C122.546 76.0155 118.676 77.9771 115.075 80.1995C114.086 80.4325 113.887 80.6614 113.319 79.7806Z" fill="#675B49"/>
<path d="M125.155 70.7056L125.943 71.0024C122.876 72.5272 119.904 74.0224 116.869 75.6065C113.169 77.5378 108.857 80.3325 104.939 81.556C101.051 80.4714 94.1732 76.8587 90.4873 74.9362L91.0941 74.5214C94.8977 76.0052 101.333 80.0411 104.87 80.7563C107.815 79.9403 112.373 77.411 115.144 75.9384C118.466 74.1663 121.803 72.422 125.155 70.7056Z" fill="#675B49"/>
<path d="M182.854 91.3779C183.39 93.7816 183.644 95.3625 183.329 97.8256C182.5 104.301 177.781 105.786 172.487 107.753L172.61 107.345C173.202 107.135 173.344 106.915 173.752 106.457L173.551 106.427L173.799 105.868C179.49 103.26 183.121 101.189 182.209 93.8578C182.7 92.6387 182.866 92.7965 182.854 91.3779Z" fill="#675B49"/>
<path d="M57.8697 135.773C56.1205 130.214 58.1508 126.635 63.8328 125.705C64.7232 125.559 65.1312 125.23 66.2027 125.279L66.6303 125.773C65.4604 126.348 63.632 126.568 62.3127 126.764C63.2025 127.186 64.0998 127.576 64.9072 128.139C64.8309 128.824 64.875 128.975 65.0041 129.64C57.7453 124.021 60.8445 135.138 59.7361 135.841C59.5164 135.463 59.5199 135.042 59.6061 134.602C59.9066 133.064 59.6254 131.381 59.4242 129.836L59.1096 129.797C58.2773 130.669 58.6883 133.229 58.5059 134.418L58.2465 134.562L58.4061 135.357C58.1281 135.758 58.3084 135.634 57.8697 135.773Z" fill="#675B49"/>
<path d="M133.211 128.774C133.289 128.51 133.521 127.988 133.634 127.709C138.855 132.588 143.783 132.398 149.332 135.913C148.832 136.157 148.525 136.291 148.071 136.632C142.648 133.63 137.803 133.266 133.211 128.774Z" fill="#675B49"/>
<path d="M36.5703 55.19C36.5277 55.0691 36.4898 54.7639 36.4674 54.6215L36.8676 54.3135C40.0685 55.6721 43.2801 57.0057 46.5019 58.3141C48.2926 59.0275 53.7492 61.0178 54.9144 61.8645L54.2518 62.0441L54.1853 62.4471C53.2045 62.2535 50.0928 60.942 48.9988 60.4973C44.8158 58.8238 40.6719 57.0543 36.5703 55.19Z" fill="#675B49"/>
<path d="M127.106 100.186C127.954 99.5065 129.939 98.37 130.965 97.6546C133.538 95.8595 135.875 94.0903 138.546 92.4298C140.21 91.396 141.623 89.5993 143.623 88.645C142.801 89.7692 141.929 90.6556 140.975 91.6669C140.142 92.4909 139.058 93.9058 138.146 94.2017C136.069 95.4653 135.575 95.4618 133.576 97.1554C131.126 99.6519 130.563 98.7544 128.682 100.028C128.121 100.271 127.674 100.518 127.064 100.514L127.106 100.186Z" fill="#675B49"/>
<path d="M95.5197 79.9609C98.1734 81.1381 100.499 82.8811 103.154 83.9795C105 84.7438 106.054 84.2459 107.623 83.2566C108.102 83.8732 108.571 83.9162 109.354 83.7592C103.531 87.2965 102.37 84.8703 96.6877 82.0453C95.9406 81.674 95.1973 81.2246 94.4676 80.8135C94.9598 80.4865 95.1012 80.377 95.5197 79.9609Z" fill="#675B49"/>
<path d="M32.8441 115.144C29.4002 116.541 23.4912 116.354 20.2969 119.668C18.53 121.5 18.4101 122.851 18.4282 125.23L18.2258 125.271C17.7925 124.735 17.7048 124.305 17.6991 123.625C17.6594 118.953 22.7543 116.812 26.526 115.69C28.6863 115.047 30.9014 114.494 33.0158 113.778L33.4594 114.412L33.3338 114.88L32.8441 115.144Z" fill="#675B49"/>
<path d="M141.324 92.7354L141.23 92.8968L141.3 93.144C143.001 93.3507 146.395 91.2087 148.018 90.312C149.089 90.4235 148.737 90.2339 149.411 91.0257C148.474 91.5241 147.032 92.2001 146.312 92.9159L146.249 93.3054C146.635 93.5253 146.686 93.5425 147.129 93.5565C146.893 94.2657 146.944 94.5179 146.986 95.2593C146.522 95.1319 146.261 94.9558 145.847 94.7212C145.146 93.8835 144.928 94.0493 143.963 94.1272C141.54 93.8565 141.506 94.4315 139.297 94.8792C139.1 94.3331 138.652 94.3427 138.146 94.2015C139.058 93.9056 140.142 92.4907 140.975 91.6667C141.144 92.0562 141.284 92.3065 141.324 92.7354Z" fill="#675B49"/>
<path d="M124.987 124.344L125.398 124.744C125.753 124.615 125.674 124.715 125.872 124.48C127.324 130.085 130.568 134.347 135.123 137.793L134.208 137.694L133.732 138.193C130.792 136.451 126.431 131.012 125.965 127.603C126.343 126.863 126.272 126.211 125.425 125.834C125.073 125.285 125.072 124.975 124.987 124.344Z" fill="#675B49"/>
<path d="M175.089 79.9937C178.987 82.386 181.562 85.8784 182.628 90.3624C182.711 90.6991 182.786 91.0378 182.854 91.378C182.866 92.7966 182.7 92.6388 182.209 93.8579C182.036 92.413 181.419 90.6649 180.987 89.2655C180.403 87.3673 179.352 85.4273 178.114 83.8771C177.526 83.1405 176.601 82.5421 175.951 81.8069C175.721 80.6655 175.224 80.9157 175.089 79.9937Z" fill="#675B49"/>
<path d="M22.0777 129.311C21.5648 127.498 22.2105 125.255 23.2836 123.752C25.36 120.844 28.8441 119.592 32.2187 118.955L32.485 119.835C27.6346 120.742 23.301 123.252 22.9877 128.615C22.3051 128.76 22.5561 128.606 22.0777 129.311Z" fill="#675B49"/>
<path d="M83.9992 74.1279L86.5262 75.3436C87.7637 75.8828 94.4957 79.232 95.5197 79.9611C95.1012 80.3771 94.9598 80.4867 94.4676 80.8137L86.7039 76.7504C85.4342 76.1113 84.2955 75.5428 82.9881 74.9873C83.5084 74.7443 83.623 74.5535 83.9992 74.1279Z" fill="#675B49"/>
<path d="M64.1242 149.323C67.4018 149.39 68.5463 148.8 69.7529 145.72C70.3006 145.921 70.5776 146.039 71.1697 146.122C70.8658 146.65 70.476 147.092 70.5176 147.599C71.499 147.364 72.3442 146.438 72.9705 146.465C72.7891 147.825 71.0889 148.684 69.9512 149.204C67.5365 150.306 64.834 151.019 62.3074 149.843C63.0565 149.776 63.5565 149.806 64.1242 149.323Z" fill="#675B49"/>
<path d="M126.719 99.5317L127.106 100.186L127.064 100.513C127.674 100.518 128.121 100.271 128.682 100.028C129.026 100.147 129.75 100.372 130.043 100.523C128.85 101.034 124.771 102.408 124.275 103.131C124.447 103.39 124.469 103.468 124.705 103.672L123.996 104.349L122.36 103.172C121.226 103.112 120.112 102.875 119.125 103.469L119.004 103.369C120.319 101.926 121.18 102.719 122.597 102.045C123.874 101.439 125.529 100.321 126.719 99.5317Z" fill="#675B49"/>
<path d="M121.856 122.24L121.897 122.389C122.068 123.019 122.077 123.161 122.061 123.815C122.243 123.372 122.417 122.958 122.571 122.504C122.788 122.664 122.732 122.72 122.81 123.066C122.359 125.35 122.194 125.938 120.928 127.901C122.027 127.238 124.945 126.203 125.425 125.834C126.272 126.21 126.343 126.862 125.965 127.603L125.46 126.937C124.991 126.966 124.3 127.511 123.757 127.757C121.997 128.554 120.501 129.041 118.546 129.073L118.515 128.535C121.222 127.143 121.312 124.985 121.856 122.24Z" fill="#675B49"/>
<path d="M36.8891 111.724C40.585 109.259 43.0053 104.823 44.1686 100.652C44.3053 100.162 44.8186 98.2729 45.0852 97.9863L45.3043 98.1195C45.5256 99.9725 43.7928 104.211 42.9932 105.998C41.9127 108.411 39.5727 111.15 37.3428 112.553L36.8891 111.724Z" fill="#675B49"/>
<path d="M106.398 115.398C107.353 115.761 108.151 116.126 109.178 116.13L109.298 116.131C110.175 116.135 111.039 115.787 111.866 115.494C112.031 115.668 112.221 115.843 112.343 116.042L112.115 116.425L112.265 116.656C112.834 116.584 113.4 116.499 113.964 116.399L114.889 116.695C114.869 116.979 114.879 116.961 114.73 117.204C111.046 117.429 107.351 118.333 103.704 117.087C104.465 117.071 105.709 116.857 106.499 116.746C106.569 116.726 106.683 116.593 106.748 116.53L106.199 116.029L106.398 115.398Z" fill="#675B49"/>
<path d="M118.922 104.55C120.1 106.197 121.478 109.922 121.874 110.408L121.934 110.753C121.733 111.035 121.304 111.594 121.19 111.888C119.935 110.275 117.656 107.117 116.642 105.369L116.925 105.071C117.549 105.704 117.832 105.994 118.553 106.501L118.747 106.436L118.728 106.092L118.922 104.55Z" fill="#675B49"/>
<path d="M97.1176 163.586C95.7086 163.804 90.8871 163.272 90.1803 161.87L90.3965 161.408C91.0873 160.825 92.6373 160.479 93.5633 160.207C94.3506 160.528 94.4408 160.303 95.1252 160.653C94.4248 161.044 93.715 161.419 92.9967 161.776C93.4178 162.331 95.9232 162.58 96.6934 162.685C97.1822 162.754 97.6748 162.796 98.1684 162.809C97.8404 163.041 97.4109 163.326 97.1176 163.586Z" fill="#675B49"/>
<path d="M120.328 117.153C120.589 117.328 121.183 117.764 121.45 117.826C118.646 120.255 116.94 123.965 116.24 127.538C116.093 128.293 115.763 129.279 115.795 130.031L114.826 130.106C114.866 127.258 117.065 121.798 118.764 119.436C119.239 118.775 120.229 117.931 120.328 117.153Z" fill="#675B49"/>
<path d="M61.0996 85.7124L61.8785 86.2456C61.1656 88.7696 60.6775 89.9606 62.8723 91.7901L61.9533 92.188L61.5811 92.112C61.5973 92.5763 61.8605 92.8091 62.1572 93.1913C62.0977 94.7774 62.666 94.2985 62.6346 95.0108C58.6365 92.0927 59.5557 89.8769 61.0996 85.7124Z" fill="#675B49"/>
<path d="M63.0871 120.661C65.7117 121.624 69.1 124.631 70.5146 126.921C69.4426 127.128 69.635 126.865 68.8314 126.814C67.9941 125.834 67.8908 125.301 66.6303 125.774L66.2027 125.279C66.4166 125.13 66.5021 125.022 66.6826 124.838C66.3994 123.918 63.8687 122.332 62.9418 121.687L63.0871 120.661Z" fill="#675B49"/>
<path d="M133.732 138.193L134.208 137.694L135.123 137.793C138.023 139.106 140.953 140.99 144.178 142.151L143.815 143.034C140.171 141.511 136.967 140.639 133.732 138.193Z" fill="#675B49"/>
<path d="M56.9934 95.146C57.6209 97.5108 57.8701 101.984 57.4777 104.391C57.4025 106.202 57.2137 106.016 56.9857 107.497L56.1088 107.232C56.4219 106.341 56.5664 103.901 56.6467 102.838C56.6775 100.747 56.4703 98.4487 56.2502 96.3729C56.9201 95.8544 56.8602 95.8372 56.9934 95.146Z" fill="#675B49"/>
<path d="M138.824 38.104C141.769 38.8161 146.056 40.0251 149.016 40.9304C148.812 41.2269 148.612 41.6099 148.296 41.7251C146.812 41.4573 139.179 39.2987 137.856 38.8222L138.824 38.104Z" fill="#675B49"/>
<path d="M124.77 33.9141C127.041 34.6758 134.117 36.3641 135.752 37.2514L135.475 38.1299C131.826 37.1477 128.055 35.7109 124.519 34.777C124.556 34.5234 124.687 34.1701 124.77 33.9141Z" fill="#675B49"/>
<path d="M157.914 43.4072C161.155 44.4137 164.783 45.3152 168.089 46.2643L167.929 46.7838L168.339 47.3371C166.511 46.9977 159.625 44.9635 157.863 44.3283C158.113 43.7854 158.09 44.0283 157.914 43.4072Z" fill="#675B49"/>
<path d="M132.024 69.7514C134.443 68.5361 136.899 67.5607 139.276 66.3174C139.428 66.8266 139.524 67.0105 139.45 67.5422C138.558 68.0736 132.69 71.0022 131.859 71.2412C132.176 70.8689 132.302 70.775 132.447 70.3215L132.024 69.7514Z" fill="#675B49"/>
<path d="M112.935 97.209C114.623 98.6602 118.492 102.281 118.922 104.55L118.728 106.092C116.396 102.593 116.244 100.743 112.326 98.1887L112.935 97.209Z" fill="#675B49"/>
<path d="M141.351 65.4766L142.076 66.3566C141.499 66.8773 141.095 67.0564 141.101 67.9146C141.11 69.0791 141.564 70.6908 141.846 71.8455C141.351 71.9973 141.146 72.0338 140.735 72.3637C140.566 71.3969 139.948 68.0492 139.45 67.5424C139.524 67.0107 139.428 66.8268 139.276 66.3176L141.351 65.4766Z" fill="#675B49"/>
<path d="M128.07 109.686C129.013 108.365 130.096 107.865 130.778 106.932C132.997 103.893 134.801 100.152 138.596 98.6836L138.754 98.7119C138.427 99.4326 136.608 100.332 135.807 101.211C133.973 103.223 132.644 105.295 131.074 107.496C130.564 108.21 129.636 108.924 129.074 109.559L128.07 109.686Z" fill="#675B49"/>
<path d="M112.943 99.6318C115.198 101.953 115.535 102.236 116.925 105.071L116.642 105.369C115.873 105.17 111.971 106.676 111.154 107.083C111.195 106.742 111.147 106.437 111.114 106.095C113.275 105.423 113.759 105.067 116.1 104.686C114.77 102.682 114.085 101.75 112.352 100.098L112.943 99.6318Z" fill="#675B49"/>
<path d="M45.1381 107.384C47.015 103.485 47.1092 102.139 47.9246 97.8911C48.2565 98.2944 48.374 98.4153 48.7754 98.7495C48.4438 100.855 47.4547 105.613 46.0627 107.295L45.1381 107.384Z" fill="#675B49"/>
<path d="M113.319 79.7808C113.887 80.6616 114.086 80.4327 115.075 80.1997C113.228 81.3022 111.144 82.5593 109.354 83.7595C108.571 83.9165 108.102 83.8735 107.623 83.2569C109.483 82.0351 111.382 80.8757 113.319 79.7808Z" fill="#675B49"/>
<path d="M149.016 40.9302L157.914 43.4069C158.09 44.028 158.113 43.7851 157.863 44.328C154.791 43.4124 151.433 42.6229 148.296 41.7249C148.612 41.6097 148.812 41.2267 149.016 40.9302Z" fill="#675B49"/>
<path d="M39.2049 113.144C42.566 111.195 42.8012 110.095 45.0115 107.529L45.1381 107.384L46.0627 107.295C44.5906 110.202 41.8959 113.021 38.7094 113.995L39.2049 113.144Z" fill="#675B49"/>
<path d="M34.2098 119.598C35.982 119.601 42.1162 117.257 43.915 116.489L43.9514 116.677C43.9949 116.914 43.9945 116.94 43.9525 117.186C44.3596 117.321 44.6057 117.382 45.026 117.468C42.0406 118.115 38.0291 119.199 35.1773 120.316L34.2098 119.598Z" fill="#675B49"/>
<path d="M147.129 93.5566C148.958 94.3408 151.428 95.9844 152.131 97.9334C151.871 98.2062 151.526 98.5455 151.291 98.8268C150.989 98.0139 150.43 96.9863 149.754 96.4295L149.663 96.3555C148.878 95.7121 147.962 95.5301 146.986 95.2594C146.944 94.518 146.893 94.2658 147.129 93.5566Z" fill="#675B49"/>
<path d="M133.576 97.1553L134.312 98.0217C133.448 98.9268 132.757 99.6938 131.955 100.654C131.662 100.476 131.112 100.503 130.725 100.48L130.043 100.523C129.75 100.372 129.026 100.147 128.682 100.028C130.563 98.7543 131.126 99.6518 133.576 97.1553Z" fill="#675B49"/>
<path d="M168.089 46.2642C169.844 46.9194 173.91 47.9612 175.14 48.6841C174.782 48.938 174.748 48.9437 174.565 49.3288C172.884 48.9099 170.044 47.9075 168.339 47.337L167.928 46.7837L168.089 46.2642Z" fill="#675B49"/>
<path d="M99.7652 156.505L99.9652 157.767C97.9852 159.22 97.3762 159.692 95.1252 160.653C94.4408 160.303 94.3506 160.528 93.5633 160.206C95.6654 159.429 98.1131 158.02 99.7652 156.505Z" fill="#675B49"/>
<path d="M99.7652 156.505C101.122 155.187 102.169 154.055 103.421 152.655L103.891 153.394C103.078 154.846 101.349 156.94 99.9652 157.767L99.7652 156.505Z" fill="#675B49"/>
<path d="M140.735 72.3639C141.146 72.034 141.351 71.9975 141.846 71.8457C142.211 73.3721 142.828 75.4459 143.02 76.9102C142.834 77.0461 142.32 77.4012 142.179 77.5357C141.621 75.7059 141.208 74.2209 140.735 72.3639Z" fill="#675B49"/>
<path d="M133.576 97.1554C135.575 95.4618 136.069 95.4653 138.146 94.2017C138.652 94.3429 139.1 94.3333 139.297 94.8794C137.139 95.9442 136.094 96.4452 134.312 98.0218L133.576 97.1554Z" fill="#675B49"/>
<path d="M76.5312 151.179C77.9363 150.271 79.493 149.21 80.9764 148.477C81.3107 148.712 81.7434 149.039 82.0883 149.234C81.1699 149.999 79.9588 150.615 78.9049 151.205C77.8809 151.05 77.5273 150.955 76.5312 151.179Z" fill="#675B49"/>
<path d="M99.0475 106.567C97.8107 104.418 98.6762 100.822 99.7248 98.729L100.505 99.2913C98.4315 103.215 99.6752 103.493 99.1561 106.63L99.0475 106.567Z" fill="#675B49"/>
<path d="M28.4518 126.972L29.7174 126.482C29.6332 127.884 29.8418 128.253 30.5064 129.509C31.5846 130.25 31.8816 130.357 33.082 130.779C31.6732 131.968 29.326 129.883 28.8432 128.525C28.6781 128.061 28.5596 127.458 28.4518 126.972Z" fill="#675B49"/>
<path d="M143.963 94.1275C144.928 94.0495 145.146 93.8837 145.847 94.7214C144.454 95.1271 143.655 95.0361 142.312 95.3294C140.883 95.6415 139.452 96.4029 138.041 96.9212L137.993 96.7882C140.494 94.5521 141.579 95.3466 143.963 94.1275Z" fill="#675B49"/>
<path d="M130.725 100.48C131.112 100.502 131.662 100.475 131.955 100.654C130.97 102.179 130.045 103.743 129.182 105.341L128.47 104.454C129.146 102.973 129.991 101.897 130.725 100.48Z" fill="#675B49"/>
<path d="M22.0777 129.311C22.556 128.606 22.3051 128.76 22.9877 128.615C23.8709 131.978 24.8588 131.711 27.6867 133.206L27.6449 133.496C26.8527 133.63 24.7656 132.615 24.1018 132.132C22.9512 131.296 22.6129 130.579 22.0777 129.311Z" fill="#675B49"/>
<path d="M113.608 123.566L113.924 124.307C113.272 125.822 112.419 126.985 111.907 128.389C111.639 129.122 111.832 131.17 111.138 131.718C110.005 129.27 112.666 125.841 113.557 123.693L113.608 123.566Z" fill="#675B49"/>
<path d="M116.184 117.369L116.844 117.998C115.72 118.923 114.43 120.334 113.529 121.482C113.074 121.445 112.849 121.266 112.455 121.038C113.666 119.502 114.613 118.535 116.184 117.369Z" fill="#675B49"/>
<path d="M108.618 96.7686C110.446 97.7018 111.391 98.2658 112.943 99.6322L112.352 100.098C111.258 98.95 109.549 97.8844 107.979 97.623C107.312 97.5123 106.787 97.601 106.051 97.4352L106.045 97.3125C106.907 97.0787 107.743 96.9324 108.618 96.7686Z" fill="#675B49"/>
<path d="M125.379 119.732L125.973 119.718C126.134 120.012 126.211 120.155 126.33 120.468C125.483 121.765 125.747 122.938 125.872 124.48C125.674 124.715 125.753 124.615 125.398 124.744L124.987 124.344C124.827 123.021 124.68 121.696 124.547 120.369C124.772 120.46 124.994 120.554 125.215 120.654C125.462 120.273 125.373 120.276 125.379 119.732Z" fill="#675B49"/>
<path d="M151.059 88.4602C152.326 87.8135 153.23 87.2854 154.437 86.5303L154.919 86.7273C155.025 87.1502 154.969 87.257 154.879 87.6979L151.799 89.6166L151.545 89.4676C151.435 88.9357 151.406 88.8777 151.059 88.4602Z" fill="#675B49"/>
<path d="M105.205 149.027L105.488 149.294L105.798 149.226C105.997 148.726 106.173 148.319 106.401 147.832L106.73 147.84C106.206 149.72 105.167 151.919 103.891 153.394L103.421 152.655C104.267 151.264 104.581 150.542 105.205 149.027Z" fill="#675B49"/>
<path d="M100.247 110.948C100.993 111.404 101.92 112.293 102.486 112.392C103.553 113.275 105.253 114.808 106.398 115.398L106.199 116.029C104.25 115.053 101.43 112.821 100.247 110.948Z" fill="#675B49"/>
<path d="M120.713 32.6235C122.063 33.0628 123.415 33.4929 124.77 33.914C124.687 34.17 124.556 34.5233 124.519 34.7769C122.878 34.4097 121.282 33.87 119.681 33.3567C119.986 33.1024 120.38 32.8513 120.713 32.6235Z" fill="#675B49"/>
<path d="M101.398 114.736C102.775 115.845 104.791 116.272 106.499 116.745C105.709 116.857 104.465 117.071 103.704 117.087C102.581 116.714 102.208 116.547 101.174 116L101.398 114.736Z" fill="#675B49"/>
<path d="M148.018 90.3121C148.888 89.9227 150.218 89.0037 151.059 88.46C151.406 88.8775 151.435 88.9355 151.545 89.4674L151.799 89.6164C151.006 90.0922 150.211 90.5621 149.411 91.0258C148.737 90.234 149.089 90.4236 148.018 90.3121Z" fill="#675B49"/>
<path d="M99.6502 113.419C100.261 113.736 100.862 114.286 101.398 114.736L101.174 116C99.9039 115.248 99.1613 114.569 98.1521 113.523C99.0865 113.738 98.9426 113.801 99.6502 113.419Z" fill="#675B49"/>
<path d="M36.8891 111.724L37.3428 112.553C35.9094 113.524 35.1863 113.909 33.4594 114.412L33.0158 113.778C34.5924 113.192 35.5076 112.621 36.8891 111.724Z" fill="#675B49"/>
<path d="M64.9072 128.139C66.0158 128.957 66.8879 129.875 67.8016 130.901L66.4889 131.062C66.2463 130.909 65.2707 129.905 65.0041 129.64C64.875 128.975 64.8309 128.824 64.9072 128.139Z" fill="#675B49"/>
<path d="M70.1939 139.197L71.1271 138.576C71.3861 140.198 71.5082 141.317 71.4207 142.973C71.1457 142.597 70.7473 142.22 70.4164 141.883C70.3836 141.02 70.274 140.064 70.1939 139.197Z" fill="#675B49"/>
<path d="M33.3338 114.88C35.4426 114.953 37.2539 113.971 39.2049 113.144L38.7094 113.994C36.8947 114.743 34.7666 115.96 32.8441 115.144L33.3338 114.88Z" fill="#675B49"/>
<path d="M59.9217 147.556C61.2949 148.633 62.3435 149.111 64.1242 149.322C63.5564 149.806 63.0564 149.775 62.3074 149.843C61.4629 149.552 60.0232 148.716 59.1891 148.264C59.4473 148.055 59.6861 147.795 59.9217 147.556Z" fill="#675B49"/>
<path d="M29.5914 124.118L30.8629 124.149C30.3006 125.067 30.117 125.478 29.7174 126.482L28.4518 126.972C28.7615 125.983 28.9644 124.932 29.5914 124.118Z" fill="#675B49"/>
<path d="M48.4578 94.2896C48.7824 94.4376 48.9328 94.4366 49.101 94.6853C48.9814 96.039 48.8728 97.3936 48.7754 98.7493C48.374 98.4151 48.2564 98.2942 47.9246 97.8909C48.0602 96.6997 48.3244 95.5358 48.4578 94.2896Z" fill="#675B49"/>
<path d="M42.3389 95.5146L42.5199 96.5269C42.7326 96.6633 42.9193 96.7977 43.1541 96.8912C42.9357 97.6311 42.7287 98.4871 42.3281 99.1326L41.6062 98.2055C41.784 97.3031 42.0752 96.3982 42.3389 95.5146Z" fill="#675B49"/>
<path d="M114.802 114.234L116.166 114.467C115.002 114.995 113.534 115.805 112.343 116.042C112.221 115.843 112.031 115.668 111.866 115.494C112.849 115.083 113.827 114.663 114.802 114.234Z" fill="#675B49"/>
<path d="M135.752 37.2515L138.824 38.104L137.856 38.8222L135.475 38.13L135.752 37.2515Z" fill="#675B49"/>
<path d="M70.4018 143.757C70.6432 144.461 70.5574 144.49 71.3246 144.936C71.4756 145.599 71.432 145.404 71.1697 146.122C70.5775 146.039 70.3006 145.921 69.7529 145.72C70.0678 144.987 70.192 144.532 70.4018 143.757Z" fill="#675B49"/>
<path d="M70.4164 141.883C70.7473 142.22 71.1457 142.597 71.4207 142.973C71.283 143.841 71.2738 144.058 71.3246 144.936C70.5574 144.49 70.6432 144.461 70.4018 143.757C70.373 143.203 70.4072 142.454 70.4164 141.883Z" fill="#675B49"/>
</svg>
