<svg width="200" height="200" viewBox="0 0 200 200" fill="none" xmlns="http://www.w3.org/2000/svg">
<path d="M133.142 68.2306C134.305 68.1933 139.611 67.8121 140.3 68.4875C140.565 68.7476 140.727 103.631 140.63 107.585C141.533 107.654 142.244 107.645 143.05 108.076C142.715 108.389 130.663 108.281 129.145 108.208C128.697 107.825 128.491 107.717 127.897 107.721L127.771 107.483C127.867 107.438 128.096 107.249 128.194 107.173C128.409 105.748 128.233 101.008 128.25 99.3537C128.311 93.1494 128.009 86.6812 128.384 80.4869C126.837 80.5349 123.701 80.5595 122.267 80.3365L122.126 80.0044L121.349 79.7441C123.711 79.8673 126.513 79.8017 128.767 80.0142C128.857 83.6013 128.689 87.0609 128.669 90.6642C128.642 95.5867 129.251 102.625 128.855 107.391C129.725 107.417 132.29 107.618 132.984 107.168C133.224 107.012 133.194 105.188 133.196 104.767L133.175 78.2373C133.175 76.0974 132.916 69.9021 133.142 68.2306ZM133.522 68.7574C134.208 72.8056 133.986 78.0664 133.991 82.2814L134.014 100.712C134.006 102.237 133.977 105.424 133.802 107.116C133.892 107.193 133.983 107.27 134.074 107.348L134.942 107.433C136.369 107.43 138.658 107.36 140.012 107.488C139.97 103.98 140.076 69.1109 139.922 68.7414C139.521 68.5976 139.694 68.573 139.382 68.6873C137.377 68.7673 135.522 68.7693 133.522 68.7574Z" fill="#675B49"/>
<path d="M109.727 88.3442C112.093 88.4784 114.364 88.2563 116.807 88.4419C117.082 89.0517 117.043 90.231 117.066 90.9509C117.252 94.2308 117.189 97.4956 117.323 100.767C117.406 102.473 117.472 105.735 117.198 107.351C118.532 107.436 120.324 107.384 121.693 107.381C121.324 105.954 121.475 99.8866 121.488 98.0063L121.874 97.8786C122.286 98.4017 121.99 99.0327 122.256 99.8712C122.404 102.025 122.309 105.055 122.283 107.27C123.566 107.377 127.112 107.333 127.771 107.483L127.897 107.721C128.491 107.717 128.696 107.825 129.145 108.207C120.949 108.274 112.753 108.273 104.558 108.204C102.531 108.196 97.3215 108.454 95.7451 108.272L95.8309 108.06C96.9187 107.508 97.3395 107.603 98.5707 107.479C98.3869 103.458 98.8586 97.8189 98.4969 94.1038C100.666 94.045 103.315 94.0155 105.438 94.3974C105.862 96.5896 106.047 105.207 105.71 107.37C107.077 107.443 108.81 107.394 110.205 107.391C109.838 105.526 109.919 101.534 109.912 99.4989C109.925 95.7798 109.863 92.0608 109.727 88.3442ZM110.497 89.0081C111.035 92.1851 111.148 104.156 110.754 107.352L113.721 107.416L116.749 107.432C116.613 106.418 116.587 105.421 116.604 104.4C116.691 99.2542 116.428 94.0087 116.614 88.8735C115.717 88.9583 114.959 89.063 114.057 88.9604C112.837 89.0173 111.719 89.0925 110.497 89.0081ZM99.2064 107.482C100.16 107.466 104.683 107.432 105.226 107.289L105.189 107.107C104.738 104.792 105.329 96.1472 104.59 95.1032C103.077 94.6442 101.313 95.2214 99.2889 94.6788C99.0156 98.6605 99.3682 103.381 99.2064 107.482Z" fill="#675B49"/>
<path d="M117.066 90.9512C117.252 94.2311 117.189 97.4959 117.323 100.767L117.112 100.594C116.923 97.709 116.936 93.8473 117.066 90.9512Z" fill="#675B49"/>
<path d="M135.676 54.4072L135.888 54.6125C135.929 55.5193 131.745 61.667 131.011 62.6834C124.196 72.2443 115.053 79.9074 104.447 84.9467C102.046 86.0949 98.886 87.2795 96.3684 88.2805C96.1397 88.1383 96.2451 88.2215 96.1131 87.9105C96.8356 87.0195 103.024 84.8393 104.806 83.9729C108.671 82.0455 112.354 79.7727 115.811 77.1822C121.648 72.7174 126.712 67.316 131.09 61.4055C132.664 59.2807 133.87 56.4205 135.676 54.4072Z" fill="#675B49"/>
<path d="M64.7184 66.4946C67.9109 66.5262 95.2582 66.3321 95.7939 66.8032C95.223 67.2264 94.9031 67.1754 94.1894 67.1864C87.549 67.3977 80.5564 67.1901 73.8885 67.2739C71.8644 67.2992 63.8738 67.3391 62.3154 67.0039L62.215 66.8276C62.9422 66.4541 63.8848 66.5137 64.7184 66.4946Z" fill="#675B49"/>
<path d="M63.3418 75.6609C66.1379 75.55 88.2967 75.5236 89.6818 76.2914L89.6037 76.4845L88.916 76.5679C86.3234 76.566 62.6871 76.5283 62.2666 76.2795C62.6826 75.7242 62.5578 75.8883 63.3418 75.6609Z" fill="#675B49"/>
<path d="M121.349 79.7441L122.126 80.0045L122.267 80.3365C122.064 81.0838 122.264 82.4848 122.257 83.3283C122.207 88.818 122.441 94.39 122.256 99.8715C121.99 99.033 122.286 98.402 121.874 97.8789L121.488 98.0066C121.256 92.1525 121.532 85.7342 121.349 79.7441Z" fill="#675B49"/>
<path d="M78.0061 57.5781C80.8342 57.7295 84.0424 57.9166 86.8053 57.9785C89.3746 58.0361 98.9445 57.7506 100.778 58.2447L100.751 58.4057C99.3779 58.6412 97.5352 58.5748 96.1172 58.5674C89.4445 58.5326 82.565 58.7635 75.9215 58.1662C75.6301 57.9273 75.1328 57.9363 74.6963 57.8734C75.8699 57.7236 76.8275 57.6369 78.0061 57.5781Z" fill="#675B49"/>
<path d="M65.232 84.4646C67.1396 84.4065 82.8885 84.4966 83.2508 84.6468C82.4371 85.0718 81.7234 85.0224 80.8137 85.0472C78.5086 85.1851 63.352 85.4761 62.4326 84.8511C63.3711 84.4433 64.2156 84.4909 65.232 84.4646Z" fill="#675B49"/>
<path d="M138.441 48.9248C138.758 49.0713 138.685 49.0742 138.915 49.4117C138.997 50.1732 137.491 57.1809 137.143 57.9258L136.909 57.8881C136.398 56.7324 137.827 52.9215 137.943 50.924L137.589 50.691C136.587 51.5498 133.301 53.9998 132.17 54.217L132.157 54.2693C132.383 53.3918 137.162 50.2988 138.384 48.9877L138.441 48.9248Z" fill="#675B49"/>
<path d="M70.431 58.0262C69.2396 58.2748 65.2052 57.9172 63.7162 58.1627C63.2056 58.2469 62.5924 58.3699 62.1791 58.1641C63.0857 56.7287 70.5211 57.2033 72.2875 57.3943C73.7697 57.3607 76.6047 57.3494 78.006 57.5783C76.8275 57.6371 75.8699 57.7238 74.6963 57.8736C75.1328 57.9365 75.6301 57.9275 75.9215 58.1664C74.5109 58.2893 71.9131 58.11 70.431 58.0262Z" fill="#675B49"/>
<path d="M72.2875 57.3943C73.7697 57.3607 76.6047 57.3494 78.006 57.5783C76.8275 57.6371 75.8699 57.7238 74.6963 57.8736C75.1328 57.9365 75.63 57.9275 75.9215 58.1664C74.5109 58.2892 71.9131 58.1099 70.431 58.0262L70.3078 57.8459C70.0056 57.6906 67.8244 57.8187 66.9359 57.7039C68.8004 57.4701 70.3541 57.6168 72.0937 57.4176L72.2875 57.3943Z" fill="#675B49"/>
<path d="M62.667 93.0551C64.225 92.9396 73.9582 92.9555 75.0104 93.2812L75.0875 93.4869L74.6824 93.656C73.0561 93.6752 62.9848 93.9596 62.3817 93.2945L62.667 93.0551Z" fill="#675B49"/>
<path d="M87.993 120.718C94.8943 120.67 101.796 120.657 108.697 120.681C110.69 120.685 116.66 120.557 118.355 120.729C119.084 120.76 119.777 120.725 120.426 121.043L120.313 121.252C119.418 121.469 117.747 121.502 117.255 121.645C116.137 121.709 114.926 121.663 113.8 121.644L113.296 121.727C112.146 121.685 111.219 121.597 110.083 121.84L109.861 121.915C108.743 121.433 105.278 121.762 103.705 121.616C103.81 125.999 103.839 130.384 103.793 134.768C103.787 136.794 103.674 139.478 103.858 141.437C104.395 141.765 105.882 141.666 106.605 141.681C108.447 141.654 110.361 141.594 112.195 141.693C113.906 141.657 115.073 141.536 116.771 141.823C114.771 137.189 112.838 130.684 111.054 125.773L111.496 124.403C115.159 135.469 119.514 147.098 123.434 158.105L127.179 168.929C127.929 171.143 128.781 175.023 130.646 176.421L131.076 176.356C131.934 174.543 128.098 165.582 127.366 163.214C125.648 157.832 123.803 152.528 121.858 147.225C119.027 139.503 116.626 131.297 113.504 123.718C113.659 123.242 113.717 123.223 114.1 122.871C116.801 129.489 118.591 136.665 121.837 143.007C122.764 144.819 124.049 145.268 125.856 146.016C126.849 145.608 127.398 145.484 128.043 144.643C128.227 144.053 128.235 143.422 128.066 142.827C127.644 141.341 125.55 141.225 125.093 142.649C125.304 142.938 125.459 143.125 125.695 143.394L125.56 143.68L125.103 143.709C124.554 143.357 123.995 142.509 124.399 141.996C126.97 138.736 130.64 142.19 127.978 146.023C125.065 147.677 123.898 146.257 121.745 144.246C125.322 153.487 128.039 163.119 131.671 172.311C133.397 176.677 131.298 179.649 128.77 176.487C128.155 175.718 125.901 168.393 125.351 166.791C122.916 159.568 120.419 152.366 117.86 145.186C116.233 145.417 112.98 145.037 111.821 145.754C112.067 146.41 114.799 146.346 115.581 147.544L115.51 147.862C114.358 147.89 112.115 146.247 110.878 146.322C108.229 146.483 105.933 147.27 104.584 149.632C102.825 152.711 107.4 156.255 108.799 152.69C108.759 151.952 108.852 152.231 108.461 151.622C107.871 151.515 107.858 151.707 107.215 152.15L106.991 151.978L106.973 151.543C107.293 151.061 107.47 151.032 108.008 150.835C108.633 150.887 108.743 150.881 109.239 151.251C109.494 151.693 109.487 152.216 109.458 152.712C109.315 155.145 106.986 154.809 105.349 154.618C104.894 154.208 104.167 153.336 103.737 152.85C103.572 159.303 103.738 165.889 103.518 172.284C102.804 172.492 101.792 172.829 101.092 172.704C100.55 171.675 100.759 154.652 100.812 152.295C99.5826 154.025 97.2025 155.782 95.1314 154.327C94.0551 152.953 94.9018 150.757 96.5645 150.863C97.299 151.415 97.0877 151.138 97.4426 151.97C97.6145 151.976 97.5229 151.985 97.7158 151.931C96.7535 152.027 96.5514 151.587 95.5451 151.994C95.1049 152.506 95.2238 152.255 95.1385 152.976C95.6887 154.016 96.4678 154.21 97.5918 153.956C99.1516 153.603 99.6135 152.412 100.332 151.124C94.6672 141.821 90.4166 148.734 88.0078 148.133L88.049 147.885C89.3553 146.415 92.0811 146.094 93.9361 145.846C90.958 145.252 89.5076 145.527 86.6178 145.243C84.9357 150.718 82.49 157.173 80.6147 162.72L77.8367 170.841C77.2813 172.483 76.8037 174.259 76.0797 175.833C75.8285 176.379 75.41 176.932 74.866 177.217C74.2736 177.527 73.4092 177.558 72.7855 177.286C72.3752 177.107 72.1545 176.826 71.9758 176.426C71.5123 175.39 81.6994 147.081 82.9123 143.932C81.2795 145.637 78.3397 147.958 76.0428 145.888C75.4813 145.38 75.1471 144.668 75.1147 143.911C74.9789 140.425 80.1088 139.528 79.9895 143.006C79.6522 143.609 79.85 143.415 79.2414 143.742C78.6182 143.188 78.9953 142.609 78.3201 141.579C77.0768 141.029 75.6182 143.493 76.0473 144.339C77.2385 146.842 80.8397 145.552 82.0266 143.682C86.2268 137.067 87.7736 128.74 90.9076 121.58C89.8172 121.657 88.682 121.646 87.5859 121.653L86.6492 121.073L86.7025 120.929L87.993 120.718ZM103.546 145.334C103.647 146.713 103.693 148.034 103.737 149.416C104.915 147.9 105.271 147.35 106.918 146.299L107.096 146.26C108.172 146.032 108.845 146.319 109.454 145.984C108.983 145.502 106.498 145.338 105.812 145.33C105.057 145.323 104.301 145.325 103.546 145.334ZM87.8664 141.605L93.8965 141.681C95.3693 141.664 99.6592 141.716 100.777 141.45C100.821 141.355 100.278 135.397 100.407 134.381C100.818 131.175 99.9039 124.845 100.511 121.949C99.8416 121.462 95.9523 121.667 94.8855 121.683C92.6893 127.215 91.1316 133.172 88.9473 138.732C88.5754 139.679 88.2086 140.649 87.8664 141.605ZM103.024 141.762C102.349 137.94 103.164 126.424 102.702 121.917C102.615 121.84 102.527 121.763 102.439 121.686L101.315 121.569C101.309 124.978 101.182 137.117 101.59 141.347C101.614 141.596 102.598 141.711 103.024 141.762ZM95.9744 145.369L95.6102 145.683C95.9156 146.2 97.1838 146.221 97.9947 146.784C99.3393 147.717 99.7018 148.569 100.717 149.647C100.804 148.481 101.111 146.701 100.628 145.732C99.8299 145.018 97.3943 145.497 95.9744 145.369ZM98.6814 142.466C95.9207 142.294 90.1264 143.016 87.7273 142.037L86.9135 144.726C90.6016 144.59 93.8445 144.712 97.4731 144.681L117.561 144.549C117.37 143.811 117.249 142.921 116.661 142.482C116.123 142.336 115.994 142.354 115.433 142.383C112.2 142.809 104.185 142.531 100.58 142.473C99.7887 142.544 99.4768 142.528 98.6814 142.466ZM101.442 145.269C101.392 145.959 101.468 146.76 101.445 147.544C101.223 155.248 101.463 163.049 101.547 170.767C101.554 171.369 101.816 171.627 102.37 171.826C102.851 170.445 102.985 147.312 102.633 145.543C102.074 145.174 102.2 145.286 101.442 145.269ZM91.5045 121.616C91.3244 122.743 88.9186 129.223 88.4219 130.661L77.7457 161.499C77.084 163.439 72.8564 174.974 73.1527 175.988C73.7215 176.324 74.2201 176.323 74.8375 176.051C77.9449 168.15 80.7602 159.157 83.6367 151.065C86.2291 143.879 88.784 136.681 91.3014 129.469C91.7494 128.171 93.6537 122.875 93.7041 121.851C93.1346 121.543 92.1869 121.618 91.5045 121.616Z" fill="#675B49"/>
<path d="M106.605 141.682C108.447 141.654 110.361 141.594 112.195 141.693C113.077 141.838 114.937 142.338 115.433 142.383C112.2 142.809 104.185 142.531 100.58 142.473L100.749 142.253C101.871 141.643 105.023 141.864 106.481 141.697L106.605 141.682Z" fill="#675B49"/>
<path d="M87.7274 142.037C89.5709 141.843 97.3498 141.57 98.9121 142.086L99.0787 142.319L98.6815 142.466C95.9207 142.295 90.1264 143.017 87.7274 142.037Z" fill="#675B49"/>
<path d="M152.495 96.666C152.563 98.8506 152.827 116.448 153.14 117.076C153.747 117.151 154.715 117.144 155.096 117.458L154.906 117.857C154.202 118.045 148.589 117.972 147.588 117.972L129.492 117.969L79.2791 117.968C70.3994 117.971 61.5102 117.985 52.6301 117.963C51.6174 117.961 50.0537 117.914 49.1004 117.671L49.0438 117.382C50.1664 116.976 49.9486 117.588 50.7758 116.875C51.1641 115.993 50.951 114.552 50.9817 113.517L51.9656 114.164C51.9594 115.145 51.9258 116.162 51.9055 117.146C85.2715 116.975 118.638 116.991 152.004 117.196C151.876 111.131 151.618 105.171 151.719 99.0775C152.476 98.2549 152.327 97.8488 152.495 96.666Z" fill="#675B49"/>
<path d="M50.9832 39.898C50.1635 39.8594 49.549 40.0432 48.749 39.7617C48.2057 39.36 48.1724 39.2404 47.9269 38.6326C48.2006 37.0066 52.5267 37.5986 54.0385 37.625C54.6482 37.6658 58.8615 37.8891 59.1203 38.0027C58.7285 38.0144 57.4004 38.0142 57.1267 38.1328C57.5861 38.4 57.681 38.3791 58.2178 38.3449C56.8266 38.4771 49.3912 38.2373 48.9346 38.4935L48.7529 38.8598C49.2504 39.2545 51.8726 39.1699 52.714 39.1746L140.081 38.8615C139.848 39.6564 140.038 39.3996 139.279 39.8338C120.221 39.9865 101.163 40.0158 82.1055 39.9215C79.2707 39.9178 52.8088 39.6088 51.9926 40.0799L51.8541 40.2662L50.9832 39.898Z" fill="#675B49"/>
<path d="M95.3843 23.6942C96.6988 24.2421 98.2123 24.722 98.8353 26.1108C99.1138 26.7317 98.8767 27.5138 98.9506 28.2679C99.6508 28.1966 99.3779 28.2866 100.006 27.8018C100.213 27.2204 100.12 26.8221 99.8617 26.4536C98.1338 23.9884 97.7131 20.8641 100.489 19.2026C100.614 19.1282 99.5906 14.7323 101.686 14.1662C101.775 14.1287 101.864 14.0912 101.953 14.0537C104.064 15.3665 103.056 18.635 103.28 19.1125C103.775 20.1692 104.596 19.9516 105.231 22.2927C104.842 23.6444 103.421 26.5348 103.533 27.7118C103.897 28.22 103.749 28.1774 104.234 28.3411C106.185 26.9145 102.711 25.9186 108.18 23.5725C109.208 24.1846 111.628 25.3776 110.579 27.1128C110.272 27.62 109.621 27.8204 109.05 27.9075C108.54 27.6595 108.241 27.5845 107.965 27.1005C108.53 26.5608 109.602 26.9263 110.243 26.3618C110.061 25.3862 108.885 24.9257 108.062 24.5184C105.455 25.4542 105.459 25.6872 105.428 28.4333C106.674 28.9837 108.015 29.5356 109.347 29.8458C109.169 30.3055 109.151 30.4091 108.846 30.7856C106.461 29.853 103.806 29.3395 101.766 27.8458C99.631 29.2977 96.6049 30.053 94.1025 30.8509L93.4025 29.9999C94.3074 29.78 97.7744 29.0983 98.1588 28.13C99.2697 25.3319 95.0982 23.402 93.5691 25.8739C93.3642 26.2073 93.4258 26.4395 93.4814 26.7901C93.8957 27.1895 93.7148 27.1292 94.2097 27.1927L95.0158 26.5095L95.2761 26.6739C95.3715 27.5891 94.9263 27.6067 94.1402 27.9782C92.2388 27.5177 92.5031 25.8647 93.384 24.5175L95.3843 23.6942ZM102.631 26.8661C103.436 24.3001 106.275 19.5333 100.732 20.1261C98.4949 21.7106 99.7216 25.5335 101.219 27.0536C101.814 27.0798 102.067 26.9983 102.631 26.8661ZM102.093 19.5341C102.514 18.3912 103.074 15.9904 101.748 15.2994C100.695 16.8812 100.592 18.1618 102.093 19.5341Z" fill="#675B49"/>
<path d="M48.8586 121.918C42.4148 126.645 42.1443 113.536 48.2443 117.032C48.4016 118.706 48.4432 119.698 48.4068 121.378C52.6801 120.53 60.3184 120.687 64.8342 120.682L87.993 120.718L86.7025 120.929L86.6492 121.073L87.5859 121.653L64.5924 121.669C59.2568 121.669 54.1879 121.6 48.8586 121.918ZM46.7299 121.922C47.6959 121.24 47.4559 118.513 47.024 117.484C46.875 117.129 46.1756 117.166 45.8125 117.126C44.2975 118.888 44.4186 121.002 46.7299 121.922Z" fill="#675B49"/>
<path d="M51.1902 54.2266C52.2357 55.3861 51.7934 55.6455 52.0779 56.7123C52.6312 64.2811 52.0867 75.0475 52.1551 82.8658C52.2291 91.3256 52.5053 102.159 51.9738 110.489C51.8703 111.019 51.8424 111.324 51.5908 111.81L50.9518 111.871L51.1902 54.2266Z" fill="#675B49"/>
<path d="M155.851 121.113C155.814 119.976 155.34 116.983 156.669 116.53C158.144 116.027 159.406 116.612 160.014 118.051C160.44 121.091 160.18 122.781 156.899 123.177L156.741 123.196L155.715 121.893C152.146 121.478 146.864 121.726 143.134 121.678C134.566 121.569 125.812 121.839 117.255 121.645C117.747 121.503 119.418 121.469 120.313 121.252L120.426 121.044C119.777 120.725 119.084 120.76 118.355 120.729C126.171 120.669 133.986 120.656 141.802 120.69C144.958 120.697 152.923 120.566 155.851 121.113ZM159.124 117.773C158.208 117.367 158.085 117.204 157.219 117.507C156.576 118.437 156.876 119.818 156.957 121.041C157.333 121.727 157.122 121.537 157.726 121.882C159.33 121.345 159.431 119.187 159.124 117.773Z" fill="#675B49"/>
<path d="M155.851 121.113C155.814 119.976 155.34 116.983 156.669 116.53C158.144 116.027 159.406 116.612 160.014 118.051L159.124 117.773C158.208 117.367 158.085 117.204 157.219 117.507C156.576 118.437 156.876 119.818 156.957 121.041C156.454 121.151 156.359 121.181 155.851 121.113Z" fill="#675B49"/>
<path d="M80.043 36.9207C92.9201 36.8602 105.973 37.0303 118.791 36.8926C118.778 37.5764 118.813 37.35 118.243 37.9609C116.834 37.8906 115.23 37.8883 113.819 37.9084C103.268 38.059 92.6152 37.7047 82.0785 37.977C81.7459 37.0758 80.8842 37.0691 80.043 36.9207Z" fill="#675B49"/>
<path d="M151.719 99.0773C151.379 93.4742 151.553 85.6699 151.549 79.9416C151.544 72.0979 151.302 63.141 151.696 55.4053C151.722 56.1434 151.698 58.0047 151.981 58.5199L152.39 58.652C152.515 70.5379 152.24 82.4344 152.49 94.3211C152.505 94.991 152.565 96.0273 152.495 96.6658C152.327 97.8486 152.476 98.2547 151.719 99.0773Z" fill="#675B49"/>
<path d="M148.318 33.0281C151.816 32.7082 155.426 32.4574 158.799 31.4227C160.32 30.8967 162.988 30.633 164.274 31.8791C165.877 33.4317 166.538 36.8432 164.863 38.7684C162.61 41.3574 157.547 40.4758 157.09 36.8354C156.968 35.8606 157.585 35.1127 158.266 34.4147C159.066 34.4711 160.143 34.442 160.761 34.892C161.074 35.5498 160.975 35.3891 160.876 36.2086L160.64 36.5098C160.292 36.2858 159.476 33.6192 157.888 35.9787C157.378 37.9479 159.917 39.1533 161.299 39.7875C162.591 39.3535 163.907 38.7363 164.54 37.4465C165.01 36.4877 165.242 35.0744 164.855 34.0533C164.565 33.2877 163.906 32.7494 163.169 32.4326C160.71 31.375 152.48 33.6385 149.47 33.976C148.852 33.7875 148.512 33.6512 148.318 33.0281Z" fill="#675B49"/>
<path d="M54.0385 37.6249C62.6941 37.0501 71.369 36.8152 80.043 36.9204C80.8842 37.0689 81.7459 37.0755 82.0785 37.9767C75.7891 38.0429 69.6137 37.8648 63.3455 38.265C61.719 38.3687 59.8443 38.2396 58.2178 38.3448C57.6811 38.379 57.5861 38.3999 57.1268 38.1327C57.4004 38.0142 58.7285 38.0144 59.1203 38.0027C58.8615 37.889 54.6482 37.6657 54.0385 37.6249Z" fill="#675B49"/>
<path d="M42.418 40.5755C40.8832 40.1155 39.9836 39.8151 39.0715 38.418C37.6906 36.3026 37.934 33.0261 40.2106 31.6261C42.7459 30.0667 45.5127 31.6606 48.143 32.0407C49.2779 32.2048 50.4078 32.1198 51.5111 32.3669C50.0254 32.6077 49.8746 31.9968 48.3861 32.7796C46.2002 32.8577 43.3664 31.3909 41.0162 32.2124C39.0469 32.9007 38.9342 35.6827 39.449 37.3854C39.8061 38.5671 41.4066 39.2936 42.5119 39.7755C44.3606 39.1731 47.1975 37.1536 45.4311 35.1251C44.0506 34.7575 44.0166 35.4561 43.4607 36.4462L43.1424 36.2757C42.1041 33.6546 48.8887 33.8362 46.5779 37.5635C45.3545 39.537 44.5758 39.9151 42.418 40.5755Z" fill="#675B49"/>
<path d="M154.911 38.3018C155.89 38.8328 155.425 38.2809 155.946 38.4867C155.21 40.348 154.584 39.9377 152.696 39.9121C152.874 44.7381 152.633 49.6645 152.555 54.4947C152.533 55.8379 152.518 57.3229 152.39 58.6521L151.981 58.5201C151.698 58.0049 151.722 56.1436 151.695 55.4055C151.406 52.365 151.773 43.7373 151.828 40.3012C151.229 39.7424 147.671 39.8852 146.592 39.8617C147.132 39.0193 148.886 39.2143 149.877 39.1934C151.173 39.1002 154.011 39.4369 154.839 38.852L154.911 38.3018Z" fill="#675B49"/>
<path d="M54.1736 32.4438C61.4094 32.1551 70.8449 32.825 78.0651 31.8818L78.8725 32.1283L79.1401 32.7104C75.0547 33.2512 70.3297 33.1666 66.1779 33.2746C63.1014 33.3549 59.2754 33.5502 56.2342 33.2238C55.6869 32.698 54.9215 32.6092 54.1736 32.4438Z" fill="#675B49"/>
<path d="M133.068 36.963C135.216 36.8919 155.181 37.528 155.988 37.9378L156.154 38.2905L155.946 38.4866C155.425 38.2808 155.89 38.8327 154.911 38.3017C148.512 38.5025 143.515 38.3704 137.126 38.0894C136.355 37.7798 134.757 37.6011 133.637 37.2935L134.135 37.3237C133.768 37.1886 133.442 37.0775 133.068 36.963Z" fill="#675B49"/>
<path d="M118.791 36.8922C123.287 36.9014 128.631 36.7805 133.068 36.9627C133.442 37.0772 133.768 37.1883 134.135 37.3235L133.637 37.2932C134.757 37.6008 136.355 37.7795 137.126 38.0891C130.925 38.0447 124.396 38.1924 118.243 37.9606C118.813 37.3496 118.778 37.576 118.791 36.8922Z" fill="#675B49"/>
<path d="M50.9832 39.8979L51.8541 40.2661C52.3059 42.7501 52.5199 54.3655 52.0779 56.7124C51.7934 55.6456 52.2358 55.3862 51.1902 54.2267C51.141 50.3894 50.7061 43.4233 50.9832 39.8979Z" fill="#675B49"/>
<path d="M109.347 29.8457C113.876 30.7574 118.4 31.3654 122.973 32.0082C123.633 32.101 125.634 32.1971 126.119 32.3447L125.683 32.442C125.713 32.877 125.755 32.7789 126.158 33.1898C124.953 33.2314 123.436 32.8811 122.219 32.825C117.721 32.6176 113.244 31.3002 108.846 30.7855C109.151 30.409 109.169 30.3055 109.347 29.8457Z" fill="#675B49"/>
<path d="M136.902 32.9204C140.036 33.0905 145.994 32.7733 148.318 33.0282C148.512 33.6513 148.852 33.7876 149.47 33.9761C144.68 34.0292 141.23 34.1355 136.336 33.9755L136.48 33.5866L136.138 33.3081L136.902 32.9204Z" fill="#675B49"/>
<path d="M126.119 32.3447C129.437 32.45 133.93 33.0336 136.902 32.9205L136.138 33.3082L136.48 33.5867L136.336 33.9756C133.053 34.0602 129.436 33.5664 126.158 33.1898C125.755 32.7789 125.713 32.877 125.683 32.442L126.119 32.3447Z" fill="#675B49"/>
<path d="M83.2103 31.3403C85.4394 31.2097 88.1726 30.6972 90.4371 30.4646C91.3658 30.3693 92.4926 29.9741 93.4025 29.9997L94.1025 30.8507C91.3828 31.0103 87.1504 31.9911 84.2006 32.3417C83.5371 31.9464 83.7074 31.8224 83.2103 31.3403Z" fill="#675B49"/>
<path d="M140.081 38.8613C142.879 38.9771 147.232 38.9539 149.877 39.193C148.886 39.2139 147.132 39.0189 146.592 39.8613C144.505 39.9582 141.442 39.8438 139.279 39.8336C140.038 39.3994 139.848 39.6563 140.081 38.8613Z" fill="#675B49"/>
<path d="M78.0651 31.8819C79.7768 31.6708 81.492 31.4901 83.2104 31.3403C83.7074 31.8224 83.5371 31.9464 84.2006 32.3417L79.1401 32.7104L78.8725 32.1284L78.0651 31.8819Z" fill="#675B49"/>
<path d="M48.3861 32.7795C49.8746 31.9967 50.0254 32.6076 51.5111 32.3668L54.1736 32.444C54.9215 32.6094 55.6869 32.6983 56.2342 33.224C54.1457 33.2326 50.4244 33.1096 48.3861 32.7795Z" fill="#675B49"/>
<path d="M109.861 121.916L110.083 121.84C110.857 122.725 111.122 123.277 111.496 124.403L111.054 125.773C110.764 124.466 110.053 123.481 109.861 121.916Z" fill="#675B49"/>
<path d="M51.9738 110.489C51.9922 111.733 52.0131 112.919 51.9656 114.164L50.9816 113.517L50.9518 111.871L51.5908 111.81C51.8424 111.325 51.8703 111.02 51.9738 110.489Z" fill="#675B49"/>
<path d="M113.296 121.727L113.8 121.644C113.864 121.894 114.081 122.659 114.1 122.871C113.717 123.223 113.659 123.242 113.503 123.718C113.345 122.887 113.316 122.574 113.296 121.727Z" fill="#675B49"/>
</svg>
