<svg width="200" height="200" viewBox="0 0 200 200" fill="none" xmlns="http://www.w3.org/2000/svg">
<path d="M76.3891 58.6041C73.461 61.2553 70.7332 62.6604 66.8201 63.3453C65.3024 63.611 63.3526 64.1813 61.9061 63.4364C63.4844 60.8479 65.3821 60.1338 66.2875 56.642C67.2869 52.7883 63.2713 52.5994 60.7526 49.6178C55.9656 43.951 54.0397 36.9108 57.6903 30.0629C66.3651 14.8706 91.642 13.3416 105.427 20.6512C107.867 21.9203 110.072 23.5971 111.947 25.6092C112.736 26.4467 113.904 28.0161 114.643 28.8485C114.801 29.0256 115.908 28.8461 116.539 29.6139L116.468 30.0088C115.862 30.2809 114.947 30.7203 114.301 30.7502C112.27 30.844 109.942 29.3543 108.902 31.7071C108.32 32.0485 107.046 32.5266 106.362 32.7409C96.1699 35.9057 88.4266 46.5254 93.2498 57.0705C98.511 68.5723 114.254 73.0329 125.792 70.4549C132.142 69.0364 129.757 68.2569 135.697 72.5887C136.614 73.2573 140.311 74.4071 141.71 74.9793C138.648 71.6297 137.86 70.1364 137.768 65.4952L137.884 65.3405C138.763 64.1954 140.485 62.8371 141.538 61.8084C149.528 54.0065 148.26 43.5731 139.513 36.967C133.974 32.7844 126.067 30.1875 119.148 30.4723C118.445 30.411 117.111 30.2571 117.113 29.385L117.516 29.0133C126.221 28.2153 134.574 30.6559 141.433 36.0729C149.699 42.6006 151.151 53.5123 144.248 61.6008C142.72 63.3924 141.29 64.5832 139.406 66.0348C139.552 70.7075 140.973 72.5803 144.185 75.6916C138.887 75.2977 134.859 75.2883 131.04 70.9325L130.959 70.8383C121.75 73.3088 115.381 73.8082 106.042 70.5829C94.0494 66.4414 85.5729 53.092 92.6395 41.1364C96.4459 34.6967 103.278 31.3694 110.386 29.5817C111.041 29.4211 111.7 29.2778 112.363 29.1518C104.264 16.2939 78.582 15.4094 66.6828 23.3961C53.5961 32.1797 55.4246 44.7633 67.9311 53.0495C68.1278 57.9323 67.7703 59.5203 63.9543 62.7416C69.5862 61.1727 71.21 60.7713 75.7877 56.9196C77.2664 57.0463 79.1772 57.433 80.6332 57.7727C83.344 58.4053 89.1004 57.637 91.2053 58.6998L91.4614 59.0375C91.3815 59.2752 91.357 59.518 91.0397 59.5803C85.7404 60.6237 81.4356 59.2606 76.3891 58.6041Z" fill="#675B49"/>
<path d="M42.1058 172.565C40.6886 171.366 38.7033 169.51 40.514 167.621C42.255 165.805 44.9959 165.892 44.6662 162.612C44.316 156.455 39.9197 151.771 38.2795 146.086C37.249 142.514 38.2972 138.856 37.7158 135.205C37.4111 133.292 35.7158 131.691 36.0824 130.488C36.9103 130.579 37.8006 131.397 38.2855 132.042C41.0693 135.744 39.0009 140.509 39.9174 144.754C41.3074 151.193 50.13 160.994 44.7658 167.478C43.8955 167.952 42.256 166.971 41.7674 168.722C41.5049 169.662 42.415 170.865 43.3097 170.943C46.724 171.243 48.2511 167.131 48.7213 164.57C49.4953 160.354 47.9959 156.994 47.4355 153.073C46.474 152.984 46.2437 153.112 45.5183 152.618C45.1654 151.922 45.1767 152.169 45.2459 151.529L45.5888 151.293L46.7353 151.589C47.6695 150.993 47.1924 148.635 47.4261 147.523C48.9336 140.35 55.0644 138.066 61.6494 139.685C67.5168 141.171 73.3437 143.505 79.2056 144.931C93.415 148.439 108.285 148.261 122.407 144.414C124.824 143.772 127.283 142.978 129.683 142.258C136.166 140.311 145.76 135.97 150.585 143.436C151.351 144.638 151.879 145.976 152.141 147.377C152.32 148.38 152.076 151.38 152.703 151.816C153.345 151.818 154.151 151.692 154.562 152.033C154.34 152.661 154.496 152.436 153.922 152.865C153.363 152.946 152.885 153.008 152.322 153.056C151.858 154.064 152.096 154.771 151.803 155.745C150.643 159.604 150.144 162.482 151.347 166.493C151.924 168.417 155.643 173.552 157.784 169.739C157.999 169.356 157.866 168.322 157.62 167.883C156.374 167.137 154.328 168.666 153.696 165.55C152.8 161.128 154.062 157.258 156.032 153.455C156.579 153.781 157.296 154.02 157.603 154.383C155.461 159.075 154.736 160.759 155.589 165.906C157.174 166.14 159.018 166.483 159.52 168.329C160.214 170.954 157.728 172.958 155.279 172.689C149.988 172.107 148.277 164.127 148.982 159.821C149.824 154.683 152.193 148.597 148.258 144.095C147.768 143.535 146.77 142.286 146.033 142.22C146.14 145.478 146.124 148.008 143.151 149.977C142.644 149.616 141.881 149.178 141.332 148.842C141.937 147.642 142.53 146.619 142.632 145.268L142.642 145.126C142.725 144.025 142.365 142.721 142.121 141.626C140.886 140.945 138.916 141.617 137.613 141.981C132.139 143.507 126.782 145.333 121.241 146.633C107.227 150.057 92.599 150.089 78.5707 146.725C72.0092 145.139 64.2422 142.165 58.0086 141.055C57.5019 142.304 57.2652 143.132 56.9084 144.434C57.0111 146.04 58.7097 148.879 56.9802 149.662C56.2275 149.713 55.5509 149.267 54.872 148.911C53.9168 146.986 53.6568 144.79 54.1361 142.694L53.9922 142.141L53.6197 142.002C51.8689 142.95 50.1992 145.104 49.6951 147C47.7611 154.275 53.1482 161.127 49.4886 168.377C47.6873 171.946 45.922 172.817 42.1058 172.565ZM144.852 141.586L142.919 141.202C143.338 142.561 143.518 143.026 143.663 144.477C143.832 146.161 142.284 148.208 143.174 148.926C145.287 148.077 144.952 143.486 144.852 141.586ZM56.4283 141.909L56.5949 141.59L56.3588 141.382C55.5574 141.406 55.4443 141.41 54.7275 141.759C55.5718 143.408 53.5756 147.274 56.5293 148.911L56.8213 148.744C57.0355 147.571 56.008 146.114 55.9572 144.83C55.9193 143.875 56.1904 142.834 56.4283 141.909Z" fill="#675B49"/>
<path d="M54.7275 141.759C55.5719 143.409 53.5756 147.274 56.5293 148.911L56.8213 148.744C57.0355 147.571 56.008 146.114 55.9572 144.83C55.9193 143.875 56.1904 142.834 56.4283 141.91C57.0367 143.5 56.7686 142.974 56.9084 144.434C57.0111 146.04 58.7098 148.88 56.9803 149.663C56.2275 149.713 55.551 149.267 54.8721 148.911C53.9168 146.986 53.6568 144.79 54.1361 142.695C54.3145 142.356 54.5146 142.074 54.7275 141.759Z" fill="#675B49"/>
<path d="M55.1408 108.932C52.0723 107.93 49.7734 108.046 46.5625 108.298C45.6965 108.366 44.2342 108.615 43.4467 108.462L43.551 108.174C48.7438 104.558 54.3201 107.915 59.8758 108.052C61.4373 108.09 66.9264 106.227 67.3652 107.762C67.1018 108.393 66.4061 108.781 65.75 108.872C59.9117 109.685 53.9231 110.5 48.2158 112.041C44.2031 113.124 38.1582 114.827 35.6428 118.296C33.8959 120.705 37.325 123.454 39.2637 124.359C46.6443 127.952 54.852 129.408 62.8904 130.626C78.8287 133.04 95.2395 133.617 111.333 132.917C125.49 132.354 139.721 131.147 153.38 127.106C158.135 125.699 162.423 124.363 164.858 119.883C161.076 112.106 145.832 111.012 138.15 109.448C136.417 109.095 133.021 109.299 131.993 107.7L132.205 107.366C133.853 106.854 140.016 108.008 141.969 108.294C145.829 106.512 150.178 106.085 154.31 107.084C154.399 107.7 154.395 107.942 154.777 108.456C152.492 108.075 148.364 108.034 146.088 108.457L145.437 108.691L145.342 108.944C145.834 109.211 146.007 109.162 146.563 109.147C151.931 110.001 162.294 112.566 165.571 117.166C166.32 118.216 166.694 119.418 166.45 120.704C166.092 122.587 164.523 124.085 162.982 125.095C158.376 128.113 152.18 129.566 146.848 130.76C120.475 136.66 79.5891 136.431 53.0279 130.783C49.5379 130.041 37.675 126.969 35.6824 124.213C35.0775 123.624 34.6373 123.165 34.0836 122.528C32.465 120.841 33.5932 117.414 35.0871 116.043C38.8897 112.554 50.3356 108.976 55.1408 108.932Z" fill="#675B49"/>
<path d="M34.0836 122.528C34.6375 122.312 34.7471 122.304 35.3424 122.259C35.9688 122.577 35.7629 122.373 36.0836 123.076C35.9658 123.596 35.9092 123.73 35.6824 124.213C35.0776 123.624 34.6373 123.165 34.0836 122.528Z" fill="#675B49"/>
<path d="M166.11 123.2L166.33 123.554C166.52 125.121 165.463 127.625 164.317 128.644C159.647 132.793 152.059 134.005 146.292 135.556C151.303 136.534 154.665 139.29 155.415 144.671C155.587 145.903 155.843 150.127 154.046 150.285C153.768 149.847 153.982 148.642 154.017 148.072C154.424 141.316 149.722 136.951 143.253 136.559C141.208 136.435 138.259 137.098 136.16 137.403C133.582 137.752 131 138.06 128.412 138.325C105.277 140.834 80.239 139.984 57.2316 136.459C56.2646 136.311 52.8189 137.244 51.8369 137.67C47.2863 139.641 45.0929 143.992 45.7383 148.819C45.8064 149.345 45.6349 149.934 45.264 150.288L44.8678 150.083C43.8045 148.196 44.1345 144.695 44.6771 142.627C46.0777 138.271 49.0847 136.435 53.3263 135.526C47.2051 133.663 36.8023 132.821 33.9211 126.101C33.6777 125.534 33.4351 124.461 33.7133 123.874C34.8398 123.943 35.4677 126.449 36.8135 127.535C40.1525 130.229 44.9994 131.568 49.1101 132.576C72.3181 138.268 97.3869 138.576 121.259 137.167C131.917 136.538 152.044 133.617 161.552 128.512C163.403 127.519 164.725 124.799 166.11 123.2Z" fill="#675B49"/>
<path d="M32.2746 133.354C31.8155 130.457 29.8192 129.801 28.8328 127.082C28.2899 125.584 28.6119 124.356 28.5332 122.798C28.5262 122.657 28.4201 122.083 28.3891 122.072C24.3383 120.568 19.2809 122.398 15.6513 118.849C13.585 116.829 14.1695 112.227 13.319 109.361C11.4848 103.297 8.30504 98.5434 8.18098 92.0407C7.90215 83.4968 14.5727 78.2683 22.6492 78.3321C28.5332 78.3788 30.7672 80.0294 35.1289 83.5448C36.151 84.3684 38.408 84.5265 39.811 86.0487C44.5438 91.1843 43.4301 98.3108 43.0721 104.676C42.9811 106.275 43.0311 107.676 42.9985 109.234C39.8924 104.719 43.0684 97.0116 41.0516 91.5948C39.3299 86.9706 37.7315 86.4979 33.4641 84.3634C32.3492 83.8058 30.4668 81.6349 29.011 81.1575C22.867 78.4966 14.1979 80.113 11.0569 86.5306C7.39487 94.3462 13.1029 101.922 15.0585 109.283C15.7745 111.978 15.3773 114.297 16.3479 117.077C18.705 119.413 21.2848 119.517 24.3875 119.917L25.2795 120.057C26.4422 119.47 25.1055 117.78 27.777 116.71C28.8133 116.287 29.8543 117.002 30.5684 117.713C31.5059 120.659 29.228 121.774 30.0098 125.596C30.8047 129.482 33.8539 129.88 33.4666 133.78C33.1608 133.643 32.61 133.471 32.2746 133.354ZM26.969 120.276C27.5006 120.53 28.0112 120.844 28.5907 120.788C29.1963 120.299 29.1164 120.124 29.4502 119.296C29.0703 117.972 28.5408 117.78 27.2799 117.668C26.9436 118.741 26.8385 119.154 26.969 120.276Z" fill="#675B49"/>
<path d="M27.777 116.71C28.8133 116.287 29.8543 117.002 30.5684 117.713C29.9791 118.286 29.8129 118.426 29.436 119.151L29.4502 119.296C29.0703 117.972 28.5408 117.78 27.2799 117.669C26.9436 118.741 26.8385 119.154 26.969 120.277C26.0322 120.914 25.1758 120.573 24.3875 119.917L25.2795 120.057C26.4422 119.47 25.1055 117.78 27.777 116.71Z" fill="#675B49"/>
<path d="M85.5432 79.0674C90.3693 75.5941 93.6588 74.8768 99.5303 74.9129C105.138 74.9475 107.601 75.8004 112.097 79.0565C117.662 79.3891 120.621 81.6147 121.675 87.2264C120.634 88.175 121.422 89.15 120.494 89.2959C120.197 86.7561 118.923 83.7018 116.919 82.0408C115.162 80.5848 113.383 80.9781 111.377 80.3174C110.208 79.9324 108.678 78.6775 107.507 78.1279C103.428 76.2121 99.2824 76.325 94.9691 76.8315C90.6527 77.3381 90.1715 78.5125 86.81 80.1232C84.9297 81.0242 81.3635 80.4826 79.5125 83.1846C77.29 86.4287 77.0932 88.8402 77.3098 92.4518C77.499 95.6039 80.6283 103.599 79.881 105.526L78.8252 105.636C78.1453 103.151 77.575 100.377 76.8016 97.9539C74.2521 89.9695 74.558 79.6621 85.5432 79.0674Z" fill="#675B49"/>
<path d="M156.883 104.636C156.273 102.771 156.196 98.6924 156.223 96.6811C156.275 92.9385 157.398 88.4773 160.192 85.8094C161.725 84.3455 163.044 84.3768 164.71 83.494C165.784 82.7957 166.765 81.8039 167.788 81.0527C173.602 76.7881 183.374 77.5004 188.318 82.8436C191.317 86.0842 191.516 89.1664 191.348 93.2756C191.33 93.7414 191.32 94.1811 191.268 94.6457C190.986 94.6856 190.699 94.684 190.412 94.6934C189.991 94.2828 190.114 94.0416 190.05 93.3082L189.935 93.2084C190.31 90.4149 189.228 87.0389 187.543 84.7719C183.267 78.9639 173.568 78.3541 168.208 82.924C167.661 83.39 166.37 84.4285 165.819 84.6994C162.79 86.1902 160.086 87.3701 158.966 90.8957C158.728 91.6455 158.282 92.4035 158.205 93.266C157.776 95.4658 157.86 96.3123 157.807 98.4449C157.751 100.711 158.767 106.029 157.612 107.74L157.286 107.713C156.878 106.902 157.134 105.645 156.883 104.636Z" fill="#675B49"/>
<path d="M156.883 104.636C158.765 102.982 157.264 102.954 157.291 101.629C157.349 98.7793 157.581 95.9311 157.797 93.0967L158.205 93.2658C157.776 95.4656 157.86 96.3121 157.807 98.4447C157.751 100.711 158.767 106.029 157.612 107.739L157.286 107.713C156.878 106.901 157.134 105.645 156.883 104.636Z" fill="#675B49"/>
<path d="M190.05 93.308C190.379 92.5728 190.063 91.4236 190.809 90.9453C191.233 91.5033 191.238 92.5006 191.348 93.2754C191.33 93.7412 191.32 94.1809 191.268 94.6455C190.986 94.6853 190.699 94.6838 190.412 94.6932C189.991 94.2826 190.114 94.0414 190.05 93.308Z" fill="#675B49"/>
<path d="M166.671 86.3945C169.75 81.4941 177.014 80.2111 182.136 82.399C192.812 86.9597 186.672 99.9312 183.787 107.629C183.187 109.228 183.206 111.464 182.375 113.008C182.076 113.562 181.267 114.036 181.27 114.668L181.983 115.161L181.938 115.42C181.666 115.563 174.717 116.324 173.714 116.827C173.665 116.851 172.352 116.317 172.06 116.197C175.288 114.623 176.798 113.939 180.463 114.496C181.049 111.926 181.605 109.363 182.338 106.87C184.072 100.977 189.139 92.8095 185.166 86.9058C181.272 81.1187 171.857 81.9019 167.661 87.0185C167.36 86.8013 166.992 86.5898 166.671 86.3945Z" fill="#675B49"/>
<path d="M189.935 93.208L190.05 93.3078C190.114 94.0412 189.991 94.2824 190.412 94.693C190.699 94.6836 190.986 94.6852 191.268 94.6453C190.621 100.027 187.774 104.557 186.327 109.712C185.636 112.173 185.871 114.826 185.218 117.011C184.952 117.9 184.507 118.694 183.766 119.273C180.996 121.434 174.072 121.412 173.703 121.74L173.661 122.085C173.437 122.073 173.233 122.07 173.011 122.067L172.863 122.237L172.677 122.231L172.181 121.386C170.779 122.364 171.053 122.429 171.077 124.129C170.883 123.269 171.078 122.371 170.665 121.745L170.166 121.705C170.034 121.602 169.903 121.496 169.774 121.388C167.754 119.691 168.895 116.61 171.477 116.562C172.252 116.547 172.503 116.967 173.022 117.464C174.087 117.749 173.928 119.254 173.9 120.067C177.594 119.527 180.497 119.755 183.41 117.081C183.764 115.954 183.889 115.293 183.978 114.094C184.539 106.558 188.367 100.632 189.935 93.208ZM172.122 117.836C169.52 118.182 169.489 120.522 171.937 120.952C172.807 119.76 172.698 119.101 172.122 117.836Z" fill="#675B49"/>
<path d="M170.166 121.706C170.034 121.602 169.903 121.496 169.774 121.388C167.754 119.691 168.895 116.611 171.477 116.562C172.252 116.547 172.503 116.967 173.022 117.464C172.635 117.729 172.569 117.821 172.122 117.836C169.52 118.183 169.489 120.522 171.937 120.952L170.969 121.277C171.223 121.463 171.791 121.386 172.181 121.386C170.779 122.365 171.053 122.43 171.077 124.13C170.883 123.269 171.078 122.371 170.665 121.745L170.166 121.706Z" fill="#675B49"/>
<path d="M15.9581 108.148C15.8545 107.168 15.447 106.152 15.0718 105.24C12.4945 98.9825 8.32492 88.2901 15.5701 83.4754C18.4641 81.5577 22.0014 80.868 25.4037 81.5582C28.5959 82.2256 31.21 83.5045 33.0383 86.2868C32.9496 86.6713 32.7873 87.1577 32.8842 87.5198C31.6371 86.8311 31.0893 85.8338 29.9826 85.0315C27.0848 82.9307 23.8566 82.4805 20.4408 83.2499C12.8235 84.9659 12.2496 90.8024 13.9282 97.3565C14.9446 101.325 17.3689 105.714 18.0837 109.783C17.914 109.997 17.4718 110.605 17.2786 110.712L16.6756 110.761C16.506 109.842 16.2356 109.035 15.9581 108.148Z" fill="#675B49"/>
<path d="M15.9581 108.147C17.258 109.024 17.1357 109.154 17.2786 110.712L16.6756 110.761C16.506 109.842 16.2356 109.035 15.9581 108.147Z" fill="#675B49"/>
<path d="M87.5088 82.4968C89.9615 77.228 101.778 77.4679 106.545 79.3821C107.451 79.746 110.382 82.4943 110.548 82.4898C122.99 82.1511 117.686 97.8698 115.232 104.676C115.166 104.858 114.945 105.181 114.73 105.402L114.349 105.316C113.012 102.647 121.656 86.7866 112.969 83.9913C111.813 83.6193 110.894 83.5987 109.691 83.5202C109.279 83.1263 108.826 82.6755 108.397 82.3097C103.539 78.171 92.9566 78.6909 88.4193 82.8193L87.5088 82.4968Z" fill="#675B49"/>
<path d="M115.153 31.3511C115.987 31.7698 116.343 33.0429 116.527 33.8901C117.448 38.1569 116.335 42.4216 114.07 46.0804C110.122 52.4583 102.73 56.9649 95.5225 58.6122C94.0662 57.0966 95.7172 56.7458 97.0703 56.319C105.673 53.6058 114.043 47.1003 114.989 37.5302C115.15 35.8956 114.435 34.0739 114.158 32.3442C114.429 31.752 114.559 31.7958 115.153 31.3511Z" fill="#675B49"/>
<path d="M123.911 121.033C122.004 120.691 122.075 117.578 122.943 116.342C123.571 115.447 126.129 115.042 127.193 114.758C127.903 114.569 127.868 114.586 128.417 114.966L128.439 115.285C127.412 116.238 124.224 116.137 124.374 117.532C124.809 118.111 125.607 118.222 126.326 118.413C129.174 119.707 134.805 118.678 137.729 117.712C137.752 118.283 137.665 118.394 137.948 118.829C138.424 118.893 138.265 118.881 138.775 118.594C138.871 118.291 138.985 117.837 139.168 117.597C139.231 118.39 139.35 119.872 138.762 120.473C137.275 121.995 132.987 122.259 130.995 122.315C128.964 122.372 125.601 122.06 123.911 121.033ZM124.739 119.329C124.111 119.117 124.164 119.015 123.64 119.214C123.658 120.089 124.134 120.379 124.814 120.805C127.293 121.774 135.989 121.962 137.848 120.086C138.07 119.512 138.102 119.688 137.953 119.208C137.072 119.104 135.829 119.745 134.924 119.86C131.695 120.269 127.85 120.246 124.739 119.329Z" fill="#675B49"/>
<path d="M129.32 114.188C129.395 113.173 129.933 112.751 130.022 111.493C130.349 106.846 128.613 101.243 133.26 98.2201C135.351 96.8605 140.711 91.1672 142.547 90.7412L143.013 90.8428C143.013 92.7318 137.069 96.9941 135.67 98.4697C134.614 99.583 132.086 101.242 131.725 102.97C131.466 105.622 131.587 108.47 131.785 111.118C131.907 112.742 133.107 116.388 131.903 117.483C131.191 117.698 129.891 117.711 129.314 117.195C128.85 116.772 129.314 115.064 129.32 114.188Z" fill="#675B49"/>
<path d="M182.115 121.581C183.137 120.513 183.617 119.947 184.485 118.75C183.557 123.429 182.849 126.602 183.152 131.578C183.285 133.764 184.218 135.397 183.957 137.903C183.492 142.359 180.629 146.682 181.938 151.224L181.541 151.16C181.244 151.406 181.009 151.594 180.74 151.87C178.54 146.677 182.444 141.755 182.322 136.803C182.272 134.792 181.281 129.226 181.38 127.01C181.435 125.752 178.958 125.226 179.363 121.701C179.532 121.658 179.701 121.616 179.87 121.573C180.21 122.391 180.852 124.292 181.365 124.848L181.637 124.777C182.06 123.968 182.053 122.54 182.115 121.581Z" fill="#675B49"/>
<path d="M97.3412 105.745C105.467 105.462 113.696 105.882 121.806 106.313C123.403 106.398 128.449 106.196 129.223 107.619L128.987 108.057C128.2 108.454 128.359 108.321 127.353 108.233C118.791 108.191 109.961 106.997 101.351 107.164C100.195 107.187 96.0807 107.347 95.3531 106.54L95.4141 106.218C96.1121 105.805 96.5256 105.82 97.3412 105.745Z" fill="#675B49"/>
<path d="M157.073 151.554C158.112 149.291 159.294 146.985 159.755 144.538C160.568 140.224 158.383 135.306 161.787 131.707C162.209 131.26 163 130.424 163.645 130.408C164.277 131.744 161.733 134.674 161.756 135.99C161.855 141.849 162.119 147.361 158.524 152.525C158.102 152.145 157.563 151.851 157.073 151.554Z" fill="#675B49"/>
<path d="M18.1771 130.902C18.6276 132.173 17.1238 135.567 17.3165 137.04C17.9667 142.011 19.5781 144.724 19.3556 149.948C18.8731 153.236 17.1364 152.567 17.3371 154.449C17.7186 154.88 17.8118 154.942 18.2978 155.254L19.1461 156.022C18.0772 156.138 17.3911 156.129 16.5145 155.468C15.4009 153.491 17.5127 152.265 18.103 149.758C17.9102 145.412 17.297 143.972 16.0862 139.862C15.6429 138.358 15.5031 134.204 16.3327 132.891C17.6036 132.153 16.9615 131.627 18.1771 130.902Z" fill="#675B49"/>
<path d="M19.1461 156.021C18.0772 156.137 17.3911 156.129 16.5145 155.467C15.4009 153.491 17.5127 152.265 18.103 149.758C18.2824 149.807 18.3992 149.879 18.5392 150.001C18.4872 150.776 18.3866 150.924 18.0389 151.623L18.1248 152.058L18.4034 152.033C18.7147 151.404 18.8685 150.583 19.03 149.888L19.3556 149.947C18.8731 153.236 17.1365 152.566 17.3371 154.449C17.7186 154.88 17.8118 154.942 18.2979 155.254L19.1461 156.021Z" fill="#675B49"/>
<path d="M80.766 99.9345C79.0443 95.3429 77.7047 86.6704 82.2131 83.3214C83.0564 82.695 85.192 82.303 86.2142 82.6433L85.4785 82.9765C85.4181 83.3511 85.392 83.3534 85.5506 83.7136C84.4318 83.9761 83.9961 84.0821 82.9172 84.5616C78.6496 89.872 81.3627 94.5493 82.3279 100.232C82.6836 101.727 83.3254 103.772 82.8787 105.213L82.5857 105.308C81.6371 104.455 80.9838 101.239 80.766 99.9345Z" fill="#675B49"/>
<path d="M147.053 84.791C153.649 87.1072 147.165 91.5422 143.639 92.7777C143.685 91.9031 144.129 91.4305 144.063 90.607C142.926 89.2186 142.716 90.3611 141.626 89.8562C141.2 88.0342 145.561 85.4225 147.053 84.791ZM143.623 88.6342C144.142 89.1863 144.672 89.7408 145.182 90.2988C146.574 90.6076 149.242 87.1201 147.033 86.2514C145.679 86.7748 144.673 87.6551 143.623 88.6342Z" fill="#675B49"/>
<path d="M52.4955 84.7734C54.0967 85.4102 58.2883 87.8418 58.0375 89.7623C57.074 90.5187 56.7588 89.4613 56.0002 90.4734C55.824 91.4352 56.0236 91.5541 56.325 92.5182C54.4475 93.1457 46.0309 87.7941 52.4955 84.7734ZM55.0703 89.7256L55.9066 88.9773C55.8754 87.7228 53.667 86.7219 52.6269 86.0574C52.0476 87.7633 52.5598 90.0602 54.4615 90.5395C54.9351 90.2082 54.7891 90.3102 55.0703 89.7256Z" fill="#675B49"/>
<path d="M79.9946 106.228C83.4244 105.892 87.0473 105.922 90.4985 105.803C91.4621 105.769 92.2278 105.72 92.8946 106.453L92.7424 106.757C90.4162 108.072 74.3356 107.806 70.8092 108.277C70.5471 108.312 70.402 107.854 70.316 107.658L70.535 107.257C71.9655 106.392 76.7983 106.339 78.7069 106.252L79.9946 106.228Z" fill="#675B49"/>
<path d="M68.0502 107.174C68.0443 103.648 68.5402 102.857 66.2789 100.504C64.5068 98.6593 57.8502 93.4302 56.9162 91.7262L56.9256 91.3018C58.2703 90.2003 66.9127 98.8895 68.3351 100.167C69.9221 101.592 69.5182 106.739 69.4951 108.896C68.9726 108.063 68.8248 107.757 68.0502 107.174Z" fill="#675B49"/>
<path d="M34.6988 86.8848C43.7865 89.6936 40.0502 104.569 40.1148 111.631C40.1174 111.898 39.8199 112.146 39.6432 112.307L39.398 112.203C38.0902 107.115 42.0619 92.9084 35.7383 88.5217C35.466 88.3328 34.9148 88.1332 34.5713 88.0809L34.6988 86.8848Z" fill="#675B49"/>
<path d="M101.622 87.0176C103.501 87.726 103.788 87.6129 104.356 89.6316C103.768 91.6896 103.277 92.4113 102.037 94.1668L101.812 93.15L101.386 92.9441L100.568 93.224C99.6858 92.984 99.5277 92.9656 98.6131 92.9715C98.0086 93.4402 98.2699 93.373 97.6279 93.3238C96.7822 91.9965 99.0238 88.3687 100.202 87.6596C100.535 87.4596 101.24 87.1719 101.622 87.0176ZM101.345 92.8207C102.096 91.5264 103.184 90.0115 102.059 88.6563C100.39 88.3861 99.5061 90.3027 99.0975 91.6629C100.228 91.8965 100.51 91.9867 101.345 92.8207Z" fill="#675B49"/>
<path d="M93.4135 111.426C93.2586 109.554 93.1367 104.814 93.4723 103.094C93.8977 100.913 97.1446 94.8312 98.975 93.6782L99.2617 93.8056C99.6555 96.3591 95.668 100.385 95.1737 102.984C94.6469 105.755 95.0559 109.016 94.9207 111.9L94.4399 112.759L94.1875 112.75C93.8344 112.346 93.6532 111.908 93.4135 111.426Z" fill="#675B49"/>
<path d="M19.4614 133.523C19.8488 133.584 24.9314 137.15 25.8133 137.787C28.5309 139.748 37.0809 138.781 37.1771 143.1C35.599 143.129 34.051 140.645 30.6441 141.075C27.258 141.502 20.3633 136.978 19.4614 133.523Z" fill="#675B49"/>
<path d="M178.148 134.808C178.572 135.137 178.601 135.265 178.813 135.765C175.231 140.168 172.09 140.836 166.897 141.31C166.265 141.368 163.801 142.577 162.851 142.873L162.615 142.614C162.775 141.909 163.302 141.582 163.724 141.115C166.105 138.483 168.89 140.007 171.816 138.816C173.973 137.938 176.19 136.189 178.148 134.808Z" fill="#675B49"/>
<path d="M120.494 89.2961C121.422 89.1502 120.634 88.1752 121.675 87.2266C122.396 90.3746 120.465 103.555 118.098 105.493L117.773 105.454C116.909 103.379 119.786 96.143 119.957 93.5672C119.956 93.5816 120.646 88.9154 120.494 89.2961Z" fill="#675B49"/>
<path d="M18.2979 155.254C23.3256 152.343 18.9005 140.313 21.8807 138.338C22.569 138.209 22.3145 138.177 22.9174 138.373C23.0594 138.994 22.3145 140.751 22.3028 141.711C22.2414 146.738 23.6008 152.356 19.1461 156.021L18.2979 155.254Z" fill="#675B49"/>
<path d="M61.8953 121.038C60.4094 120.491 60.4404 119.429 60.3926 117.995C60.3223 115.885 65.6877 113.493 66.8377 115.108C66.0561 116.218 62.9022 116.101 62.2955 117.409L62.4727 117.698C64.2873 118.95 68.8004 119.053 70.9643 118.899L71.1451 119.062C70.7367 119.611 70.6471 119.677 70.1096 120.085C69.1414 120.274 68.5967 120.197 67.6293 120.121C66.5783 120.009 62.2291 119.202 61.6334 119.532C61.735 120.319 62.6121 120.634 63.2694 120.937L61.8953 121.038Z" fill="#675B49"/>
<path d="M105.339 144.653C113.432 144.38 123.793 141.469 131.641 139.402L131.72 139.677C130.074 141.189 116.211 144.226 113.498 144.699C112.264 144.915 107.865 145.408 106.428 145.471L105.339 144.653Z" fill="#675B49"/>
<path d="M172.677 122.231L172.863 122.237L173.011 122.067C173.233 122.07 173.437 122.073 173.661 122.085C174.829 124.877 172.804 134.563 169.765 135.927C169.09 135.908 169.339 135.998 168.818 135.603C168.828 135.445 171.564 130.676 171.851 129.866C172.572 127.832 171.752 123.553 172.677 122.231Z" fill="#675B49"/>
<path d="M93.5383 145.539C93.2615 145.522 92.985 145.503 92.7084 145.483C91.8498 145.42 91.0229 145.32 90.1471 145.25C83.0508 144.687 76.3067 142.338 69.4647 140.557C69.2088 140.49 68.8723 140.125 68.7028 139.928C69.7506 139.729 79.3377 142.569 81.3963 142.852C84.5414 143.286 90.653 144.78 93.8157 144.728L93.5383 145.539Z" fill="#675B49"/>
<path d="M15.4749 119.183C16.1243 119.836 16.8074 120.606 17.4406 121.287C17.598 122.324 17.5946 124.555 18.7292 124.637L19.4427 123.974L19.7853 124.645C18.3701 126.093 17.5203 128.991 18.1771 130.902C16.9615 131.627 17.6036 132.153 16.3326 132.891C17.2816 130.125 15.8093 122.331 15.4749 119.183Z" fill="#675B49"/>
<path d="M68.0502 107.174C68.8248 107.758 68.9726 108.063 69.4951 108.897C69.4641 110.277 69.3728 111.814 70.0193 113.045C70.124 113.244 70.1217 113.266 70.123 113.488C70.3066 114.431 70.9998 117.086 70.041 117.427C66.2859 118.766 67.3668 114.283 67.7703 112.656C68.1639 112.027 68.0557 108.135 68.0502 107.174ZM69.2428 113.825C69.0846 113.397 69.2074 113.572 68.8662 113.277L68.4269 113.393C68.3252 114.307 68.1264 115.244 68.467 116.083L68.7805 116.428C69.5842 115.951 69.2992 114.681 69.2428 113.825Z" fill="#675B49"/>
<path d="M31.7547 135.616C31.5621 135.683 31.3675 135.744 31.1711 135.799C26.7287 136.989 24.875 124.354 26.4291 121.994L26.7666 121.951C27.4265 122.751 27.2623 125.193 27.301 126.261C27.3935 128.83 28.8504 133.841 31.0332 135.278L31.7547 135.616Z" fill="#675B49"/>
<path d="M159.306 95.2601L159.822 95.0093C160.124 95.589 160.103 96.1069 160.236 96.7273C159.789 101.499 161.806 108.897 159.778 111.998L159.643 111.787L159.819 111.892L159.632 111.721C159.56 107.766 158.531 98.47 159.306 95.2601Z" fill="#675B49"/>
<path d="M166.671 86.3945C166.992 86.5898 167.36 86.8014 167.661 87.0186C167.314 87.2699 167.064 87.4945 166.655 87.6131C161.659 88.7772 161.125 92.2875 160.236 96.7272C160.103 96.1068 160.124 95.5889 159.822 95.0092L159.306 95.26C159.78 90.6875 160.739 88.6428 165.025 86.7492C165.665 86.7895 166.067 86.6035 166.671 86.3945Z" fill="#675B49"/>
<path d="M166.671 86.3945C166.992 86.5898 167.36 86.8014 167.661 87.0186C167.314 87.2699 167.064 87.4945 166.655 87.6131C166.142 87.316 165.555 87.025 165.025 86.7492C165.665 86.7895 166.067 86.6035 166.671 86.3945Z" fill="#675B49"/>
<path d="M74.4978 115.125C75.9519 115.646 76.5994 115.868 77.2721 117.364C77.8885 118.735 77.5318 120.06 76.2443 120.823L74.7818 120.731C75.443 120.496 76.0836 120.314 76.2685 119.587L75.9512 119.416C74.9625 119.409 72.2476 119.798 71.3619 120.125L70.1096 120.085C70.6471 119.677 70.7367 119.611 71.1451 119.063L70.9642 118.899C72.0695 118.759 75.023 118.523 75.3185 117.328L74.8646 116.708C74.5096 116.005 74.4799 115.912 74.4978 115.125Z" fill="#675B49"/>
<path d="M101.54 119.331L101.643 118.97C102.219 118.665 102.056 118.757 102.808 118.859C102.643 119.744 102.46 120.491 101.577 120.951C97.2789 123.188 90.3191 122.996 86.1037 120.619C86.273 120.412 86.6342 120.072 86.8363 119.868C87.0662 120.094 87.7396 120.738 88.0707 120.83C91.3615 121.746 96.9027 121.968 100.153 120.853C101.026 120.554 101.257 120.045 101.54 119.331Z" fill="#675B49"/>
<path d="M93.4135 111.426C93.6531 111.908 93.8344 112.346 94.1875 112.75L94.4399 112.759L94.9207 111.9C95.6174 113.506 97.3234 119.544 92.6943 117.133C92.3551 116.956 93.2762 112.17 93.4135 111.426ZM94.5584 117.011C95.0772 116.193 95.0832 113.759 94.1441 113.173C93.775 114.415 93.5354 115.134 93.8514 116.391C94.1348 116.77 94.1438 116.813 94.5584 117.011Z" fill="#675B49"/>
<path d="M18.1879 114.679C18.4083 114.492 18.8276 114.323 19.1067 114.195C21.839 114.476 24.776 113.883 26.7873 116.13L26.7648 116.47C26.0013 116.842 23.7635 116.467 22.9279 116.2C21.8771 115.865 18.4976 115.816 17.8222 115.429C17.8319 114.926 17.7726 115.12 18.1879 114.679Z" fill="#675B49"/>
<path d="M88.1986 118.101C91.1531 119.112 94.3131 119.368 97.3918 118.847C97.648 119.291 97.8305 119.501 98.15 119.887C94.3508 120.603 90.4074 120.354 86.7806 118.947C87.1845 118.372 87.5271 118.322 88.1986 118.101Z" fill="#675B49"/>
<path d="M177.507 142.558C177.406 141.148 176.612 138.723 177.009 138.129C178.177 137.833 178.888 139.949 179.08 140.814C179.484 142.643 179.046 144.557 178.69 146.36C177.153 145.645 177.624 144.089 177.507 142.558Z" fill="#675B49"/>
<path d="M86.1037 120.619C85.8682 120.277 85.5567 118.344 85.6254 117.889C86.0895 114.816 91.1274 114.719 93.3262 114.881C92.1235 115.533 87.5383 116.52 87.701 117.824L88.1987 118.101C87.5272 118.322 87.1846 118.372 86.7807 118.947L86.8363 119.868C86.6342 120.072 86.2731 120.412 86.1037 120.619Z" fill="#675B49"/>
<path d="M99.9367 115.304C102.039 116.108 102.612 116.424 102.808 118.859C102.056 118.757 102.219 118.665 101.643 118.97L101.54 119.331C100.582 119.311 99.1635 119.716 98.15 119.886C97.8305 119.501 97.648 119.291 97.3918 118.847C98.3521 118.733 100.716 118.417 100.676 117.244C100.222 116.646 99.4027 116.43 98.6846 116.159C99.2394 116.083 99.5135 115.711 99.9367 115.304Z" fill="#675B49"/>
<path d="M93.8156 144.728C96.8984 144.71 102.47 145.057 105.338 144.653L106.428 145.471C102.139 145.81 97.8308 145.832 93.5383 145.539L93.8156 144.728Z" fill="#675B49"/>
<path d="M177.982 152.634C177.168 150.447 177.249 144.984 177.507 142.558C177.624 144.089 177.153 145.645 178.69 146.36C178.568 147.821 178.494 148.294 178.715 149.753C178.984 150.787 179.34 152.007 179.472 153.05L178.144 153.158L177.982 152.634Z" fill="#675B49"/>
<path d="M178.715 149.753C178.984 150.787 179.34 152.007 179.472 153.051L178.144 153.159L177.982 152.635C178.181 151.648 178.339 150.689 178.715 149.753Z" fill="#675B49"/>
<path d="M116.254 50.7314C118.972 50.7984 118.903 52.8279 116.952 54.4998C114.951 54.4188 114.067 52.2078 116.254 50.7314Z" fill="#675B49"/>
<path d="M130.328 50.7588C133.191 50.5707 132.871 52.8906 131.329 54.5596C130.22 54.5172 129.168 53.6606 129.223 52.5563C129.268 51.6559 129.745 51.3492 130.328 50.7588Z" fill="#675B49"/>
<path d="M69.6629 121.508C71.3879 121.396 73.1817 121.38 74.7818 120.731L76.2444 120.823C72.4756 122.501 66.4567 122.853 62.6664 121.377C62.4047 121.274 62.1475 121.161 61.8953 121.038L63.2693 120.937C64.0922 121.241 67.1762 121.509 68.0686 121.4C68.5986 121.445 69.1317 121.5 69.6629 121.508Z" fill="#675B49"/>
<path d="M123.441 50.7036C124.54 50.7665 124.949 51.4394 125.735 52.2515C125.149 53.2593 124.975 53.7726 124.062 54.5462C123.973 54.5376 123.883 54.5288 123.793 54.5202C123.224 54.4396 122.715 54.1222 122.392 53.6462C121.549 52.4058 122.459 51.3905 123.441 50.7036Z" fill="#675B49"/>
<path d="M79.8225 37.6519C79.9656 37.6446 80.1088 37.64 80.252 37.6376C82.6565 37.6042 83.0371 39.6642 81.1463 41.0753C80.5617 41.0712 79.8057 40.8487 79.352 40.4685C79.0397 40.2099 78.8578 39.8265 78.8553 39.421C78.8463 38.6858 79.3629 38.1612 79.8225 37.6519Z" fill="#675B49"/>
<path d="M86.9967 37.7515C87.5607 37.4687 88.2344 37.5179 88.7514 37.8797C89.2682 38.2416 89.5451 38.8576 89.4727 39.4844C89.4 40.1111 88.9897 40.6476 88.4037 40.8818C87.549 41.2232 86.5773 40.8304 86.2 39.991C85.8227 39.1517 86.174 38.164 86.9967 37.7515Z" fill="#675B49"/>
<path d="M137.73 117.712L137.64 117.588C136.301 115.761 134.307 116.28 133.406 115.273C134.815 114.247 138.884 115.23 139.168 117.597C138.985 117.837 138.871 118.291 138.775 118.594C138.265 118.881 138.424 118.893 137.948 118.829C137.665 118.394 137.752 118.283 137.73 117.712Z" fill="#675B49"/>
<path d="M73.292 37.6386C74.2096 37.524 75.0471 38.1722 75.1662 39.089C75.2853 40.0058 74.6412 40.8466 73.725 40.9705C72.8023 41.0949 71.9543 40.4453 71.8344 39.522C71.7142 38.5988 72.3681 37.7539 73.292 37.6386Z" fill="#675B49"/>
<path d="M170.166 121.706L170.665 121.745C171.078 122.371 170.883 123.269 171.077 124.13C171.117 126.21 170.764 127.498 169.686 129.266C169.303 128.902 169.017 128.513 168.69 128.099C170.047 125.487 169.979 124.633 170.166 121.706Z" fill="#675B49"/>
<path d="M168.69 128.099C169.017 128.513 169.303 128.901 169.686 129.266C168.609 130.576 167.037 132.079 167.463 133.913L166.46 134.373C165.726 131.56 167.051 130.193 168.69 128.099Z" fill="#675B49"/>
<path d="M180.74 151.87C181.009 151.594 181.244 151.406 181.541 151.16L181.937 151.224C182.802 152.434 183.563 153.226 183.273 154.829C182.885 156.983 180.638 156.142 179.506 155.184C180.005 155.255 180.305 155.048 180.777 154.831C181.232 155.028 181.335 155.007 181.842 155.034C182.991 154.254 181.373 152.638 180.74 151.87Z" fill="#675B49"/>
<path d="M18.0837 109.783C18.454 111.245 18.8459 112.711 19.1067 114.195C18.8276 114.323 18.4084 114.492 18.188 114.679C17.5499 113.25 17.1941 112.248 16.6756 110.761L17.2786 110.712C17.4718 110.605 17.914 109.996 18.0837 109.783Z" fill="#675B49"/>
<path d="M74.8646 116.708C73.6484 115.851 72.1971 116.072 71.1105 114.931L71.2978 114.675C72.2047 114.468 73.4949 114.907 74.4978 115.125C74.4799 115.912 74.5096 116.005 74.8646 116.708Z" fill="#675B49"/>
<path d="M157.073 151.554C157.563 151.851 158.102 152.145 158.524 152.525C158.294 152.972 157.755 153.96 157.603 154.383C157.296 154.02 156.579 153.781 156.032 153.455L157.073 151.554Z" fill="#675B49"/>
<path d="M19.4427 123.974L19.4649 123.812C19.6166 122.626 19.149 122.251 19.3476 121.679C20.8045 121.385 21.3639 123.368 19.7853 124.645L19.4427 123.974Z" fill="#675B49"/>
<path d="M98.6846 116.159C97.5797 115.994 97.2102 116.115 96.7012 115.103L96.8713 114.815C97.5975 114.683 98.959 115.158 99.9367 115.304C99.5135 115.711 99.2395 116.083 98.6846 116.159Z" fill="#675B49"/>
<path d="M178.144 153.159L179.472 153.051C179.942 153.897 180.123 154.106 180.777 154.831C180.305 155.048 180.005 155.256 179.506 155.184C178.907 154.638 178.542 153.871 178.144 153.159Z" fill="#675B49"/>
<path d="M101.386 92.9443L101.812 93.1502L102.037 94.167C101.681 94.6033 101.097 95.1209 100.539 95.1543L100.363 94.6684C100.485 94.1039 100.519 93.7848 100.568 93.2242L101.386 92.9443Z" fill="#675B49"/>
<path d="M87.5088 82.4966L88.4193 82.819C87.4369 83.7653 86.9955 83.631 85.5506 83.7134C85.392 83.3532 85.4182 83.3509 85.4785 82.9763L86.2143 82.6431C86.9373 82.7882 86.7443 82.7384 87.5088 82.4966Z" fill="#675B49"/>
<path d="M32.2746 133.354C32.61 133.471 33.1607 133.643 33.4666 133.78C32.9016 134.622 32.5996 135.028 31.7547 135.616L31.0332 135.278C31.8178 134.528 31.9592 134.399 32.2746 133.354Z" fill="#675B49"/>
<path d="M154.31 107.084C155.748 107.753 156.496 108.133 157.827 108.985C156.808 108.823 155.791 108.647 154.777 108.456C154.395 107.943 154.399 107.7 154.31 107.084Z" fill="#675B49"/>
<path d="M33.0383 86.2866C33.5818 86.4942 34.142 86.7237 34.6988 86.8847L34.5713 88.0808L32.8842 87.5196C32.7873 87.1575 32.9496 86.6712 33.0383 86.2866Z" fill="#675B49"/>
<path d="M178.148 134.808C179.006 134.235 179.845 133.633 180.785 133.208C180.048 134.331 179.754 134.787 178.813 135.765C178.601 135.265 178.572 135.137 178.148 134.808Z" fill="#675B49"/>
<path d="M166.46 134.373L167.463 133.914C168.078 134.872 168.243 135.399 168.55 136.504C167.616 135.715 167.18 135.385 166.46 134.373Z" fill="#675B49"/>
<path d="M78.8252 105.636L79.8811 105.526L79.9945 106.228L78.7068 106.252L78.8252 105.636Z" fill="#675B49"/>
<path d="M146.563 109.147C146.007 109.162 145.834 109.211 145.342 108.944L145.437 108.691L146.088 108.457L146.563 109.147Z" fill="#675B49"/>
</svg>
