<svg width="200" height="200" viewBox="0 0 200 200" fill="none" xmlns="http://www.w3.org/2000/svg">
<path d="M119.731 120.807C120.582 122.158 120.992 135.574 121.529 138.111C121.627 138.57 121.515 139.69 121.326 140.167L120.922 139.925C120.138 138.68 119.315 122.681 119.731 120.807Z" fill="#675B49"/>
<path d="M66.2479 134.419C66.6502 131.743 66.3223 126.593 66.7274 124.554C67.0162 125.204 66.9825 125.646 67.0026 126.355C67.4864 129.129 67.6092 137.416 65.9289 139.574L65.7711 139.583C65.8619 137.97 66.0129 136.005 66.2479 134.419Z" fill="#675B49"/>
<path d="M35.376 109.923C36.2981 109.896 36.1821 109.741 36.5354 108.983C36.4096 115.122 35.086 122.292 34.228 128.365C33.8621 131.328 32.994 134.647 34.3309 137.231C36.2106 138.547 38.7582 139.152 41.0149 139.51C40.8836 139.851 40.786 140.066 40.7217 140.425L40.4389 140.549L40.1981 140.636C39.9469 140.521 39.5049 140.418 39.2252 140.342C33.2483 139.923 31.3922 136.962 32.4606 131.219C29.2643 130.811 26.9492 130.395 23.8278 129.437C22.0442 136.813 24.6676 142.156 23.3801 149.977L23.1416 151.053C22.7096 151.254 22.6873 151.272 22.2188 151.304L21.9088 150.909L22.0364 149.684C23.2422 143.448 20.4594 134.38 22.7971 128.959C21.5741 128.384 19.0353 126.524 18.4591 126.473L18.1609 127.11C18.0712 129.492 17.7766 132.05 18.0519 134.411C18.8698 141.43 21.1317 145.375 19.2742 152.571C18.3612 151.876 18.7318 152.746 18.1548 151.371C20.2069 144.025 14.5762 134.573 17.2832 125.374C17.1664 125.889 16.623 111.614 16.581 111.125L17.1383 111.258C17.347 110.939 17.3241 110.743 17.3516 110.363L17.5175 110.212C17.5277 110.85 17.5342 111.488 17.5371 112.127L17.7457 112.284L17.9433 112.156C18.6108 120.409 20.1594 120.84 27.8412 123.424C28.1293 123.52 29.4746 123.865 29.6342 123.949C30.4297 124.079 33.1869 124.675 33.6889 124.453C33.524 122.942 35.0018 111.933 35.376 109.923ZM33.0549 127.773C33.1547 126.951 33.3117 126.601 33.6065 125.822C32.019 125.554 30.4385 125.243 28.8672 124.892C24.1024 124.067 21.3637 122.611 18.1183 119.21C18.3936 121.899 17.9585 124.208 20.2 125.925C23.1838 128.212 28.9701 129.531 32.6848 130.219C32.8108 129.426 32.9666 128.565 33.0549 127.773Z" fill="#675B49"/>
<path d="M29.6342 123.949C30.4297 124.079 33.1869 124.674 33.6889 124.453C33.9666 125.064 33.9029 124.804 33.8053 125.578L33.6064 125.822C32.0189 125.554 30.4385 125.243 28.8672 124.892C29.4998 124.659 30.2471 124.776 30.9559 124.71C30.3754 124.48 30.1234 124.358 29.6342 123.949Z" fill="#675B49"/>
<path d="M22.0364 149.684C22.4748 149.527 22.7594 149.358 23.1399 149.091C23.4408 149.518 23.3487 149.377 23.3801 149.977L23.1416 151.053C22.7096 151.254 22.6873 151.271 22.2188 151.304L21.9088 150.909L22.0364 149.684Z" fill="#675B49"/>
<path d="M182.705 106.89L182.952 107.297C183.277 107.313 183.586 107.331 183.912 107.323C182.859 112.749 183.388 119.421 182.944 124.988C182.838 126.309 183.426 128.579 183.439 130.021C182.095 131.444 182.948 131.631 182.575 132.577C182.283 130.938 181.72 127.256 181.51 125.643C180.124 126.621 178.528 127.796 176.978 128.484C180.777 136.084 177.629 142.606 178.112 150.087C178.024 150.395 177.952 150.607 177.923 150.93L177.688 151.062C177.602 150.912 177.503 150.799 177.378 150.68C177.357 151.549 177.361 152.946 177.286 153.771C175.649 145.459 179.43 136.142 175.702 128.705C173.834 129.344 171.931 129.872 170.001 130.289C168.404 130.617 162.704 131.172 161.836 131.969L161.604 131.567L160.913 131.668C160.235 131.534 160.031 131.574 159.352 131.638C157.495 133.354 162.8 139.503 154.959 142.229C155.184 144.305 155.511 149.573 155.349 151.5L155.032 151.347C154.735 151.585 154.717 151.607 154.496 151.925L154.444 152.002L154.381 151.839C154.796 150.918 154.386 147.347 154.296 146.058C154.143 146.366 154.018 148.252 153.968 148.738C153.943 146.508 153.825 144.462 153.687 142.239C150.972 142.257 147.341 141.138 145.121 142.644L144.575 142.681C144.087 142.236 144.246 142.256 144.198 141.37C144.527 141.465 146.501 140.8 147.479 140.693C149.722 140.412 151.753 141 154.038 140.731C159.495 140.088 157.93 135.621 157.315 131.808C156.948 129.445 156.592 127.08 156.249 124.713C155.927 123.589 155.755 121.62 155.613 120.391L156.518 120.722L157.084 120.838C157.236 121.955 157.49 123.332 157.382 124.432C157.448 124.985 157.435 125.133 157.783 125.556C157.728 126.618 158.174 129.121 158.283 130.472C160.185 130.044 163.135 130.087 165.087 129.764C170.447 128.878 176.967 127.822 181.118 124.142C181.481 123.205 182.145 119.207 181.606 118.464L180.996 117.705C182.539 115.691 182.041 109.746 182.705 106.89Z" fill="#675B49"/>
<path d="M115.826 49.1308C115.373 46.8673 116.157 46.0204 115.134 44.1562L115.331 43.853C116.545 43.9222 119.746 47.1116 120.074 48.3886C120.388 49.614 120.197 51.3538 120.386 52.6233C121.079 55.2849 121.623 56.9843 122.099 59.7397C122.617 58.1034 122.849 57.386 123.753 55.8827L124.295 56.2546L124.243 56.4017C123.767 57.736 122.915 58.7868 122.502 60.0065C122.05 61.3431 122.02 64.0638 121.584 65.3177C121.216 65.8462 120.77 66.2776 120.775 66.8241C121.287 66.7108 121.77 66.0724 122.103 65.639C123.375 63.578 126.019 60.0714 128.487 59.5474C130.922 59.0306 132.838 60.0048 135.069 60.4446C131.864 61.9788 130.262 63.9782 126.762 62.7183C126.525 62.6327 126.294 62.5349 126.067 62.4253C122.406 64.653 121.015 69.6181 120.517 73.6224C126.742 74.1345 122.53 76.1497 123.13 79.5017C122.635 79.7105 122.441 79.8155 121.899 79.8985C121.876 78.9044 121.846 78.4046 122.036 77.4085C121.614 76.5454 118.543 76.6946 117.932 77.3323C117.773 77.9644 117.95 79.5263 117.869 80.5612C116.812 81.9017 115.74 83.23 114.652 84.5462C114.416 84.4077 113.935 84.3444 113.643 84.2854C114.307 82.479 116.186 81.5435 116.754 79.5946C117.391 77.4042 115.552 76.1372 116.393 74.4017C117.406 73.5946 118.546 73.6845 119.824 73.6411C119.849 70.5349 120.095 66.7827 118.286 63.9487L118.218 63.844C117.966 63.4478 117.648 63.1448 117.195 62.9894C112.725 61.4534 112.818 58.7147 111.5 54.7665C113.958 55.938 117.635 57.2427 118.121 60.2429C118.318 61.4636 118.35 62.7835 118.892 63.9255C119.116 64.3962 119.838 65.8065 120.298 65.9874C122.437 62.9296 120.391 55.695 119.507 52.4507C117.654 52.1319 116.468 50.8288 115.826 49.1308ZM116.537 48.4776C117.011 49.9903 117.948 50.6983 119.082 51.7956L119.392 51.4579C120.178 48.9411 118.213 46.8392 116.428 45.344C116.389 46.3683 116.477 47.4499 116.537 48.4776ZM112.841 56.412C113.97 59.3349 114.152 61.4056 117.671 62.0476C117.345 59.2812 115.722 56.9624 112.841 56.412ZM126.128 61.6868C127.52 61.9765 128.519 62.2368 129.958 62.1026C130.696 61.8735 131.261 61.7642 131.823 61.2368L131.928 60.8374C131.162 59.9226 129.501 60.147 128.42 60.2356C127.664 60.7062 126.861 61.1874 126.128 61.6868Z" fill="#675B49"/>
<path d="M46.9548 105.729C46.1738 104.957 45.9277 105.308 45.4294 104.567L45.6216 104.361C46.1044 104.501 46.3189 104.619 46.7576 104.845L47.0486 104.598C48.5693 104.975 50.041 105.464 51.549 105.858C59.4779 107.934 67.8367 108.974 75.9691 109.629C92.1212 110.936 108.367 110.487 124.422 108.29C127.787 107.81 131.321 107.002 134.658 106.32C136.136 106.018 138.851 105.125 140.187 104.937C141.284 106.117 141.293 105.225 142.532 105.26C138.534 107.407 131.918 108.4 127.361 109.13C104.641 112.771 70.9011 113.13 48.8558 106.493C48.2625 106.315 47.4583 106.083 46.9548 105.729Z" fill="#675B49"/>
<path d="M125.871 87.1836L127.148 87.2814C127.174 87.3096 127.456 87.6238 127.456 87.6238C133.776 88.4346 149.266 90.4191 153.112 95.8584C153.272 96.3262 153.277 96.501 153.658 96.7695C154.013 96.217 153.899 96.0965 153.94 95.3408L153.666 90.4943L153.775 88.7189L154.039 90.8961C154.118 90.0994 154.141 89.3869 154.165 88.5863L154.352 88.5355L154.25 87.5484C154.416 88.3586 154.657 90.1494 155.06 90.702C155.224 93.4074 155.294 96.1176 155.271 98.8279C155.235 101.742 155.039 104.134 155.341 107.033C156.093 107.032 157.573 107.179 158.1 106.641L158.114 106.637C158.217 106.741 158.446 106.943 158.598 106.956C164.398 107.453 170.513 108.283 175.861 110.692C176.737 111.087 179.41 112.866 179.575 113.794L179.547 113.509L179.561 113.796C178.707 113.387 174.746 111.361 174.086 111.16C170 109.918 165.477 108.985 161.226 108.487C159.416 108.275 156.857 108.293 155.318 108.023C155.927 110.465 155.798 112.745 156.254 114.615C155.961 115.15 155.532 116.027 155.124 116.424C154.836 113.413 154.365 110.062 153.969 107.101C153.59 104.262 153.567 98.4004 151.697 96.4822C146.606 91.2598 134.152 89.7283 127.238 89.0107C127.059 89.8785 126.872 90.6129 126.637 91.4676C126.651 90.2906 126.778 90.265 125.902 89.5219C125.971 88.7895 125.906 87.9293 125.871 87.1836Z" fill="#675B49"/>
<path d="M76.9196 147.255C79.0946 148.012 81.3086 149.118 83.5315 149.787C90.8036 152.066 99.2104 152.071 106.489 149.647C113.28 147.386 117.555 143.11 125.143 147.015L126.001 147.969L125.835 148.152C125.491 148.154 125.147 148.154 124.802 148.153C117.019 145.324 115.882 147.44 108.373 150.446C107.243 150.899 105.521 151.586 104.283 151.644C103.555 151.64 103.239 151.861 102.592 152.194C101.741 152.27 100.744 152.204 100.175 152.687C100.05 153.235 100.252 153.622 100.442 154.146C99.8172 154.26 99.6258 154.308 98.9688 154.252C98.7836 153.901 98.9512 153.546 98.5856 152.893L98.0575 152.748L96.8778 152.768C95.6887 152.718 94.4061 152.787 93.2106 152.824C92.7375 152.584 92.5305 152.661 92.0102 152.749C91.1852 152.686 91.4465 152.591 90.9094 152.985C90.6846 153.57 90.579 153.919 90.4211 154.522C89.9758 154.382 89.6016 154.291 89.1516 154.186L89.7327 152.519L86.8541 152.125C85.7299 157.044 81.7391 160.957 77.1592 162.805C77.5584 162.291 77.5891 162.429 77.5397 161.955C77.2344 161.86 76.9305 161.76 76.6286 161.655C76.8223 161.575 77.0135 161.49 77.2022 161.399C81.527 159.313 84.0594 156.39 85.6237 151.863C82.6665 151.243 78.7479 149.455 75.9514 148.2C76.4034 148.114 76.701 148.186 77.1762 148.053L76.9196 147.255Z" fill="#675B49"/>
<path d="M104.894 46.6626C105.079 47.7886 105.02 47.8358 106.05 48.3821C106.214 54.0976 106.284 59.8153 106.258 65.5331C106.995 65.6622 107.57 65.6929 108.148 66.1622C108.592 67.0944 108.214 67.8706 107.608 68.6497C106.864 69.605 106.575 70.3585 106.172 71.4909L104.196 72.8722C103.816 73.5335 103.59 74.4329 103.181 74.5966C103.231 72.5669 102.71 72.5185 101.17 71.3774C101.035 70.9563 100.662 69.8024 100.439 69.4829C99.7443 68.4841 99.0914 68.0122 98.7738 66.7638C99.4285 65.328 101.109 66.9474 101.022 63.3575C100.963 61.5026 101.003 59.63 101.026 57.7731C101.575 56.581 100.529 56.8419 102.331 55.8206L102.303 59.4526C102.334 61.4155 102.412 63.7854 102.095 65.6896C103.145 65.6946 104.1 65.7517 105.144 65.8165C105.104 65.1341 105.088 64.388 105.093 63.7032C105.132 58.0532 104.793 52.3009 104.894 46.6626ZM105.205 70.7347L106.205 68.8683C104.252 69.1235 103.366 69.2005 101.37 68.9265C102.121 70.8675 103.098 72.5835 105.205 70.7347Z" fill="#675B49"/>
<path d="M43.6274 140.379L43.7803 140.276C44.3227 138.805 45.3276 132.674 45.6682 130.758C45.7582 131.562 45.8051 132.011 45.7797 132.816L45.9756 132.902L46.7244 132.166C45.9688 136.791 43.8024 142.904 45.6651 147.041C45.4586 147.582 45.2979 147.846 45.4756 148.407L45.6317 148.582C45.8834 152.588 46.3768 165.085 43.5201 167.421C43.5008 166.894 43.3672 166.507 43.2283 166.002C44.5742 162.613 44.5283 154.032 44.4248 150.041C44.3854 148.518 43.4504 143.531 43.059 141.764C42.8045 141.529 42.586 141.326 42.403 141.156C42.6498 140.698 43.1153 140.593 43.6274 140.379Z" fill="#675B49"/>
<path d="M167.125 56.521C168.874 55.6983 172.376 55.2313 174.32 55.1473C181.996 54.8155 191.45 58.8503 192.918 67.1743C192.67 67.9628 192.198 69.1946 192.125 69.9702C190.847 63.9819 188.984 60.2731 182.91 57.8985C177.815 55.9059 174.02 56.3526 168.863 57.3899L168.842 57.0923C168.002 57.2766 167.026 57.5003 166.168 57.4575C166.583 57.168 166.889 56.9917 167.125 56.521Z" fill="#675B49"/>
<path d="M153.968 148.738C154.018 148.251 154.143 146.366 154.296 146.058C154.386 147.347 154.796 150.918 154.381 151.839L154.444 152.002L154.497 151.925C154.717 151.607 154.735 151.585 155.032 151.347L155.349 151.499C155.183 156.559 154.84 161.713 155.488 166.744C155.66 168.08 155.812 168.935 157.248 169.311C158.904 168.834 158.025 165.651 158.019 164.314C158.298 164.079 158.904 163.282 159.166 162.953C159.278 164.183 160.264 168.876 159.115 169.599C153.584 173.066 153.947 164.236 153.915 161.131C153.872 157.009 154.027 152.856 153.968 148.738Z" fill="#675B49"/>
<path d="M44.3593 71.2926C44.7126 70.8365 45.0195 70.7459 45.5355 70.5127C46.8427 76.6566 46.6125 80.5066 46.0666 86.7215C45.95 88.0492 45.9449 90.3342 45.6978 91.5537L45.525 91.6088L45.4011 91.5139L45.2123 91.949C45.4781 92.5328 45.6474 92.6311 46.2466 92.8824C43.7222 93.673 42.3478 94.3207 40.0957 95.7326L40.1238 95.5021C40.5054 95.0324 40.4421 94.9582 40.963 94.783L40.8955 94.6527L40.4794 94.7639L40.7873 94.6424C39.7718 95.1721 39.8564 95.1154 38.7 95.2037C39.4916 94.3936 40.4234 93.918 41.4162 93.423C41.3664 91.8383 41.4486 89.8779 41.4724 88.2664L41.7134 88.2576C41.8417 89.0492 42.2248 90.3006 42.2886 90.924C42.2289 91.5072 42.098 92.1268 42.3447 92.6457C42.9669 92.8816 43.973 92.3107 44.7238 92.0195C44.7447 86.051 46.1119 76.3613 44.3593 71.2926Z" fill="#675B49"/>
<path d="M17.9271 57.8386C19.2466 57.3454 20.4564 57.188 21.841 57.0132C22.1107 57.5294 22.1564 57.6335 22.2834 58.2007C20.1596 58.4655 18.2719 59.138 16.2563 59.8411L14.987 60.6229C11.5799 63.1384 10.1332 65.1351 9.26803 69.3177C9.21473 69.5753 8.91527 70.9204 8.84336 71.0708L8.72404 73.3114C8.17928 74.7374 8.95615 75.963 8.57174 76.9649L8.28342 77.0601L7.78897 76.3142C7.30945 73.5462 7.37254 71.5296 7.87545 68.7811C8.53127 64.9878 10.1733 62.7905 12.9784 60.3069C14.4583 59.3964 16.2599 58.3372 17.9271 57.8386Z" fill="#675B49"/>
<path d="M7.87545 68.7811L8.11781 69.1367L8.53305 67.9082L8.81869 67.9193C9.42879 69.4084 8.00689 70.3205 8.84336 71.0707L8.72404 73.3113C8.17928 74.7373 8.95615 75.9629 8.57174 76.9648L8.28342 77.06L7.78897 76.3141C7.30945 73.5461 7.37254 71.5295 7.87545 68.7811Z" fill="#675B49"/>
<path d="M17.9272 57.8386C19.2467 57.3454 20.4565 57.188 21.8411 57.0132C22.1108 57.5294 22.1565 57.6335 22.2834 58.2007C20.1596 58.4655 18.2719 59.138 16.2563 59.8411L16.3118 59.628C16.7667 59.0353 17.7133 58.8128 18.4329 58.5944L18.5348 58.3093L17.9272 57.8386Z" fill="#675B49"/>
<path d="M12.9784 60.3067C14.4583 59.3962 16.2599 58.337 17.9271 57.8384L18.5347 58.3091L18.4329 58.5942C17.7132 58.8126 16.7667 59.0351 16.3118 59.6278L16.2563 59.8409L14.987 60.6228C14.6128 60.2101 15.1165 60.6704 15.1014 59.6052L14.7944 59.7388C14.7431 60.0138 14.7218 60.0751 14.6238 60.338C13.9258 60.5542 13.6911 60.4577 12.9784 60.3067Z" fill="#675B49"/>
<path d="M64.0637 95.3057C69.1449 98.0438 80.0559 98.774 85.9223 98.5342C88.1418 98.4436 90.9074 97.8887 93.1492 97.6791C93.5453 98.1793 93.778 98.3393 94.2668 98.7217C88.6815 100.096 78.5676 99.8279 72.799 98.9969C70.8932 98.7223 64.4299 97.4613 63.3082 95.9629C63.9617 95.6449 63.8145 95.8277 64.0637 95.3057Z" fill="#675B49"/>
<path d="M105.592 95.2021C106.304 96.4717 105.329 97.8563 104.31 98.6252C100.433 102.239 87.4913 102.967 82.3645 102.946C81.953 102.296 81.7856 102.187 81.1858 101.699C85.9176 101.721 90.6188 101.381 95.3061 100.673C96.6823 100.465 98.385 99.66 99.7807 99.4719L99.9137 99.4553C101.794 98.7402 104.146 97.959 104.661 95.8191L105.592 95.2021Z" fill="#675B49"/>
<path d="M180.783 150.002C181 148.968 180.85 148.775 181.917 148.78C181.74 150.878 181.859 151.549 182.199 153.569C182.527 155.52 186.42 162.783 181.897 162.284C181.142 162.198 180.456 161.807 179.996 161.202C178.96 159.85 177.427 155.463 177.286 153.77C177.361 152.946 177.357 151.549 177.378 150.679C177.503 150.799 177.602 150.912 177.688 151.062L177.923 150.93C177.952 150.607 178.024 150.395 178.112 150.087C178.506 152.372 179.552 161.156 182.588 161.199C183.29 160.24 182.243 157.815 181.81 156.82C180.788 154.476 180.681 152.531 180.783 150.002Z" fill="#675B49"/>
<path d="M103.343 36.032C103.011 34.8166 101.623 33.991 101.264 33.0008C100.784 31.6789 102.592 26.2863 103.144 25.1172L103.394 25.1207C104.398 26.1885 106.13 30.8457 106.011 32.4709C105.887 34.1605 104.931 34.3029 103.729 35.5004C103.765 36.0367 103.855 36.0088 103.621 36.3588C103.523 36.2574 103.386 36.1451 103.343 36.032ZM103.914 34.7455C104.883 33.6098 105.064 33.0588 104.986 31.5389C104.941 30.6586 104.114 28.0281 103.444 27.4766C102.505 29.6547 100.939 33.4758 103.914 34.7455Z" fill="#675B49"/>
<path d="M129.628 45.5244C129.669 47.1988 129.908 51.5633 128.702 52.6967C127.28 54.0336 125.613 54.4801 124.295 56.2545L123.753 55.8826C124.992 53.8129 123.747 52.148 125.058 50.1785C126.352 48.2342 128.081 47.3086 129.628 45.5244ZM125.498 54.1937C127.253 53.1889 127.756 52.7748 128.549 50.709C128.733 50.2295 128.866 48.6391 128.672 48.1396L128.519 48.0043C126.915 49.2627 123.989 51.841 125.498 54.1937Z" fill="#675B49"/>
<path d="M39.2252 140.342C39.5049 140.418 39.9468 140.521 40.198 140.636C41.4967 150.242 42.7111 154.89 41.1154 164.681C40.79 163.393 41.041 163.218 40.19 162.491C40.3441 159.992 40.7332 158.916 40.6523 156.104C40.5566 152.77 38.7845 142.922 39.2252 140.342Z" fill="#675B49"/>
<path d="M188.921 74.1567C188.566 80.1183 185.499 86.4284 183.588 92.0888C183.231 93.1454 182.33 96.3626 182 97.0942C181.732 97.0478 181.179 96.6917 180.916 96.5388C182.469 89.3144 186.2 82.981 187.552 75.3796C187.751 75.6546 187.622 75.5411 187.997 75.6651C188.538 75.3329 188.68 74.7599 188.921 74.1567Z" fill="#675B49"/>
<path d="M103.181 74.5965C103.59 74.4328 103.816 73.5334 104.196 72.8721L104.221 73.042C104.62 75.891 103.78 84.4576 105.076 86.3356C106.592 87.0811 109.888 86.6731 111.746 86.793C111.908 87.0678 112.177 87.5609 112.354 87.7994C110.767 87.9148 107.463 87.726 106.321 87.9391L106.155 88.2361L106.265 88.5838C105.977 88.674 105.813 88.9762 105.893 89.2672C104.68 88.5563 104.303 87.4916 103.677 86.2443C103.162 87.4584 102.823 87.9617 102.106 89.0574C102.035 88.183 101.955 87.5711 102.326 86.784C103.581 83.8582 103.046 78.0828 103.181 74.5965Z" fill="#675B49"/>
<path d="M60.2308 98.3114C60.2463 98.0132 60.2861 97.738 60.3244 97.4429C60.684 97.4962 60.958 97.5593 61.3119 97.6427C67.1842 100.675 71.8887 101.115 78.3476 101.521C78.8804 101.554 80.7636 101.612 81.1857 101.699C81.7855 102.188 81.9529 102.296 82.3644 102.946C75.4724 102.815 66.0273 102.475 60.2308 98.3114Z" fill="#675B49"/>
<path d="M103.729 35.5C104.437 36.9945 105.126 36.3713 105.879 37.1572C105.731 37.8082 105.834 37.8848 105.394 38.2373C105.027 37.9729 105.016 37.9615 104.788 37.5754C104.277 37.6424 102.707 37.7521 102.398 38.0359C102.218 39.7256 102.076 54.7682 102.331 55.8205C100.529 56.8418 101.575 56.5809 101.026 57.773C100.655 52.701 101.251 43.048 101.265 37.6916C101.267 36.9914 102.636 36.4277 103.343 36.0316C103.386 36.1447 103.523 36.257 103.621 36.3584C103.855 36.0084 103.765 36.0363 103.729 35.5Z" fill="#675B49"/>
<path d="M20.3156 61.4534C26.2402 59.4831 35.0181 61.3842 38.9728 66.4065C39.4126 66.9651 40.2962 68.1383 40.5226 68.753C40.2458 69.0006 39.8388 69.3327 39.6359 69.6257C38.6457 67.8016 37.2619 66.221 35.5849 64.9985C31.1519 61.7321 26.7087 61.5653 21.5154 62.3454C21.0179 62.2044 20.4599 62.2856 19.9312 62.3184L19.7908 62.1452C20.0132 61.8971 20.1265 61.7286 20.3156 61.4534Z" fill="#675B49"/>
<path d="M104.315 155.875C104.531 155.187 104.577 155.054 104.963 154.439C106.088 156.21 106.719 157.322 108.274 158.747C109.539 159.891 110.997 160.802 112.579 161.439C115.025 162.425 119.437 162.99 120.977 165.088C120.687 166.39 121.677 166.833 121.005 167.835C118.517 161.839 109.199 165.02 104.315 155.875Z" fill="#675B49"/>
<path d="M28.2878 56.957C35.6712 57.784 40.9992 61.0678 44.4835 67.7061C44.1617 68.4016 44.0761 68.5625 43.6074 69.1656C41.1041 63.3547 35.2259 58.8568 28.8949 58.2053C28.763 57.8551 28.465 57.3084 28.2878 56.957Z" fill="#675B49"/>
<path d="M154.123 68.5239C155.164 69.5106 154.849 69.6536 154.695 71.0521L154.9 71.2054C153.322 77.236 154.127 80.3546 154.725 86.4233C154.81 87.2884 155.089 89.8931 155.06 90.7021C154.657 90.1495 154.416 88.3587 154.25 87.5485L154.352 88.5356L154.165 88.5864C154.141 89.387 154.118 90.0995 154.039 90.8962L153.775 88.719L153.666 90.4944C152.961 83.7241 151.972 74.8956 154.123 68.5239Z" fill="#675B49"/>
<path d="M159.393 145.56C160.53 144.119 159.365 143.921 160.995 142.114C160.731 148.479 158.454 156.11 159.166 162.953C158.904 163.283 158.298 164.079 158.019 164.314C157.052 159.801 158.649 150.035 159.393 145.56Z" fill="#675B49"/>
<path d="M144.137 140.674L144.198 141.37C144.246 142.256 144.087 142.235 144.575 142.68L145.121 142.643C144.356 145.666 144.168 148.032 141.195 149.724C138.639 151.178 134.396 151.695 131.58 150.914C131.336 150.846 131.093 150.77 130.854 150.686C131.027 150.349 131.09 149.873 131.165 149.492C137.541 150.905 144.432 149.172 143.064 141.087L144.137 140.674Z" fill="#675B49"/>
<path d="M154.123 68.5239C154.303 68.1349 154.486 67.747 154.671 67.3603C157.551 61.3589 160.942 58.6923 167.125 56.521C166.889 56.9917 166.583 57.1681 166.168 57.4575C167.026 57.5003 168.002 57.2767 168.842 57.0923L168.863 57.3899C161.313 59.6913 156.93 63.4665 154.9 71.2054L154.695 71.0521C154.849 69.6536 155.164 69.5106 154.123 68.5239Z" fill="#675B49"/>
<path d="M142.736 139.27C142.026 135.804 140.048 117.912 140.918 115.157C140.846 115.068 143.595 136.115 143.852 138.106C143.589 138.7 143.257 138.882 142.736 139.27Z" fill="#675B49"/>
<path d="M183.439 130.021C184.173 135.159 183.252 143.749 181.917 148.78C180.85 148.775 181 148.968 180.783 150.002C180.941 143.394 182.634 139.522 182.575 132.577C182.948 131.631 182.095 131.444 183.439 130.021Z" fill="#675B49"/>
<path d="M62.2817 146.923C66.508 144.748 72.7811 144.955 76.9196 147.255L77.1762 148.053C76.701 148.186 76.4033 148.114 75.9514 148.199C70.1139 146.238 68.0942 145.964 62.3442 148.326C61.3147 148.893 60.8481 149.155 59.7174 149.542C59.7672 149.224 60.2043 148.465 60.368 147.79L62.2817 146.923Z" fill="#675B49"/>
<path d="M166.974 60.7965C172.81 58.3004 181.42 58.5647 186.049 63.4252C185.562 63.3307 185.305 63.2328 184.872 62.9932C184.482 63.1112 184.475 63.0928 184.167 63.3447C178.823 59.5408 173.63 60.1752 167.69 61.7485C167.475 60.9971 167.376 61.7856 166.974 60.7965Z" fill="#675B49"/>
<path d="M80.8438 71.7068C82.1778 73.4459 82.7604 72.8828 84.1709 71.6865L85.2258 71.9223C84.8428 72.4379 84.4645 72.9609 84.058 73.458C84.7715 73.6564 86.7315 74.3529 87.3053 74.4393C87.6563 75.0129 87.8572 75.3818 88.3256 75.8707C84.5559 74.5863 79.411 74.776 75.7192 76.3313C75.2561 76.3063 75.2313 76.2973 74.7971 76.125L74.5397 75.434C77.0744 74.5404 77.9444 74.2277 80.4998 73.6525L80.5789 73.3955L80.086 72.6984L80.8438 71.7068Z" fill="#675B49"/>
<path d="M38.7 95.2039C39.8565 95.1156 39.7719 95.1723 40.7873 94.6426L40.4795 94.7641L40.8955 94.6529L40.9631 94.7832C40.4422 94.9584 40.5055 95.0326 40.1239 95.5023L40.0957 95.7328C38.6555 97.1719 38.4485 97.4213 38.986 99.4438C38.4485 99.5705 38.2551 99.4605 37.7483 99.2803C37.3446 101.546 37.3387 107.438 36.5354 108.983C36.1821 109.741 36.2981 109.896 35.376 109.923L35.2875 109.221C35.2684 109.077 35.4215 108.423 35.458 108.244C35.8616 104.114 35.603 97.9508 38.7 95.2039Z" fill="#675B49"/>
<path d="M96.8777 152.768L98.0574 152.748C98.0301 153.665 98.0187 154.439 98.0517 155.36C98.0625 160.017 98.0012 164.688 98.2275 169.337C98.2568 169.936 98.3379 170.712 98.3119 171.295C97.3019 170.363 97.9037 169.861 97.2012 169.207L96.9234 169.332C96.4551 165.92 96.7597 160.355 96.7201 156.676C96.8133 155.375 96.8658 154.072 96.8777 152.768Z" fill="#675B49"/>
<path d="M156.737 83.9245C156.546 82.9011 156.54 78.8472 156.566 77.6948C156.674 72.8929 157.664 68.0858 161.264 64.645L162.13 65.4216C156.928 71.1909 157.503 77.3659 157.782 84.6796C157.661 84.0497 157.574 83.4382 157.106 83.0087C156.731 83.2821 156.832 83.3442 156.737 83.9245Z" fill="#675B49"/>
<path d="M65.3045 85.3357C65.3077 85.2193 65.3061 85.0936 65.3501 84.9838C66.9239 81.0633 70.8014 77.1555 74.5397 75.4336L74.7971 76.1246C75.2313 76.2969 75.2561 76.3059 75.7192 76.3309C71.8809 78.3078 69.6579 80.349 67.4243 84.1141C67.0067 84.818 66.461 86.1295 66.1227 86.6687C65.779 87.0404 65.4967 87.3475 65.0405 87.4301C64.9075 86.8547 65.4047 86.2184 65.3045 85.3357Z" fill="#675B49"/>
<path d="M191.216 77.5415C191.921 77.8638 191.618 78.1569 192.375 78.7675C191.45 81.8312 189.181 88.2226 187.829 91.1526C187.115 91.0437 187.16 91.3923 186.319 91.205C187.77 87.4239 190.314 81.2942 191.216 77.5415Z" fill="#675B49"/>
<path d="M157.382 124.432C163.66 124.293 165.516 123.719 171.375 122.641C172.066 122.819 173.797 122.971 173.999 123.125C170.289 124.464 161.666 125.97 157.783 125.556C157.435 125.132 157.448 124.985 157.382 124.432Z" fill="#675B49"/>
<path d="M101.46 156.629C104.276 161.383 106.126 163.167 111.326 165.311L111.172 166.444C106.412 165.16 101.93 161.554 100.224 156.852L101.46 156.629Z" fill="#675B49"/>
<path d="M13.7372 84.2891C14.3171 84.7506 14.4575 84.7404 15.1843 84.8039C16.4854 88.7281 17.8715 92.6193 19.0305 96.5885C19.196 97.1551 19.3783 97.7123 19.5967 98.2609C19.2732 99.0143 18.6506 99.6684 18.5649 100.041C17.5695 94.2695 15.0772 89.5979 13.7372 84.2891Z" fill="#675B49"/>
<path d="M106.265 88.5838C106.518 88.5047 106.791 88.6131 106.921 88.8437C108.369 89.8514 108.786 89.7672 110.207 91.0631C107.519 92.8887 106.957 92.5156 103.643 92.5027C103.076 92.5006 102.608 92.3734 102.078 92.5598C101.823 93.1187 101.81 93.1881 101.96 93.7824C101.817 95.2416 101.74 95.5609 100.752 96.6289L100.564 95.515C100.893 94.8084 100.408 92.3508 100.277 91.4307L101.042 90.9525C102.297 91.9537 107.12 91.4477 108.856 91.3486C108.058 90.7838 107.255 90.2268 106.446 89.6777C106.189 89.684 105.961 89.5146 105.893 89.2672C105.812 88.9762 105.977 88.674 106.265 88.5838Z" fill="#675B49"/>
<path d="M90.7468 75.6514C93.7837 76.9062 97.7785 81.0879 99.0486 84.1359C99.1597 84.4039 99.2648 84.6744 99.364 84.9469L99.8365 85.5578L98.5783 86.1475C97.9937 84.9496 97.4863 84.1061 96.788 82.9695C94.6976 79.6213 92.4984 78.0225 89.073 76.2213C89.4878 76.0408 90.1693 75.8953 90.7468 75.6514Z" fill="#675B49"/>
<path d="M79.6314 164.611L79.3768 165.153C79.7029 165.622 79.8695 165.6 80.5564 165.755C79.592 166.084 76.3805 167.032 75.6016 167.398C73.8822 168.207 71.8076 171.344 68.8838 170.177C68.4225 169.993 67.6564 169.394 67.4395 168.905C67.6988 168.351 67.9236 167.667 68.4019 167.379C68.6826 167.722 68.599 167.587 68.6353 168.101C69.2334 169.048 69.7035 169.242 70.8266 169.204C72.4242 169.15 72.8123 167.266 74.0164 166.667C75.8242 165.768 77.7438 165.464 79.6314 164.611Z" fill="#675B49"/>
<path d="M64.2569 87.9566C64.5973 86.8275 64.7215 86.3961 65.3045 85.3359C65.4047 86.2186 64.9074 86.8549 65.0405 87.4303C65.4967 87.3477 65.7789 87.0406 66.1227 86.6689C65.1969 88.5852 64.503 92.2254 64.3774 94.351C63.7311 93.5082 63.7383 93.0697 63.6196 92.034L63.4832 92.1586C63.1821 91.3172 63.5914 90.2312 63.8336 89.3701C61.9666 89.5846 60.1065 89.8549 58.2557 90.1809C57.4035 90.0236 57.4809 89.7805 57.194 89.0457C58.7574 88.6547 62.2619 88.3402 64.2569 87.9566Z" fill="#675B49"/>
<path d="M45.6978 91.5541C46.6353 91.4285 50.0533 90.5143 51.0896 90.2395C53.4412 89.6162 54.8429 89.4215 57.1939 89.0459C57.4808 89.7807 57.4035 90.0238 58.2556 90.1811C56.0256 90.6461 53.8334 90.9557 51.6058 91.4123C49.8226 91.7777 47.9758 92.4832 46.2467 92.8828C45.6474 92.6314 45.4781 92.5332 45.2123 91.9494L45.4011 91.5143L45.525 91.6092L45.6978 91.5541Z" fill="#675B49"/>
<path d="M158.151 88.0825C158.218 92.2653 159.407 98.4456 158.692 102.327C158.631 103.512 158.73 105.829 158.114 106.637L158.1 106.641C157.958 106.111 157.928 104.582 157.899 103.96C157.839 99.2064 157.448 94.1573 157.191 89.3821L157.518 90.0507L157.82 90.1411C158.127 89.5938 158.11 88.7399 158.151 88.0825Z" fill="#675B49"/>
<path d="M157.899 103.96C157.95 103.112 157.976 102.588 158.151 101.762L158.387 101.745L158.692 102.327C158.631 103.512 158.73 105.829 158.114 106.637L158.1 106.641C157.958 106.111 157.928 104.582 157.899 103.96Z" fill="#675B49"/>
<path d="M184.167 63.3447C184.475 63.0928 184.482 63.1111 184.872 62.9932C185.305 63.2328 185.562 63.3307 186.049 63.4252C188.573 65.5096 189.519 71.0539 188.921 74.1564C188.68 74.7596 188.538 75.3326 187.997 75.6648C187.622 75.5408 187.751 75.6543 187.553 75.3793C188.256 70.3127 187.986 67.1611 184.167 63.3447Z" fill="#675B49"/>
<path d="M160.913 131.668L161.604 131.566L161.836 131.969L161.637 134.167C161.436 135.659 161.307 141.495 160.995 142.114C159.365 143.921 160.53 144.119 159.393 145.56C159.653 142.669 159.978 133.85 160.907 131.817L160.913 131.668Z" fill="#675B49"/>
<path d="M12.0601 70.522C12.5594 66.1169 16.0258 62.4272 20.3156 61.4536C20.1266 61.7288 20.0133 61.8974 19.7908 62.1454L19.9312 62.3187C20.46 62.2858 21.018 62.2046 21.5154 62.3456C16.8735 63.9767 14.9526 65.1671 13.4263 70.0728C12.8344 70.1966 12.4655 70.1706 12.0601 70.522Z" fill="#675B49"/>
<path d="M76.6285 161.655C76.9304 161.76 77.2343 161.86 77.5396 161.955C77.589 162.429 77.5583 162.291 77.1591 162.805C74.232 164.353 69.2331 163.652 68.6353 168.101C68.599 167.587 68.6826 167.722 68.4019 167.379C67.9236 167.667 67.6988 168.351 67.4394 168.905C66.7126 163.732 72.8802 162.668 76.6285 161.655Z" fill="#675B49"/>
<path d="M96.9234 169.332L97.2012 169.207C97.9037 169.861 97.302 170.363 98.3119 171.295C98.4381 172.672 98.3838 173.481 97.9149 174.8C96.6967 175.428 95.1293 175.957 93.7531 175.54C93.068 175.329 92.4961 174.852 92.1658 174.216C91.7668 173.458 91.7301 172.543 91.7381 171.698C92.3994 171.596 92.5389 171.49 93.0934 171.164C92.3543 174.784 96.3223 175.897 97.0912 172.356C97.2106 171.807 96.9877 169.983 96.9234 169.332Z" fill="#675B49"/>
<path d="M180.916 96.5386C181.18 96.6915 181.732 97.0476 182 97.094C181.124 99.479 179.555 111.138 179.226 111.699C177.878 109.489 180.329 99.231 180.916 96.5386Z" fill="#675B49"/>
<path d="M45.6682 130.758C45.7073 129.704 46.1416 127.022 46.3243 125.904C46.7895 123.055 47.0256 120.768 47.1899 117.901C47.2922 118.434 47.384 119.318 47.7258 119.676L47.976 119.721C47.8055 122.17 47.3598 130.196 46.7245 132.167L45.9756 132.902L45.7797 132.817C45.8051 132.012 45.7583 131.563 45.6682 130.758Z" fill="#675B49"/>
<path d="M92.3326 159.099C93.0533 160.333 92.7306 159.177 93.3624 160.065C93.4185 162.636 93.6496 168.754 93.0933 171.164C92.5388 171.49 92.3994 171.596 91.738 171.698C92.6033 166.396 91.9599 163.751 92.3326 159.099Z" fill="#675B49"/>
<path d="M15.4634 102.706C15.8734 102.316 16.2056 101.978 16.5907 101.565C16.7642 102.56 17.1822 104.593 17.2594 105.521C17.8299 107.027 17.8881 110.418 17.9434 112.155L17.7457 112.284L17.5372 112.126C17.5342 111.488 17.5277 110.85 17.5176 110.211L17.3516 110.363C17.3241 110.743 17.3471 110.938 17.1384 111.258L16.581 111.124C16.3801 109.853 16.0313 107.197 16.0519 105.961L15.4634 102.706Z" fill="#675B49"/>
<path d="M7.78894 76.3143L8.28339 77.0602L8.57171 76.965C8.95613 75.9631 8.17925 74.7375 8.72402 73.3115C9.25904 77.2313 9.83822 80.8889 11.2575 84.6094C10.5921 84.726 10.4366 84.7768 9.76878 84.625C8.86501 81.8922 8.00835 79.2041 7.78894 76.3143Z" fill="#675B49"/>
<path d="M192.918 67.1743C193.835 70.7804 193.272 75.1778 192.375 78.7675C191.618 78.1569 191.921 77.8638 191.216 77.5415C191.696 74.2833 192.353 73.5956 192.125 69.9702C192.198 69.1946 192.67 67.9628 192.918 67.1743Z" fill="#675B49"/>
<path d="M40.5227 68.7529C42.4799 71.7609 42.942 76.925 42.7778 80.4373C42.2567 80.2801 42.1856 80.2039 41.7659 79.8506C41.6959 75.592 41.4569 73.4666 39.636 69.6256C39.8389 69.3326 40.2459 69.0006 40.5227 68.7529Z" fill="#675B49"/>
<path d="M105.879 37.1572C106.166 41.2789 106.141 44.2707 106.05 48.382C105.02 47.8357 105.079 47.7885 104.894 46.6625C104.826 43.634 104.791 40.6047 104.788 37.5754C105.016 37.9615 105.027 37.9729 105.394 38.2373C105.834 37.8848 105.731 37.8082 105.879 37.1572Z" fill="#675B49"/>
<path d="M12.5637 92.6379C12.7682 91.6547 12.8557 91.4854 13.4964 90.6992C14.1905 92.9016 15.7363 97.2873 16.125 99.3617C15.7352 99.9385 15.4645 100.343 15.0077 100.868C14.3592 97.9408 13.7133 95.4205 12.5637 92.6379Z" fill="#675B49"/>
<path d="M123.957 94.0347C124.678 93.7712 124.978 93.6399 125.738 93.564C125.349 94.271 124.74 95.3241 124.097 95.8284C122.327 97.2188 117.694 97.3413 115.891 95.9333L115.787 95.8534C115.724 95.7995 115.66 95.7454 115.597 95.6913L116.732 95.139C117.686 95.6528 120.552 95.7675 121.666 95.5169C123.053 95.2048 123.177 95.1628 123.957 94.0347Z" fill="#675B49"/>
<path d="M60.3679 147.79C60.2042 148.465 59.7671 149.225 59.7173 149.542C57.5583 150.641 52.4828 151.131 50.1757 150.479C50.2878 149.817 50.2837 149.896 49.8162 149.236C53.7191 150.184 56.7447 149.392 60.3679 147.79Z" fill="#675B49"/>
<path d="M140.187 104.937C143.475 103.971 146.298 102.956 149.157 101.005C150.121 100.347 151.395 99.1863 152.233 98.666C150.285 102.326 146.876 103.829 143.04 105.197C142.895 105.249 142.687 105.253 142.532 105.26C141.293 105.225 141.284 106.117 140.187 104.937Z" fill="#675B49"/>
<path d="M18.1549 151.371C18.7318 152.746 18.3612 151.876 19.2742 152.57C18.7152 153.798 17.4668 156.189 17.6756 157.429C17.9724 157.909 17.7932 157.776 18.3494 157.919C18.634 157.844 19.1054 157.746 19.3315 157.596C19.7563 158.049 19.771 157.937 20.4678 158.117C19.3856 159.502 17.6021 159.962 16.6366 158.167C15.6683 156.368 17.6475 153.52 18.1142 151.549L18.1549 151.371Z" fill="#675B49"/>
<path d="M113.643 84.2856C113.935 84.3446 114.416 84.4079 114.652 84.5464C113.942 86.7993 113.746 88.897 114.39 91.2161L114.962 92.7958C113.262 92.4431 114.836 92.3429 113.246 91.9462L112.982 91.0616C112.792 90.1036 112.72 88.9155 112.622 87.9255L112.354 87.7997C112.177 87.5612 111.908 87.0681 111.746 86.7933L112.498 86.7313C112.855 86.4108 113.369 84.8882 113.643 84.2856Z" fill="#675B49"/>
<path d="M121.899 79.8988C122.441 79.8158 122.635 79.7107 123.13 79.502C124.111 82.2623 126.472 82.6797 127.148 87.2816L125.871 87.1838L125.847 87.0848C124.77 82.8695 122.872 82.7092 121.899 79.8988Z" fill="#675B49"/>
<path d="M184.545 97.645C185.044 98.6345 184.984 99.5253 184.994 100.638C184.615 102.863 184.255 105.092 183.912 107.323C183.586 107.331 183.277 107.313 182.952 107.297L182.705 106.89C183.128 103.4 183.405 100.964 184.545 97.645Z" fill="#675B49"/>
<path d="M186.319 91.2048C187.16 91.3921 187.115 91.0435 187.829 91.1525C186.644 94.3862 185.987 97.5032 184.994 100.638C184.984 99.5251 185.044 98.6343 184.545 97.6448C184.635 95.9062 185.729 92.8054 186.319 91.2048Z" fill="#675B49"/>
<path d="M99.8366 85.5576C100.145 86.3652 99.9653 86.2521 100.584 86.674L101.958 86.7846L102.326 86.7842C101.955 87.5713 102.035 88.1832 102.106 89.0576L101.578 89.4145C101.256 90.0697 101.164 90.2211 101.042 90.9527L100.277 91.4309L100.071 90.7551C100.02 90.2754 99.6612 89.2461 99.4997 88.7369C99.2647 87.9445 98.8668 86.942 98.5784 86.1473L99.8366 85.5576Z" fill="#675B49"/>
<path d="M180.996 117.705L181.606 118.463C179.617 120.586 176.865 122.466 173.999 123.125C173.797 122.971 172.066 122.819 171.375 122.641C174.497 121.859 178.963 120.353 180.996 117.705Z" fill="#675B49"/>
<path d="M63.4832 92.1588L63.6195 92.0342C63.7383 93.0699 63.731 93.5084 64.3773 94.3512L64.0637 95.3057C63.8144 95.8277 63.9617 95.6449 63.3082 95.9629C63.2051 95.3238 63.0968 94.6854 62.984 94.0479C61.5847 93.9693 59.6164 95.8238 61.3119 97.6428C60.958 97.5594 60.684 97.4963 60.3244 97.443C60.2861 97.7381 60.2463 98.0133 60.2308 98.3115C56.3679 94.66 62.6732 93.5344 63.4832 92.1588Z" fill="#675B49"/>
<path d="M35.458 108.244C35.4214 108.423 35.2683 109.076 35.2874 109.221L34.6068 109.432C31.9746 110.123 29.3437 110.536 26.7742 111.199L26.955 110.743L27.463 110.562L27.4335 109.694C28.7519 109.348 30.1687 108.882 31.5101 108.799C32.7912 108.65 34.1724 108.426 35.458 108.244Z" fill="#675B49"/>
<path d="M41.7659 79.8506C42.1856 80.2039 42.2567 80.2801 42.7778 80.4373C43.1573 83.9816 42.4454 87.3482 42.2887 90.924C42.2249 90.3006 41.8418 89.0492 41.7135 88.2576L41.4725 88.2664C41.4508 85.4646 41.8073 82.7453 41.7659 79.8506Z" fill="#675B49"/>
<path d="M120.977 165.088C124.896 169.55 118.333 172.83 115.487 168.182C116.012 168.528 116.433 168.9 117.036 168.923L117.409 168.747C119.044 169.51 120.123 169.606 121.005 167.834C121.677 166.832 120.687 166.39 120.977 165.088Z" fill="#675B49"/>
<path d="M21.1327 108.36C21.4709 110.445 21.4284 111.004 21.0102 113.05C23.4395 111.16 24.6034 110.829 27.4336 109.694L27.4631 110.562L26.9551 110.743L26.7743 111.199C24.7147 112.088 22.7565 113.162 20.8655 113.976L20.6213 113.798L20.6383 113.57C20.6407 112.027 21.1391 110.492 21.1327 108.36Z" fill="#675B49"/>
<path d="M13.1997 77.0571C13.728 79.4778 14.3155 82.5642 15.1843 84.804C14.4575 84.7405 14.3171 84.7507 13.7371 84.2892C12.9614 82.4368 12.5796 80.6868 12.1855 78.7304C12.8601 78.0595 13.0491 78.0276 13.1997 77.0571Z" fill="#675B49"/>
<path d="M12.06 70.522C12.4655 70.1706 12.8343 70.1966 13.4263 70.0728C12.6058 72.3938 12.7634 74.6515 13.1997 77.0573C13.0491 78.0278 12.8601 78.0597 12.1855 78.7306C11.7978 75.4739 11.6896 73.7647 12.06 70.522Z" fill="#675B49"/>
<path d="M21.8411 57.013C24.1506 56.6627 25.9665 56.3773 28.2879 56.9568C28.4651 57.3082 28.7631 57.8548 28.895 58.205C26.2584 57.9601 24.91 57.925 22.2834 58.2005C22.1565 57.6334 22.1108 57.5293 21.8411 57.013Z" fill="#675B49"/>
<path d="M79.9158 69.0656C82.4705 66.5031 86.0267 68.3012 85.2257 71.9219L84.1708 71.6861C84.2415 71.4066 84.3029 70.9916 84.3564 70.6965C83.8396 68.6416 81.8988 68.7719 80.6294 70.1297C80.4957 69.8359 80.1179 69.3469 79.9158 69.0656Z" fill="#675B49"/>
<path d="M93.1492 97.6788C95.9574 96.796 97.5914 97.2333 100.564 95.5151L100.752 96.629C99.0724 97.3774 96.0804 98.4995 94.2667 98.7214C93.7779 98.339 93.5453 98.179 93.1492 97.6788Z" fill="#675B49"/>
<path d="M89.1515 154.186C89.6015 154.291 89.9757 154.382 90.421 154.522C89.7457 156.513 88.6775 158.529 87.3308 160.147C87.0166 159.687 86.8632 159.576 86.448 159.221C87.6269 157.372 88.3462 156.226 89.1515 154.186Z" fill="#675B49"/>
<path d="M40.19 162.491C41.041 163.218 40.79 163.393 41.1154 164.681C41.0926 165.488 41.3432 165.88 41.6906 166.618C42.3773 166.451 42.6574 166.424 43.2283 166.002C43.3672 166.508 43.5008 166.894 43.5201 167.421C42.0223 168 41.4537 167.939 40.2197 166.89C39.5832 165.272 39.9125 164.186 40.19 162.491Z" fill="#675B49"/>
<path d="M43.2283 166.002C43.3672 166.507 43.5008 166.894 43.5201 167.421C42.0223 168 41.4537 167.939 40.2197 166.889C40.9025 166.878 41.2424 166.858 41.9166 166.755L41.6906 166.617C42.3773 166.451 42.6574 166.424 43.2283 166.002Z" fill="#675B49"/>
<path d="M125.143 147.016C126.625 147.708 129.687 149.237 131.165 149.492C131.09 149.874 131.027 150.349 130.854 150.686C128.594 150.305 126.758 149.271 124.802 148.153C125.147 148.154 125.491 148.154 125.835 148.152L126.001 147.969L125.143 147.016Z" fill="#675B49"/>
<path d="M111.326 165.311C114.654 166.093 115.313 166.139 117.409 168.747L117.036 168.923C116.433 168.9 116.012 168.528 115.486 168.182C114.283 167.353 112.566 166.869 111.172 166.444L111.326 165.311Z" fill="#675B49"/>
<path d="M20.6214 103.78C20.7613 105.167 20.8976 107.023 21.1326 108.361C21.139 110.492 20.6406 112.027 20.6382 113.57C20.1974 110.985 20.0646 107.707 19.6443 104.903C19.7064 104.421 19.6818 104.087 20.0152 103.764L20.6214 103.78Z" fill="#675B49"/>
<path d="M92.0101 152.749C92.5304 152.661 92.7375 152.584 93.2105 152.824C93.5287 154.515 93.4049 158.173 93.3625 160.065C92.7306 159.177 93.0533 160.333 92.3326 159.099C92.4181 157.786 92.4513 153.868 92.0101 152.749Z" fill="#675B49"/>
<path d="M155.124 116.424C155.532 116.027 155.961 115.149 156.254 114.615C156.61 116.751 156.754 118.825 157.084 120.837L156.518 120.721L155.613 120.391C155.421 119.073 155.201 117.753 155.124 116.424Z" fill="#675B49"/>
<path d="M40.8578 101.61C43.4979 103.306 44.6637 103.38 47.0487 104.598L46.7577 104.845C46.319 104.619 46.1045 104.501 45.6217 104.361L45.4295 104.567C45.9278 105.308 46.1739 104.957 46.9549 105.729C45.1315 105.169 42.4799 104.04 40.9789 102.875C40.8047 102.361 40.6746 102.132 40.8578 101.61Z" fill="#675B49"/>
<path d="M45.665 147.041C46.6304 148.087 48.8669 148.63 49.8162 149.236C50.2837 149.896 50.2878 149.817 50.1757 150.48C48.3704 150.321 47.054 149.59 45.6316 148.582L45.4755 148.407C45.2978 147.846 45.4585 147.582 45.665 147.041Z" fill="#675B49"/>
<path d="M79.6314 164.611C81.099 164.026 81.9976 163.464 83.23 162.522L84.5209 163.21C83.5584 163.918 81.5994 165.444 80.5564 165.755C79.8695 165.6 79.7029 165.622 79.3767 165.153L79.6314 164.611Z" fill="#675B49"/>
<path d="M9.7688 84.625C10.4366 84.7768 10.5921 84.726 11.2575 84.6094C11.6931 85.7701 12.1441 87.3018 12.5743 88.3531C12.2403 88.7705 11.8612 89.207 11.5996 89.6676C10.9252 88.0107 10.3145 86.3285 9.7688 84.625Z" fill="#675B49"/>
<path d="M156.737 83.9246C156.832 83.3443 156.731 83.2822 157.106 83.0088C157.574 83.4383 157.661 84.0498 157.782 84.6797L158.151 88.0824C158.11 88.7398 158.127 89.5937 157.82 90.141L157.518 90.0506L157.191 89.382C157.03 87.5637 156.879 85.7445 156.737 83.9246Z" fill="#675B49"/>
<path d="M21.1047 153.608L21.4244 154.083C21.8451 154.083 21.951 154.08 22.3621 154C21.7672 155.687 21.5092 156.655 20.4678 158.117C19.7709 157.937 19.7563 158.049 19.3314 157.596C20.0418 156.407 20.5879 154.91 21.1047 153.608Z" fill="#675B49"/>
<path d="M18.5648 100.041C18.6506 99.6687 19.2731 99.0146 19.5967 98.2612L20.6215 103.78L20.0152 103.764C19.6818 104.087 19.7064 104.421 19.6443 104.903C19.378 103.15 19.0045 101.748 18.5648 100.041Z" fill="#675B49"/>
<path d="M86.4481 159.221C86.8633 159.576 87.0166 159.687 87.3309 160.147C86.2908 161.445 85.7258 162.066 84.5209 163.21L83.2301 162.522C84.5682 161.558 85.3817 160.468 86.4481 159.221Z" fill="#675B49"/>
<path d="M102.592 152.194C103.239 151.861 103.555 151.64 104.283 151.644C103.844 152.435 104.592 153.604 104.963 154.439C104.577 155.054 104.531 155.186 104.315 155.875C103.526 154.639 102.993 153.602 102.592 152.194Z" fill="#675B49"/>
<path d="M125.902 89.522C126.778 90.2651 126.651 90.2907 126.637 91.4677C126.457 91.946 126.012 93.2399 125.738 93.564C124.978 93.6399 124.678 93.7712 123.957 94.0347C125.053 92.3265 125.488 91.503 125.902 89.522Z" fill="#675B49"/>
<path d="M161.264 64.6451C161.901 63.693 163.921 62.3313 164.949 61.7891C164.66 62.3695 164.406 62.8635 164.331 63.5246L162.13 65.4217L161.264 64.6451Z" fill="#675B49"/>
<path d="M113.245 91.9463C114.836 92.343 113.262 92.4432 114.962 92.7959C115.598 93.5311 116.163 94.3486 116.732 95.1391L115.597 95.6914C114.602 94.4242 113.819 93.4549 113.245 91.9463Z" fill="#675B49"/>
<path d="M101.96 93.7827C101.81 93.1884 101.823 93.119 102.078 92.5601C103.588 93.7839 104.131 93.0972 105.592 95.2024L104.661 95.8194C103.876 94.794 103.073 94.4686 101.96 93.7827Z" fill="#675B49"/>
<path d="M48.1595 112.243C48.232 114.716 48.0824 117.245 47.976 119.721L47.7258 119.676C47.384 119.318 47.2922 118.434 47.1898 117.901C47.3361 115.788 47.5226 114.281 48.1595 112.243Z" fill="#675B49"/>
<path d="M166.974 60.7969C167.376 61.7859 167.475 60.9975 167.69 61.7488L164.331 63.5248C164.406 62.8637 164.66 62.3697 164.949 61.7893C165.348 61.4949 166.467 61.0258 166.974 60.7969Z" fill="#675B49"/>
<path d="M12.5743 88.353C12.8505 89.3778 13.0225 89.7425 13.4963 90.6993C12.8557 91.4854 12.7682 91.6548 12.5637 92.638C12.2192 91.6653 11.912 90.6528 11.5996 89.6675C11.8612 89.2069 12.2403 88.7704 12.5743 88.353Z" fill="#675B49"/>
<path d="M44.4836 67.7061C44.8342 68.4225 45.4115 69.7154 45.5355 70.5131C45.0195 70.7463 44.7127 70.8369 44.3594 71.293C44.3004 71.1922 43.674 69.3559 43.6074 69.1656C44.0762 68.5625 44.1617 68.4016 44.4836 67.7061Z" fill="#675B49"/>
<path d="M38.986 99.4438C39.3366 100.282 40.1772 100.97 40.8579 101.61C40.6747 102.132 40.8047 102.361 40.979 102.875C39.7243 102.204 38.3803 100.562 37.7483 99.2803C38.2551 99.4605 38.4485 99.5705 38.986 99.4438Z" fill="#675B49"/>
<path d="M21.9088 150.909L22.2188 151.304C22.6874 151.272 22.7096 151.254 23.1417 151.053C22.8635 152.03 22.6036 153.013 22.3622 154.001C21.951 154.08 21.8452 154.083 21.4245 154.084L21.1047 153.608C21.3768 152.908 21.6913 151.667 21.9088 150.909Z" fill="#675B49"/>
<path d="M79.9158 69.0659C80.118 69.3472 80.4957 69.8362 80.6295 70.13C80.5002 70.8597 80.4815 70.9565 80.8438 71.7067L80.086 72.6983C79.0297 71.1726 78.967 70.6571 79.9158 69.0659Z" fill="#675B49"/>
<path d="M98.9688 154.252C99.6258 154.308 99.8172 154.26 100.442 154.146C100.712 155.22 100.966 155.663 101.46 156.629L100.224 156.852C99.682 155.999 99.3619 155.176 98.9688 154.252Z" fill="#675B49"/>
<path d="M15.0077 100.868C15.4645 100.343 15.7352 99.9386 16.1249 99.3618C16.2943 100.106 16.4531 100.815 16.5906 101.565C16.2055 101.978 15.8733 102.316 15.4633 102.706C15.3147 102.092 15.1628 101.48 15.0077 100.868Z" fill="#675B49"/>
<path d="M41.0148 139.51C41.9879 139.741 42.7027 140.027 43.6273 140.379C43.1152 140.593 42.6498 140.698 42.4029 141.156C42.3611 141.152 40.9711 140.657 40.4388 140.549L40.7217 140.425C40.7859 140.066 40.8836 139.851 41.0148 139.51Z" fill="#675B49"/>
<path d="M143.852 138.106C143.921 138.679 144.139 140.167 144.137 140.674L143.064 141.087C143.008 140.429 142.879 139.911 142.736 139.27C143.257 138.882 143.589 138.7 143.852 138.106Z" fill="#675B49"/>
<path d="M87.3053 74.439C88.5809 74.8319 89.5115 75.1491 90.7469 75.6511C90.1694 75.895 89.4879 76.0405 89.0731 76.221L88.3256 75.8704C87.8573 75.3815 87.6563 75.0126 87.3053 74.439Z" fill="#675B49"/>
<path d="M121.584 65.3179L122.103 65.6392C121.77 66.0726 121.287 66.711 120.775 66.8243C120.77 66.2778 121.216 65.8464 121.584 65.3179Z" fill="#675B49"/>
<path d="M153.112 95.8584L153.94 95.3408C153.899 96.0965 154.013 96.217 153.658 96.7695C153.277 96.501 153.273 96.3262 153.112 95.8584Z" fill="#675B49"/>
</svg>
