<svg width="582" height="600" viewBox="0 0 582 600" fill="none" xmlns="http://www.w3.org/2000/svg">
<path d="M581.431 600H0V255.274C0 223.041 14.1073 206.873 38.806 185.332L256.085 10.7118C273.303 -3.12541 298.076 -3.60432 315.847 9.55558L539.232 174.977C565.967 196.556 581.431 222.053 581.431 255.806L581.431 600Z" fill="#D7BB93"/>
<path d="M581.431 600H0V255.274C0 223.041 14.1073 206.873 38.806 185.332L256.085 10.7118C273.303 -3.12541 298.076 -3.60432 315.847 9.55558L539.232 174.977C565.967 196.556 581.431 222.053 581.431 255.806L581.431 600Z" fill="url(#paint0_linear_46_1947)" style="mix-blend-mode:multiply"/>
<path opacity="0.37" d="M581.431 600H0V255.274C0 223.041 14.1073 206.873 38.806 185.332L256.085 10.7118C273.303 -3.12541 298.076 -3.60432 315.847 9.55558L539.232 174.977C565.967 196.556 581.431 222.053 581.431 255.806L581.431 600Z" fill="url(#paint1_linear_46_1947)" style="mix-blend-mode:multiply"/>
<path opacity="0.48" d="M581.431 600H0V255.274C0 223.041 14.1073 206.873 38.806 185.332L256.085 10.7118C273.303 -3.12541 298.076 -3.60432 315.847 9.55558L539.232 174.977C565.967 196.556 581.431 222.053 581.431 255.806L581.431 600Z" fill="url(#paint2_linear_46_1947)" style="mix-blend-mode:multiply"/>
<path d="M539.232 174.977L315.847 9.55571C298.076 -3.60452 273.303 -3.12529 256.085 10.7119L38.806 185.332C35.3673 188.331 32.1345 191.226 29.1157 194.075H56.6416V287.902H0V600H581.431V255.806C581.431 222.053 565.967 196.556 539.232 174.977Z" fill="url(#paint3_linear_46_1947)" style="mix-blend-mode:multiply"/>
<defs>
<linearGradient id="paint0_linear_46_1947" x1="287.042" y1="380.516" x2="278.633" y2="277.02" gradientUnits="userSpaceOnUse">
<stop stop-color="#C7B299"/>
<stop offset="0.008" stop-color="#CFBEA9"/>
<stop offset="0.026" stop-color="#DED2C3"/>
<stop offset="0.046" stop-color="#EAE2D9"/>
<stop offset="0.069" stop-color="#F3EFEA"/>
<stop offset="0.097" stop-color="#FAF8F6"/>
<stop offset="0.138" stop-color="#FDFDFD"/>
<stop offset="0.249" stop-color="white"/>
</linearGradient>
<linearGradient id="paint1_linear_46_1947" x1="290.716" y1="608.111" x2="290.716" y2="163.433" gradientUnits="userSpaceOnUse">
<stop offset="0.608" stop-color="#E6E6E6"/>
<stop offset="0.695" stop-color="#D8CFC5"/>
<stop offset="0.8" stop-color="#C7B299"/>
<stop offset="0.805" stop-color="#CCB9A3"/>
<stop offset="0.823" stop-color="#D9CEBF"/>
<stop offset="0.841" stop-color="#E4DDD6"/>
<stop offset="0.861" stop-color="#ECE9E5"/>
<stop offset="0.884" stop-color="#F0EFEF"/>
<stop offset="0.916" stop-color="#F2F2F2"/>
</linearGradient>
<linearGradient id="paint2_linear_46_1947" x1="300.973" y1="439.442" x2="252.453" y2="334.19" gradientUnits="userSpaceOnUse">
<stop offset="0.147" stop-color="#754C24"/>
<stop offset="0.164" stop-color="#825D39"/>
<stop offset="0.203" stop-color="#9C7E62"/>
<stop offset="0.245" stop-color="#B39D87"/>
<stop offset="0.292" stop-color="#C8B8A8"/>
<stop offset="0.344" stop-color="#D9CEC3"/>
<stop offset="0.402" stop-color="#E7E0D9"/>
<stop offset="0.47" stop-color="#F2EEEA"/>
<stop offset="0.554" stop-color="#F9F7F6"/>
<stop offset="0.672" stop-color="#FDFDFD"/>
<stop offset="1" stop-color="white"/>
</linearGradient>
<linearGradient id="paint3_linear_46_1947" x1="352.782" y1="318.552" x2="288.366" y2="424.968" gradientUnits="userSpaceOnUse">
<stop offset="0.692" stop-color="white"/>
<stop offset="0.817" stop-color="#FDFDFD"/>
<stop offset="0.864" stop-color="#F8F7F6"/>
<stop offset="0.898" stop-color="#EFECEA"/>
<stop offset="0.926" stop-color="#E2DDD8"/>
<stop offset="0.95" stop-color="#D2CAC2"/>
<stop offset="0.972" stop-color="#BEB1A7"/>
<stop offset="0.991" stop-color="#A69587"/>
<stop offset="1" stop-color="#998675"/>
</linearGradient>
</defs>
</svg>
