<svg width="50" height="50" viewBox="0 0 50 50" fill="none" xmlns="http://www.w3.org/2000/svg">
<rect x="0.5" y="0.5" width="49" height="49" rx="24.5" stroke="#FEFCF3"/>
<path d="M33.4375 24.5313C33.4407 25.7687 33.1516 26.9893 32.5938 28.0938C31.9323 29.4173 30.9154 30.5305 29.657 31.3087C28.3986 32.087 26.9484 32.4995 25.4688 32.5C24.2314 32.5033 23.0107 32.2142 21.9062 31.6563L16.5625 33.4375L18.3438 28.0938C17.7859 26.9893 17.4968 25.7687 17.5 24.5313C17.5006 23.0517 17.9131 21.6014 18.6913 20.343C19.4695 19.0846 20.5827 18.0677 21.9062 17.4063C23.0107 16.8484 24.2314 16.5593 25.4688 16.5625H25.9375C27.8916 16.6703 29.7372 17.4951 31.1211 18.879C32.5049 20.2628 33.3297 22.1085 33.4375 24.0625V24.5313Z" stroke="#FEFCF3" stroke-width="1.5" stroke-linecap="round" stroke-linejoin="round"/>
</svg>
