<svg width="50" height="50" viewBox="0 0 50 50" fill="none" xmlns="http://www.w3.org/2000/svg">
<rect x="0.5" y="0.5" width="49" height="49" rx="24.5" stroke="#FEFCF3"/>
<path d="M29.6875 15.625H20.3125C17.7237 15.625 15.625 17.7237 15.625 20.3125V29.6875C15.625 32.2763 17.7237 34.375 20.3125 34.375H29.6875C32.2763 34.375 34.375 32.2763 34.375 29.6875V20.3125C34.375 17.7237 32.2763 15.625 29.6875 15.625Z" stroke="#FEFCF3" stroke-width="1.5" stroke-linecap="round" stroke-linejoin="round"/>
<path d="M28.75 24.4099C28.8657 25.1901 28.7324 25.987 28.3691 26.6871C28.0059 27.3872 27.4311 27.955 26.7265 28.3096C26.022 28.6642 25.2235 28.7876 24.4448 28.6623C23.6661 28.537 22.9467 28.1694 22.3889 27.6116C21.8312 27.0539 21.4635 26.3345 21.3382 25.5557C21.2129 24.777 21.3363 23.9786 21.6909 23.274C22.0456 22.5695 22.6133 21.9947 23.3134 21.6314C24.0135 21.2681 24.8104 21.1348 25.5906 21.2505C26.3865 21.3685 27.1233 21.7394 27.6922 22.3083C28.2611 22.8772 28.632 23.614 28.75 24.4099Z" stroke="#FEFCF3" stroke-width="1.5" stroke-linecap="round" stroke-linejoin="round"/>
<path d="M30.1562 19.8438H30.1656" stroke="#FEFCF3" stroke-width="1.5" stroke-linecap="round" stroke-linejoin="round"/>
</svg>
