<svg width="512" height="512" viewBox="0 0 512 512" fill="none" xmlns="http://www.w3.org/2000/svg">
<rect width="512" height="512" rx="256" fill="#25A0B2"/>
<path d="M186.013 160.867C194.003 159.647 208.295 162.56 206.187 173.797C205.326 178.383 198.571 183.342 195.016 179.695C191.414 175.999 194.391 168.827 186.681 171.698C179.575 174.341 173.789 179.81 170.613 186.884C167.083 194.797 167.514 203.149 170.409 211.354C178.532 234.368 198.487 228.432 216.528 237.374C242.398 250.197 251.285 266.405 253.386 295.425C254.246 307.276 254.604 317.395 254.34 329.5C254.276 332.53 254.114 346.445 254.755 348.237C255.758 348.785 256.626 348.527 257.795 348.388C258.458 347.808 258.575 347.273 258.564 346.256C258.538 343.321 258.315 340.524 258.342 337.568C258.545 317.298 257.489 295.465 262.305 275.696C267.657 253.728 286.442 239.383 306.683 233.43C314.358 231.298 323.315 230.603 330.334 226.522C342.987 219.168 348.444 198.15 341.309 185.166C337.53 178.293 331.978 173.402 324.465 171.378C317.684 169.551 321.588 177.931 316.406 180.606C315.263 181.332 313.306 180.873 312.08 180.399C309.836 179.521 308.041 177.734 307.109 175.452C306.159 173.112 306.159 170.474 307.117 168.135C312.167 155.901 333.577 161.392 342.18 165.71C354.576 171.933 359.166 178.471 363.782 191.391C372.996 191.464 378.619 192.791 381.349 202.641C380.486 202.664 377.046 202.738 376.356 202.976C368.734 205.611 369.503 215.392 363.609 220.601C359.14 224.55 353.901 225.208 348.444 224.918C344.669 227.847 341.32 231.259 337.254 234.29C328.459 240.851 320.898 241.607 311.066 245.184C320.389 246.547 324.639 248.611 332.144 255.524C332.925 256.245 333.034 256.812 332.996 257.713C331.409 259.271 324.699 258.36 322.391 258.059C316.817 256.237 310.485 253.749 304.782 253.505C298.831 253.249 290.591 256.797 286.529 261.275C274.185 274.884 274.004 293.151 273.563 310.002L273.031 330.922C272.948 334.87 272.827 338.892 272.88 342.837C272.929 346.726 272.488 351.023 277.425 351C279.876 349.854 281.653 342.401 284.639 339.258C290.01 333.608 295.475 333.265 301.271 328.864C302.731 327.754 303.406 324.631 305.035 322.901L305.831 323.156C310.096 331.295 294.174 345.139 298.371 356.406C300.34 361.69 301.792 368.718 304.356 374.512C299.574 373.569 294.781 372.975 290.27 371.037C286.272 369.32 283.338 366.501 279.669 364.134C276.18 361.885 272.579 360.678 268.728 359.25C267.016 366.989 267.148 373.235 257.451 373.254C245.783 373.276 246.735 370.98 243.943 359.504C240.542 360.547 236.33 361.807 233.425 363.821C227.762 367.744 223.107 372.129 216.037 372.978C213.682 373.26 210.723 374.013 208.325 374.579C211.283 367.607 213.822 359.216 214.98 351.589C215.958 345.147 201.281 326.001 207.762 322.795C208.492 324.397 208.837 325.81 210.015 327.239C214.898 333.161 223.358 333.529 228.536 339.837C231.218 343.104 232.197 346.943 234.222 350.611C235.927 351.518 237.988 350.549 239.112 349.081C240.643 344.419 238.926 298.234 237.996 290.027C236.853 279.932 232.484 265.811 223.904 259.425C210.354 249.339 204.189 254.154 189.933 258.094C188.523 258.483 181.311 258.368 178.378 258.778C178.821 258.116 179.291 257.475 179.788 256.855C185.932 249.273 192.913 246.018 202.243 245.158C184.039 239.315 178.942 239.487 164.493 224.733C163.868 224.804 163.241 224.847 162.612 224.862C152.31 225.126 147.385 221.022 143.647 211.529C142.775 209.313 141.514 206.518 139.801 204.917C136.9 202.206 135.017 202.639 131.401 202.794C133.314 192.665 140.027 191.696 148.784 191.38C156.216 171.873 165.912 164.752 186.013 160.867Z" fill="white"/>
<path d="M326.277 262.504C336.546 260.509 352.182 264.236 359.461 272.407C369.316 283.469 369.497 298.935 361.66 311.275C355.995 320.192 350.131 324.385 342.437 331.051C337.082 335.622 331.904 340.415 326.922 345.418C336.245 344.09 348.981 346.648 357.708 350.4C359.748 335.704 369.41 334.12 379.774 327.153C380.419 326.718 383.059 322.653 384.005 321.591L384.571 321.682C384.711 321.843 385.152 322.398 385.163 322.561C386.016 335.473 372.227 343.461 377.598 357.119C379.544 362.066 380.713 368.182 383.138 373.239C378.744 371.886 374.271 371.345 369.833 370.009C370.511 379.776 371.345 380.807 361.89 384.074C352.416 386.364 340.872 386.9 331.413 384.088C322.588 381.466 314.706 376.539 310.188 368.078C307.182 362.452 306.349 356.28 306.556 349.924C307.665 316.289 345.417 310.109 350.78 290.12C351.854 286.124 351.67 281.913 349.603 278.283C347.035 273.767 342.811 271.326 338.066 270.036C338.066 276.256 337.934 280.67 334.366 286.062C324.267 301.341 300.198 298.827 297.301 278.834C296.86 275.915 297.599 272.937 299.349 270.599C304.848 263.129 317.625 263.614 326.277 262.504ZM355.241 374.746C359.755 371.476 360.363 370.127 363.47 365.582C354.8 359.589 347.038 357.193 336.599 355.842C334.219 355.534 330.229 355.744 328.683 355.525C326.695 355.98 325.032 356.319 323.014 356.649C323.011 360.819 322.781 363.623 324.531 367.597C329.418 378.705 345.899 381.213 355.241 374.746ZM316.909 281.867C319.356 281.307 321.325 280.498 323.456 279.096C324.693 276.912 325.847 275.316 325.541 272.753L324.908 272.023C323.373 273.592 316.596 280.014 316.418 281.6L316.909 281.867Z" fill="white"/>
<path d="M174.716 262.511C175.425 262.456 176.134 262.409 176.844 262.368C184.919 261.917 193.071 263.165 201.151 264.206C216.046 266.125 220.138 279.936 209.706 290.502C201.37 298.944 188.397 297.244 180.581 288.93C175.273 283.284 174.588 277.438 174.607 269.866C171.222 271.159 168.577 272.039 165.84 274.652C162.98 277.433 161.308 281.273 161.194 285.326C160.769 297.222 173.981 305.268 181.805 311.764C191.362 319.697 203.189 329.807 205.454 343.07C210.791 374.31 188.838 387.099 161.506 385.729C157.393 385.367 147.312 384.299 144.483 381.205C141.896 378.375 142.612 373.607 142.776 369.966C139.463 371.085 133.553 372.207 129.535 373.419C131.491 368.386 133.038 363.227 134.711 358.091C136.315 353.169 137.226 348.308 134.804 343.417C131.822 337.399 129.139 331.815 127 325.401L128.398 320.012C128.836 320.965 130.341 324.271 130.871 324.94C136.105 331.554 143.665 331.808 149.623 338.198C154.387 343.307 153.333 346.259 155.625 349.807C157.25 350.278 159.026 348.788 161.091 348.233C166.3 346.833 171.99 345.34 177.363 345.029C179.758 344.89 181.723 345.213 184.331 345.021L184.684 344.584C183.8 342.981 180.2 340.235 178.563 338.608C166.329 326.362 147.52 315.851 145.624 296.326C143.732 276.847 157.19 264.461 174.716 262.511ZM162.714 377.079C168.471 378.804 174.919 378.817 180.223 375.703C188.188 371.029 189.742 365.211 189.584 356.468C185.096 355.798 183.06 355.365 178.459 355.524C167.719 356.91 158.136 359.296 149.02 365.562C153.648 371.444 154.917 374.797 162.714 377.079ZM188.957 278.935C191.98 280.943 193.161 281.264 196.701 281.767C196.377 280.261 188.544 272.462 187.225 271.999C186.665 274.715 187.781 276.513 188.957 278.935Z" fill="white"/>
<path d="M256.136 126C256.935 126.477 259.511 131.358 260.696 132.474C269.294 140.597 278.255 143.756 274.107 157.876C279.172 157.845 284.93 157.941 288.902 161.284C301.272 171.699 294.921 188.807 280.103 191.188C274.865 192.03 270.184 189.209 266.383 186.177C267.269 189.674 268.499 194.065 270.758 196.852C282.57 211.447 308.472 217.727 322.614 227.098C315.109 228.345 308.83 231.052 301.536 227.573C281.333 217.939 265.414 212.133 256.585 189.373C255.05 190.578 250.4 201.376 248.099 204.133C238.371 215.984 223.244 221.713 209.907 228.006C206.534 229.599 193.195 229.073 191.683 226.91C193.625 223.67 204.404 219.646 208.247 217.941C215.197 214.932 221.97 211.501 228.528 207.665C238.829 201.586 243.099 197.961 246.174 186.288C243.406 188.473 239.194 191.046 235.739 191.219C226.978 191.658 217.926 185.153 217.306 175.88C217.02 171.359 218.506 166.91 221.431 163.532C226.164 158.093 232.111 157.958 238.533 157.598C232.783 140.494 250.705 138.549 256.136 126Z" fill="white"/>
<path d="M256.057 204.569C257.388 205.284 261.752 214.996 264.233 216.929C274.039 224.566 279.888 227.181 288.283 236.884C271.75 248.181 261.872 258.498 256.8 278.841L256.521 278.864C255.578 278.301 255.265 276.425 254.85 275.103C253.006 269.219 250.894 263.891 247.522 258.747C243.457 252.564 238.369 247.168 232.491 242.807C229.935 240.887 226.845 238.909 224.525 236.791C230.169 230.088 233.936 226.663 241.464 222.316C248.555 218.222 252.587 212.007 256.057 204.569Z" fill="white"/>
</svg>
