<svg width="283" height="150" viewBox="0 0 283 150" fill="none" xmlns="http://www.w3.org/2000/svg">
<g clip-path="url(#clip0_137_4945)">
<path d="M115.469 12.4439C118.39 12.0118 123.615 13.0436 122.844 17.0233C122.53 18.6475 120.06 20.4035 118.76 19.1118C117.444 17.8031 118.532 15.263 115.713 16.2796C113.116 17.2158 111.001 19.1525 109.84 21.658C108.549 24.4606 108.707 27.4185 109.765 30.3242C112.735 38.4749 120.029 36.3727 126.624 39.5394C136.081 44.0807 139.33 49.8211 140.098 60.0986C140.413 64.2958 140.544 67.8798 140.447 72.1667C140.424 73.2397 140.364 78.1678 140.599 78.8024C140.965 78.9967 141.283 78.9054 141.71 78.8562C141.953 78.6505 141.995 78.461 141.991 78.1011C141.982 77.0616 141.9 76.0708 141.91 75.0239C141.984 67.8453 141.598 60.1128 143.359 53.1115C145.315 45.3316 152.182 40.2508 159.582 38.1426C162.387 37.3877 165.662 37.1413 168.227 35.6961C172.853 33.0916 174.848 25.6479 172.239 21.0494C170.858 18.6154 168.829 16.8832 166.082 16.1663C163.603 15.5192 165.03 18.4871 163.136 19.4346C162.718 19.6916 162.003 19.5291 161.555 19.3613C160.734 19.0505 160.078 18.4174 159.738 17.6094C159.39 16.7805 159.39 15.8461 159.74 15.018C161.586 10.6849 169.413 12.6298 172.558 14.1589C177.09 16.3632 178.767 18.6785 180.455 23.2543C183.823 23.2801 185.879 23.75 186.877 27.2385C186.561 27.2465 185.304 27.2729 185.051 27.3571C182.265 28.2904 182.546 31.7544 180.391 33.5993C178.758 34.9978 176.843 35.2309 174.848 35.1282C173.468 36.1653 172.243 37.3738 170.757 38.4473C167.542 40.7708 164.778 41.0388 161.184 42.3053C164.592 42.7883 166.146 43.519 168.889 45.9674C169.175 46.2228 169.215 46.4235 169.201 46.7426C168.62 47.2946 166.168 46.9719 165.324 46.8653C163.286 46.22 160.971 45.3389 158.887 45.2523C156.711 45.1618 153.699 46.4182 152.214 48.0043C147.702 52.824 147.636 59.2933 147.474 65.2612L147.28 72.6704C147.249 74.0685 147.205 75.493 147.225 76.8901C147.243 78.2673 147.081 79.7893 148.886 79.7809C149.782 79.3753 150.431 76.7355 151.523 75.6226C153.487 73.6217 155.484 73.5 157.603 71.9413C158.137 71.5482 158.384 70.4423 158.979 69.8295L159.27 69.9201C160.829 72.8023 155.009 77.7054 156.543 81.6956C157.263 83.5671 157.794 86.0561 158.731 88.1082C156.983 87.7742 155.231 87.5638 153.582 86.8774C152.12 86.2692 151.048 85.2709 149.706 84.4327C148.431 83.6362 147.114 83.2085 145.707 82.7029C145.081 85.4439 145.129 87.6559 141.584 87.6625C137.319 87.6703 137.667 86.8571 136.646 82.793C135.403 83.1622 133.863 83.6086 132.801 84.3216C130.731 85.7111 129.029 87.2643 126.445 87.5647C125.584 87.6647 124.502 87.9315 123.626 88.1317C124.707 85.6627 125.635 82.6909 126.059 79.9897C126.416 77.7082 121.051 70.9277 123.42 69.792C123.687 70.3593 123.813 70.86 124.243 71.366C126.029 73.4632 129.121 73.5935 131.014 75.8276C131.995 76.9847 132.352 78.3444 133.093 79.6435C133.716 79.9646 134.469 79.6216 134.88 79.1015C135.44 77.4506 134.812 61.0937 134.472 58.187C134.054 54.6117 132.457 49.6108 129.321 47.3491C124.367 43.7771 122.114 45.4824 116.902 46.8776C116.387 47.0156 113.75 46.9748 112.678 47.1199C112.84 46.8856 113.012 46.6583 113.194 46.439C115.44 43.7537 117.992 42.6009 121.402 42.2962C114.748 40.227 112.884 40.2876 107.602 35.0624C107.374 35.0878 107.145 35.1031 106.915 35.1082C103.149 35.2017 101.348 33.7483 99.9821 30.3861C99.6633 29.6014 99.2023 28.6115 98.576 28.0445C97.5155 27.0844 96.8271 27.2378 95.5052 27.2927C96.2048 23.7053 98.6586 23.3623 101.86 23.2505C104.577 16.3416 108.121 13.8199 115.469 12.4439Z" fill="#181818"/>
<path d="M166.744 48.4412C170.498 47.7345 176.214 49.0546 178.875 51.9484C182.477 55.866 182.544 61.3435 179.679 65.7139C177.608 68.8719 175.464 70.357 172.652 72.7178C170.694 74.3365 168.801 76.034 166.98 77.806C170.388 77.3354 175.044 78.2415 178.234 79.5704C178.98 74.3656 182.512 73.8047 186.3 71.337C186.536 71.1831 187.501 69.7436 187.847 69.3674L188.054 69.3994C188.105 69.4567 188.266 69.653 188.271 69.711C188.582 74.2838 183.542 77.1129 185.505 81.9497C186.216 83.702 186.644 85.8679 187.53 87.6589C185.924 87.1799 184.289 86.9881 182.666 86.5149C182.914 89.974 183.219 90.3393 179.763 91.4962C176.3 92.3072 172.079 92.4972 168.622 91.5013C165.396 90.5725 162.514 88.8276 160.862 85.8311C159.764 83.8387 159.459 81.6527 159.535 79.4016C159.94 67.4896 173.741 65.3009 175.701 58.2217C176.094 56.8064 176.027 55.3151 175.271 54.0296C174.332 52.4301 172.788 51.5656 171.054 51.1088C171.054 53.3114 171.005 54.8749 169.701 56.7843C166.009 62.1957 157.21 61.3052 156.152 54.2245C155.99 53.1908 156.26 52.1361 156.9 51.3082C158.91 48.6624 163.581 48.8344 166.744 48.4412ZM177.332 88.1927C178.982 87.0346 179.204 86.5567 180.34 84.947C177.171 82.8248 174.334 81.9761 170.517 81.4976C169.647 81.3886 168.189 81.4627 167.623 81.3853C166.897 81.5466 166.289 81.6664 165.551 81.7836C165.55 83.2604 165.466 84.2535 166.106 85.6608C167.892 89.5947 173.917 90.4831 177.332 88.1927ZM163.319 55.2989C164.214 55.1003 164.934 54.814 165.713 54.3175C166.165 53.544 166.587 52.9787 166.475 52.0711L166.243 51.8124C165.682 52.3679 163.205 54.6424 163.14 55.2042L163.319 55.2989Z" fill="#181818"/>
<path d="M111.339 48.4434C111.598 48.4242 111.858 48.4074 112.117 48.393C115.069 48.2331 118.049 48.6751 121.003 49.0438C126.448 49.7234 127.944 54.6147 124.131 58.3566C121.083 61.3467 116.341 60.7444 113.484 57.8C111.543 55.8004 111.293 53.7301 111.3 51.0482C110.062 51.5063 109.095 51.818 108.095 52.7434C107.049 53.7281 106.438 55.0881 106.396 56.5237C106.241 60.7368 111.071 63.5861 113.931 65.8867C117.424 68.6964 121.748 72.2771 122.576 76.9741C124.527 88.0381 116.502 92.5675 106.51 92.0823C105.007 91.9539 101.321 91.5759 100.288 90.4802C99.3416 89.4777 99.6033 87.7891 99.6634 86.4996C98.4523 86.896 96.2919 87.2932 94.823 87.7227C95.538 85.9401 96.1037 84.1131 96.7153 82.2941C97.3015 80.5509 97.6346 78.8293 96.749 77.0971C95.6592 74.9656 94.6783 72.9882 93.8963 70.7164L94.4072 68.8079C94.5676 69.1455 95.1177 70.3163 95.3112 70.5531C97.2245 72.8956 99.9885 72.9855 102.167 75.2486C103.908 77.0582 103.523 78.1038 104.36 79.3601C104.955 79.5269 105.604 78.9994 106.359 78.8028C108.263 78.3068 110.343 77.778 112.307 77.6678C113.183 77.6186 113.901 77.7331 114.854 77.6652L114.983 77.5105C114.66 76.9426 113.344 75.9701 112.746 75.3941C108.273 71.0569 101.398 67.3344 100.704 60.4193C100.013 53.5208 104.933 49.1341 111.339 48.4434ZM106.952 89.0187C109.057 89.6296 111.413 89.6342 113.353 88.5314C116.264 86.8761 116.833 84.8157 116.775 81.7193C115.134 81.482 114.39 81.3287 112.708 81.3849C108.782 81.8756 105.278 82.7207 101.946 84.9399C103.638 87.0232 104.102 88.2106 106.952 89.0187ZM116.545 54.2602C117.651 54.9715 118.082 55.0851 119.376 55.2631C119.258 54.7298 116.394 51.9679 115.912 51.8038C115.708 52.7658 116.115 53.4025 116.545 54.2602Z" fill="#181818"/>
<path d="M141.103 0.0947266C141.396 0.263524 142.337 1.99239 142.77 2.38772C145.914 5.26452 149.189 6.38321 147.673 11.3838C149.524 11.373 151.63 11.407 153.081 12.5907C157.603 16.2795 155.282 22.3382 149.865 23.1817C147.95 23.4799 146.239 22.4806 144.849 21.4068C145.173 22.6455 145.623 24.2006 146.449 25.1877C150.767 30.3566 160.235 32.5807 165.405 35.8995C162.662 36.3411 160.366 37.2998 157.7 36.0676C150.314 32.6557 144.495 30.5996 141.267 22.5387C140.706 22.9655 139.006 26.7899 138.165 27.7664C134.609 31.9632 129.08 33.9923 124.204 36.2212C122.971 36.7851 118.095 36.599 117.542 35.8329C118.252 34.6855 122.192 33.2603 123.597 32.6564C126.138 31.5908 128.614 30.3755 131.011 29.0172C134.777 26.8642 136.338 25.5805 137.462 21.4461C136.45 22.22 134.91 23.1314 133.647 23.1926C130.445 23.3481 127.135 21.0444 126.909 17.7602C126.804 16.1591 127.347 14.5834 128.417 13.387C130.147 11.4606 132.321 11.413 134.669 11.2854C132.567 5.22777 139.118 4.53919 141.103 0.0947266Z" fill="#181818"/>
<path d="M141.074 27.9229C141.561 28.176 143.156 31.6156 144.063 32.3001C147.648 35.0048 149.786 35.9308 152.855 39.3672C146.811 43.3684 143.2 47.0221 141.346 54.2269L141.244 54.2349C140.899 54.0357 140.785 53.3713 140.633 52.903C139.959 50.8189 139.187 48.9319 137.954 47.1103C136.468 44.9206 134.608 43.0095 132.46 41.4649C131.525 40.7851 130.396 40.0846 129.548 39.3343C131.611 36.9605 132.988 35.7474 135.74 34.2081C138.332 32.7582 139.806 30.5571 141.074 27.9229Z" fill="#181818"/>
<path d="M128.837 111.996C129.816 112.36 131.668 117.967 132.104 119.116L136.036 129.278C136.667 130.895 137.276 132.395 138.028 133.957C138.732 135.42 140.913 135.624 141.236 136.192C140.697 136.376 133.83 136.419 133.53 136.055C133.659 135.902 134.255 135.208 134.181 135C133.409 132.822 132.3 130.461 131.734 128.221L128.01 128.224C126.834 128.243 125.839 128.248 124.667 128.183C124.126 130.149 123.144 132.087 122.65 134.134C122.201 135.988 124.037 135.394 124.56 136.168C124.198 136.376 117.316 136.368 116.926 136.066L116.936 136.198L116.827 136.113C117.438 135.711 118.597 135.424 119.352 135.183C120.638 133.106 121.613 130.207 122.507 127.889L126.47 117.542C127.136 115.801 127.91 113.544 128.837 111.996ZM128.439 126.641C129.349 126.646 130.336 126.628 131.233 126.72C130.625 125.506 128.547 119.103 128.227 118.788C127.847 119.682 125.358 126.247 125.484 126.646L128.439 126.641Z" fill="#181818"/>
<path d="M24.3782 111.855C27.3221 116.543 31.7668 132.705 34.6295 135.297L34.2388 136.285C32.6315 136.309 30.8861 136.421 29.2998 136.218C28.935 136.162 29.5563 135.399 29.513 135.185C29.1231 133.265 27.6977 129.959 27.0879 128.187C25.3626 128.299 21.7425 128.267 20.0264 128.196C19.6732 129.945 17.9132 133.679 17.9495 135.05C18.4422 135.887 19.1969 135.556 19.9291 135.939L19.956 136.178C19.1437 136.392 13.5368 136.283 12.4703 136.225L12.3984 136.009L12.2781 136.185L12.2296 136.087C12.8546 135.68 13.891 135.474 14.6626 135.248C15.7279 133.967 16.8098 130.806 17.4473 129.141L21.2344 119.271C22.1293 116.932 23.1483 113.941 24.3782 111.855ZM20.7023 126.618L23.9721 126.634C24.8077 126.644 25.7835 126.629 26.6008 126.722C26.0552 125.437 24.1145 119.383 23.5312 118.926C22.7882 120.999 21.5681 124.73 20.7023 126.618Z" fill="#181818"/>
<path d="M138.343 112.441C139.232 112.586 139.737 112.815 140.777 112.854C143.625 112.961 146.749 112.964 149.588 112.923C151.761 112.891 156.072 113.08 158.024 112.722C158.003 114.315 158.027 116.29 157.639 117.804C157.248 116.572 157.155 116.104 156.237 115.147C153.954 114.469 152.351 114.851 150.028 114.574C150.327 118.985 149.932 124.317 150.081 128.793C150.141 130.565 149.942 133.124 150.283 134.813C150.666 135.546 152.086 135.585 153.099 136.069L153.081 136.192C152.22 136.357 144.065 136.385 143.564 136.121C143.739 135.735 145.274 135.529 145.721 135.075C146.335 134.45 146.097 116.579 146.104 114.562C144.004 114.905 141.174 114.345 139.292 115.204C138.707 115.47 138.582 116.683 137.917 117.06L137.776 116.988C137.519 116.189 138.189 113.522 138.343 112.441Z" fill="#181818"/>
<path d="M52.1084 112.441C55.0777 113.26 58.9175 112.85 62.064 112.926C64.5682 112.987 67.2444 112.852 69.7668 112.928C70.5504 112.952 70.9097 112.577 71.3852 112.784C71.6949 113.32 71.4611 117.078 71.4295 117.983C70.6501 116.038 70.1622 114.745 67.7148 114.716C66.3176 114.7 64.8612 114.727 63.4715 114.595C63.6462 116.157 63.5509 118.875 63.5607 120.534C63.5887 125.256 63.4179 129.724 63.8349 134.445C63.7035 135.727 66.7448 135.779 67.7382 136.109C66.6726 136.346 57.6438 136.5 57.2018 136.071C57.4482 135.813 57.7915 135.805 58.152 135.701C59.8947 135.228 59.5938 133.907 59.6665 132.523C59.9759 126.625 59.4278 120.44 59.8132 114.572C57.2331 114.987 55.6388 114.297 52.5969 115.249C52.3587 115.801 52.121 116.561 51.6247 116.873L51.4227 116.751C51.1598 115.61 51.7521 113.553 52.1084 112.441Z" fill="#181818"/>
<path d="M38.4583 135.635C38.9353 135.307 39.3572 135.008 39.3867 134.383C39.5216 131.523 39.8304 115.895 39.3448 114.124C38.6691 113.211 37.3412 113.716 36.8275 113.255L36.9287 113.074C38.1513 112.835 44.4498 112.872 45.8691 113.008L46.0064 113.134C45.3192 113.534 43.7595 113.612 43.694 114.357C43.5239 116.294 43.4101 118.678 43.5113 120.619C43.7274 124.761 43.016 130.264 43.9883 134.248C54.165 135.359 50.1738 132.335 52.2779 131.437C52.8137 131.928 52.2051 135.433 51.9798 136.264C50.3664 136.418 48.7765 136.312 47.1622 136.32C44.3613 136.335 41.4513 136.233 38.6588 136.32L38.4583 135.635Z" fill="#181818"/>
<path d="M36.6242 135.808C37.3689 135.832 37.737 135.756 38.4584 135.634L38.6588 136.319C37.5472 136.317 36.4356 136.306 35.3241 136.285C35.8783 136.226 36.1252 136.064 36.6242 135.808Z" fill="#181818"/>
<path d="M34.6293 135.298C35.38 135.595 35.7963 135.739 36.624 135.809C36.125 136.065 35.8781 136.227 35.3239 136.285L34.2386 136.286L34.6293 135.298Z" fill="#181818"/>
<path d="M227.91 135.216C229.079 133.304 229.967 130.601 230.799 128.46C232.173 124.955 233.523 121.442 234.849 117.919C235.493 116.217 236.513 113.279 237.535 111.869C238.583 113.49 239.257 115.556 239.959 117.375L243.802 127.321C244.694 129.622 246.015 133.701 247.716 135.321C247.682 135.687 247.659 135.89 247.685 136.266C245.968 136.278 243.194 136.217 241.563 136.368C241.994 136.004 242.504 135.659 242.668 135.133C242.307 133.47 240.805 130.128 240.237 128.118C239.053 128.274 234.503 128.295 233.22 128.182C232.617 129.933 231.995 131.712 231.386 133.458C230.498 136.003 232.079 135.496 233.971 136.162C232.636 136.381 226.379 136.439 225.105 136.159C224.399 136 223.734 135.696 223.153 135.267C220.956 133.666 218.323 129.097 216.619 126.676C215.662 126.68 214.357 126.721 213.436 126.621C213.536 128.626 213.174 133.711 213.991 135.084C214.778 135.544 216.183 135.774 216.509 136.141C216.196 136.383 209.607 136.307 208.69 136.321C208.915 136.183 208.817 136.275 208.945 135.997C208.715 135.758 208.49 135.777 208.148 135.735C209.267 135.631 209.699 134.726 209.733 133.693C209.93 127.481 209.741 121.244 209.799 115.029C209.817 113.093 207.589 113.71 206.979 113.204C207.516 112.698 214.803 112.969 216.029 112.927C219.891 112.796 223.551 114.241 223.354 118.774C223.21 122.056 221.655 123.482 219.459 125.575C220.115 126.172 221.111 127.538 221.702 128.271C223.896 130.99 225.186 133.03 227.91 135.216ZM213.451 124.852C214.938 125.067 217.544 125.614 218.527 124.146C220.415 121.737 220.467 117.326 217.887 115.339C216.444 114.227 215.16 114.354 213.473 114.477C213.48 117.111 213.653 122.432 213.451 124.852ZM233.799 126.64L236.613 126.646C237.623 126.64 238.689 126.614 239.691 126.689C239.152 125.503 237.147 119.143 236.562 118.751C236.3 120.068 234.382 125.42 233.799 126.64Z" fill="#181818"/>
<path d="M251.737 135.577L252.314 135.125C252.706 134.276 252.655 116.629 252.419 114.438C252.287 113.214 250.907 113.78 250.206 113.278L250.267 113.09C251.501 112.825 255.817 112.925 257.337 112.93L267.822 112.923C267.266 113.275 266.719 113.64 266.18 114.016C267.044 116.054 270.598 122.401 271.772 124.358C272.767 121.279 276.073 117.103 276.63 113.933C276.584 113.014 276.656 113.165 277.475 112.931C279.102 112.914 280.727 112.908 282.353 112.914V113.437C281.073 113.533 280.306 113.821 279.495 114.867C277.176 117.859 275.345 121.375 273.557 124.708C272.828 126.067 272.89 128.287 272.837 129.779C272.857 131.081 272.548 134.352 273.629 135.336C273.929 135.609 275.448 135.628 276.066 136.035L276.014 136.203C275.364 136.318 271.396 136.342 270.684 136.246C269.466 136.392 267.033 136.323 265.839 136.171C266.863 135.774 268.923 135.442 268.962 134.091C269.006 132.514 268.945 130.558 268.999 128.945C268.862 125.966 268.144 124.11 266.375 121.651C264.156 118.566 261.965 111.467 256.978 113.851C255.932 115.512 256.643 131.231 256.62 134.197C256.607 135.93 259.306 135.618 259.703 135.992L259.585 136.201C258.742 136.367 252.706 136.31 251.435 136.315C251.703 136.23 251.757 136.203 252.004 136.065L252.019 135.812L251.737 135.577ZM269.364 134.426C269.428 133.644 269.442 132.439 269.324 131.676L269.123 131.581C269.093 132.376 268.93 133.795 269.364 134.426Z" fill="#181818"/>
<path d="M269.123 131.58L269.324 131.675C269.442 132.438 269.428 133.643 269.364 134.425C268.93 133.794 269.093 132.375 269.123 131.58Z" fill="#181818"/>
<path d="M268.999 128.943C269.199 129.439 269.083 130.942 269.123 131.58C269.093 132.374 268.93 133.794 269.364 134.424C269.351 135.09 269.231 135.538 269.526 136.058C269.92 136.238 270.251 136.224 270.684 136.244C269.466 136.39 267.033 136.322 265.839 136.169C266.863 135.773 268.923 135.441 268.962 134.089C269.006 132.513 268.945 130.557 268.999 128.943Z" fill="#181818"/>
<path d="M93.5186 135.595C94.8598 134.605 94.0756 135.914 94.4794 134.16C95.0651 131.616 94.4093 113.746 95.1135 112.484L95.3913 112.418C96.3138 112.854 111.472 129.227 112.561 130.746C111.915 125.645 112.438 119.645 111.896 114.491C111.844 113.993 111.149 113.664 110.729 113.46L110.71 113.345C110.954 113.094 111.683 113.061 112.172 112.945C113.76 112.875 116.265 112.85 117.822 113.118C115.928 113.595 114.69 113.195 114.612 115.692C114.462 120.547 114.518 125.407 114.341 130.264C114.291 131.605 114.547 135.824 114.08 136.772H113.558C113.063 136.348 112.497 135.773 112.034 135.305C106.79 130.012 101.581 124.524 96.6244 118.976C97.31 122.237 96.7798 126.893 97.1782 130.296C97.3501 131.764 96.8916 134.096 97.8566 135.333C97.6912 135.744 97.6618 135.83 97.5864 136.275C96.4464 136.29 94.8741 136.355 93.7711 136.262C93.7143 136.069 93.5949 135.791 93.5186 135.595Z" fill="#181818"/>
<path d="M185.472 134.64C187.572 129.739 189.364 124.59 191.344 119.632C192.269 117.317 193.402 113.828 194.666 111.796C195.589 113.172 196.511 115.803 197.131 117.421L201.056 127.589C201.853 129.644 203.297 134.231 205.099 135.44C204.678 135.65 204.573 135.735 204.597 136.269C203.488 136.293 200.211 136.44 199.315 136.203L199.217 136.004L199.756 135.451C199.901 134.766 197.683 129.125 197.33 128.184C195.591 128.287 191.989 128.283 190.277 128.19C189.855 130.063 188.225 133.475 188.286 135.121C188.604 135.721 190.104 135.835 191.053 136.189C190.166 136.309 183.05 136.383 182.495 136.181L182.472 135.967C183.731 135.584 184.461 135.488 185.472 134.64ZM193.81 126.654C194.668 126.659 196.009 126.631 196.823 126.72C196.385 125.67 194.271 119.162 193.982 118.779C193.561 119.411 191.236 125.759 191.049 126.612C191.968 126.65 192.889 126.664 193.81 126.654Z" fill="#181818"/>
<path d="M70.549 135.119C72.9047 131.976 78.7187 113.16 80.1052 112.123C81.6241 112.455 87.4317 132.309 90.3357 135.281C90.0523 135.877 90.0859 135.629 90.1773 136.267C89.329 136.284 85.0603 136.501 84.7383 136.065C84.8882 135.903 85.4535 135.312 85.3703 135.069C84.5759 132.753 83.6271 130.478 82.872 128.148C81.214 128.286 77.4736 128.27 75.7969 128.196C75.3975 130.064 73.7562 133.576 73.8219 135.116C74.2162 135.738 75.6288 135.831 76.5869 136.182C75.5683 136.335 68.4942 136.437 67.9627 136.072C68.1062 135.915 69.956 135.398 70.549 135.119ZM79.584 126.651C80.4057 126.66 81.5774 126.641 82.3637 126.725C81.8917 125.638 79.9439 120.088 79.7035 119.002L79.4902 118.789C79.1214 119.439 76.6033 126.226 76.6132 126.649L79.584 126.651Z" fill="#181818"/>
<path d="M9.38304 131.618C9.25787 131.012 9.07707 130.123 8.76991 129.61C6.37754 125.614 0.547274 123.987 0.489939 118.563C0.42186 112.122 7.30392 111.767 11.9037 113.037C11.9131 114.113 11.9061 116.501 11.6817 117.533L11.5257 117.619C10.4364 116.041 10.2274 114.452 7.9112 113.962C4.61231 113.264 2.15116 116.692 4.40537 119.283C7.56984 122.92 13.1474 124.979 12.4262 130.832C12.2606 132.555 11.5734 133.957 10.1838 135.07C8.67278 136.281 7.63974 136.283 5.98512 136.772H0V129.846C0.0264025 129.863 0.0536413 129.879 0.0792075 129.897C1.19544 130.699 0.935422 135.81 5.61014 135.229C6.76657 135.094 7.82053 134.501 8.53528 133.582C8.96848 133.024 9.19143 132.291 9.38304 131.618Z" fill="#181818"/>
<path d="M173.741 136.773C173.17 136.639 170.523 136.278 170.327 135.726C169.999 134.806 169.909 130.807 170.469 130.084L170.659 130.096C170.946 130.538 171.001 131.303 171.134 131.83C172.154 136.261 178.679 136.369 179.516 131.944C179.923 128.142 174.657 125.951 172.657 123.295C167.35 116.256 173.35 111.148 180.631 112.643C183.089 113.147 181.919 114.139 181.959 116.192C181.969 116.666 182.046 117.749 181.715 118.052L181.496 117.988C181.352 117.547 181.388 117.094 181.252 116.671C180.911 115.623 179.891 114.694 178.94 114.203C178.115 113.778 176.643 113.921 175.785 114.211C175.037 114.464 174.464 114.932 174.123 115.649C173.748 116.431 173.668 117.257 173.967 118.078C175.518 122.337 185.621 124.957 182.123 132.85C181.417 134.444 180.114 135.545 178.496 136.147C177.85 136.387 177.175 136.577 176.515 136.773H173.741Z" fill="#181818"/>
<path d="M247.716 135.319C249.19 135.846 250.184 135.924 251.737 135.575L252.019 135.81L252.004 136.063C251.757 136.201 251.704 136.228 251.435 136.314C250.412 136.365 248.753 136.283 247.685 136.265C247.659 135.889 247.682 135.686 247.716 135.319Z" fill="#181818"/>
<path d="M204.597 136.268C204.574 135.735 204.678 135.649 205.099 135.439C206.337 135.827 206.859 135.827 208.148 135.735C208.49 135.777 208.715 135.758 208.945 135.997C208.817 136.274 208.915 136.182 208.69 136.321C207.525 136.375 205.802 136.29 204.597 136.268Z" fill="#181818"/>
<path d="M90.3358 135.28C91.5998 135.799 92.1156 135.844 93.5187 135.594C93.5949 135.79 93.7143 136.069 93.7711 136.262C92.7562 136.377 91.2376 136.292 90.1774 136.267C90.086 135.629 90.0524 135.876 90.3358 135.28Z" fill="#181818"/>
<path d="M97.8566 135.334C98.4878 135.529 99.4221 135.723 99.8964 136.085C99.6441 136.424 98.0495 136.298 97.5864 136.276C97.6618 135.832 97.6912 135.745 97.8566 135.334Z" fill="#181818"/>
<path d="M110.729 113.461C110.555 113.488 109.606 113.466 109.372 113.465L109.223 113.224L109.221 113.444L109.152 113.251C109.983 112.796 111.229 112.92 112.172 112.947C111.683 113.063 110.954 113.095 110.71 113.346L110.729 113.461Z" fill="#181818"/>
<path d="M276.63 113.932C276.176 113.668 275.617 113.455 275.392 113.067L275.752 112.96L275.651 113.33L275.679 112.961C276.124 112.909 276.998 112.932 277.475 112.931C276.656 113.165 276.585 113.013 276.63 113.932Z" fill="#181818"/>
</g>
<defs>
<clipPath id="clip0_137_4945">
<rect width="282.353" height="136.773" fill="white"/>
</clipPath>
</defs>
</svg>
