<svg width="50" height="50" viewBox="0 0 50 50" fill="none" xmlns="http://www.w3.org/2000/svg">
<path d="M11.4272 6.7052C12.9745 6.47054 15.7421 7.03083 15.3339 9.19181C15.1673 10.0737 13.8591 11.0272 13.1707 10.3259C12.4732 9.61525 13.0496 8.23599 11.5566 8.78798C10.1806 9.29632 9.0601 10.348 8.4451 11.7084C7.76159 13.2303 7.84492 14.8364 8.40566 16.4142C9.97863 20.84 13.8429 19.6985 17.3364 21.418C22.3461 23.884 24.0671 27.001 24.4739 32.5816C24.6404 34.8607 24.7098 36.8068 24.6587 39.1346C24.6462 39.7172 24.6148 42.3932 24.739 42.7378C24.9333 42.8433 25.1012 42.7937 25.3276 42.767C25.4562 42.6553 25.4788 42.5524 25.4766 42.3569C25.4715 41.7925 25.4284 41.2545 25.4335 40.6861C25.473 36.7881 25.2685 32.5894 26.2011 28.7876C27.2374 24.5632 30.8752 21.8043 34.7948 20.6595C36.281 20.2496 38.0155 20.1159 39.3746 19.3311C41.8248 17.9169 42.8816 13.8749 41.4999 11.378C40.7681 10.0563 39.693 9.11574 38.2382 8.72644C36.9251 8.37509 37.681 9.98666 36.6776 10.5011C36.4563 10.6407 36.0772 10.5524 35.8399 10.4613C35.4053 10.2926 35.0577 9.94878 34.8773 9.51006C34.6933 9.05997 34.6933 8.5526 34.8788 8.10295C35.8567 5.75009 40.0027 6.80611 41.6686 7.63646C44.0691 8.83335 44.9579 10.0906 45.8518 12.5752C47.636 12.5892 48.7249 12.8444 49.2537 14.7387C49.0864 14.743 48.4204 14.7573 48.2867 14.803C46.8108 15.3098 46.9597 17.1908 45.8182 18.1925C44.9528 18.9519 43.9384 19.0785 42.8816 19.0227C42.1506 19.5859 41.5021 20.2421 40.7148 20.825C39.0117 22.0866 37.5474 22.2322 35.6434 22.9199C37.4488 23.1822 38.2718 23.579 39.7252 24.9084C39.8764 25.0471 39.8975 25.1561 39.8902 25.3293C39.5828 25.6291 38.2835 25.4538 37.8366 25.396C36.7572 25.0456 35.5309 24.5671 34.4267 24.5201C33.2743 24.471 31.6785 25.1532 30.892 26.0144C28.5016 28.6315 28.4666 32.1444 28.3811 35.3849L28.2781 39.4081C28.2621 40.1673 28.2387 40.9408 28.2489 41.6994C28.2584 42.4472 28.173 43.2737 29.129 43.2691C29.6037 43.0489 29.9476 41.6155 30.5261 41.0112C31.566 39.9247 32.6243 39.8586 33.7468 39.0122C34.0294 38.7988 34.1601 38.1983 34.4756 37.8655L34.6297 37.9147C35.4557 39.4798 32.3723 42.1421 33.1852 44.3088C33.5664 45.325 33.8476 46.6765 34.3442 47.7908C33.4181 47.6094 32.4899 47.4952 31.6164 47.1225C30.8423 46.7923 30.2741 46.2502 29.5635 45.795C28.8879 45.3625 28.1905 45.1303 27.4448 44.8558C27.1133 46.3441 27.1388 47.5452 25.2612 47.5488C23.0016 47.5531 23.186 47.1115 22.6453 44.9047C21.9866 45.1051 21.171 45.3476 20.6084 45.7347C19.5119 46.4892 18.6104 47.3326 17.2413 47.4957C16.7854 47.55 16.2123 47.6949 15.7479 47.8036C16.3207 46.4629 16.8125 44.8492 17.0367 43.3825C17.226 42.1437 14.3839 38.4618 15.639 37.8451C15.7803 38.1532 15.847 38.425 16.0752 38.6998C17.0208 39.8386 18.6591 39.9093 19.6618 41.1225C20.1811 41.7508 20.3707 42.4891 20.7628 43.1945C21.0931 43.3688 21.4921 43.1826 21.7098 42.9002C22.0064 42.0037 21.6738 33.122 21.4937 31.5436C21.2722 29.6023 20.4262 26.8868 18.7648 25.6587C16.1408 23.7191 14.947 24.6451 12.1865 25.4026C11.9133 25.4776 10.5167 25.4554 9.94876 25.5342C10.0345 25.407 10.1256 25.2836 10.2218 25.1645C11.4117 23.7064 12.7635 23.0804 14.5702 22.915C11.045 21.7914 10.0579 21.8243 7.26001 18.987C7.13899 19.0008 7.01747 19.0091 6.89572 19.0119C4.90078 19.0626 3.94705 18.2735 3.2233 16.4478C3.05445 16.0217 2.81024 15.4842 2.47845 15.1763C1.91669 14.655 1.55204 14.7383 0.851807 14.7681C1.22237 12.8201 2.52219 12.6339 4.218 12.5731C5.65724 8.82167 7.53483 7.45236 11.4272 6.7052Z" fill="currentColor"/>
<path d="M38.5894 26.2508C40.5781 25.867 43.606 26.5839 45.0155 28.1552C46.9239 30.2824 46.9589 33.2567 45.4413 35.6299C44.3444 37.3447 43.2087 38.1511 41.7189 39.433C40.6818 40.3119 39.6791 41.2337 38.7143 42.1959C40.5197 41.9403 42.986 42.4324 44.6759 43.1539C45.0711 40.3277 46.9421 40.0232 48.9491 38.6832C49.0739 38.5997 49.5852 37.818 49.7685 37.6137L49.878 37.6311C49.905 37.6622 49.9905 37.7688 49.9927 37.8003C50.1577 40.2833 47.4877 41.8195 48.5277 44.4459C48.9045 45.3974 49.1309 46.5734 49.6005 47.546C48.7497 47.2859 47.8835 47.1817 47.0239 46.9248C47.1554 48.803 47.3168 49.0014 45.4859 49.6296C43.6513 50.07 41.4158 50.1732 39.5841 49.6324C37.8752 49.128 36.3488 48.1806 35.4739 46.5535C34.8918 45.4716 34.7304 44.2846 34.7706 43.0623C34.9853 36.5941 42.2958 35.4056 43.3344 31.5616C43.5425 30.7931 43.5067 29.9834 43.1065 29.2853C42.6091 28.4168 41.7912 27.9474 40.8724 27.6993C40.8724 28.8953 40.8469 29.7443 40.156 30.7811C38.2002 33.7195 33.5393 33.2359 32.9784 29.3912C32.893 28.8298 33.0361 28.2572 33.375 27.8076C34.4398 26.3709 36.9141 26.4643 38.5894 26.2508ZM44.1983 47.8358C45.0725 47.207 45.1901 46.9475 45.7919 46.0734C44.1129 44.9211 42.6099 44.4602 40.5883 44.2004C40.1275 44.1412 39.3548 44.1815 39.0554 44.1394C38.6705 44.227 38.3485 44.292 37.9577 44.3557C37.957 45.1576 37.9124 45.6968 38.2513 46.461C39.1978 48.5971 42.3893 49.0795 44.1983 47.8358ZM36.7753 29.9745C37.2493 29.8667 37.6305 29.7112 38.0432 29.4416C38.2827 29.0216 38.5062 28.7147 38.447 28.2218L38.3243 28.0814C38.0271 28.383 36.7147 29.6181 36.6804 29.9231L36.7753 29.9745Z" fill="currentColor"/>
<path d="M9.24009 26.252C9.37732 26.2416 9.51462 26.2325 9.65207 26.2247C11.2158 26.1379 12.7944 26.3779 14.3591 26.5781C17.2436 26.9471 18.0359 29.6031 16.0159 31.6349C14.4016 33.2586 11.8894 32.9315 10.3759 31.3327C9.34803 30.2469 9.21526 29.1227 9.21906 27.6665C8.56345 27.9152 8.05135 28.0845 7.52121 28.587C6.96734 29.1217 6.64373 29.8602 6.62167 30.6397C6.53937 32.9274 9.09768 34.4745 10.6129 35.7238C12.4634 37.2494 14.7537 39.1937 15.1924 41.7442C16.2259 47.7519 11.9749 50.2114 6.68193 49.9479C5.88551 49.8782 3.93329 49.6729 3.38562 49.078C2.88455 48.5336 3.02317 47.6167 3.05501 46.9165C2.41342 47.1318 1.26901 47.3474 0.490925 47.5807C0.869669 46.6127 1.16932 45.6207 1.49329 44.6329C1.80382 43.6864 1.98027 42.7515 1.51118 41.811C0.933862 40.6536 0.414238 39.5798 0 38.3463L0.270661 37.31C0.355597 37.4933 0.646991 38.129 0.749528 38.2576C1.76307 39.5296 3.22721 39.5784 4.38097 40.8073C5.30352 41.7899 5.09939 42.3576 5.54307 43.0398C5.85783 43.1304 6.20166 42.8439 6.60159 42.7372C7.61031 42.4679 8.71222 42.1807 9.75263 42.1209C10.2165 42.0941 10.5969 42.1564 11.102 42.1195L11.1703 42.0355C10.9992 41.7271 10.3021 41.199 9.98502 40.8862C7.61593 38.5312 3.97361 36.5099 3.6064 32.7549C3.24014 29.0091 5.84622 26.6271 9.24009 26.252ZM6.91592 48.2844C8.03083 48.6161 9.27931 48.6186 10.3066 48.0198C11.8489 47.121 12.1499 46.0022 12.1193 44.3208C11.2502 44.192 10.8559 44.1087 9.96486 44.1393C7.88513 44.4057 6.02931 44.8646 4.2642 46.0696C5.1603 47.2009 5.40605 47.8456 6.91592 48.2844ZM11.9978 29.4106C12.5833 29.7968 12.8119 29.8585 13.4974 29.9552C13.4347 29.6656 11.9177 28.1659 11.6624 28.0768C11.554 28.5991 11.77 28.9448 11.9978 29.4106Z" fill="currentColor"/>
<path d="M25.0069 0C25.1617 0.091657 25.6605 1.03043 25.8898 1.24509C27.555 2.80719 29.2902 3.41464 28.4868 6.12993C29.4677 6.12407 30.5829 6.14256 31.3519 6.78531C33.7473 8.78832 32.5175 12.0782 29.6481 12.5362C28.6336 12.6981 27.7273 12.1555 26.9911 11.5725C27.1628 12.2451 27.4009 13.0895 27.8383 13.6254C30.1257 16.4322 35.1415 17.6399 37.8802 19.442C36.4269 19.6818 35.2109 20.2023 33.7985 19.5332C29.8861 17.6806 26.8035 16.5641 25.0938 12.187C24.7965 12.4188 23.896 14.4955 23.4506 15.0257C21.5667 17.3045 18.6375 18.4063 16.0548 19.6166C15.4015 19.9228 12.8185 19.8218 12.5258 19.4058C12.9019 18.7828 14.9892 18.0089 15.7333 17.681C17.0792 17.1023 18.3907 16.4424 19.6606 15.7049C21.6554 14.5358 22.4823 13.8387 23.0777 11.5938C22.5417 12.014 21.726 12.5089 21.0571 12.5421C19.3606 12.6266 17.6077 11.3756 17.4876 9.59231C17.4322 8.72296 17.72 7.86731 18.2863 7.21767C19.2029 6.17168 20.3544 6.14581 21.5982 6.07655C20.4847 2.78724 23.9552 2.41334 25.0069 0Z" fill="currentColor"/>
<path d="M24.9917 15.1095C25.2495 15.2469 26.0945 17.1146 26.575 17.4863C28.4739 18.955 29.6066 19.4578 31.2323 21.3238C28.0306 23.4964 26.1178 25.4803 25.1356 29.3926L25.0815 29.3969C24.8989 29.2887 24.8383 28.9279 24.758 28.6737C24.4009 27.542 23.9919 26.5174 23.339 25.5283C22.5518 24.3392 21.5665 23.3015 20.4282 22.4628C19.9333 22.0937 19.3348 21.7133 18.8856 21.3059C19.9786 20.0169 20.7081 19.3582 22.1659 18.5223C23.5391 17.735 24.3198 16.5399 24.9917 15.1095Z" fill="currentColor"/>
</svg>
