<svg width="56" height="56" viewBox="0 0 56 56" fill="none" xmlns="http://www.w3.org/2000/svg">
<rect x="0.25" y="0.25" width="55.5" height="55.5" rx="27.75" fill="#675B49" fill-opacity="0.06"/>
<rect x="0.25" y="0.25" width="55.5" height="55.5" rx="27.75" stroke="#675B49" stroke-width="0.5"/>
<path d="M37.2197 17.2196C37.5126 16.9268 37.9874 16.9268 38.2802 17.2196C38.5729 17.5125 38.5729 17.9873 38.2802 18.2802L28.8105 27.7499L38.2802 37.2196C38.5729 37.5125 38.5729 37.9873 38.2802 38.2802C37.9874 38.573 37.5126 38.5729 37.2197 38.2802L27.7499 28.8104L18.2802 38.2802C17.9874 38.573 17.5126 38.5729 17.2197 38.2802C16.9268 37.9873 16.9268 37.5125 17.2197 37.2196L26.6894 27.7499L17.2197 18.2802C16.9268 17.9873 16.9268 17.5125 17.2197 17.2196C17.5126 16.9268 17.9874 16.9268 18.2802 17.2196L27.7499 26.6893L37.2197 17.2196Z" fill="#675B49"/>
</svg>
