<svg width="71" height="71" viewBox="0 0 71 71" fill="none" xmlns="http://www.w3.org/2000/svg">
<path d="M58.6193 31.1515C62.5754 32.1499 66.6913 32.7711 67.412 37.6511C67.4812 38.1184 67.5613 38.5092 67.2109 38.8551L67.0315 38.8851C66.9056 38.6545 66.9419 38.1778 66.8867 37.9047C66.4849 35.9092 65.2809 34.4305 63.4449 33.5669C62.5398 33.1408 61.6652 32.6379 60.6851 32.3502C57.447 31.2384 54.4437 30.7882 52.7671 27.3904C51.9323 25.6988 52.2354 24.5841 51.7951 23.0718C51.683 24.1755 51.2693 26.3164 51.4756 27.276C51.5275 27.5184 51.7399 28.1346 51.5746 28.2987C50.223 28.0566 50.0631 26.9658 50.3389 25.7765C50.6141 24.5935 50.908 23.368 51.2389 22.2006C50.3034 23.444 49.3679 24.4282 47.7274 24.6595C45.7922 24.9319 43.8593 23.3728 43.6797 21.4289C43.5946 20.5609 43.8628 19.6985 44.4228 19.0355C44.9047 18.4766 45.617 18.1106 46.3342 17.9571C47.0819 18.1422 47.3938 18.2163 47.8406 18.9251C48.1478 19.4125 47.8743 19.754 47.4207 19.9426C47.1719 19.904 47.0684 19.7516 46.8839 19.5683C45.7692 19.2964 45.6208 21.0872 46.0579 21.7221C46.4691 22.3194 47.4083 22.4317 48.0782 22.5316C48.9934 22.051 50.0491 21.4356 50.2693 20.3744C50.7792 17.9131 49.2203 15.7038 47.1191 14.7035C43.8055 13.1261 41.1049 14.8 39.0064 17.2596C40.0783 16.7469 42.8676 14.313 44.0649 16.3757C44.313 16.8033 44.3042 17.4143 43.8627 17.7347C43.1065 17.9238 42.5961 17.4041 42.0318 17.3901C36.0371 17.2395 36.1159 25.8527 35.1488 29.6678C35.1444 29.6348 35.1394 29.6013 35.135 29.5684C35.2015 25.5288 34.1257 17.8028 28.72 17.3859C28.0449 17.7124 26.9384 18.4623 26.3271 17.4482C25.9677 16.8522 26.5154 16.1461 27.075 15.9725C28.1507 15.5408 29.5131 16.0054 30.4658 16.5887C30.6752 16.8071 30.9725 17.1438 31.2032 17.316L31.376 17.2926L31.3873 17.3979L31.4064 17.3788C31.2797 16.8614 30.5595 16.229 30.1378 15.9126C28.3157 14.7216 27.096 13.9966 24.7854 14.3751C23.245 14.6273 21.6454 15.8726 20.8346 17.1793C20.2564 18.1265 20.0944 19.2732 20.3853 20.3508C20.5633 21.0127 20.943 21.6551 21.569 21.9776C22.7312 22.5767 23.2865 22.5342 24.3733 21.9443C24.6887 21.3256 25.2085 20.079 24.3045 19.6383C23.5901 19.2899 23.2895 20.1983 22.9079 20.2188C22.6297 19.853 22.7459 19.5307 22.77 19.098C22.8177 18.2456 23.9047 18.0097 24.5952 18.1411C25.3342 18.2815 25.9615 18.8721 26.3601 19.4968C26.829 20.2278 26.9842 21.115 26.7907 21.9571C26.0717 25.0441 21.9153 25.4562 20.0794 23.1141C19.7954 22.7518 19.6601 22.5419 19.4405 22.14C19.3989 22.0639 19.3581 21.9881 19.3172 21.9113C19.6347 23.3618 20.6729 26.0374 19.9773 27.3714C19.8212 27.6725 19.3985 28.1348 19.0092 27.9218C18.9136 27.4108 19.264 26.9382 19.1382 26.2444C18.9659 25.295 18.8893 24.0585 18.6694 23.1262C18.1568 27.3266 17.0764 29.6362 12.8951 30.9538C9.41291 32.051 4.15583 33.0578 3.37304 37.2997C3.31963 37.5772 3.36019 38.4558 3.2677 38.6049C3.08883 38.4883 3.02217 38.3161 2.97568 38.1136C2.67607 36.8115 3.26418 35.4198 4.00041 34.3677C5.87577 31.691 9.1729 31.544 11.9205 30.7218C11.0098 30.4801 10.2948 30.1379 9.78853 29.2746C9.42563 28.6663 9.32805 27.9387 9.51709 27.2607C10.2899 24.5693 13.9274 24.9829 13.3231 27.5545L13.0282 27.6253C12.9042 27.5297 12.9642 27.5648 12.8478 27.5137L12.7767 27.5462C12.8445 26.694 12.3132 26.2553 11.4368 26.4819C10.8255 26.6394 11.037 27.8869 11.3573 28.3001C11.6293 28.7457 12.4336 29.3462 12.9895 29.3607C17.7056 29.4858 17.7058 23.3235 18.1995 20.0769C18.5864 17.5292 19.357 15.552 21.3885 14.1204C22.9445 13.0251 24.876 12.5934 26.761 12.919C31.1485 13.7146 33.5656 18.6414 34.5285 22.5185C34.6511 23.0129 34.7992 24.2695 34.912 24.4306C35.1919 24.1213 35.0858 22.354 35.0737 21.8738C34.994 18.749 34.702 15.4018 33.0953 12.636C32.3819 11.4081 31.4462 10.0811 29.9875 9.72424C27.8142 9.20808 27.7974 10.7416 27.2042 11.1084L27.103 10.981C26.4179 7.59797 29.9685 6.80132 32.2682 8.36265C34.1106 9.61374 34.8546 11.9577 35.2847 14.0336C35.8207 11.2519 36.4368 8.40367 39.4752 7.48991C41.0617 7.01268 42.9172 7.76399 43.3792 9.44584C43.4645 9.75666 43.4672 10.3154 43.2901 10.582C42.897 10.4962 42.3513 9.46295 41.3739 9.40236C40.4872 9.34725 39.6741 9.57971 38.9894 10.1863C36.6144 12.2874 36.0587 16.5456 35.7214 19.5519C35.573 20.8719 35.6643 22.3381 35.5728 23.6114C35.4397 24.1224 35.5199 24.7656 35.5691 25.2948C35.7283 24.6704 35.7788 24.3664 35.8534 23.7235C36.7058 19.9542 38.1024 15.8285 41.5045 13.6376C43.0379 12.6328 44.9771 12.2975 46.7751 12.8075C50.0612 13.731 51.7433 16.2574 52.3674 19.4988C53.0263 22.9249 52.4371 28.2298 56.5182 29.6905C57.7612 30.1352 59.155 29.4556 59.6065 28.2164C59.5232 27.7235 59.4962 27.5784 59.3189 27.0958L59.2045 27.0506C58.6175 26.8238 58.0072 26.7335 57.7129 27.4432C57.7414 27.9602 58.2425 28.239 58.6441 28.4984L58.6524 28.6158C57.6634 29.0128 55.961 26.8848 58.7399 25.7687C61.5863 26.1539 62.0903 28.8748 59.9592 30.6177C59.606 30.9062 59.0655 31.0279 58.6193 31.1515Z" fill="#261600" fill-opacity="0.3"/>
<path d="M43.4273 27.6624C42.8098 27.6788 42.5307 27.5097 41.8446 27.6604C40.8953 27.8683 40.4021 28.246 39.6043 28.7314C37.6432 29.9239 36.5913 31.466 35.4144 33.3651C35.0857 30.7949 35.6801 26.5489 37.39 24.5606C37.7477 24.0976 38.1696 23.6881 38.6428 23.344C39.8923 22.4251 40.907 22.1902 42.4292 22.4384C40.8028 23.5995 41.6428 24.0725 40.45 25.3729C40.3331 25.5011 39.3863 25.8276 39.1882 25.9771C38.6308 26.3952 37.8526 27.0805 37.6986 27.7722L37.7675 27.8392C38.5453 27.2639 38.9702 26.7656 39.9164 26.4011C41.1997 25.9079 42.9983 26.1694 43.4273 27.6624Z" fill="#261600" fill-opacity="0.3"/>
<path d="M34.6346 33.1347C34.3616 33.0998 34.2884 32.6455 34.0708 32.2948C33.2388 30.9637 32.1389 29.818 30.8425 28.9321C29.3157 27.9097 28.5645 27.4124 26.7769 27.7704C26.9054 27.4733 27.0294 27.1738 27.1501 26.8731C29.1744 25.5019 30.9318 26.417 32.6517 27.7318C32.0222 26.832 31.7148 26.4569 30.7235 25.9065C29.463 24.9836 29.5247 24.9095 29.0935 23.3938C29.0274 23.161 28.4224 22.8129 28.4077 22.5174C28.9415 22.0879 30.5793 22.4864 31.1309 22.8561C34.4821 25.1023 34.9916 29.4362 34.6346 33.1347Z" fill="#261600" fill-opacity="0.3"/>
</svg>
