<svg width="198" height="120" viewBox="0 0 198 120" fill="none" xmlns="http://www.w3.org/2000/svg">
<path d="M197.864 0H0.000976562V120H197.864V0Z" fill="#E0985C"/>
<path d="M70.4562 45.5564L11.1462 116.611C9.08077 117.775 6.87323 120 0 120V0C2.51191 0 4.40095 0.297347 5.88678 0.73141C8.4675 1.4849 9.83602 2.64955 11.1462 3.3889L54.8507 34.4613L70.1305 45.3252L70.4562 45.5564Z" fill="#D7BA90"/>
<path d="M197.864 0V120C190.992 120 188.783 117.775 186.718 116.612L131.217 49.8798L127.516 45.4285L127.595 45.3721L127.661 45.3253L142.961 34.4605L186.718 3.38899C188.028 2.64964 189.397 1.48407 191.978 0.7315C193.464 0.297345 195.352 0 197.864 0Z" fill="#D7BA90"/>
<path d="M197.864 116.485V120H0.000732422V116.485C9.45321 105.291 43.9807 70.715 69.5989 45.3252H128.266C153.884 70.715 188.411 105.291 197.864 116.485Z" fill="#FEFCF3"/>
<path d="M197.864 120H0.000732422C0.000732422 117.247 41.098 75.0082 70.3161 45.3252H127.549C127.564 45.3408 127.579 45.3564 127.595 45.372C128.938 46.7364 130.306 48.1276 131.695 49.5403C160.498 78.8492 197.864 117.375 197.864 120Z" fill="#D7BA90"/>
<path d="M142.961 34.46L127.661 45.3247H70.1305L54.8506 34.4608L142.961 34.46Z" fill="url(#paint0_linear_137_7061)"/>
<path d="M197.864 0.935924V0H0.000976562V0.935924C0.000976562 1.04714 90.1283 73.5748 90.1283 73.5748C92.6518 75.6252 95.7443 76.7377 98.9241 76.7377C100.52 76.7377 102.093 76.4573 103.582 75.9197C105.072 75.3821 106.479 74.5874 107.743 73.5551L197.864 0.935924Z" fill="#FEFCF3"/>
<path d="M197.864 0H0.000976562C0.000976562 0.104936 90.1283 69.4309 90.1283 69.4309C92.6518 71.3658 95.7443 72.4158 98.9241 72.4158C100.52 72.4158 102.093 72.1511 103.582 71.6437C105.072 71.1364 106.479 70.3864 107.743 69.4123L185.805 9.28805L197.864 0Z" fill="#D7BA90"/>
<defs>
<linearGradient id="paint0_linear_137_7061" x1="99.0131" y1="45.6006" x2="98.9017" y2="34.0366" gradientUnits="userSpaceOnUse">
<stop stop-color="#D1D3D4"/>
<stop offset="0.0792" stop-color="#D8D9DA"/>
<stop offset="0.4032" stop-color="#EDEEEE"/>
<stop offset="0.7154" stop-color="#FBFBFB"/>
<stop offset="1" stop-color="white"/>
</linearGradient>
</defs>
</svg>
