<svg width="869" height="877" viewBox="-2 -3 869 877" fill="none" xmlns="http://www.w3.org/2000/svg">
<path d="M247.956 406.774C294.773 400.457 302.865 365.695 285.995 333.923C271.574 306.866 239.477 296.881 213.859 304C182.478 312.752 161.01 339.038 159.189 370.657C158.861 376.419 159.129 382.151 159.129 387.914C137.751 387.668 115.776 364.154 113.328 344.986C109.864 318.391 122.225 298.144 141.394 280.794C158.771 265.109 178.059 251.303 195.854 236.017C227.265 209.022 255.062 179.684 262.049 138.451C269.155 96.5707 258.795 42.98 207.977 17.4944C195.168 11.0844 181.105 5.35247 166.922 3.0412C135.034 -2.2285 103.027 -0.81092 71.9147 8.55744C55.7019 13.4573 50.1185 20.2062 51.492 34.721C51.9697 39.7442 51.5816 44.8598 51.5816 53.3653L9.30292 43.5655C15.3939 62.4871 23.1271 83.6584 28.8001 105.292C33.9655 125.015 27.337 143.135 16.9465 160.732C10.0792 172.38 4.88397 185.139 1.09203 197.928C-0.789013 204.338 2.28635 212.011 5.18256 219.222C8.82521 197.496 25.5456 188.498 43.8783 180.239C70.9294 168.004 88.4559 148.775 91.5612 118.944C124.554 127.788 156.114 140.3 190.928 136.355L192.869 139.53C180.388 151.271 168.117 163.197 155.367 174.661C138.498 189.792 119.986 203.475 104.31 219.53C69.7052 255.062 52.537 295.987 66.7195 344.123C73.3181 366.466 87.5901 383.785 109.147 397.005C137.811 414.54 168.863 415.495 200.96 412.691C216.665 411.304 232.281 408.839 247.956 406.713M454.901 618.271C447.018 632.169 439.882 646.376 432.328 660.737C424.834 646.376 417.668 632.169 409.756 618.271C399.126 599.534 381.779 586.036 363.924 573.895C348.876 563.663 331.618 556.144 315.077 547.823C300.327 540.397 285.398 533.185 270.2 526.652C265.722 524.741 259.78 524.526 254.824 525.235C241.597 527.145 228.579 529.98 212.933 532.877C219.89 537.161 225.085 541.105 230.937 543.817C253.331 554.172 276.411 563.355 298.386 574.48C319.585 585.174 340.754 596.36 360.013 609.673C380.824 624.034 396.738 642.585 398.111 671.153C372.254 645.143 346.009 648.995 320.75 668.194C304.776 680.367 296.654 702.802 304.447 723.973C313.464 748.565 327.438 765.668 374.285 764.713C368.522 780.152 366.313 795.807 377.061 809.737C384.257 819.013 392.319 828.504 402.172 835.068C415.668 844.067 425.61 854.699 432.298 871.525C439.016 854.637 448.989 844.036 462.425 835.068C472.278 828.504 480.34 818.982 487.535 809.737C498.314 795.807 496.045 780.152 490.312 764.713C537.159 765.668 551.132 748.534 560.15 723.973C567.942 702.802 559.821 680.367 543.847 668.194C518.587 648.934 492.283 645.143 466.486 671.153C467.859 642.616 483.803 624.065 504.584 609.673C523.842 596.36 545.041 585.174 566.211 574.48C588.186 563.386 611.206 554.172 633.6 543.817C639.511 541.105 644.707 537.161 651.604 532.877C636.018 529.98 622.94 527.114 609.713 525.235C604.727 524.526 598.756 524.772 594.337 526.652C579.079 533.154 564.21 540.397 549.46 547.823C532.919 556.144 515.691 563.663 500.613 573.895C482.698 586.006 465.411 599.565 454.781 618.271M791.428 69.0819C783.874 73.6428 776.648 79.2207 768.437 82.6722C735.445 96.5707 701.496 105.816 664.413 100.454C656.68 99.3134 654.649 96.6015 654.321 90.1299C652.35 50.4377 687.224 19.2817 734.818 25.9998C762.227 29.852 779.963 44.5516 791.488 69.0819M723.263 280.856C742.431 298.175 754.763 318.422 751.329 345.048C748.851 364.216 726.905 387.76 705.527 387.976C705.527 382.213 705.796 376.419 705.467 370.718C703.616 339.038 682.148 312.813 650.798 304.061C625.18 296.912 593.083 306.896 578.661 333.954C561.762 365.664 569.853 400.487 616.7 406.805C632.316 408.901 647.991 411.428 663.696 412.783C695.793 415.526 726.846 414.602 755.509 397.098C777.066 383.877 791.338 366.527 797.937 344.216C812.119 296.11 794.951 255.155 760.346 219.623C744.671 203.536 726.159 189.823 709.289 174.753C696.48 163.289 684.268 151.363 671.788 139.622L673.758 136.448C708.632 140.362 740.192 127.85 773.125 119.036C776.2 148.836 793.757 168.097 820.808 180.331C839.141 188.59 855.831 197.589 859.504 219.315C862.4 212.073 865.505 204.43 863.594 198.02C859.862 185.231 854.667 172.504 847.8 160.824C837.439 143.228 830.751 125.076 835.946 105.384C841.619 83.7508 849.352 62.6412 855.443 43.658L813.164 53.4577C813.164 44.9523 812.746 39.8675 813.254 34.8135C814.627 20.2987 809.074 13.5498 792.831 8.64989C761.749 -0.718469 729.712 -2.13605 697.824 3.13365C683.641 5.47574 669.578 11.1769 656.769 17.5868C605.921 43.0108 595.591 96.6631 602.697 138.543C609.713 179.776 637.481 209.114 668.892 236.11C686.687 251.426 705.975 265.201 723.352 280.887M200.214 100.454C163.13 105.816 129.182 96.5398 96.1891 82.6722C87.9484 79.1899 80.7527 73.6428 73.1688 69.0819C84.6342 44.5516 102.429 29.852 129.839 25.9998C177.372 19.3434 212.246 50.4377 210.335 90.1299C210.007 96.5398 207.977 99.3134 200.244 100.454H200.214ZM199.318 379.347C200.064 359.747 210.186 350.194 235.565 348.407L202.662 382.275L199.288 379.378L199.318 379.347ZM629.091 348.438C654.47 350.256 664.622 359.747 665.339 379.378L661.965 382.275L629.061 348.407L629.091 348.438ZM350.787 464.125C392.767 430.565 411.278 385.942 418.265 335.834C427.402 270.656 424.535 205.324 425.162 139.992C425.222 134.969 425.162 129.915 425.162 124.029H439.524V139.992C440.121 205.324 437.315 270.717 446.391 335.834C453.408 385.942 471.86 430.565 513.87 464.125C540.921 485.758 571.466 503.016 606.638 511.706C623.179 515.805 640.079 518.701 656.381 523.416C666.742 526.406 677.789 530.165 685.97 536.452C704.781 550.905 717.172 569.888 723.233 591.892C730.638 618.949 731.951 645.76 718.545 671.862C710.245 687.948 698.69 700.86 682.208 710.753C670.235 717.933 658.621 722.217 644.677 719.782C645.274 715.406 647.155 711.307 645.931 708.318C643.214 701.847 640.258 694.204 634.734 690.444C630.733 687.794 621.388 688.873 616.133 691.4C602.368 697.994 596.516 716.115 603.085 729.489C611.654 746.932 629.151 753.742 647.693 754.698C662.353 755.468 677.998 752.664 692.061 748.288C742.73 732.509 778.798 703.079 790.323 652.848C830.87 651.091 850.158 637.716 849.024 614.665C842.515 614.234 835.379 615.436 830.363 612.94C824.57 610.074 819.494 604.619 816.12 599.195C811.881 592.354 809.731 584.403 806.626 576.945C795.578 550.135 772.618 537.253 742.67 540.489C740.61 540.735 737.744 538.393 735.893 536.637C711.947 513.339 686.747 491.983 651.485 483.817C639.273 481.012 627.658 476.02 614.073 471.459C647.513 468.655 670.982 454.294 691.106 429.055C681.163 429.055 674.475 429.425 667.876 428.962C656.321 428.161 646.05 429.733 635.212 434.848C624.165 440.118 611.027 442.707 598.457 444.155C581.08 446.189 564.748 439.533 550.744 431.459C539.219 424.802 528.59 414.756 521.573 403.97C497.478 367.02 490.879 325.417 489.566 283.291C488.043 234.353 488.282 185.447 487.804 136.448C487.655 118.512 488.76 117.588 507.51 116.047C511.332 125.415 514.109 134.969 518.976 143.474C528.739 160.454 544.952 171.055 563.613 178.852C580.244 185.786 592.635 195.832 594.695 214.692C597.83 208.405 601.383 201.379 599.86 195.493C596.546 182.951 592.038 170.285 585.439 158.975C574.213 139.776 566.091 120.331 572.212 98.4505C578.004 77.6799 585.35 57.2174 591.022 39.775C579.975 41.7781 565.494 44.3359 551.073 47.1095C548.505 47.5717 545.668 48.4346 543.668 49.9138C533.486 57.1866 523.215 64.4286 513.571 72.2561C502.196 81.5628 488.431 84.5212 473.442 87.7878C469.77 75.2761 466.933 63.5349 462.664 52.2559C461.38 48.9276 456.304 44.829 452.661 44.6133C445.884 44.151 439.106 44.151 432.298 44.1818C425.491 44.1202 418.713 44.1818 411.995 44.6133C408.352 44.8598 403.277 48.9276 401.993 52.2559C397.723 63.5349 394.887 75.2145 391.214 87.7878C376.285 84.5212 362.521 81.5628 351.085 72.2561C341.471 64.3669 331.2 57.1866 321.018 49.9138C318.988 48.4346 316.181 47.6333 313.614 47.1095C299.192 44.3667 284.681 41.7781 273.664 39.775C279.337 57.2174 286.652 77.6799 292.474 98.4505C298.565 120.269 290.504 139.776 279.247 158.975C272.619 170.285 268.11 182.951 264.826 195.493C263.273 201.379 266.797 208.375 269.991 214.692C272.052 195.832 284.443 185.724 301.073 178.852C319.734 171.055 335.947 160.454 345.711 143.474C350.607 134.969 353.354 125.415 357.176 116.047C375.927 117.557 377.032 118.512 376.882 136.448C376.434 185.385 376.643 234.353 375.121 283.291C373.837 325.479 367.208 367.082 343.113 403.97C336.097 414.725 325.467 424.802 313.942 431.459C299.939 439.533 283.577 446.189 266.199 444.155C253.659 442.676 240.552 440.118 229.444 434.848C218.606 429.702 208.335 428.192 196.78 428.962C190.152 429.394 183.463 429.055 173.521 429.055C193.645 454.294 217.113 468.655 250.554 471.459C236.909 476.02 225.294 481.012 213.142 483.817C177.91 491.983 152.71 513.339 128.734 536.637C126.943 538.393 124.076 540.735 121.956 540.489C92.009 537.253 69.0782 550.135 58.001 576.945C54.9256 584.403 52.746 592.354 48.5062 599.195C45.1323 604.619 40.0863 610.074 34.264 612.94C29.2479 615.405 22.1119 614.234 15.6029 614.665C14.4385 637.716 33.7565 651.091 74.3033 652.848C85.8285 703.048 121.897 732.54 172.565 748.288C186.628 752.664 202.274 755.468 216.934 754.698C235.446 753.742 252.972 746.963 261.542 729.489C268.14 716.115 262.288 698.025 248.494 691.4C243.239 688.873 233.834 687.732 229.892 690.444C224.309 694.204 221.413 701.847 218.696 708.318C217.442 711.277 219.353 715.406 219.95 719.782C205.946 722.217 194.332 717.933 182.418 710.753C165.937 700.86 154.352 687.917 146.082 671.862C132.616 645.76 133.929 618.949 141.394 591.892C147.425 569.827 159.876 550.843 178.656 536.452C186.808 530.165 197.855 526.467 208.245 523.416C224.548 518.701 241.447 515.805 257.989 511.706C293.191 503.016 323.765 485.758 350.787 464.125Z" stroke="#9C794F" stroke-width="1.0301" stroke-linecap="square" stroke-linejoin="bevel"/>
</svg>
